<svg width="77" height="369" fill="none" xmlns="http://www.w3.org/2000/svg">
  <g clip-path="url(#a)">
    <path d="M20.8 170.6a.7.7 0 0 1-.8-.7v-.3c-.8.6-1.9 1-3 1h-5.2a.8.8 0 0 1-.6-.3.7.7 0 0 1-.2-.6l3.6-31h-.1a.7.7 0 0 1-.7-.5v-.3l.7-8.7a.7.7 0 0 1 .8-.7H18l.5-5a.8.8 0 0 1 .6-.7.7.7 0 0 1 .8.5 1.5 1.5 0 0 0 .8 1c.6.3 1.1.4 1.7.4H33a.8.8 0 0 1 .5.2l.2.6-.3 3h2.7a.8.8 0 0 1 .5.2.7.7 0 0 1 .2.6l-.7 7.9 4.2-13.8a.8.8 0 0 1 .7-.6.8.8 0 0 1 .7.7 1 1 0 0 0 .5.8c.2.2.6.3 1 .3h10.2a.7.7 0 0 1 .5.3.6.6 0 0 1 .5-.2.8.8 0 0 1 .6.2 25.1 25.1 0 0 1 4.4 7.5 30 30 0 0 1 2 9c0 .2-.1.2-.2.3a.8.8 0 0 1-.5.3H48a.7.7 0 0 1-.2-1.5 1.3 1.3 0 0 0 1-.6l.7-1.4v-.4a8 8 0 0 1-1.3 1.9 6.3 6.3 0 0 1-4.8 2h-7.8l-1.3 14.2h.3l24.3 3.4a.8.8 0 0 1 .7.8l-.8 8.8a.8.8 0 0 1-.3.5l-.4.2H58l-24.3-3.4-.4-.1a5.6 5.6 0 0 1-3.2 3.8l-2 .3h-7.3Zm1.8-5.2a6.2 6.2 0 0 1-1.8 3.6c.6-.2 1-.5 1.5-1a4 4 0 0 0 .7-2l1.3-15.4-1.7 14.8Zm12.3-25h.2l.6-2c-.1.2-.3.2-.4.2h-9.6l-.2 1.7h9.4Zm23.3 15.8-22.6-3.3a.7.7 0 0 1-.6-.8l.8-8.8a.7.7 0 0 1 .7-.7h.1l22.6 3.2a.7.7 0 0 1 .7.8l-.8 8.9a.7.7 0 0 1-.3.5l-.5.2Z" fill="#3E3A39"/>
    <path d="M41 123.6a1.8 1.8 0 0 0 .7 1.3c.4.4 1 .5 1.5.5h10.1l-3.1 9.6a12 12 0 0 1-2.6 4.5 5.5 5.5 0 0 1-4.2 1.7h-7.7l5.3-17.6Zm-21.8 0a2.3 2.3 0 0 0 1.2 1.4c.6.3 1.3.4 2 .4h10.5l-.3 3.9H36l-.7 8.6H25l-.3 3.2h10.2l-2.1 24.2a5 5 0 0 1-3 4.2l-1.7.3h-7.3c.8-.2 1.6-.7 2-1.4.6-.7.8-1.5 1-2.4l1.3-16.2h-1.5l-1.8 15.5a5.4 5.4 0 0 1-1.6 3.2 4.4 4.4 0 0 1-3.2 1.3h-5.2l3.6-31.9h-1l.8-8.6h3.5l.4-5.7Zm35.2 1.8a22.4 22.4 0 0 1 4.3 7.4 29.4 29.4 0 0 1 2 8.4H48a2 2 0 0 0 1.4-.9c.3-.4.5-1 .7-1.5l4.3-13.3Zm-17.9 18 22.6 3.2-.7 8.9-22.6-3.3.7-8.8Zm-2 13.6 24.3 3.3-.8 8.8-24.2-3.3.7-8.8Zm-15.4-34.9H19a1.5 1.5 0 0 0-1.4 1.4l-.3 4.3h-2.1a1.5 1.5 0 0 0-1.5 1.4l-.8 8.6a1.5 1.5 0 0 0 .4 1.2c.2 0 .3.2.5.3l-3.5 30.4a1.5 1.5 0 0 0 1.4 1.6H17a6 6 0 0 0 2.6-.5 1.5 1.5 0 0 0 1.2.5H28a6 6 0 0 0 4.3-1.7c.7-.6 1.2-1.4 1.5-2.3l24 3.3h.2a1.5 1.5 0 0 0 1.5-1.3l.8-8.8a1.5 1.5 0 0 0-1.3-1.7l-23.9-3.3.2-2 .2.1 22.6 3.3h.2c.4 0 .7-.1 1-.3a1.4 1.4 0 0 0 .5-1l.8-8.9a1.5 1.5 0 0 0-1.3-1.6l-16.8-2.4h.9c1.1 0 2.2-.2 3.3-.7a1.5 1.5 0 0 0 1.2.7h12.7a1.5 1.5 0 0 0 1.4-1l.1-.6a25.6 25.6 0 0 0-2-9 28 28 0 0 0-4.6-7.7 1.5 1.5 0 0 0-1.2-.5H43.1c-.2 0-.4 0-.5-.2a.3.3 0 0 1-.2-.3 1.5 1.5 0 0 0-1.3-1.3h-.2a1.5 1.5 0 0 0-1.4 1l-2 6.9v-.8a1.5 1.5 0 0 0-1.5-1.5h-1.8l.2-2v-.3a1.5 1.5 0 0 0-1.5-1.5H22.3c-.5 0-1 0-1.4-.3a.8.8 0 0 1-.4-.5 1.5 1.5 0 0 0-1.4-1Zm7.3 17.4h8.2v.2h-8.3v-.2Z" fill="#fff"/>
    <path d="M49.8 219.6a.5.5 0 0 1-.5-.3.8.8 0 0 1-.2-.6l.3-4c-.4 1.1-1 2.1-1.8 3a7.4 7.4 0 0 1-5.3 1.9h-4.9a.5.5 0 0 1-.5-.3.8.8 0 0 1-.6.3h-7a.7.7 0 0 1-.8-.7v-.4l-1 .6a8 8 0 0 1-2.6.5h-9.4a.8.8 0 0 1-.6-.3 4 4 0 0 1-.8 0h-2.3a.7.7 0 0 1-.5-.2.8.8 0 0 1-.2-.5l.9-10.3a.8.8 0 0 1 .6-.7l-.2-.2a.7.7 0 0 1-.2-.5l.8-8.7a.8.8 0 0 1 .5-.7.7.7 0 0 1-.7-.8l.8-8.7a.8.8 0 0 1 .7-.7h2v-2.1h-1.5a.8.8 0 0 1-.6-.3.8.8 0 0 1-.2-.5l.8-8.6a.7.7 0 0 1 .7-.7h5l.3-2.3a.7.7 0 0 1 .6-.7h.1a.7.7 0 0 1 .7.3c.1.3.4.5.6.6.3.2.6.2 1 .2h11c.2 0 .4.1.5.3a.8.8 0 0 1 .2.5v1.1h5v-.1a.7.7 0 0 1 .6-.7l20.5-.3a.7.7 0 0 1 .7.8l-.8 9.7a.7.7 0 0 1-.8.7l-8.5.4-.2 2h8.9a.8.8 0 0 1 .7.8l-.8 9.7a.8.8 0 0 1-.8.7h-.4L58.2 215a5 5 0 0 1-1.5 3.6c-1 .7-2.2 1-3.4 1h-3.5Zm-19.2-3.2a7 7 0 0 1-1.1 1.3l-.4.3c.4 0 .8-.2 1-.5.3-.3.5-.7.5-1.1Zm3.8-8.7a3.2 3.2 0 0 1 2.4 1.1l.7 1 .1-2.2h-5.4v.2h2.2Zm5-20.4.2-2.2h-3.7a3.5 3.5 0 0 1 1.6 2.2h1.9Zm-12 0 .1-2v-.2h-3l.7.5c.5.5.8 1 1 1.7h1.2Z" fill="#3E3A39"/>
    <path d="m21.6 172.8 1 .8c.4.2.8.3 1.3.3h11l-.2 1.9h5.8l-.8 8.6H15l.7-8.6h5.8l.3-3Zm40 1.8-.8 9.7-9.2.5-.3 3.4H61l-1 9.8h-1l-1.6 16.9a4.3 4.3 0 0 1-1.3 3c-.8.7-1.8 1-2.8 1h-3.6l1.8-20.9h-1.2L49 212.4c0 1.7-.8 3.4-2 4.7a6.7 6.7 0 0 1-4.9 1.7h-4.8l3.8-43.8 20.4-.4Zm-27.5 10.8a2.6 2.6 0 0 1 1.9.8c.5.4.8 1.1.8 1.8h2.7l-.8 8.7h-6.3l-.1 1.5h6l-.7 8.7h-6.1l-.6 6.3a5.8 5.8 0 0 1-2 4c-.5.4-1.1.8-1.8 1.1a6 6 0 0 1-2.3.5h-9.3a6 6 0 0 0 1.8-1.3c.4-.7.7-1.4.7-2.1l.8-8.5h-5.9l.8-8.7h5.8l.1-1.5h-6l.7-8.7h2.6l.2-2.6H23a2.7 2.7 0 0 1 2.7 2.6h2.5l.2-2.6h5.8Zm-16.2 21.9-.8 8.5c0 .8-.4 1.5-1 2a3 3 0 0 1-2 .8h-2.3l.9-10.3h3.6c.3 0 .6 0 1-.2a1 1 0 0 0 .6-.8Zm16.4 1.2a2.6 2.6 0 0 1 2.6 2.8l-.7 7.5h-7a2 2 0 0 0 1.5-.8c.4-.4.6-1 .6-1.6l.7-8h2.3Zm-12.8-37.3h-.3a1.5 1.5 0 0 0-1.2 1.4l-.1 1.6h-4.4a1.5 1.5 0 0 0-1.5 1.4l-.7 8.6a1.5 1.5 0 0 0 .4 1.1 1.5 1.5 0 0 0 1 .5h.8v.6h-1.3a1.5 1.5 0 0 0-1.4 1.4l-.8 8.7c0 .4 0 .7.3 1l-.1.5-.8 8.6v.7l-.2.8-1 10.3a1.5 1.5 0 0 0 .5 1.1 1.5 1.5 0 0 0 1 .5h3l.7.2h9.4c1 0 2-.2 2.8-.5l.3-.1a1.5 1.5 0 0 0 1.2.6h13.2c2 .1 4.1-.6 5.7-2l.3-.4v.8a1.6 1.6 0 0 0 .3 1.2 1.5 1.5 0 0 0 1.1.5h3.6a6 6 0 0 0 3.9-1.2A5.7 5.7 0 0 0 59 215l1.4-15.5a1.5 1.5 0 0 0 1.2-1.3l.8-9.8a1.6 1.6 0 0 0-.4-1.1 1.5 1.5 0 0 0-1-.5h-8v-.6l7.9-.3a1.5 1.5 0 0 0 1.4-1.4l.8-9.6a1.5 1.5 0 0 0-1.5-1.8l-20.4.4a1.5 1.5 0 0 0-1.3.8h-3.6v-.4a1.5 1.5 0 0 0-1.5-1.5h-11l-.6-.1a.8.8 0 0 1-.3-.3 1.5 1.5 0 0 0-1.3-.7Zm16.1 14.6h1v.7H38l-.3-.7Zm-11.2 0h.3v.5l-.2-.5Z" fill="#fff"/>
    <path d="M49.8 268.8a.5.5 0 0 1-.5-.3.8.8 0 0 1-.2-.6l.3-4a7 7 0 0 1-4.3 4.5c-.9.3-1.8.5-2.8.4h-4.9c-.2 0-.4 0-.5-.2a.8.8 0 0 1-.6.2h-7a.7.7 0 0 1-.8-.7v-.4a6.6 6.6 0 0 1-3.6 1.1h-9.4a.7.7 0 0 1-.6-.2 4 4 0 0 1-.8 0h-2.3a.7.7 0 0 1-.5-.2.8.8 0 0 1-.2-.6l.9-10.3a.8.8 0 0 1 .6-.6l-.2-.2a.8.8 0 0 1-.2-.6l.8-8.7a.7.7 0 0 1 .5-.6.8.8 0 0 1-.5-.3.7.7 0 0 1-.2-.5l.8-8.7a.7.7 0 0 1 .7-.7h2v-2.2h-1.5a.7.7 0 0 1-.7-.5v-.3l.7-8.6a.8.8 0 0 1 .7-.7h5l.3-2.3a.8.8 0 0 1 .6-.7h.1a.8.8 0 0 1 .7.4l.6.6 1 .2h11a.8.8 0 0 1 .7.5v1.3h5v-.1a.7.7 0 0 1 .6-.7l20.5-.3a.8.8 0 0 1 .7.8l-.8 9.7a.7.7 0 0 1-.8.7l-8.5.4-.2 2h8.9a.8.8 0 0 1 .7.8l-.8 9.7a.8.8 0 0 1-.8.7h-.4l-1.4 16.2a5 5 0 0 1-1.5 3.6c-1 .7-2.2 1-3.4 1h-3.5Zm-19.2-3.2a7 7 0 0 1-1.1 1.3l-.4.3c.4 0 .8-.2 1-.5.3-.3.5-.7.5-1.1Zm3.8-8.7a3.2 3.2 0 0 1 2.4 1.1l.7 1 .1-2.1h-5.4 2.2Zm5-20.4.2-2.2h-3.7a3.5 3.5 0 0 1 1.6 2.2h1.9Zm-12 0 .1-2v-.2h-3l.7.5c.5.5.8 1 1 1.7h1.2Z" fill="#3E3A39"/>
    <path d="m21.6 222 1 .8c.4.2.8.3 1.3.3h11l-.2 1.9h5.8l-.8 8.6H15l.7-8.6h5.8l.3-3Zm40 1.8-.8 9.7-9.2.5-.3 3.5H61l-.9 9.7h-1l-1.6 16.9a4.3 4.3 0 0 1-1.3 3c-.8.7-1.8 1-2.8 1h-3.6l1.8-20.9h-1.2L49 261.6c0 1.7-.8 3.4-2 4.7a6.6 6.6 0 0 1-4.9 1.7h-4.8l3.8-43.8 20.4-.4Zm-27.5 10.8a2.6 2.6 0 0 1 1.9.8c.5.5.8 1.1.8 1.8h2.7l-.8 8.7h-6.3l-.1 1.5h6l-.7 8.7h-6.1l-.6 6.3a5.8 5.8 0 0 1-2 4 7 7 0 0 1-1.8 1.1 6 6 0 0 1-2.3.5h-9.3a6 6 0 0 0 1.8-1.3 4 4 0 0 0 .7-2.1l.8-8.5h-5.9l.8-8.7h5.8l.1-1.5h-6l.7-8.7h2.6l.2-2.6H23a2.7 2.7 0 0 1 2.7 2.6h2.5l.2-2.6h5.8Zm-16.2 21.9-.7 8.5a3 3 0 0 1-1 2 3 3 0 0 1-2 .8h-2.4l1-10.3h3.6c.3 0 .6 0 .9-.2a1 1 0 0 0 .6-.8Zm16.5 1.2a2.6 2.6 0 0 1 2.5 2.8l-.6 7.5h-7.1a2 2 0 0 0 1.6-.8c.3-.4.5-1 .5-1.5l.7-8h2.4Zm-12.8-37.2a1.5 1.5 0 0 0-1.5 1.4l-.1 1.6h-4.4a1.5 1.5 0 0 0-1.5 1.4l-.8 8.6a1.5 1.5 0 0 0 1.5 1.6h.8v.7h-1.3a1.5 1.5 0 0 0-1.5 1.3l-.7 8.7c0 .4 0 .8.2 1v.5l-.8 8.7v.6l-.2.8-1 10.3a1.5 1.5 0 0 0 1.5 1.6h2.9c.3.2.5.2.8.2H25c1 0 1.9-.2 2.8-.5l.2-.1a1.5 1.5 0 0 0 1.3.6h13.1c2.1.2 4.2-.6 5.8-2l.3-.4v.8a1.5 1.5 0 0 0 1.4 1.7h3.6c1.4 0 2.7-.4 3.8-1.2a5.7 5.7 0 0 0 1.8-4.1l1.4-15.6a1.5 1.5 0 0 0 1.2-1.3l.8-9.8a1.5 1.5 0 0 0-.9-1.5H53v-.6l8-.4a1.5 1.5 0 0 0 1.4-1.4l.8-9.6a1.5 1.5 0 0 0-1.4-1.7l-20.4.3a1.5 1.5 0 0 0-1.3.8h-3.7v-.4a1.5 1.5 0 0 0-1.5-1.4h-11l-.6-.2a.8.8 0 0 1-.3-.3 1.5 1.5 0 0 0-1.3-.7Zm16 14.6h1.2v.7H38l-.4-.7Zm-11.1 0h.3v.5c0-.2-.2-.3-.3-.5Z" fill="#fff"/>
    <path d="M11.8 318a.8.8 0 0 1-.6-.2.7.7 0 0 1-.2-.5l1-10.3a.8.8 0 0 1 .7-.7h15.5l.2-2.5h-14a.7.7 0 0 1-.5-.2.8.8 0 0 1-.2-.6l1-10.3a.8.8 0 0 1 .7-.7h14l.2-2.5H15a.8.8 0 0 1-.7-.8l1.5-17.1a.7.7 0 0 1 .6-.7h.1a.8.8 0 0 1 .7.4c.2.5.6 1 1 1.2a5 5 0 0 0 2 .4h8.6a.8.8 0 0 1 .5.2.7.7 0 0 1 .2.6l-.4 4h1.5l.6-6.8a.8.8 0 0 1 .6-.6h.1a.7.7 0 0 1 .7.3c.2.5.6 1 1.1 1.2.5.2 1 .4 1.5.4h13.3a.8.8 0 0 1 .6.2.8.8 0 0 1 .1.6l-.4 4.7h11.8l.6.3a.8.8 0 0 1 .2.6l-1 10.2a.8.8 0 0 1-.7.7H47.8l-.2 2.6h11a.8.8 0 0 1 .6.2.7.7 0 0 1 .2.6l-.9 10.3a.8.8 0 0 1-.7.6H46.6l-.3 2.5H59a.8.8 0 0 1 .6.3.8.8 0 0 1 .1.5l-.9 10.3a.8.8 0 0 1-.7.7H11.8Z" fill="#3E3A39"/>
    <path d="M32 271c.4.6.9 1 1.5 1.4.5.3 1.2.5 1.8.5h13.3l-.5 5.6h12.6l-.9 10.2H47.2l-.3 4h11.9l-1 10.3H46l-.4 4H59l-.9 10.3H11.8l.9-10.3h16.2l.3-4H14.5l.9-10.3H30l.4-4H15l1.5-17a4 4 0 0 0 1.4 1.5c.7.3 1.5.5 2.4.4h8.4l-.3 4.9h3l.6-7.5Zm0-1.5h-.3a1.5 1.5 0 0 0-1.2 1.4l-.2 2.4a1.5 1.5 0 0 0-1.5-1.2h-8.4c-.6 0-1.2 0-1.7-.2-.4-.3-.6-.6-.8-1a1.5 1.5 0 0 0-1.3-.7h-.4a1.5 1.5 0 0 0-1.1 1.3l-1.5 17a1.5 1.5 0 0 0 .9 1.6l.6.1h13.7v1H15.3a1.5 1.5 0 0 0-1.5 1.4l-.9 10.3a1.5 1.5 0 0 0 1.5 1.6h13v1H12.6a1.5 1.5 0 0 0-1.5 1.4l-.9 10.3a1.6 1.6 0 0 0 .4 1.1 1.5 1.5 0 0 0 1.1.5h46.4a1.5 1.5 0 0 0 1.5-1.4l.9-10.2v-.2a1.5 1.5 0 0 0-1.5-1.5H47.2l.1-1h10.5a1.5 1.5 0 0 0 1.5-1.4l1-10.2v-.2a1.5 1.5 0 0 0-1.6-1.5H48.5v-1h11.3a1.5 1.5 0 0 0 1.5-1.3l.9-10.3a1.5 1.5 0 0 0-1.5-1.7h-11l.3-3.8v-.2a1.5 1.5 0 0 0-1.5-1.5H35.3L34 271a2 2 0 0 1-.8-.9 1.5 1.5 0 0 0-1.3-.8v.1Z" fill="#fff"/>
    <path d="M11.7 367.4a.8.8 0 0 1-.6-.2.8.8 0 0 1-.2-.7l3.3-17.3a.8.8 0 0 1 .7-.6h12a.7.7 0 0 1 .6.3.7.7 0 0 1 .2.6l-2.3 10.7a9.1 9.1 0 0 1-2.8 5 8 8 0 0 1-2.5 1.7c-1 .3-2 .5-3 .5h-5.4Zm15.4-.2a.8.8 0 0 1-.6-.2.8.8 0 0 1-.2-.6l1.9-21a.7.7 0 0 1 .6-.6h.1a.7.7 0 0 1 .7.3c0 .2.2.4.4.4l1 .5a7 7 0 0 0 2.3.3H36l.2-2.1h-7.7c-.3 0-.5-.1-.6-.3l-.1-.1v.1a7.3 7.3 0 0 1-3.6 3.4c-.8.3-1.7.5-2.6.5h-6.5a.7.7 0 0 1-.7-.5v-.3l1.2-13.2v-.5l1.2-13.2a.7.7 0 0 1 .6-.7h.1a.8.8 0 0 1 .7.4c.3.6.7 1 1.2 1.4.4.3.9.5 1.4.5h8.6a.8.8 0 0 1 .5.2.8.8 0 0 1 .2.6l-.4 5.3c-.1.9-.4 1.7-.8 2.5a7 7 0 0 1-3.5 3.4c-.8.3-1.7.5-2.5.5h-5.5l.8.7c.4.3.9.5 1.4.5h8.8l.1-1a.8.8 0 0 1 .8-.7H37l.2-1.4-6.4.1a.7.7 0 0 1-.8-.8l.8-9a.7.7 0 0 1 .8-.8l29.2-.5a.7.7 0 0 1 .5.2.7.7 0 0 1 .2.6l-.8 9a.7.7 0 0 1-.7.7l-6.6.2-.1 1.7H61a.7.7 0 0 1 .7.8l-.7 9a.7.7 0 0 1-.8.7h-7.9l-.1 2.1h7a.7.7 0 0 1 .6.3.7.7 0 0 1 .2.5l-1.2 14c-.1.9-.4 1.7-.8 2.5-.4.7-1 1.4-1.6 1.9a7.2 7.2 0 0 1-4.8 1.8H27.1Zm18.6-9.9v-1h-5l-.1 1h5Z" fill="#3E3A39"/>
    <path d="M17.5 320.2c.3.6.8 1.2 1.4 1.6.6.4 1.2.6 1.9.6h8.6l-.5 5.4a5 5 0 0 1-.6 2.1c-.4.7-.8 1.3-1.4 1.8a6 6 0 0 1-4 1.7h-6.6l1.2-13.2Zm43.3 1.8-.8 9-7.2.1-.3 3.3h8.6l-.8 9h-8.6l-.3 3.6h8L58 361a5 5 0 0 1-.7 2.1A6.5 6.5 0 0 1 54 366c-.7.3-1.5.4-2.3.4H27l1.9-21c.1.3.4.5.7.7l1 .5 1.3.3h4.7l.3-3.6h-8.6l.8-9h8.6l.3-3-7.2.2.8-9 29.1-.6v.1Zm-14.2 33.5H40l-.2 2.6h6.6l.2-2.6Zm-30.4-21.6c.4.6.9 1.1 1.5 1.6.5.3 1.2.6 1.9.6H28l-.5 5.3c0 .8-.2 1.5-.6 2.2a6.5 6.5 0 0 1-3.2 3c-.7.3-1.4.4-2.2.4H15l1.2-13.1ZM27 349.4 24.7 360a8.5 8.5 0 0 1-5 6.1c-.8.4-1.7.6-2.6.6h-5.5l3.3-17.3h12Zm-9.4-30.7h-.3A1.5 1.5 0 0 0 16 320l-1.2 13.2v.5l-1.1 13.2a1.5 1.5 0 0 0 .4 1.1 1.5 1.5 0 0 0-.6 1l-3.2 17.4a1.5 1.5 0 0 0 1.4 1.8h5.5a9 9 0 0 0 3.2-.6 9.3 9.3 0 0 0 4.7-4.2c.5-.9.8-1.7 1-2.7l-.5 5.7a1.5 1.5 0 0 0 .4 1.1 1.5 1.5 0 0 0 1.1.5h24.7a7.9 7.9 0 0 0 5.2-2c.7-.6 1.3-1.3 1.8-2 .4-1 .7-1.8.8-2.8l1.2-14a1.5 1.5 0 0 0-1.5-1.6H53v-.6h7.3a1.5 1.5 0 0 0 1.5-1.4l.8-9v-.2a1.5 1.5 0 0 0-1.6-1.5h-6.9v-.2l6-.1a1.5 1.5 0 0 0 1.4-1.4l.8-9v-.2a1.5 1.5 0 0 0-1.5-1.5l-29.2.5a1.5 1.5 0 0 1-2.3-.1h-8.5c-.4 0-.7-.2-1-.4-.4-.3-.8-.7-1-1.1a1.5 1.5 0 0 0-1.3-.8Zm7.4 15.9.8-.3a7.8 7.8 0 0 0 3.7-3.4v.6a1.5 1.5 0 0 0 .4 1.2l.3.2h-.8a1.5 1.5 0 0 0-1.5 1.4v.3H25Zm5.6 10.3h4.9v.6h-2.1a9.8 9.8 0 0 1-2-.2l-.7-.4h-.1Zm-5.8 3a7.6 7.6 0 0 0 2.7-2.1l-.2 2h-2.5Z" fill="#fff"/>
    <path d="M35.4 121a.7.7 0 0 1-.6-.2.7.7 0 0 1-.2-.6l1.2-13a.8.8 0 0 1 .7-.7h6a.7.7 0 0 1 .6.2l.4-.1H47a.8.8 0 0 1 .6.2.7.7 0 0 1 .2.6l-.6 6.4v.7l-.2.2-.1.1-.1.2-.4.3-.1.1-.1.1-.4.2-.4.3h-1.6l-.3 4.3a.8.8 0 0 1-.8.7h-7.3Z" fill="#3E3A39"/>
    <path d="m42.5 107.2-.2 2.5h1l.2-2.3H47l-.6 6.7.1-.1v.4h-.2v.1l-.2.3H46v.1l-.3.2-.5.3h-2l-.4 5h-7.3l1.2-13.2h6l-.2.1Zm.2-1.6h-6a1.5 1.5 0 0 0-1.5 1.4L34 120a1.5 1.5 0 0 0 1.5 1.7h7.3a1.5 1.5 0 0 0 1.5-1.4l.3-3.5h.6c.2 0 .5 0 .7-.2l.5-.3.4-.2.2-.2.4-.4v-.1l.2-.3.2-.2v-.4c.2-.3.2-.6 0-.8l.6-6.2a1.5 1.5 0 0 0-.4-1.2 1.5 1.5 0 0 0-1-.5h-3.8c-.2 0-.4-.2-.7-.1h.2Z" fill="#fff"/>
    <path d="M24.3 121a.7.7 0 0 1-.7-.5v-.3l.1-2c0-.2.1-.3.3-.5l1.9-1.6h-1a.7.7 0 0 1-.6-.3.7.7 0 0 1-.2-.5l.7-8a.8.8 0 0 1 .8-.7H29l.4.1a.7.7 0 0 1 .6-.3h5.4a.7.7 0 0 1 .6.3.7.7 0 0 1 .2.5l-1 10.3-.1.5-2.7 2.8a.8.8 0 0 1-.5.2h-7.7Z" fill="#3E3A39"/>
    <path d="m35.5 107.2-.9 10.3-2.6 2.8h-7.7l.2-2 3.4-3h-3l.7-8H29l-.2 2.3h1l.1-2.4h5.5Zm0-1.5H30l-.7.1h-3.7a1.5 1.5 0 0 0-1.5 1.4l-.7 8a1.5 1.5 0 0 0 .7 1.4l-.7.6-.5 1-.1 2a1.5 1.5 0 0 0 1.5 1.6h7.6a1.5 1.5 0 0 0 1.2-.5l2.6-2.8c.2-.2.4-.6.4-.9l.9-10.2v-.2a1.5 1.5 0 0 0-1.5-1.5Z" fill="#fff"/>
    <path d="M36.7 107.1a.7.7 0 0 1-.6-.2.7.7 0 0 1-.2-.6l.4-4.8a.8.8 0 0 1 .4-.5l.5-.4a.8.8 0 0 1-.5-.2.8.8 0 0 1-.2-.6L37 95a.8.8 0 0 1 .3-.6l1.4-1 .4-.1h9a.7.7 0 0 1 .8.8v1.3a.8.8 0 0 1-.4.6l-.7.4h.1a.7.7 0 0 1 .8.8l-.3 3.4a.8.8 0 0 1-.4.6l-.3.2a.8.8 0 0 1 .5.8l-.3 4.2a.8.8 0 0 1-.8.7H36.7Z" fill="#3E3A39"/>
    <path d="m48.2 94-.1 1.4-2.5 1.6v.2H48l-.3 3.3-2.1 1.6h2l-.4 4.3H36.6l.5-4.8 2.3-1.6v-.1h-2.1l.4-4.9 1.4-1h9Zm0-1.5H39l-.9.3-1.4 1a1.5 1.5 0 0 0-.6 1.1l-.4 4.8.1.9c-.2.2-.3.5-.3.9l-.5 4.7a1.5 1.5 0 0 0 1.5 1.7H47a1.5 1.5 0 0 0 1.5-1.4l.3-4.2v-.2l-.1-.7.3-.7.3-3.4c0-.3 0-.7-.3-1 .3-.2.4-.5.4-.8l.1-1.3a1.5 1.5 0 0 0-1.5-1.6Z" fill="#fff"/>
    <path d="M25.5 107.1a.7.7 0 0 1-.6-.2.7.7 0 0 1-.2-.6l.5-4.8a.7.7 0 0 1 .3-.5l.5-.4a.8.8 0 0 1-.4-.2.7.7 0 0 1-.2-.6l.4-4.8a.7.7 0 0 1 .3-.6l1.4-1 .4-.1h8.8a.7.7 0 0 1 .5.2.8.8 0 0 1 .2.6l-.1 1.3a.8.8 0 0 1-.3.5l-.7.5h.1a.7.7 0 0 1 .6.3.8.8 0 0 1 .2.5l-.3 3.4a.8.8 0 0 1-.3.5l-.4.3c.2 0 .3 0 .4.2a.7.7 0 0 1 .1.6l-.3 4.2a.7.7 0 0 1-.8.7H25.5Z" fill="#3E3A39"/>
    <path d="M36.6 94v1.4L34.1 97v.2h2.2l-.3 3.3-2 1.6h2l-.5 4.3h-10l.4-4.8 2.3-1.6v-.1h-2.1l.4-4.9 1.4-1h8.7Zm0-1.5H28c-.3 0-.6.1-.8.3l-1.4 1A1.5 1.5 0 0 0 25 95l-.4 4.8c0 .3 0 .6.2.9-.2.2-.4.5-.4.9l-.4 4.7a1.6 1.6 0 0 0 .4 1.2 1.5 1.5 0 0 0 1 .5h10.2a1.5 1.5 0 0 0 1.5-1.4l.4-4.3c0-.2 0-.5-.2-.8.2-.2.3-.4.3-.7l.3-3.4c0-.3 0-.7-.2-1 .2-.2.3-.5.3-.8l.1-1.3V94a1.5 1.5 0 0 0-1.5-1.5Z" fill="#fff"/>
    <path d="M43.9 121a.7.7 0 0 1-.6-1.1c0-.2.2-.3.4-.3.7-.2 1.3-.6 1.7-1.1.5-.7.7-1.6.8-2.4L48 94.3h-9.3a.7.7 0 0 1-.7-.8L39.9 72a.8.8 0 0 1 .7-.7.7.7 0 0 1 .8.5s.1.2.8.5l1.8.3h9.4a.7.7 0 0 1 .5.2.7.7 0 0 1 .2.6L54 76a6.6 6.6 0 0 1 3.3-3c.7-.2 1.5-.4 2.3-.4H63a.7.7 0 0 1 .6.3.7.7 0 0 1 .2.5l-3.4 38.5a9.7 9.7 0 0 1-3.2 6.6 9.6 9.6 0 0 1-6.8 2.7h-6.5Zm8.6-35.2v-.4H50v.4h2.5Zm.4-5v-.3h-2.4v.4h2.4Z" fill="#3E3A39"/>
    <path d="M40.7 72a2 2 0 0 0 1.3.9c.6.2 1.3.3 2 .3h9.4l-.6 6.5h-3l-.2 2h4l.2-3.2.6-2 1.3-1.7c.5-.4 1-.8 1.7-1.1.7-.3 1.4-.4 2.1-.4H63L61.3 93l-1.6 18.7a9.6 9.6 0 0 1-9.3 8.6h-6.5c.8-.2 1.6-.7 2-1.4.6-.8 1-1.8 1-2.8l2-22.6H39L40.8 72h-.1Zm8.6 14.6h3.9l.2-1.9h-4l-.1 1.9Zm-8.6-16.1h-.2a1.5 1.5 0 0 0-1.3 1.4l-1.9 21.6a1.5 1.5 0 0 0 .9 1.5l.6.1h8.5l-1.9 21a4 4 0 0 1-.6 2 2 2 0 0 1-1.2.8 1.5 1.5 0 1 0 .3 3h6.5a11.4 11.4 0 0 0 9.7-6c.6-1.3 1-2.6 1-4l1.7-18.7 1.7-19.7v-.2a1.5 1.5 0 0 0-1.5-1.5h-3.5a7 7 0 0 0-4.7 1.8v-.2a1.6 1.6 0 0 0-.4-1.1 1.5 1.5 0 0 0-1-.5h-9.5a4.6 4.6 0 0 1-2-.5 1.5 1.5 0 0 0-1.3-.8Z" fill="#fff"/>
    <path d="M11.5 121a.8.8 0 0 1-.6-.2.8.8 0 0 1-.2-.6L15 71.4a.7.7 0 0 1 .7-.7.7.7 0 0 1 .7.6c0 .3.2.6.8.8.6.2 1.2.4 1.8.4h8.8a.8.8 0 0 1 .7.8l-.2 2.5a6.6 6.6 0 0 1 5.6-3.3h5.3a.8.8 0 0 1 .8.8l-1.2 13.5a8.3 8.3 0 0 1-8 7.6h-4.5l-1.6 18.2a9.6 9.6 0 0 1-9.4 8.5h-3.8Zm15.4-35.2v-.4h-2.4v.4h2.4Zm.4-5v-.3h-2.4v.4h2.4Z" fill="#3E3A39"/>
    <path d="M15.8 71.5a1.9 1.9 0 0 0 1.2 1.3c.7.3 1.3.4 2 .4h9l-.6 6.5h-3l-.2 2H28l.3-3.2c0-.6.2-1.3.6-2a6 6 0 0 1 3-2.8 5 5 0 0 1 2-.4h5.4L38 86.7a7.4 7.4 0 0 1-2.4 5L33.4 93c-.8.3-1.7.5-2.6.5h-5.1l-1.7 19a8.7 8.7 0 0 1-5.5 7.2c-1 .4-2 .6-3.1.6h-4l2.4-26.7.5-5.8 1.5-16.3Zm7.9 15h3.8l.2-1.8h-3.9l-.1 1.8Zm-8-16.5a1.5 1.5 0 0 0-1.4 1.4l-1.5 16.3-.5 5.8-2.3 26.7a1.5 1.5 0 0 0 .4 1.1 1.5 1.5 0 0 0 1 .5h4c1.2 0 2.5-.2 3.7-.7a10.6 10.6 0 0 0 5.3-4.9c.6-1.1 1-2.3 1-3.6L27 95.1h3.7c1.1 0 2.2-.2 3.2-.6 1-.5 2-1 2.7-1.8a8.8 8.8 0 0 0 3-5.8l1.1-13.4a1.5 1.5 0 0 0-1.5-1.8H34a7.4 7.4 0 0 0-4.6 1.8v-.1a1.5 1.5 0 0 0-1.5-1.7H19c-.5 0-1 0-1.4-.3l-.4-.2a1.5 1.5 0 0 0-1.4-1.2Z" fill="#fff"/>
  </g>
  <g clip-path="url(#b)">
    <path d="M40.1 61.1C20.3 61.1 4.2 49 4.2 34c0-15 16.1-27.1 36-27.1C59.8 6.9 76 19 76 34c0 15-16 27.1-35.9 27.1Z" fill="#fff"/>
    <path d="M40.1 7.6c19.4 0 35.2 11.8 35.2 26.4 0 14.6-15.8 26.4-35.2 26.4C20.7 60.4 5 48.6 5 34 5 19.4 20.7 7.6 40 7.6Zm0-1.5C20 6.1 3.5 18.6 3.5 34c0 15.4 16.4 27.9 36.6 27.9 20.2 0 36.7-12.5 36.7-27.9C76.8 18.6 60.3 6.1 40 6.1Z" fill="#3E3A39"/>
    <path d="M13.3 45S7 53.1.7 54.5c0 0 13.2 2.1 19.1-2.5" fill="#fff"/>
    <path d="M13.3 45S7 53.1.7 54.5c0 0 13.2 2.1 19.1-2.5" stroke="#3E3A39" stroke-width="1.5" stroke-linecap="round" stroke-linejoin="round"/>
    <path d="M18 42.4c-1 0-1.5-.5-1.1-1.5l3.4-10.6a1.3 1.3 0 0 1 1.2-.8h1.1c.3 0 .6 0 .8.2l.5.7L27.3 41a1 1 0 0 1 0 1 1 1 0 0 1-1 .3H26a1.3 1.3 0 0 1-1.3-1l-.6-2.3h-4.2l-.7 2.3a1.3 1.3 0 0 1-1.3 1Zm2.5-5.3h3l-.3-1.4-.7-2.6-.5-1.7-1.1 4.3-.4 1.4Zm12.8 5.6a3.7 3.7 0 0 1-2.6-1.3v.2a1 1 0 0 1-1.2.8c-.7 0-1-.3-1-1V29.7a1.3 1.3 0 1 1 2.5 0v3.8a4 4 0 0 1 2.7-1.2 3.4 3.4 0 0 1 2.8 1.4c.7 1 1 2.3 1 3.6 0 1.4-.4 2.8-1.3 4a3.7 3.7 0 0 1-3 1.4Zm-.6-2.2a1.8 1.8 0 0 0 1.5-.7c.5-.7.7-1.6.6-2.4 0-2-.6-3-2-3-.7.2-1.4.5-1.9 1v4.4a3 3 0 0 0 1.8.8ZM43 42.7a4.5 4.5 0 0 1-3.2-1.4 5.7 5.7 0 0 1 0-7.6 4.6 4.6 0 0 1 7.6 1.8c.3.6.4 1.3.3 2a5.2 5.2 0 0 1-1.4 3.8 4.5 4.5 0 0 1-3.3 1.4Zm0-2.1a1.8 1.8 0 0 0 1.6-.9 4.8 4.8 0 0 0 0-4.4 1.8 1.8 0 0 0-1.6-.8 1.7 1.7 0 0 0-1.5.8 4.8 4.8 0 0 0 0 4.4 1.8 1.8 0 0 0 1.5.9Zm9.1 2.1c-2 0-3-1.3-3-4V34a1.3 1.3 0 0 1 2.6 0v4.6c0 .5 0 1 .3 1.5a1.2 1.2 0 0 0 1 .5 2 2 0 0 0 1-.3c.4-.2.7-.6 1-1V34a1.3 1.3 0 0 1 2.6 0v7.5c0 .7-.4 1-1.1 1a1 1 0 0 1-1.1-1l-.1-.4a4 4 0 0 1-3.2 1.7Zm11.1 0c-2.1 0-3.2-1.3-3.2-3.7v-4.4h-.4c-.7 0-1-.3-1-1a.9.9 0 0 1 1-1h.5l.2-1.6a1 1 0 0 1 1.2-1c.7 0 1 .4 1 1v1.6H64a1 1 0 1 1 0 2h-1.4V39c0 1 .4 1.6 1.3 1.6a.9.9 0 0 1 1.1.8c.2.6 0 1-.5 1.1a6 6 0 0 1-1.3.2Z" fill="#3E3A39"/>
    <path d="M27 14.1c1.8 0 3.4-1.8 3.4-4.1s-1.6-4.2-3.5-4.2-3.4 1.9-3.4 4.2c0 2.3 1.5 4.1 3.4 4.1ZM49.2 13c1.9 0 3.4-2 3.4-4.2 0-2.3-1.5-4.2-3.4-4.2-2 0-3.5 1.9-3.5 4.2 0 2.3 1.6 4.1 3.5 4.1Z" fill="#fff"/>
    <path d="M30 1.2a10 10 0 1 0 0 20 10 10 0 0 0 0-20Zm-3 13c-2 0-3.5-2-3.5-4.2 0-2.3 1.5-4.2 3.4-4.2 2 0 3.5 1.9 3.5 4.2 0 2.3-1.6 4.1-3.5 4.1ZM52.3 0a10 10 0 1 0 0 20 10 10 0 0 0 0-20Zm-3.1 13c-2 0-3.5-2-3.5-4.2 0-2.3 1.5-4.2 3.5-4.2 1.9 0 3.4 1.9 3.4 4.2 0 2.3-1.5 4.1-3.4 4.1Z" fill="#3E3A39"/>
  </g>
</svg>