<svg width="20" height="27" xmlns="http://www.w3.org/2000/svg" xmlns:xlink="http://www.w3.org/1999/xlink">
  <defs>
    <path id="a" d="M20 27V0H0v27z"></path>
  </defs>
  <g transform="rotate(-180 10 13.5)" fill="none" fill-rule="evenodd">
    <mask id="b" fill="#fff">
      <use xlink:href="#a"></use>
    </mask>
    <path d="M18.779 26.255a1 1 0 0 1-1.156.725 1.02 1.02 0 0 1-.719-1.204l1.169-4.729v-9.93c0-.406-.207-.656-.45-.737-.124-.044-.256-.094-.401-.094-.124 0-.256.05-.38.094-.246.081-.44.331-.462.716v1.112c0 .55-.42.976-.94.976a.973.973 0 0 1-.987-.976V9.652c0-.407-.185-.654-.46-.77a1.46 1.46 0 0 0-.38-.062c-.135 0-.267.032-.378.063-.238.115-.441.362-.463.737v2.588a.963.963 0 1 1-1.927 0v-2.91c0-.425-.194-.684-.46-.79a1.178 1.178 0 0 0-.759 0c-.258.106-.44.344-.47.737v2.964c0 .55-.433.975-.966.975-.521 0-.944-.426-.944-.976V2.785c0-.406-.203-.666-.48-.769a.886.886 0 0 0-.38-.075.965.965 0 0 0-.38.075c-.274.103-.459.363-.459.769v15.593c0 .563-.44.957-.965.957a.944.944 0 0 1-.962-.957V14.11c-.021-.385-.197-.654-.462-.729-.102-.071-.235-.08-.38-.08-.123 0-.277.009-.379.08-.265.094-.463.344-.463.75v4.883c0 1.913.074 2.006 1.046 3.282l.277.365 2.103 2.763a.986.986 0 0 1-.175 1.363c-.42.322-1.033.26-1.342-.178l-2.112-2.763-.278-.353C.093 21.704 0 21.579 0 19.012v-4.881c0-1.332.74-2.204 1.671-2.579.37-.134.759-.219 1.107-.219.278 0 .552.044.842.157V2.785c0-1.35.728-2.204 1.66-2.579C5.657.053 6.02 0 6.385 0c.38 0 .75.053 1.107.206.934.375 1.662 1.229 1.662 2.579v3.832c.275-.081.574-.103.851-.103.358 0 .737.053 1.107.178.327.156.666.372.922.644.176-.116.318-.178.49-.241a2.88 2.88 0 0 1 1.089-.228c.367 0 .758.084 1.095.228.647.272 1.19.75 1.467 1.457.349-.126.716-.22 1.046-.22.379 0 .758.094 1.085.229.975.394 1.693 1.247 1.693 2.557v10.036a.833.833 0 0 1-.043.247l-1.178 4.854z" fill="#231815" mask="url(#b)"></path>
  </g>
</svg>