
<svg width="50" height="50" fill="none" xmlns="http://www.w3.org/2000/svg">
  <g clip-path="url(#a)">
    <path d="M24.85 48.7c13.172 0 23.85-10.678 23.85-23.85S38.022 1 24.85 1 1 11.678 1 24.85 11.678 48.7 24.85 48.7Z" fill="#3E3A39" stroke="#3E3A39" stroke-width="1.5" stroke-linecap="round" stroke-linejoin="round"/>
    <path d="M15.2 27.47c-.8523-.0027-1.6687-.3431-2.2704-.9467-.6017-.6035-.9396-1.421-.9396-2.2733V17.35c-.0009-.0743.0148-.1479.0459-.2153.0311-.0675.0769-.1272.134-.1747-.0679-.047-.1234-.1097-.1617-.1829-.0383-.0731-.0583-.1545-.0582-.2371v-4.3c0-.1326.0527-.2598.1464-.3536.0938-.0937.2209-.1464.3536-.1464h24.5799c.1238.0016.2427.0481.3347.1309.092.0828.1508.1962.1653.3191v.21c.0103.1732.0103.3468 0 .52v5c.0094.8962-.275 1.7708-.8099 2.49-.3744.4898-.8511.892-1.3969 1.1787-.5457.2867-1.1474.451-1.7632.4813h-11.24H34.85c.3976.0195.7951-.0402 1.1694-.1759.3743-.1356.7177-.3444 1.0105-.6141.0919-.0786.2092-.1212.3301-.12.0663-.0097.1336-.0097.1999 0 .0851.0395.1578.1012.2106.1787.0528.0774.0838.1677.0895.2613v5.16c.003.125-.0421.2465-.1257.3394-.0837.093-.1997.1504-.3244.1606h-.25c-.1732.0095-.3468.0095-.52 0H15.11l.09.21Z" fill="#fff"/>
    <path d="M37.0099 12.24c0 .23.06.45.06.68v5c.0087.791-.2405 1.5633-.7099 2.2-.3345.4326-.7591.7872-1.2443 1.0393-.4852.2521-1.0195.3957-1.5658.4207-.1965.0099-.3934.0099-.5899 0h-11.1v.95c.2 0 .4.07.59.08H34.9199c.9239.0391 1.8259-.2879 2.51-.91.06 1 0 1.8 0 2.63v2.5c-.2386.0357-.4789.0591-.7199.07h-21.5c-.361.004-.7191-.0641-1.0534-.2004-.3342-.1363-.6378-.3379-.8931-.5932-.2552-.2552-.4569-.5589-.5932-.8931-.1363-.3343-.2043-.6924-.2003-1.0533v-6.88h15.9099v-.81h-16v-4.23H37.0099Zm-.0499-1H12.3799c-.2652 0-.5195.1053-.707.2929-.1876.1875-.293.4419-.293.7071v4.27c.0023.1552.0365.3084.1001.45-.0419.1153-.0623.2373-.0601.36v6.91c-.0013.4859.0931.9673.2779 1.4167.1847.4494.4561.858.7988 1.2025.3426.3445.7498.6182 1.1982.8053.4484.1872.9293.2842 1.4152.2855h21.5799c.193.0161.387.0161.58 0h.24c.2475-.0249.4769-.1411.6433-.326s.258-.4252.2567-.674v-5.18c-.0078-.1894-.0692-.3727-.1772-.5285s-.2581-.2777-.4328-.3515c-.1245-.0474-.2568-.0712-.39-.07-.1055-.003-.2107.014-.3099.05v-.07c.5915-.8056.9072-1.7806.9-2.78v-5c.0005-.1944-.0163-.3885-.05-.58v-.19c-.0226-.2493-.1378-.4811-.3229-.6496-.1852-.1685-.4268-.2614-.6771-.2604l.01-.09Z" fill="#3E3A39"/>
    <path d="M26.21 37.93h-3.7801c-.9567.0368-1.9062-.1797-2.7525-.6274-.8464-.4478-1.5595-1.1109-2.0674-1.9226-.4324-.6495-.6686-1.4098-.6801-2.19v-5.75c.0032-.1201.0376-.2373.1-.34.0259-.0735.0669-.1409.1202-.1977.0534-.0568.1181-.1019.1899-.1323.0763-.0104.1536-.0104.2299 0 .0659-.0146.1341-.0146.2 0 .7521.3886 1.5948.5682 2.4401.52h6c.1326 0 .2597.0527.3535.1465.0937.0937.1465.2209.1465.3535v4.45h4c.2517.0247.5057-.0025.7465-.0799.2408-.0774.4633-.2033.6535-.3701.0772-.0457.1653-.0699.255-.0699s.1778.0242.255.0699c.0782.044.1434.1079.1891.1851.0456.0773.07.1652.0708.2549v5.17c-.0012.1196-.0453.2348-.1242.3247-.0789.0899-.1873.1486-.3057.1653h-.1401c-.1611.0353-.3251.0554-.49.06l-5.6099-.02Z" fill="#fff"/>
    <path d="M17.5199 27.24c.8253.4297 1.7509.63 2.6801.58h6v4.92h4.4599c.2982.0288.5992-.0033.8845-.0945.2854-.0911.5492-.2392.7755-.4355v5.17c-.185.0372-.372.064-.56.08H22.46c-.8721.0309-1.7372-.167-2.5091-.574-.7719-.407-1.4238-1.0089-1.891-1.746-.3799-.5692-.5881-1.2357-.5999-1.92v-5.73c0-.06-.0001-.12.0899-.22l-.03-.03Zm.03-.97c-.112-.0019-.2235.015-.3299.05-.1359.0478-.2599.1244-.3634.2245-.1036.1001-.1843.2214-.2366.3555-.1006.1807-.1555.3833-.16.59V33.23c.0119.8729.2759 1.7236.76 2.45.5567.8763 1.3313 1.5931 2.248 2.0804.9167.4872 1.9442.7283 2.982.6996h9.3199c.1919-.0041.3829-.0276.5701-.07h.13c.2384-.0361.4557-.1572.6119-.341.1562-.1838.2408-.4178.238-.659v-5.17c.0005-.1799-.0475-.3566-.139-.5114-.0915-.1549-.2232-.2822-.381-.3686-.1474-.0795-.3124-.1208-.48-.12-.1872-.0006-.3708.0514-.53.15-.1548.1365-.3355.2405-.5314.3058-.1958.0653-.4028.0905-.6086.0742H27.2v-3.92c0-.2652-.1054-.5195-.2929-.7071-.1875-.1875-.4419-.2929-.7071-.2929h-6c-.7538.0469-1.5065-.1085-2.1801-.45-.1524-.0864-.3248-.1312-.5-.13l.03.02Z" fill="#3E3A39"/>
    <path d="M12.24 37.91c-.1143.0024-.2259-.0353-.3154-.1065-.0895-.0713-.1513-.1716-.1746-.2835-.2054-3.2428-.2288-6.4946-.07-9.74.0124-.1238.0705-.2385.1629-.3217.0925-.0832.2127-.129.3371-.1283h4.68c.126-.0004.2474.0467.3401.132.0927.0853.1498.2024.1599.328v6.27c-.001.4436-.0479.886-.14 1.32-.1287.6791-.4814 1.2954-1.0017 1.7504-.5203.455-1.1781.7224-1.8683.7596h-.85l-1.26.02Z" fill="#fff"/>
    <path d="M16.86 27.83c0 .27-.0001.49.0599.72v5.52c.0019.4069-.0418.8127-.13 1.21-.1035.5752-.3994 1.0982-.8391 1.4834-.4396.3851-.9969.6096-1.5808.6366h-2.12c-.1928-3.19-.2129-6.388-.06-9.58h4.68l-.01.01Zm.01-1.01h-4.68c-.2488-.0013-.4891.0902-.674.2567-.1849.1664-.3012.3957-.326.6433-.1659 3.2987-.1393 6.6043.0799 9.9.0508.2255.1783.4265.3606.5688.1823.1422.4083.2168.6394.2112H14.46c.8013-.0403 1.5656-.3494 2.1698-.8773.6041-.528 1.0128-1.2441 1.1601-2.0327.1004-.4633.1507-.936.1501-1.41V27.75c-.0202-.2512-.1343-.4854-.3197-.656-.1854-.1705-.4284-.2649-.6803-.264l-.07-.01Z" fill="#3E3A39"/>
    <path d="M32.9401 37.87c-.1086.0016-.2146-.0328-.3015-.098-.0869-.0651-.1497-.1573-.1785-.262-.2458-3.2209-.2825-6.4544-.11-9.68.0081-.1144.0552-.2225.1335-.3062.0782-.0838.1829-.1381.2965-.1538.4772-.0667.9582-.1034 1.44-.11.4814-.0051.9616.0486 1.43.16.5759.128 1.1012.4231 1.5103.8482s.6838.9614.7897 1.5418c.0883.3638.1386.7358.15 1.11v6.03c.0093.1165.0093.2335 0 .35v.15c-.0189.1166-.0785.2227-.1682.2996-.0897.0769-.2036.1195-.3218.1204h-4.67Z" fill="#fff"/>
    <path d="M34.2201 27.76c.4406-.0034.88.0436 1.3099.14.4835.105.925.3511 1.2686.7071.3436.356.5738.806.6615 1.2929.0857.3267.1327.6624.14 1v6c-.0123.141-.0324.2812-.0601.42h-4.6099c-.2301-3.1616-.2601-6.3346-.09-9.5.4537-.0668.9114-.1036 1.37-.11l.01.05Zm-.01-1.05c-.5055.0053-1.01.0454-1.51.12-.2255.0312-.4337.1383-.5901.3038-.1564.1654-.2516.3793-.2699.6062-.1805 3.2825-.1371 6.5735.13 9.85.0605.2163.192.406.3734.5384.1814.1324.4021.1999.6266.1916h4.61c.2411.0028.4752-.0818.6589-.238.1838-.1562.3049-.3735.3411-.612v-.12c.0299-.1482.0466-.2988.0499-.45v-6.03c-.0079-.4113-.0615-.8205-.1599-1.22-.1253-.6738-.4464-1.2959-.923-1.7885-.4766-.4926-1.0877-.834-1.7571-.9815-.5051-.1152-1.0217-.1723-1.5399-.17h-.04Z" fill="#3E3A39"/>
    <path d="M26.9801 32.35c-.1069.0007-.2112-.033-.2976-.096-.0864-.063-.1503-.152-.1824-.254-.136-.5012-.18-1.023-.13-1.54v-2.6c-.0006-.1244.0451-.2445.1283-.337.0832-.0924.1979-.1505.3216-.163.6078-.0663 1.2186-.0997 1.83-.1.5213-.0011 1.0423.029 1.5601.09.6689.077 1.2853.4002 1.729.9067.4436.5065.6828 1.1601.671 1.8333V31.85c0 .1326-.0527.2598-.1465.3536-.0938.0937-.2209.1464-.3535.1464h-5.13Z" fill="#fff"/>
    <path d="M28.6899 27.76c.5044.0015 1.0084.0282 1.51.08.5577.0577 1.0732.3233 1.4439.744.3706.4207.5692.9655.5561 1.526v1.74h-5.13c-.1333-.6579-.167-1.3321-.0999-2v-2c.5909-.0673 1.1852-.1007 1.78-.1l-.0601.01Zm.0601-1.01c-.628 0-1.2556.0334-1.88.1-.2475.0249-.4769.1411-.6433.3261-.1664.1849-.258.4252-.2567.6739v2.58c-.0518.5783.0023 1.1612.1599 1.72.0678.2089.2025.3896.3833.5143.1807.1247.3974.1865.6167.1757h5.13c.2652 0 .5196-.1053.7071-.2929.1876-.1875.2929-.4418.2929-.7071v-1.77c.0102-.7944-.2744-1.5643-.799-2.1609-.5246-.5967-1.2518-.9776-2.041-1.0691-.5378-.061-1.0787-.091-1.62-.09H28.75Z" fill="#3E3A39"/>
  </g>
</svg>