
<svg width="50" height="50" fill="none" xmlns="http://www.w3.org/2000/svg">
  <g clip-path="url(#a)">
    <path d="M24.85 48.7c13.172 0 23.85-10.678 23.85-23.85S38.022 1 24.85 1 1 11.678 1 24.85 11.678 48.7 24.85 48.7Z" fill="#FF706F" stroke="#3E3A39" stroke-width="1.5" stroke-linecap="round" stroke-linejoin="round"/>
    <path d="M21.64 38.09c-2.51 0-8.48 0-9.63-.09-.1273-.0076-.2468-.0637-.3342-.1566-.0874-.093-.136-.2158-.1358-.3434v-4.2c.0021-.1268.0514-.2484.1383-.3408.087-.0925.2052-.1492.3317-.1592l1-.06V21.38c-.0011-.0814.0185-.1617.057-.2334.0385-.0717.0947-.1325.1631-.1766.0813-.0592.1794-.0907.2799-.09.0592-.014.1209-.014.1801 0 .7711.2818 1.5896.4108 2.41.38h10.15c.1044-.0007.2061.0319.2907.093.0845.0612.1474.1477.1793.247.1373.4874.1848.9957.14 1.5.2672-.5489.6817-1.0126 1.1974-1.3394.5157-.3267 1.1121-.5035 1.7225-.5106h6.25c.1285.0023.2514.053.3441.142s.1484.2098.1559.338v10.96l1.0901.06c.1168.0039.2282.0494.3143.1282.0862.0789.1415.1859.1557.3018.0296.5029.0296 1.0071 0 1.51v2.69c.0024.1144-.0354.226-.1066.3155s-.1715.1512-.2834.1745c-.61.18-11.0901.22-16.0601.22Z" fill="#fff"/>
    <path d="M13.5 21.38c.8275.3083 1.7075.451 2.59.42h10.15c.1224.6356.156 1.2852.1 1.93v1.93h-3.61v.81h4.1999v-1.2c-.0073-.4435.0364-.8864.13-1.32.1455-.6048.4895-1.1433.9772-1.5295.4877-.3861 1.0909-.5976 1.7129-.6005h6.24c.06 1.29 0 2.54 0 3.79v7.63l1.5599.09c.0401.6994.0401 1.4006 0 2.1v2c-.49.11-8.91.17-16 .17-4.65 0-8.7199 0-9.5999-.09v-4.2l1.43-.09c.06-1 0-1.95 0-2.92v-8.91l.12-.01Zm11.46 8.64c.6086.0558 1.2223-.0018 1.8099-.17v-.61H22.59v.71c.86.06 1.68.09 2.37.09v-.02Zm-2.35 3.22h4.1499c.13-.5-.0899-.57-.3999-.57h-3.5701s-.1099.06-.1999.11v.44l.02.02Zm-9.25-12.85c-.1995-.0004-.3945.0588-.5601.17-.1357.0918-.2467.2154-.3235.3601-.0767.1448-.1167.3061-.1164.4699v10.85h-.52c-.2547.0153-.494.1274-.6687.3133-.1748.1859-.2719.4316-.2714.6867v4.2c-.0006.2535.0952.4978.2678.6835.1727.1856.4094.2988.6623.3165 1.17.08 7.16.09 9.67.09.16 0 15.3 0 16.2-.19.2274-.0488.4307-.1753.5749-.3578.1442-.1826.2203-.4096.2151-.6422v-2.68c.0144-.5274-.0057-1.0552-.0601-1.58-.0301-.2321-.1406-.4462-.3123-.6052-.1718-.159-.3939-.2527-.6276-.2648h-.61V21.77c-.0128-.2564-.1239-.4981-.31-.675-.1862-.1768-.4332-.2753-.69-.275h-6.26c-.9203.0228-1.8014.378-2.4801 1 0-.1 0-.19-.08-.29-.0653-.2005-.1924-.3752-.363-.4991-.1706-.1239-.376-.1907-.5869-.1909h-8.3301.04H16.1399c-.7557.0292-1.5099-.0897-2.22-.35-.1178-.0465-.2433-.0703-.37-.07l-.1899-.03Z" fill="#3E3A39"/>
    <path d="M16.0199 21.51c-1.5 0-2.8599 0-3.8099-.1-.1256-.01-.2428-.0671-.328-.1598-.0853-.0927-.1324-.2142-.132-.3402v-7.13c0-.0962.0272-.1904.0785-.2718.0513-.0814.1246-.1467.2114-.1882.0697-.0094.1404-.0094.2101 0 .0609-.0012.1213.0096.178.0319.0566.0224.1083.0557.152.0981l.1799.16c.1035.0824.2005.1727.29.27.1577.1586.3468.2823.5552.3633.2084.0809.4315.1173.6548.1067H19.71c.0151-.2864.0151-.5735 0-.86-.0152-.4777.0081-.956.0699-1.43.0186-.0943.0631-.1817.1284-.2523.0653-.0706.149-.1217.2416-.1477h.13c.0725.0013.144.018.2095.049.0655.0311.1236.0758.1705.131.2607.3185.5963.5675.9767.7245.3804.1571.7939.2174 1.2034.1755h6.52c.1276-.0002.2503.0483.3432.1357.093.0874.1491.207.1568.3343l.0599 1.15h7.47c.1326 0 .2599.0527.3536.1465.0938.0938.1464.2209.1464.3535v1c.0502.7459.0502 1.4942 0 2.24-.0987.9079-.5226 1.7494-1.1936 2.3688-.671.6195-1.5435.9752-2.4563 1.0012h-5.3501c-.1358-.0011-.2682-.0429-.38-.12-.0941-.0467-.1752-.1158-.2362-.2012-.0611-.0855-.1001-.1846-.1138-.2888v-.92c-.67-.06-2.0599-.1-3.7799-.1-1.18 0-2.2101 0-2.8501.06v.91c.0007.107-.0329.2113-.0959.2977-.063.0863-.1521.1503-.2541.1823-1.7134.1845-3.4371.2579-5.16.22Z" fill="#fff"/>
    <path d="M20.2899 12.11c.2998.3779.6863.6779 1.1267.8746.4405.1967.9219.2843 1.4033.2554H29.34c0 .55.0599 1.05.0899 1.62H37.37c.0553 1.0693.0553 2.1407 0 3.21-.0803.7909-.4468 1.5252-1.0306 2.0648-.5838.5396-1.3447.8473-2.1394.8652h-5.35c-.06 0-.12 0-.23-.11v-1.36c-1.4221-.1398-2.8514-.1932-4.28-.16-1.41 0-2.76 0-3.35.1v1.37c-1.6591.1952-3.33.272-5 .23-1.39 0-2.78 0-3.77-.1v-7.13c.19.18.3199.28.4399.4.2026.2097.4472.3741.7178.4827.2705.1086.561.1588.8523.1473h5.88c.19-.87-.0001-1.75.1499-2.7l.03-.06Zm-.03-.94c-.0864-.0098-.1735-.0098-.2599 0-.1856.0492-.3532.1508-.4827.2926-.1294.1419-.2154.318-.2474.5074-.0692.5035-.0959 1.012-.08 1.52v.35h-5c-.1562.0096-.3127-.0139-.4592-.0691-.1465-.0551-.2796-.1406-.3907-.2509l-.3301-.31-.1699-.14c-.1809-.1644-.4157-.2569-.6601-.26-.1415.0007-.2812.0313-.41.09-.1754.0789-.3244.2067-.4291.3681-.1046.1614-.1605.3496-.1609.5419v7.13c-.0006.2535.0951.4978.2677.6835.1727.1856.4095.2988.6624.3165 1 .06 2.32.1 3.84.1 1.7745.0424 3.5496-.0513 5.3099-.28.2126-.0642.3978-.1973.5264-.3784.1285-.181.1932-.3997.1837-.6216v-.43h2.3499c1.37 0 2.5401 0 3.2801.07v.45c-.0004.1874.0518.3712.1509.5303.099.1591.2407.2872.409.3697.1946.1333.4242.2064.6601.21h5.3599c1.0327-.0306 2.0192-.4345 2.7768-1.1369.7575-.7024 1.2348-1.6557 1.3432-2.6831.0548-.769.0548-1.541 0-2.31v-1c0-.2652-.1053-.5196-.2928-.7071-.1876-.1875-.442-.2929-.7072-.2929h-7v-.68c-.0153-.2547-.1273-.4939-.3132-.6686-.1859-.1748-.4316-.2719-.6868-.2714H22.7799c-.334.0419-.6732-.0013-.9861-.1254-.3129-.1241-.5893-.3252-.8038-.5846-.0931-.1147-.2104-.2074-.3435-.2714-.1331-.0639-.2788-.0976-.4265-.0986l.0399.04Z" fill="#3E3A39"/>
  </g>
</svg>