<svg width="16" height="16" viewBox="0 0 16 16" fill="none" xmlns="http://www.w3.org/2000/svg">
<path d="M8 12C6.93913 12 5.92172 11.5786 5.17157 10.8284C4.42143 10.0783 4 9.06087 4 8C4 6.93913 4.42143 5.92172 5.17157 5.17157C5.92172 4.42143 6.93913 4 8 4C9.06087 4 10.0783 4.42143 10.8284 5.17157C11.5786 5.92172 12 6.93913 12 8C12 9.06087 11.5786 10.0783 10.8284 10.8284C10.0783 11.5786 9.06087 12 8 12V12ZM8 0C8.21217 0 8.41566 0.0842854 8.56569 0.234315C8.71571 0.384344 8.8 0.587827 8.8 0.8V2.4C8.8 2.61217 8.71571 2.81566 8.56569 2.96569C8.41566 3.11571 8.21217 3.2 8 3.2C7.78783 3.2 7.58434 3.11571 7.43431 2.96569C7.28429 2.81566 7.2 2.61217 7.2 2.4V0.8C7.2 0.587827 7.28429 0.384344 7.43431 0.234315C7.58434 0.0842854 7.78783 0 8 0V0ZM8 12.8C8.21217 12.8 8.41566 12.8843 8.56569 13.0343C8.71571 13.1843 8.8 13.3878 8.8 13.6V15.2C8.8 15.4122 8.71571 15.6157 8.56569 15.7657C8.41566 15.9157 8.21217 16 8 16C7.78783 16 7.58434 15.9157 7.43431 15.7657C7.28429 15.6157 7.2 15.4122 7.2 15.2V13.6C7.2 13.3878 7.28429 13.1843 7.43431 13.0343C7.58434 12.8843 7.78783 12.8 8 12.8V12.8ZM0.8 7.2H2.4C2.61217 7.2 2.81566 7.28428 2.96569 7.43431C3.11571 7.58434 3.2 7.78783 3.2 8C3.2 8.21217 3.11571 8.41566 2.96569 8.56569C2.81566 8.71572 2.61217 8.8 2.4 8.8H0.8C0.587827 8.8 0.384344 8.71572 0.234315 8.56569C0.0842854 8.41566 0 8.21217 0 8C0 7.78783 0.0842854 7.58434 0.234315 7.43431C0.384344 7.28428 0.587827 7.2 0.8 7.2V7.2ZM13.6 7.2H15.2C15.4122 7.2 15.6157 7.28428 15.7657 7.43431C15.9157 7.58434 16 7.78783 16 8C16 8.21217 15.9157 8.41566 15.7657 8.56569C15.6157 8.71572 15.4122 8.8 15.2 8.8H13.6C13.3878 8.8 13.1843 8.71572 13.0343 8.56569C12.8843 8.41566 12.8 8.21217 12.8 8C12.8 7.78783 12.8843 7.58434 13.0343 7.43431C13.1843 7.28428 13.3878 7.2 13.6 7.2ZM13.6568 2.3432C13.8068 2.49322 13.891 2.69667 13.891 2.9088C13.891 3.12093 13.8068 3.32438 13.6568 3.4744L12.5256 4.6056C12.4518 4.68201 12.3635 4.74295 12.2659 4.78488C12.1683 4.82681 12.0633 4.84888 11.9571 4.8498C11.8509 4.85072 11.7456 4.83048 11.6472 4.79026C11.5489 4.75003 11.4596 4.69063 11.3845 4.61552C11.3094 4.5404 11.25 4.45108 11.2097 4.35276C11.1695 4.25445 11.1493 4.1491 11.1502 4.04288C11.1511 3.93666 11.1732 3.83168 11.2151 3.73408C11.257 3.63647 11.318 3.5482 11.3944 3.4744L12.5256 2.3432C12.6756 2.19322 12.8791 2.10897 13.0912 2.10897C13.3033 2.10897 13.5068 2.19322 13.6568 2.3432V2.3432ZM4.6056 11.3944C4.75558 11.5444 4.83983 11.7479 4.83983 11.96C4.83983 12.1721 4.75558 12.3756 4.6056 12.5256L3.4744 13.6568C3.4006 13.7332 3.31233 13.7942 3.21472 13.8361C3.11712 13.878 3.01214 13.9001 2.90592 13.901C2.7997 13.9019 2.69435 13.8817 2.59604 13.8415C2.49772 13.8012 2.4084 13.7418 2.33328 13.6667C2.25817 13.5916 2.19877 13.5023 2.15854 13.404C2.11832 13.3056 2.09808 13.2003 2.099 13.0941C2.09992 12.9879 2.12199 12.8829 2.16392 12.7853C2.20585 12.6877 2.26679 12.5994 2.3432 12.5256L3.4744 11.3944C3.62442 11.2444 3.82787 11.1602 4.04 11.1602C4.25213 11.1602 4.45558 11.2444 4.6056 11.3944V11.3944ZM3.4744 2.3432L4.6056 3.4744C4.75133 3.62528 4.83196 3.82736 4.83014 4.03712C4.82832 4.24688 4.74418 4.44753 4.59586 4.59586C4.44753 4.74418 4.24688 4.82832 4.03712 4.83014C3.82736 4.83196 3.62528 4.75133 3.4744 4.6056L2.344 3.4744C2.19827 3.32352 2.11764 3.12144 2.11946 2.91168C2.12128 2.70192 2.20542 2.50127 2.35375 2.35294C2.50207 2.20462 2.70272 2.12048 2.91248 2.11866C3.12224 2.11684 3.32432 2.19747 3.4752 2.3432H3.4744ZM12.5256 11.3944L13.6568 12.5256C13.8025 12.6765 13.8832 12.8786 13.8813 13.0883C13.8795 13.2981 13.7954 13.4987 13.6471 13.6471C13.4987 13.7954 13.2981 13.8795 13.0883 13.8813C12.8786 13.8832 12.6765 13.8025 12.5256 13.6568L11.3944 12.5256C11.318 12.4518 11.257 12.3635 11.2151 12.2659C11.1732 12.1683 11.1511 12.0633 11.1502 11.9571C11.1493 11.8509 11.1695 11.7456 11.2097 11.6472C11.25 11.5489 11.3094 11.4596 11.3845 11.3845C11.4596 11.3094 11.5489 11.25 11.6472 11.2097C11.7456 11.1695 11.8509 11.1493 11.9571 11.1502C12.0633 11.1511 12.1683 11.1732 12.2659 11.2151C12.3635 11.257 12.4518 11.318 12.5256 11.3944Z" fill="#8C8C8C"/>
</svg>
