<svg width="20" height="21" viewBox="0 0 20 21" fill="none" xmlns="http://www.w3.org/2000/svg">
<path d="M14.36 12.1309C14.44 11.4709 14.5 10.8109 14.5 10.1309C14.5 9.45086 14.44 8.79086 14.36 8.13086H17.74C17.9 8.77086 18 9.44086 18 10.1309C18 10.8209 17.9 11.4909 17.74 12.1309H14.36ZM12.59 17.6909C13.19 16.5809 13.65 15.3809 13.97 14.1309H16.92C15.9512 15.7991 14.4141 17.0629 12.59 17.6909ZM12.34 12.1309H7.66C7.56 11.4709 7.5 10.8109 7.5 10.1309C7.5 9.45086 7.56 8.78086 7.66 8.13086H12.34C12.43 8.78086 12.5 9.45086 12.5 10.1309C12.5 10.8109 12.43 11.4709 12.34 12.1309ZM10 18.0909C9.17 16.8909 8.5 15.5609 8.09 14.1309H11.91C11.5 15.5609 10.83 16.8909 10 18.0909ZM6 6.13086H3.08C4.03886 4.45807 5.5748 3.19235 7.4 2.57086C6.8 3.68086 6.35 4.88086 6 6.13086ZM3.08 14.1309H6C6.35 15.3809 6.8 16.5809 7.4 17.6909C5.57862 17.0625 4.04485 15.7986 3.08 14.1309ZM2.26 12.1309C2.1 11.4909 2 10.8209 2 10.1309C2 9.44086 2.1 8.77086 2.26 8.13086H5.64C5.56 8.79086 5.5 9.45086 5.5 10.1309C5.5 10.8109 5.56 11.4709 5.64 12.1309H2.26ZM10 2.16086C10.83 3.36086 11.5 4.70086 11.91 6.13086H8.09C8.5 4.70086 9.17 3.36086 10 2.16086ZM16.92 6.13086H13.97C13.657 4.89232 13.1936 3.69676 12.59 2.57086C14.43 3.20086 15.96 4.47086 16.92 6.13086ZM10 0.130859C4.47 0.130859 0 4.63086 0 10.1309C0 12.783 1.05357 15.3266 2.92893 17.2019C3.85752 18.1305 4.95991 18.8671 6.17317 19.3697C7.38642 19.8722 8.68678 20.1309 10 20.1309C12.6522 20.1309 15.1957 19.0773 17.0711 17.2019C18.9464 15.3266 20 12.783 20 10.1309C20 8.81764 19.7413 7.51728 19.2388 6.30402C18.7362 5.09077 17.9997 3.98838 17.0711 3.05979C16.1425 2.13121 15.0401 1.39461 13.8268 0.892064C12.6136 0.389517 11.3132 0.130859 10 0.130859Z" fill="#3E3A39"/>
</svg>
