<svg width="24" height="25" viewBox="0 0 24 25" fill="none" xmlns="http://www.w3.org/2000/svg">
<path d="M20.6003 2.56836C17.4967 5.64171 12.9353 7.52288 8.54084 7.78746H2.01498C0.98716 7.80158 0.05796 8.67538 0 9.82791V12.7705C0.01402 13.7979 0.86136 14.7529 2.01398 14.8109H4.6304C3.93116 17.1823 4.68226 19.5828 5.4934 21.9392C6.69672 23.0754 9.4491 22.934 10.3462 21.4553C8.4357 19.9535 7.50516 15.9124 9.80838 14.9158C13.7341 15.3612 17.6234 17.3559 20.6003 20.0301C21.6236 20.016 22.5544 19.1752 22.6142 18.0288V13.2025C24.6632 12.4748 24.249 9.91731 22.6142 9.3969V4.58333C22.6006 3.55604 21.7528 2.62736 20.6003 2.56934V2.56836H20.6003ZM20.6522 5.17105V17.4401C17.7756 15.1986 14.2214 13.6944 10.5548 13.0193V9.59281C14.1527 9.05138 17.6715 7.39128 20.6522 5.17105Z" fill="#3E3A39"/>
</svg>
