<?xml version="1.0" encoding="utf-8"?>
<!-- Generator: Adobe Illustrator 25.4.1, SVG Export Plug-In . SVG Version: 6.00 Build 0)  -->
<svg version="1.1" id="圖層_1" xmlns="http://www.w3.org/2000/svg" xmlns:xlink="http://www.w3.org/1999/xlink" x="0px" y="0px"
	 viewBox="0 0 726.9 691.9" style="enable-background:new 0 0 726.9 691.9;" xml:space="preserve">
<style type="text/css">
	.st0{fill:#59C5EF;}
	.st1{fill:#3E3A39;}
	.st2{fill:#5BB582;}
	.st3{fill:#FF706F;}
</style>
<g>
	<path class="st0" d="M111.7,265.9c-0.5,0-0.9-0.3-1-0.8c-0.2-0.4-0.1-0.8,0.2-1.1c0.2-0.2,0.5-0.3,0.7-0.3c0.1,0,0.2,0,0.4,0.1h0.1
		c0.3,0.1,0.6,0.4,0.7,0.8c0,0.1,0,0.3,0,0.4C112.7,265.6,112.3,265.9,111.7,265.9L111.7,265.9z"/>
	<path class="st1" d="M111.6,263.7c-0.2,0-0.5,0.1-0.7,0.3c-0.3,0.3-0.4,0.7-0.2,1.1c0.1,0.5,0.5,0.8,1,0.8c0.6,0,1-0.3,1.1-0.9
		c0-0.1,0-0.3,0-0.4c-0.1-0.4-0.4-0.7-0.7-0.8H112C111.8,263.7,111.7,263.7,111.6,263.7L111.6,263.7z"/>
</g>
<g>
	<g>
		<path class="st2" d="M211.6,689.4c-0.5,0-0.8,0-1.1-0.1l-0.1,0h-0.1c-0.2,0-0.5,0-0.7,0c-0.4,0-0.8-0.1-1.3-0.1h-3.4
			c-0.7,0-1.4,0-1.9-0.1l-0.1,0c-3-0.2-4.4-1.4-4.8-3.9c-0.1-1-0.4-2-0.5-2.7c-0.4-1.9-0.7-3.5-0.7-4.8c0.1-3.8-1.7-7.5-4.9-9.8
			c-1.5-1-2.8-2.1-4-3.4c-2.6-3.5-5.3-6.6-10-7.5c-0.6-0.2-1.5-1.1-1.5-1.5c0-3.5-2.3-4.8-4.8-6.2l-0.5-0.3
			c-0.6-0.3-1.1-0.7-1.8-1.1c-0.4-0.2-0.8-0.5-1.3-0.8c2.2-4.2-0.1-6.9-2.7-9c-0.3-0.3-0.5-0.4-0.7-0.7l-0.1-0.1l-0.1-0.1
			c-0.1-0.1-0.2-0.2-0.2-0.2c-0.2-0.2-0.4-0.5-0.8-0.7c-7.4-5.7-9.8-14.1-11.5-21.5c-0.4-1.5-0.9-3-1.6-4.9
			c-0.2-0.5-0.4-1.1-0.6-1.6c-0.2-0.5-0.4-1-0.6-1.6c-0.8-2.4-1.4-5-1.9-7.4l0-0.1c-0.1-1,0.1-1.8,0.7-2.4c2.1-2.4,4.2-4.7,7-7.6
			c1.6-1.7,3.2-3.3,4.7-4.7l2.3-2.3l0,0c1.2-1.3,2.6-2.7,4.4-4.3c3.7-2.7,5.1-5.7,4.5-9.4c-0.4-2.6-0.1-5.2,1-8.1l0.4-1.1l-1-0.7
			c-0.6-0.4-1.2-0.8-1.8-1.2l-1.2-0.8l-0.9,1.2c-1.2,1.6-1.4,1.7-5,1.7c-1.3-1.6-2-3.3-2.1-5.2c-0.1-1.2-0.3-2.4-0.6-3.7
			c-0.3-1.2-0.6-2.4-0.6-3.5c-0.2-4.3-2.4-6.9-6-9.8c-4.3-3.3-8.3-6.6-12.9-10.8l-0.1-0.1c-1.1-0.9-2-2.1-2.5-3.5l0,0
			c-0.5-2.7-2.1-4.6-3.6-6.5l-0.1-0.1c-0.2-0.2-0.3-0.3-0.4-0.5c-0.2-0.3-0.4-0.5-0.6-0.7c-1.2-1.4-2.1-2.6-2.8-3.9
			c-1.5-2.7-4.4-4.4-7.5-4.4h-0.3c-0.9,0-1.8,0-2.6,0.1c-0.8,0-1.6,0-2.4,0c-1.5,0-2.7,0-4-0.1l-0.1,0H112c-3.9,0-8.1,0.9-11.7,2.6
			c-3,1.5-6.1,2.3-9.3,2.3c-4.5,0-8.8-1.4-13.4-4.4l-0.9-0.6c-2.2-1.4-4.6-2.9-6-5.3c-0.5-0.9-1.3-1.4-2.3-1.4c-0.6,0-1.3,0.2-2,0.6
			c-1.7,1.1-3.1,1.9-4.3,2.4c-0.7,0.4-1.1,0.6-1.5,0.6c-0.6,0-1.1-0.2-2.9-1.2c0.8-0.5,1.7-0.9,2.8-1.4c2-0.6,4.1-1,6.1-1.1
			c3.7-0.1,6.3-2.2,8.9-4.2c0.5-0.4,0.9-0.7,1.3-1l0.1-0.1c1-0.7,1.5-1.8,1.5-2.9c0-1.4-0.8-2.7-2.2-3.6c-2.1-1.2-3.5-2.2-4.7-3.3
			c-2.9-2.6-3.2-4.8-1.2-7.7c2.7-3.7,1.5-6.6-0.2-9.2c-2-3-4-6.2-5.6-8.8c-2.3-4.1-5.8-7.4-10.1-9.6c-0.6-0.3-1.1-0.6-1.7-0.9
			c-0.4-0.2-0.7-0.4-1.1-0.6c-0.6-0.4-1.2-0.7-1.8-1.1l-0.1,0l-0.1,0c-2.7-1.4-4.6-4-5.1-6.9c-1.1-5-1.6-10.2,2.2-14.5
			c1-1.1,1.9-2.1,3-3c1.7-1.4,3.3-2.4,4.9-3.3c1-0.5,2.1-1.3,2.3-2.5c0.2-1.1-0.3-2.2-0.8-3c-0.5-0.9-0.8-1.6-1.1-2.3
			c1.1-1.1,2.3-2.1,3.7-3.2l0.1-0.1c1.8-1.2,3.6-2.5,5.4-3.6c2.4-1.6,4.9-3.2,7.2-4.9l0.1-0.1c1.7-1.4,3.2-3,4.5-4.6
			c0.9-0.9,1.7-1.3,2.7-1.3c0.4,0,1.1,0,1.9,0.4c4,1.3,8,2,11.9,2c1.7,0,3.3-0.1,5-0.3c1.8-0.3,3.4-0.4,4.7-0.4c3.5,0,6.3,1,8.5,2.9
			l0.1,0.1l0.1,0.1c0.9,0.6,1.8,1.1,3,1.7l0.9,0.4l5.7-4.9c2.2,3.3,4.8,5,7.9,5.5l0.1,0c1.1,0.3,2.1,1,3,1.9l0.1,0.1
			c1.7,1.5,3.3,2.2,5.1,2.2c1,0,1.9-0.2,3.2-0.7c1.4-0.6,2.8-1,4.2-1.1l0.1,0c1.3,0,2.6,0.3,3.8,1c2.3,1.5,4.3,2.2,6,2.2
			c2.2,0,4.2-1,6.4-3.4c1.7-2,4-3,6.5-3c0.3,0,0.7,0,0.9,0.1l0.1,0l0.1,0c2.1,0.2,3.2,0.6,3.9,1.5l0.5,0.6l0.8-0.1
			c0.8-0.1,1.7-0.2,2.5-0.3l2.3-0.2l-1.4-2.6c-0.1-0.2-0.3-0.5-0.4-0.7c-0.1-0.3-0.3-0.5-0.4-0.8c0.3-0.2,0.6-0.4,1-0.6
			c0.5-0.3,1-0.6,1.4-0.9l6.6-4.2c4.1-2.4,6.9-5.3,8.8-8.9c1.8-3.6,4-5.2,7.1-5.2c0.4,0,0.8,0,1.3,0.1c0.5,0.1,0.9,0.1,1.2,0.1
			c2.7,0,5-1.6,5.9-4.1c0.8-1.8,2.5-3,4.5-3c3-0.2,6.1-0.9,9.4-2l0.1,0c1.8-0.8,3.4-2.2,4.5-4l0.1-0.1c1-2,2.8-3.7,4.9-4.8
			c2.8-1.3,6-3.4,6.6-7.3c0.4-0.1,0.8-0.1,1.3-0.1c0.3,0,0.6,0,1-0.1l0.6-0.1c1.7-0.2,3.3-0.3,4.6-1.1c1.3-0.9,2.1-2.5,2.7-4.1
			c0.2-0.3,0.3-0.6,0.4-0.9c0.2-0.3,0.3-0.7,0.5-1c0.3,0.2,0.5,0.3,0.8,0.4c0.3,0.1,0.5,0.3,0.8,0.4l0.4,0.2
			c1.3,0.7,2.7,1.4,3.7,2.4c3.1,2.6,5.6,3.7,8.4,3.7h1.7c2,0,2.9,1,3,3.2c0.2,2.1,0.6,3.8,1.1,5.4c0.7,2.9,1.8,6.3,5.3,7.8l0.3,0.1
			c1,0.6,1.9,1.3,2.9,2l0.1,0.1l0.8,0.5c3.6,2.4,7.4,4.9,12.2,4.9c0.6,0,1.2,0,1.8-0.1h0.5c0.8,0,1.6,0.2,2.5,0.5
			c0.6,0.2,1.2,0.3,1.7,0.4c1.8,0.5,3.5,0.7,5,0.8c4.7,0,9.7,0.2,14.6,1.6c0.5,0.2,0.9,0.2,1.2,0.2c0.9,0,1.9-0.2,2.9-0.6
			c0.3-0.1,0.5-0.1,0.8-0.2c0.2-0.1,0.4-0.1,0.6-0.2c0.5-0.1,1-0.3,1.5-0.5c0.2-0.1,0.3-0.1,0.5-0.2c0.2-0.1,0.5-0.1,0.7-0.2
			c0.1,0,0.1,0,0.2-0.1l0.8,0.8l0.9-0.3c1.8-0.5,3.7-0.9,5.5-1.2l0.5-0.1l0.3-0.3c0.9-0.8,1.5-1.1,2.3-1.1h0.6c3,0,4.5-1.4,4.8-4.3
			l0-0.1c0.3-0.8,0.7-1.5,1.4-1.9l0.1-0.1c0.6-0.5,3.1-2.6,3.1-2.6l-0.1-6.5l-2.8,2.6c-0.3,0.3-0.6,0.5-0.9,0.8
			c-0.6,0.6-1.2,0.9-1.7,0.9c-0.6,0-1.1-0.2-1.7-0.5l-0.1-0.1c-3.9-2.1-7.9-4.1-11.9-6l-0.1,0c-1.4-0.5-2.3-1.8-2.3-3.3
			c-0.1-1.8-0.1-3.7,0-5.4c0.6-5.5-0.9-10.3-3-16.1c-1.2-3.6-1.4-7.5-0.5-11c1-4.7,5.5-7.8,11.2-7.8c0.7,0,1.3,0,1.8,0.1l0.1,0h0.1
			c0.6,0,1.4,0.2,2.2,0.3c1.6,0.6,3.1,0.9,4.8,0.9c3.2,0,6.4-1.2,9.6-3.7c1.1-0.9,2-1.3,2.8-1.3c0.2,0,0.4,0,0.7,0.1l0.5,0.2
			l0.5-0.2c1.2-0.4,2.5-0.6,3.8-0.6c1.1,0,2.1,0.1,3.1,0.4l0.3,0.1l0.3-0.1c0.6-0.1,1.1-0.2,1.6-0.2h13.5c0.7,0,1.3,0,1.8-0.1
			l0.5-0.1l0.4-0.3c1-0.9,1.9-2,2.8-3.1c0.1-0.2,0.8-1,0.8-1l0.1-0.8c0.3-3.1,1.7-4.1,4-4.8l0.4-0.1l0.3-0.3
			c1.2-1.2,2.3-2.1,3.5-2.6c0.9-0.4,1.9-0.7,3-0.7c0.6,0,1.2,0.1,1.8,0.2l0.5,0.1l0.9-0.4c0.3-0.1,0.6-0.2,0.9-0.4
			c1.6-0.8,3-1.7,4.3-2.7c1.4-1,2.9-2.1,4.4-3.1c1.4-0.8,2.7-1.1,4-1.1c2,0,3.8,1.1,5.8,3.4c1.7,2,3.9,4,6.5,6.2
			c0.3,0.3,0.7,0.6,1,0.8l0.5,0.4l0.6,0c2.7-0.1,5.4-0.4,8-0.9l0.6-0.1l0.4-0.5l0.1-0.2c1.2-1.7,2.4-3.4,3.5-5.2l1-1.5
			c1.3-1.8,2.6-3.7,3.9-5.5c1.4-1.5,2.9-2.9,4.7-4.2l0.1-0.1c0.4-0.3,1-0.6,1.7-1l0.1,0l0.6-0.3c0.8-0.4,1.6-0.9,2.2-1.6
			c1.5-1.7,3.3-2.5,5.5-2.5c1,0,1.8,0.1,2.6,0.3c0.8,0.2,1.8,0.4,2.7,0.4c2,0,4-0.6,5.8-1.6l0.4-0.2c1.5-0.8,3.4-1.9,5.2-2.8
			l0.8-0.3l0.1,0c3.1-1.5,6-2.7,9.4-2.8c0,0,0,0,0,0c4.4,0,7.3-1.8,8.7-5.5c0.6-1.5,1.4-2.9,2.3-4.2c0.3-0.4,0.6-0.8,0.9-1.5
			l0.1-0.2l0.2-0.7c0.3-0.9,0.6-1.9,0.9-2.8c0-0.1,0.8-2,0.8-2l-1.4-0.5c-0.6-0.6-1.2-1.3-1.8-2c-0.3-0.4-0.7-0.8-1-1.1
			c-2.5-2.7-5.2-5.9-8.3-8.8c-3-2.9-4.1-5.6-3.8-9.2c0.2-2.3,0.1-4.6,0.1-7c0-0.8,0-1.6,0-2.4c0-0.9,0-1.8,0-2.7c0-0.8,0-1.6,0-2.4
			c3.1-1.2,5.5-3.7,8-6.3l0.4-0.4c1.8-1.9,3.6-3.8,5.8-5.3c1.2,0.6,2.4,1.1,3.5,1.6l0.9,0.4c2.7,1.2,5.4,2.5,7.9,4
			c1.1,0.6,1.9,0.8,2.7,0.8c1.2,0,2.2-0.5,3.2-1.8c0.4-0.5,0.9-1.1,1.3-1.7c0.1-0.2,0.3-0.4,0.4-0.6c0.1-0.2,0.2-0.3,0.3-0.5
			c0.2-0.3,0.5-0.6,0.7-0.9c0.5-0.7,1.1-1.4,1.7-2.1l0.1-0.1l0.4-0.5c1.7-2.2,3.5-4.4,5-6.7c1.5-2.1,2.8-4.6,3.9-7.5
			c0.8-2.3,1.9-4.5,5.2-5.1l0.1,0l0.1,0c0.7-0.2,1.3-0.5,1.9-0.8c-0.1,0.4-0.2,0.8-0.3,1.2c-0.4,1.6-0.8,3.1-1.2,4.6
			c-1.2,4.4,1.6,6.7,4.3,9l0.1,0.1l0.2,0.1c1.4,1.1,2.7,1.6,4.1,1.6c1.4,0,2.9-0.6,4.5-1.8c1.5-1,3-2.2,4.3-3.4l0.1-0.1
			c1-1.1,2.4-1.7,3.9-1.7c0.8,0,1.6,0.2,2.3,0.5c3.3,1.5,6.7,1.8,10.2,1.9c2.2,0.1,4.4,0.2,6.4,0.7l0.2,0h1.1
			c0.8,0.2,1.6,0.4,2.4,0.6l0.6,0.2c0.4,0.1,0.7,0.2,1.1,0.3c1.3,0.3,2.5,0.7,3.7,0.7c0.5,0,1,0,1.5-0.1l0.9-0.2l0.5-0.1
			c1.6-0.4,2.9-0.7,4.4-0.7c1,0,1.8,0.1,2.4,0.3c3.3,1.1,7.1,1.9,11.6,2.7l1.2,0.1c1.7,0.2,3.7,0.4,5.6,0.4c2.8,0,5.5-0.4,8-1.2
			c5.3-1.9,10-4.2,14.4-6.8c0.7-0.4,1.6-0.9,2.4-0.9c0.5,0,1.2,0.1,2.2,1.1c-1.3,2.8-3.6,4.3-7.1,4.6c-0.8,0.1-1.7,0.1-2.5,0.1
			c-0.8,0-1.7,0-2.6,0.1c-1.5,0.1-2.8,0.8-3.5,1.9c-0.6,0.7-0.8,1.7-0.7,3l0,0.1c0.5,2.7,0,5.4-0.6,7.9c-0.1,0.5-0.2,1.1-0.3,1.6
			c-0.1,0.5-0.2,1-0.3,1.5c-0.2,1.3-0.3,2.5-0.4,3.9l0,0.1c0,0.4-0.1,1-0.1,1.4c-0.4,0.1-0.9,0.2-1.3,0.3c-0.6,0.1-1.1,0.3-1.7,0.4
			l-1.2,0.3c-2.1,0.5-4.3,1-6.4,1.6c-0.3,0.1-0.6,0.1-0.8,0.2c-0.2,0.1-0.5,0.1-0.7,0.2c-2,0.5-3.9,0.9-5,2.2
			c-0.5,0.6-1,1.1-1.6,1.5l-0.8,0.6l0.3,1c0.5,1.8,0.7,3.8,0.8,6.2l0,0.1l0,0.1c0.2,1,0.4,1.8,0.7,2.6l0.1,0.5
			c0.6,2.6,1.3,5.3,1.1,7.8c-0.5,7.2,4.3,11,8.4,13.5c2.6,1.5,3.9,2.9,3.8,6.1c-0.1,0.8,0,1.7,0,2.6c0,0.4,0,0.8,0,1.2
			c0,0.4,0,0.7,0,1.1c0,1,0,2.1-0.1,3c-0.4,3.8,1.2,6.6,4.8,8.7c3.6,2,3.6,2,2.8,6c-0.5,1.6-0.5,3-0.5,4.1v0.1l0,0.1
			c0.4,3.6-0.8,7.1-1.9,10.4c-0.4,1-0.7,2.2-1,3.3c-0.4,1.5-0.6,3.1-0.8,5.2c0,0.7-0.1,1.3-0.2,1.9l0,0.3c-0.1,0.9-0.2,1.9-0.3,3.2
			l0,0.3l-1.3,0.1c-0.8,0-1.6,0.1-2.4,0.1c-0.8,0-1.7,0.1-2.5,0.1c-3.6,0.2-5.3,1.7-5.5,4.8c-0.1,4.4-2.2,7.8-4.4,11.4l-0.2,0.3
			c-0.4,0.6-0.7,1.2-1,1.7l-0.3,0.5c-1.4,2.3-3.3,4.4-5.3,6.6c-1.1,1.2-2.2,2.4-3.2,3.6c-2.7,3.4-4.3,7.4-4.6,11.5
			c-0.1,1.1-0.2,2.2-0.3,3.4c-0.3,4.1-0.6,8.2-3.3,11.8c-1.2,0-2.3,0.1-3.4,0.2c-1.5,0.1-3.1,0.2-4.7,0.2c-2.2,0-3.9-0.2-5.4-0.6
			c-0.5-0.2-1-0.2-1.3-0.2c-0.9,0-1.7,0.2-2.4,0.6c-5.3,2.3-8.1,5.3-9.2,9.7c-1,3.1-2.2,6.3-3.5,9.2c-0.7,1.4-0.6,3,0.3,4.3
			c0.8,1.2,1.7,2.5,2.5,3.8c0.7,1,1.3,2,2.3,3.3l5.1,7.2c0.9,1.3,1.9,2.7,2.8,4c-0.3,0.7-0.5,1.4-0.7,2.1l-0.2,0.6
			c-0.2,0.5-0.4,1.2-0.6,1.8c-0.6,1.7-1.3,3.6-2.1,5.3c-0.7,1.5-1.7,2.9-3.1,4c-1.2,0.9-2.6,1.8-4,2.7l-0.8,0.5
			c-1.3,0.9-2.7,1.8-3.9,2.8c-3.7,3-7.5,4.4-12,4.4c-2,0-4-0.3-6.1-0.8c-1.4-0.4-2.9-0.7-4.4-0.7c-2,0-4.1,0.4-6.1,1.2
			c-0.4,0.2-0.8,0.3-1.3,0.3c-0.5-0.2-0.9-0.2-1.3-0.2c-0.7,0-1.5-0.1-2.2-0.4l-0.7-0.3l-0.6,0.4c-1.2,0.8-2.5,1.5-3.8,2.1l-1,0.5
			l0.2,0.9c-0.1,0.2-0.2,0.4-0.3,0.7c-0.1,0.3-0.1,0.3-0.2,0.3c-3.9,2.1-6.4,5.4-9.1,8.8l-0.2,0.2c-1.1,1.5-2.3,3-3.5,4.4
			c-1.9,2.2-2.5,4.8-1.8,8.2c1.4,6.6,0.3,11.7-3.2,15.6c-1,1.1-1.2,2.8-1.4,4.4c-0.1,1.7-0.1,3.3-0.1,4.7v1.2
			c-0.3,0.1-0.7,0.3-1,0.4c-0.7,0.3-1.4,0.6-2.2,0.9c-2.3,1-4.8,2-7.2,2.6c-0.6,0.2-1.1,0.2-1.8,0.2c-0.7,0-1.5-0.1-2.2-0.2
			c-0.4,0-0.8-0.1-1.2-0.1c-0.3,0-0.5-0.1-0.7-0.1c-0.2,0-0.4,0-0.6-0.1l-0.1,0c-2.3-0.3-4.5-0.6-6.7-0.9c-4.4-0.6-8.7-1.2-13-1.4
			l-1.1,0c-7.5,0-13.8,3.3-18.6,9.8c-1.6,1.9-3.3,3.8-4.7,5.2l-0.8-0.7l-1,0.8c-0.2,0.2-0.4,0.3-0.6,0.5l-2.9,2.4l0.3,0.6
			c-0.3,0.2-0.6,0.4-1,0.6c-0.4,0.2-0.8,0.5-1.3,0.7l-0.8,0.5c-1.8,1.1-3.6,2.2-5.4,3c-2.2,1.2-3.9,3.1-4.8,5.3
			c-0.7,1.6-1.8,3.2-2.8,4.5c-1.5,2-3.3,4-5.1,6c-1.5,1.5-3.1,2.8-4.8,4c-1.3,0.9-2.7,1.8-4.2,2.8c-0.3,0.2-0.7,0.4-1.1,0.7
			c-0.2,0.2-0.5,0.3-0.7,0.5l-3.5-2.3l-0.7,0.2c-0.1,0-0.1,0-0.2,0c-0.2,0-0.4,0.1-0.6,0.1c-0.8,0.2-1.7,0.4-2.5,0.8l-0.1,0.1
			l-0.1,0.1c-4.6,3.3-10.1,4.2-15.4,5.1l-0.3,0c-2.1,0.3-4.3,0.7-6.4,1.2c-0.6,0.2-1.3,0.2-1.9,0.2h-3l-0.1,0c-1,0.1-2,0.2-3.1,0.4
			c-0.4,0-0.8,0.1-1.3,0.2c-0.5,0.1-1,0.2-1.5,0.2c-1.6,0.3-3.4,0.4-5.4,0.4h-1.7c-2.3,0-3.6,0.5-6.5,2.5l-1.3,0.9l0.9,1.3
			c0.3,0.4,0.7,0.9,1.1,1.4l0.1,0.1l0.1,0.1c2.5,2,3.1,4.6,1.6,7.3c-1.3,2.6-3.9,4.2-6.8,4.3c-1.5,0-3-0.3-4.3-1
			c-0.7-0.4-1.3-0.6-2.1-0.6c-0.9,0-1.8,0.3-2.6,0.9l-0.7,0.5c-2.7,1.7-5.7,3.6-9.4,4c-1.4,0.2-2.9,1.6-3.7,2.9
			c-2.5,3.9-3.5,7.1-3.1,10.6c0.1,0.6,0.1,1.3,0,1.8l0,0.1v2l0,0.1c0.6,4.9-0.9,8.2-4.7,10.5c-2,1.2-2.3,3.2-2.3,5.2
			c0.1,4.5,0.8,8.1,3.8,11.3c5.9,6.3,4.9,13.9,2.9,21.1c-0.5,1.8-1.2,3.6-1.8,5.1l0,0.1c-0.2,0.5-0.4,1.1-0.6,1.6
			c-0.1,0.2-0.2,0.5-0.3,0.7h-0.5c-5.3,0-10.1,2.6-13,7.2c-2.3,3.6-6.1,5.8-10.4,5.9c-7.2,0.2-13,3.2-18.2,6.3
			c-1.3,0.8-2.9,1.7-4.8,2.6c-0.8,0.4-1.7,0.9-2.7,1.4c-4.2,2.2-5.2,5.3-5.3,7.4c-0.2,2.8-1.9,4.2-3.8,5.5c-0.3,0.2-0.7,0.5-1,0.7
			c-0.4,0.2-0.7,0.5-1.1,0.7c-1,0.7-2.2,1.4-3.3,2.2c-6.1,4.7-13.2,5.9-18.7,6.4c-2.2,0.1-4.3,0.7-6.2,1.9l-0.1,0.1l-0.1,0.1
			C218.4,688.3,215.3,689.4,211.6,689.4z"/>
		<path class="st1" d="M535.4,185c-0.2,1-0.5,2-0.8,3c-1.5,5.3,2,8.2,4.8,10.5l0.3,0.2l0.2,0.1c1.6,1.2,3.3,1.9,4.9,1.9
			c1.7,0,3.5-0.7,5.3-2.1c1.6-1.1,3.1-2.3,4.5-3.5l0.1-0.1l0.1-0.1c0.7-0.8,1.7-1.2,2.8-1.2c0.6,0,1.1,0.1,1.7,0.4l0,0l0,0
			c3.5,1.6,7.1,1.9,10.7,2l0.1,0c2.1,0.1,4.2,0.2,6.1,0.6l0.3,0.1h0.3h0.2h0.4h0.2c0.7,0.1,1.3,0.3,2.1,0.5l0.6,0.2l0,0l0,0
			c0.3,0.1,0.7,0.2,1,0.3c1.3,0.4,2.7,0.7,4.1,0.7c0.5,0,1.1,0,1.8-0.2l0.9-0.2l0,0l0,0l0.5-0.1c1.5-0.3,2.7-0.6,4.1-0.6
			c0.8,0,1.5,0.1,2,0.3c3.4,1.1,7.3,2,11.9,2.7l0.1,0l0.1,0c0.4,0,0.7,0.1,1.1,0.1c1.8,0.2,3.7,0.4,5.8,0.4c3,0,5.8-0.4,8.5-1.2
			l0.1,0l0.1,0c0.2-0.1,0.4-0.2,0.7-0.2c-0.1,0.6-0.2,1.3-0.1,2.1l0,0.1l0,0.1c0.5,2.4-0.1,4.9-0.6,7.3l0,0l0,0
			c-0.1,0.5-0.2,1-0.3,1.6c-0.1,0.5-0.2,1-0.3,1.5l0,0l0,0c-0.2,1.3-0.3,2.6-0.4,4l0,0.1v0.1c0,0.1,0,0.1,0,0.2
			c-0.1,0-0.2,0-0.3,0.1c-0.6,0.1-1.1,0.3-1.7,0.4l-1.2,0.3c-2.1,0.5-4.3,1-6.4,1.6c-0.3,0.1-0.6,0.1-0.9,0.2
			c-0.2,0.1-0.4,0.1-0.6,0.2l0,0l0,0c-2.1,0.5-4.3,1-5.8,2.6l0,0.1l0,0.1c-0.4,0.5-0.8,0.8-1.2,1.2l-1.7,1.2l0.5,2
			c0.4,1.7,0.7,3.6,0.8,5.9l0,0.3l0.1,0.2c0.2,1,0.4,1.8,0.7,2.6l0.1,0.5c0.6,2.6,1.2,5,1.1,7.4c-0.5,8,4.6,12.2,9.2,14.9l0,0l0,0
			c2.4,1.4,3.1,2.4,3,4.7c-0.1,0.9-0.1,1.9,0,2.8c0,0.4,0,0.8,0,1.1c0,0.4,0,0.7,0,1.1c0,1,0,2-0.1,2.8l0,0.1l0,0.1
			c-0.4,4.4,1.4,7.7,5.6,10.1l0,0l0,0c0.5,0.3,2.1,1.2,2.5,1.6c0.1,0.5-0.2,2-0.4,2.7c-0.5,1.8-0.6,3.3-0.6,4.4v0.2l0,0.2
			c0.3,3.3-0.8,6.5-1.8,9.7c-0.4,1.1-0.8,2.3-1.1,3.5c-0.4,1.6-0.7,3.3-0.8,5.5l0,0.1v0.1c0,0.5-0.1,1-0.1,1.7l0,0.3
			c-0.1,0.7-0.1,1.4-0.2,2.1c-0.8,0-1.6,0.1-2.3,0.1c-0.8,0-1.7,0.1-2.5,0.1c-4.4,0.3-6.7,2.4-6.9,6.2l0,0l0,0
			c-0.1,3.9-2.1,7.2-4.1,10.6l-0.2,0.3c-0.4,0.6-0.8,1.3-1.1,1.8c-0.1,0.2-0.2,0.3-0.3,0.5c-1.3,2.2-3.2,4.3-5.1,6.4
			c-1.1,1.2-2.2,2.5-3.3,3.7c-2.9,3.6-4.6,7.9-5,12.3c-0.1,1.1-0.2,2.2-0.3,3.5l0,0.1c-0.3,3.7-0.5,7.3-2.5,10.4
			c-0.9,0-1.8,0.1-2.7,0.2c-1.6,0.1-3.1,0.2-4.6,0.2c-2,0-3.6-0.2-4.9-0.6c-0.7-0.2-1.4-0.2-1.8-0.2c-1.1,0-2.2,0.2-3,0.7
			c-5.6,2.5-8.7,5.8-9.9,10.6c-1,3.1-2.1,6.1-3.4,9c-1,1.9-0.8,4.1,0.5,5.8c0.9,1.3,1.7,2.5,2.5,3.8c0.7,1,1.3,2,2.3,3.3l5.1,7.2
			c0.8,1.1,1.6,2.2,2.4,3.3c-0.2,0.5-0.3,1-0.5,1.4l-0.2,0.5c-0.2,0.6-0.4,1.2-0.7,1.8c-0.7,1.8-1.3,3.5-2.1,5.2
			c-0.6,1.3-1.5,2.4-2.6,3.4c-1.2,0.9-2.5,1.8-3.9,2.6l0,0l0,0l-0.7,0.5c-1.3,0.9-2.7,1.8-4,2.9c-3.4,2.8-6.9,4.1-11.1,4.1
			c-1.8,0-3.7-0.3-5.7-0.8c-1.5-0.5-3.2-0.7-4.8-0.7c-2.2,0-4.5,0.4-6.7,1.3l0,0l0,0c-0.2,0.1-0.3,0.1-0.5,0.2
			c-0.5-0.2-0.9-0.2-1.4-0.2c-0.6,0-1.1-0.1-1.7-0.3l-1.4-0.5l-1.3,0.8c-1.1,0.7-2.3,1.4-3.6,2l-2.1,1l0.3,1.6c0,0.1,0,0.1-0.1,0.2
			c-4,2.3-6.6,5.7-9.1,9l-0.2,0.2l0,0l0,0c-1,1.4-2.2,2.9-3.4,4.3c-2.2,2.5-3,5.7-2.2,9.5c1.3,6.1,0.4,10.7-2.9,14.3l0,0l0,0
			c-1.2,1.4-1.6,3.4-1.7,5.2l0,0l0,0c-0.1,1.7-0.1,3.3-0.1,4.8v0.2c0,0,0,0,0,0c-0.7,0.3-1.4,0.6-2.2,0.9c-2.3,1-4.7,2-7,2.5l-0.1,0
			l-0.1,0c-0.3,0.1-0.8,0.1-1.4,0.1c-0.6,0-1.3-0.1-2.1-0.2c-0.4,0-0.8-0.1-1.1-0.1c-0.3-0.1-0.6-0.1-0.8-0.1c-0.1,0-0.3,0-0.4-0.1
			l-0.1,0l-0.1,0c-2.3-0.3-4.5-0.6-6.7-0.9c-4.4-0.6-8.8-1.2-13.2-1.4l-0.1,0h-0.1h-1c-8,0-14.7,3.5-19.8,10.4
			c-1.2,1.5-2.5,2.9-3.6,4.1l-0.7-0.6l-2,1.7c-0.2,0.2-0.4,0.3-0.6,0.5l-2.1,1.7l-1.7,1.4l0.2,0.5c-0.3,0.2-0.7,0.4-1.1,0.6l0,0l0,0
			l-0.7,0.4c-1.7,1-3.5,2.1-5.2,2.9l-0.1,0l-0.1,0c-2.4,1.3-4.3,3.4-5.4,5.9c-0.7,1.5-1.7,3-2.7,4.2c-1.5,1.9-3.2,3.9-4.9,5.8
			c-1.4,1.4-3,2.7-4.6,3.8l0,0l0,0c-1.2,0.9-2.5,1.7-4.1,2.7c-0.4,0.2-0.7,0.4-1,0.6l-2.1-1.4l-1.2-0.8l-1.3,0.4l-0.1,0
			c-0.2,0-0.5,0.1-0.8,0.2c-0.9,0.2-1.9,0.5-2.7,0.9l-0.2,0.1l-0.2,0.1c-4.3,3.1-9.6,4-14.8,4.8l-0.3,0c-2.2,0.3-4.4,0.7-6.6,1.3
			c-0.4,0.1-1,0.1-1.5,0.1h-1h-0.9h-1h-0.1l-0.1,0c-1,0.1-2.1,0.2-3.2,0.4c-0.4,0-0.8,0.1-1.3,0.2c-0.5,0.1-1,0.2-1.4,0.2l-0.1,0
			l-0.1,0c-1.5,0.2-3.1,0.4-5.1,0.4H351h-1.4c-2.7,0-4.2,0.6-7.4,2.7l-2.6,1.8l1.9,2.5c0.3,0.4,0.7,1,1.3,1.5l0.1,0.1l0.1,0.1
			c1.9,1.5,2.3,3.4,1.2,5.5l0,0l0,0c-1,2.1-3,3.3-5.4,3.4c-1.3,0-2.5-0.3-3.6-0.8c-0.9-0.5-1.8-0.8-2.8-0.8c-1.2,0-2.4,0.4-3.4,1.1
			l-0.7,0.4c-2.5,1.6-5.4,3.4-8.7,3.8l-0.1,0l-0.1,0c-2.1,0.3-4,2.4-4.7,3.5c-2.7,4.2-3.7,7.8-3.4,11.6l0,0.1l0,0.1
			c0.1,0.4,0.1,0.9,0,1.4l0,0.2v0.2v1.8v0.2l0,0.2c0.5,4.3-0.7,7.1-3.9,9c-2.7,1.6-3.1,4.3-3.1,6.5v0l0,0c0.1,4.1,0.7,8.5,4.2,12.3
			c5.1,5.5,4.7,11.8,2.5,19.7c-0.5,1.7-1.2,3.5-1.8,5l0,0.1l0,0.1c-0.1,0.4-0.3,0.8-0.5,1.3c-5.6,0.2-10.7,3.1-13.7,7.9
			c-2,3.2-5.4,5.1-9.1,5.2c-7.6,0.2-13.5,3.3-18.9,6.6c-1.3,0.8-2.7,1.6-4.6,2.5c-0.9,0.4-1.8,0.9-2.8,1.5c-4.8,2.5-5.9,6.1-6,8.7
			c-0.1,1.9-1.1,3-3.1,4.4c-0.3,0.2-0.6,0.4-0.9,0.6c-0.4,0.2-0.7,0.5-1.1,0.7c-1.1,0.7-2.3,1.5-3.4,2.3c-5.7,4.5-12.6,5.6-17.9,6.1
			c-2.4,0.1-4.8,0.8-6.9,2.1l-0.3,0.1l-0.2,0.2c-2.6,2.3-5.8,2.7-8.1,2.7c-0.4,0-0.6,0-0.8,0l-0.3-0.1h-0.3c-0.2,0-0.4,0-0.6,0
			c-0.4,0-0.8-0.1-1.4-0.1h-1.7h-1.7c-0.6,0-1.3,0-1.6-0.1l-0.1,0l-0.1,0c-2.8-0.2-3.3-1.3-3.5-2.6c-0.1-1.1-0.4-2.1-0.6-2.9
			c-0.4-1.8-0.6-3.2-0.6-4.5c0.1-4.4-2-8.5-5.6-11.1l-0.1-0.1l-0.1,0c-1.3-0.8-2.5-1.8-3.6-3c-2.6-3.5-5.6-7-10.7-8
			c-0.1-0.1-0.4-0.3-0.5-0.4c-0.1-4.2-3-5.8-5.5-7.2l-0.5-0.3c-0.6-0.3-1.1-0.7-1.7-1.1c-0.1,0-0.1-0.1-0.2-0.1
			c1.8-5.1-2.1-8.3-3.6-9.6l0,0l0,0c-0.2-0.1-0.3-0.2-0.4-0.4l-0.1-0.2l-0.2-0.2c-0.1-0.1-0.1-0.1-0.2-0.2c-0.2-0.2-0.5-0.6-1-0.9
			c-6.2-4.9-8.9-11.8-11-20.7l0,0l0,0c-0.4-1.6-0.9-3.1-1.6-5c-0.2-0.6-0.4-1.1-0.6-1.6c-0.2-0.5-0.4-1-0.6-1.5
			c-0.8-2.4-1.4-4.8-1.8-7.2c-0.1-0.7,0.2-1.1,0.3-1.4c2-2.4,4.2-4.6,7-7.5c1.5-1.6,3.1-3.2,4.7-4.7l0,0l0,0l2.2-2.2l0.1-0.1
			l0.1-0.1c1.1-1.3,2.4-2.6,4.2-4.1c4.1-3,5.8-6.6,5.1-10.8c-0.3-2.4,0-4.7,1-7.3l0.9-2.2l-2-1.3c-0.6-0.4-1.2-0.8-1.8-1.2l-2.4-1.6
			l-1.7,2.4c-0.6,0.9-0.8,0.9-0.9,1c-0.4,0.1-1.2,0.2-2.1,0.2c-0.8-1.2-1.3-2.5-1.4-3.8c-0.1-1.3-0.3-2.5-0.7-4
			c-0.3-1.2-0.5-2.2-0.5-3.2v-0.1l0-0.1c-0.3-5.3-3.5-8.3-6.5-10.8l0,0l0,0c-4.2-3.3-8.2-6.6-12.8-10.7l-0.1-0.1l-0.1-0.1
			c-0.9-0.7-1.6-1.7-2-2.7c-0.6-3.1-2.4-5.2-3.9-7.1l-0.1-0.1l-0.1-0.1c-0.1-0.1-0.2-0.2-0.3-0.4c-0.2-0.2-0.4-0.5-0.7-0.8
			c-1.1-1.3-1.9-2.5-2.6-3.6c-1.8-3.2-5.2-5.2-8.8-5.2h-0.3c-0.9,0-1.8,0-2.7,0.1c-0.8,0-1.6,0-2.3,0c-1.4,0-2.7,0-3.9-0.1l-0.1,0
			h-0.1H112c-4.2,0-8.6,1-12.4,2.8l0,0l0,0c-2.8,1.4-5.6,2.1-8.6,2.1c-4.2,0-8.3-1.3-12.5-4.1l-0.9-0.6l0,0l0,0
			c-2.1-1.3-4.2-2.6-5.5-4.7c-0.1-0.1-0.2-0.3-0.3-0.5c1.8-0.9,3.4-2.1,4.9-3.3c0.4-0.3,0.8-0.7,1.2-0.9l0.1-0.1l0.1-0.1
			c1.4-1,2.2-2.5,2.2-4.1c0-1.9-1.1-3.7-2.8-4.9l-0.1,0l-0.1,0c-1.9-1.1-3.3-2.1-4.4-3.1c-2.6-2.4-2.4-3.7-1-5.7
			c3.3-4.4,1.7-8.2-0.1-10.9c-1.9-3-4-6.1-5.5-8.8c-2.5-4.4-6.2-7.9-10.8-10.2c-0.5-0.3-1-0.6-1.6-0.9c-0.4-0.2-0.8-0.5-1.1-0.6
			c-0.6-0.3-1.2-0.7-1.7-1.1l-0.1-0.1l-0.1-0.1c-2.3-1.2-3.9-3.4-4.3-5.9l0-0.1l0-0.1c-1.2-5.3-1.3-9.5,1.9-13.1
			c1-1.1,1.9-2,2.9-2.9c1.6-1.3,3.1-2.4,4.7-3.2c1.1-0.6,2.7-1.7,3.1-3.5c0.3-1.6-0.4-3.1-1-4c-0.2-0.4-0.4-0.8-0.6-1.2
			c0.8-0.8,1.8-1.6,2.8-2.4c1.8-1.3,3.7-2.6,5.5-3.7c2.4-1.6,4.9-3.2,7.2-5l0.1-0.1l0.1-0.1c1.7-1.5,3.3-3.1,4.6-4.7
			c0.8-0.8,1.2-0.9,1.6-0.9c0.3,0,0.8,0,1.4,0.3l0.1,0l0.1,0c4.1,1.4,8.2,2.1,12.2,2.1c1.7,0,3.5-0.1,5.2-0.3l0,0l0,0
			c1.7-0.2,3.2-0.4,4.5-0.4c3.2,0,5.5,0.8,7.5,2.6l0.2,0.1l0.2,0.1c0.9,0.6,1.9,1.2,3.1,1.8l1.8,0.9l1.5-1.3l3.7-3.2
			c2.2,2.8,4.8,4.3,7.9,4.8l0,0c0.8,0.3,1.6,0.8,2.3,1.5l0.1,0.1l0.1,0.1c2,1.7,4,2.5,6.1,2.5c1.2,0,2.3-0.3,3.7-0.8l0.1,0l0.1,0
			c1.1-0.5,2.3-0.8,3.5-0.9h0.1c1.1,0,2,0.3,3,0.8c2.6,1.7,4.8,2.4,6.8,2.4c3.4,0,5.8-2,7.5-3.8l0-0.1l0-0.1
			c1.4-1.6,3.3-2.5,5.3-2.5c0.2,0,0.5,0,0.6,0l0.2,0.1l0.2,0c2,0.2,2.6,0.6,2.9,1l1.1,1.3l1.7-0.2c0.8-0.1,1.6-0.2,2.4-0.3l4.6-0.4
			l-2.2-4l-0.2-0.3l-0.1-0.3c-0.1-0.1-0.1-0.2-0.2-0.3c0.4-0.3,0.8-0.5,1.2-0.8l4.4-2.8l2.2-1.4c4.3-2.6,7.4-5.7,9.4-9.4l0,0l0,0
			c1.5-3,3.2-4.3,5.7-4.3c0.4,0,0.7,0,1,0c0.6,0.2,1.2,0.2,1.5,0.2c3.3,0,6.1-2,7.3-5c0.6-1.3,1.8-2.1,3.1-2.1h0.1l0.1,0
			c3.1-0.2,6.3-0.9,9.7-2.1l0.1,0l0.1,0c2.1-0.9,3.9-2.5,5.2-4.6l0.1-0.1l0.1-0.1c0.9-1.7,2.4-3.2,4.2-4.1c1.7-0.8,6-2.9,7.2-7.3
			c0,0,0.1,0,0.1,0c0.3,0,0.7-0.1,1-0.1l0.6-0.1c1.8-0.2,3.6-0.4,5.2-1.3l0.1,0l0.1,0c1.6-1.1,2.5-2.9,3.2-4.7
			c0.1-0.2,0.2-0.3,0.2-0.5c0,0,0.1,0.1,0.1,0.1l0,0l0,0l0.4,0.2c1.3,0.7,2.5,1.3,3.4,2.1l0,0l0,0c3.3,2.8,6.1,4,9.3,4h0.9h0.8
			c0.9,0,1.4,0.1,1.5,1.8l0,0.1l0,0.1c0.2,2,0.6,3.9,1.1,5.5c0.6,2.4,1.7,6.9,6.2,8.9l0.2,0.1c0.9,0.6,1.8,1.2,2.7,1.9l0.1,0.1
			l0.1,0.1l0.8,0.5c3.6,2.4,7.8,5.2,13,5.2c0.6,0,1.2,0,1.9-0.1h0.4c0.5,0,1.3,0.2,2,0.4c0.7,0.3,1.3,0.4,1.8,0.5
			c1.9,0.5,3.7,0.8,5.3,0.9l0.1,0h0.1c4.5,0,9.3,0.2,14,1.5c0.7,0.3,1.3,0.3,1.7,0.3c1.3,0,2.5-0.3,3.3-0.6c0.3-0.1,0.5-0.1,0.8-0.2
			c0.2,0,0.3-0.1,0.5-0.1c0.7-0.1,1.3-0.3,1.7-0.5c0.1,0,0.3-0.1,0.4-0.1c0,0,0,0,0,0l0.7,0.7l1.7-0.5c1.7-0.5,3.5-0.9,5.3-1.2
			l0.9-0.1l0.7-0.7c0.7-0.7,1-0.7,1.3-0.7h0.6c4.7,0,6-3,6.3-5.6c0.2-0.4,0.4-0.8,0.7-1l0.1-0.1l0.1-0.1c0.5-0.4,1.1-0.9,1.6-1.3
			l0.9-0.8l1.1-0.9l0-1.4l0-2.5l-0.1-6.6l-4.9,4.5l-0.4,0.4c-0.3,0.3-0.6,0.5-0.9,0.8l-0.1,0.1l-0.1,0.1c-0.4,0.4-0.6,0.4-0.6,0.4
			c-0.2,0-0.4,0-0.8-0.3l-0.1-0.1l-0.1-0.1c-3.9-2.1-7.9-4.2-12-6l-0.1-0.1l-0.1,0c-0.8-0.3-1.3-1-1.3-1.9v-0.1l0-0.1
			c-0.1-1.7-0.1-3.4,0-5.1c0.6-5.8-0.9-10.8-3.1-16.7c-1.1-3.4-1.3-6.9-0.4-10.2l0-0.1l0-0.1c0.8-3.9,4.7-6.5,9.8-6.5
			c0.6,0,1.2,0,1.5,0.1l0.2,0h0.2c0.4,0,1.1,0.1,1.8,0.3c1.7,0.6,3.4,0.9,5.2,0.9c3.5,0,7-1.4,10.6-4c1.1-0.9,1.7-1,1.8-1
			c0,0,0,0,0.1,0l1,0.4l1-0.3c1.1-0.3,2.2-0.5,3.3-0.5c0.9,0,1.8,0.1,2.7,0.4l0.7,0.2l0.7-0.1c0.5-0.1,1-0.2,1.4-0.2h4.5h4.5h4.5
			c0.8,0,1.4,0,2-0.1l1-0.1l0.7-0.7c1-1,2.1-2.1,3-3.3c0.1-0.2,0.3-0.3,0.4-0.5l0.2-0.2l0.5-0.7l0.1-0.8l0-0.1c0-0.1,0-0.2,0-0.3
			c0.2-2.3,1.1-2.9,2.9-3.5l0.7-0.2l0.5-0.6c1.1-1.1,2-1.8,3.1-2.3c0.7-0.3,1.5-0.5,2.3-0.5c0.5,0,1,0.1,1.5,0.2l0.9,0.2l0.9-0.4
			l0.4-0.2c0.3-0.1,0.6-0.2,0.9-0.4l0.1,0l0.1,0c1.6-0.8,3.1-1.7,4.5-2.8c1.5-1.1,2.8-2.1,4.3-3c1.2-0.6,2.2-0.9,3.2-0.9
			c1,0,2.5,0.3,4.6,2.9c1.8,2.1,4,4.2,6.7,6.4c0.3,0.3,0.6,0.5,0.9,0.8l0.9,0.9l1.3-0.1c2.7-0.2,5.5-0.5,8.2-0.9l1.1-0.2l0.7-0.9
			c0,0,0.1-0.1,0.1-0.2l0,0l0.1-0.1c1.2-1.7,2.4-3.4,3.5-5.2l1-1.5c1.2-1.8,2.5-3.7,3.8-5.4c1.3-1.4,2.8-2.8,4.4-4l0.1-0.1l0.1-0.1
			c0.2-0.1,0.5-0.4,1.4-0.7l0.1-0.1l0.1-0.1c0.2-0.1,0.3-0.2,0.5-0.3c0.9-0.5,1.9-1,2.6-1.9c1.2-1.4,2.6-2,4.4-2
			c0.8,0,1.5,0.1,2.2,0.3c1,0.3,2,0.4,3.1,0.4c2.3,0,4.5-0.6,6.5-1.8l0.4-0.2c1.5-0.8,3.3-1.9,5.1-2.7l0.7-0.3l0.1,0l0.1,0
			c3-1.4,5.7-2.5,8.8-2.6c6.3,0,9-3.5,10.1-6.4c0.5-1.4,1.3-2.7,2.1-3.9c0.3-0.4,0.6-0.9,1-1.5l0.2-0.3l0.1-0.3l0.2-0.5
			c0.3-1,0.6-1.9,0.9-2.8c0-0.1,0.1-0.2,0.1-0.3l0.1-0.3l1.1-2.9l-2.5-0.9c-0.5-0.5-1-1.1-1.6-1.7c-0.3-0.4-0.7-0.8-1-1.1
			c-2.5-2.8-5.3-5.9-8.3-8.9c-2.6-2.6-3.6-4.9-3.4-8c0.2-2.4,0.1-4.8,0.1-7.1c0-0.8,0-1.6,0-2.4c0-0.9,0-1.9-0.1-2.8
			c0-0.4,0-0.9,0-1.4c3-1.4,5.3-3.9,7.6-6.2l0.4-0.4c1.6-1.7,3.1-3.2,4.8-4.6c0.9,0.4,1.8,0.8,2.7,1.2l0.9,0.4
			c2.6,1.2,5.3,2.5,7.8,3.9l0.1,0.1l0.1,0c0.9,0.4,2,0.9,3.2,0.9c1.7,0,3-0.7,4.3-2.3c0.4-0.5,0.9-1.1,1.3-1.7
			c0.2-0.3,0.4-0.5,0.5-0.7c0.1-0.1,0.1-0.2,0.2-0.4c0.2-0.3,0.5-0.6,0.7-0.9c0.5-0.7,1.1-1.4,1.6-2l0.1-0.1l0.1-0.1l0.4-0.5
			c1.7-2.2,3.5-4.5,5-6.8c1.6-2.2,3-4.9,4.1-7.9l0,0l0,0C532.5,186.9,533.3,185.6,535.4,185 M638.7,192c0.1,0,0.1,0,0.2,0
			c-1.1,1.6-2.9,2.4-5.4,2.7c-0.1,0-0.1,0-0.2,0c1.2-0.6,2.4-1.3,3.6-2C637.5,192.4,638.3,192,638.7,192 M538.3,180.6
			c-0.2,0-0.3,0-0.5,0.1c-0.8,0.6-1.7,1-2.6,1.3c-4.1,0.8-5.5,3.7-6.3,6.1c-0.9,2.5-2.1,5-3.7,7.2c-1.6,2.4-3.5,4.8-5.3,7.1
			c-0.9,1-1.7,2.1-2.5,3.1c-0.3,0.4-0.5,0.8-0.8,1.2c-0.4,0.6-0.8,1.1-1.2,1.6c-0.9,1.1-1.5,1.2-2,1.2s-1.1-0.2-1.9-0.6
			c-2.9-1.7-6-3.1-9-4.5c-1.2-0.5-2.5-1.1-3.7-1.7c-0.1-0.1-0.3-0.1-0.4-0.1c-0.2,0-0.4,0.1-0.6,0.2c-2.4,1.7-4.3,3.7-6.2,5.7
			c-2.6,2.7-5,5.3-8.1,6.4c-0.4,0.1-0.7,0.5-0.7,0.9c0,1.9,0.1,3.7,0.1,5.5c0,3.2,0.1,6.3-0.1,9.3c-0.3,4.1,1.1,7.3,4.3,10.4
			c2.9,2.8,5.6,5.8,8.2,8.7c1,1.1,2,2.3,3,3.3c0.1,0.1,0.2,0.2,0.4,0.2c-0.1,0.2-0.2,0.4-0.2,0.6c-0.4,1.1-0.8,2.3-1.1,3.4
			c-0.3,0.5-0.6,1-0.9,1.4c-1,1.6-1.8,3-2.4,4.5c-1.1,3-3.4,4.5-7.3,4.5c-3.8,0.1-7,1.5-10,2.9l-0.8,0.3c-2.1,1-4.2,2.2-5.8,3.1
			c-1.5,0.9-3.2,1.4-5,1.4c-0.8,0-1.6-0.1-2.3-0.3c-1-0.3-2-0.4-3-0.4c-2.7,0-4.9,1-6.7,3c-0.5,0.6-1.4,1-2.3,1.5
			c-0.7,0.3-1.5,0.7-2.1,1.2c-1.8,1.3-3.5,2.8-5,4.5c-1.7,2.3-3.4,4.8-5,7.1c-1.1,1.7-2.3,3.4-3.5,5.1c0,0-0.1,0.1-0.1,0.1
			c-2.6,0.4-5.2,0.7-7.9,0.9c-0.3-0.3-0.7-0.6-1-0.9c-2.2-1.8-4.4-3.8-6.3-6c-2.2-2.6-4.4-3.9-6.9-3.9c-1.5,0-3,0.4-4.7,1.3
			c-1.6,1-3.1,2.1-4.6,3.2c-1.3,1-2.6,1.8-4,2.5c-0.4,0.2-0.8,0.4-1.3,0.5c-0.7-0.2-1.4-0.2-2.1-0.2c-1.3,0-2.6,0.3-3.7,0.8
			c-1.5,0.7-2.7,1.8-3.9,2.9c-2.8,0.8-4.7,2.3-5,6.1c0,0.1,0,0.3,0,0.4c-0.2,0.2-0.3,0.5-0.5,0.7c-0.8,1-1.7,2-2.7,3
			c-0.5,0.1-1,0.1-1.7,0.1c-1.5,0-3,0-4.5,0s-3,0-4.5,0s-3,0-4.6,0c-0.6,0-1.2,0.1-1.8,0.3c-1.1-0.3-2.3-0.5-3.5-0.5
			c-1.4,0-2.9,0.2-4.2,0.7c-0.4-0.2-0.8-0.3-1.2-0.3c-1.1,0-2.3,0.5-3.7,1.6c-3,2.3-5.9,3.4-8.7,3.4c-1.4,0-2.8-0.2-4.4-0.8
			c-0.9-0.2-1.8-0.4-2.6-0.4c-0.6-0.1-1.3-0.1-2-0.1c-6.5,0-11.6,3.6-12.7,8.9c-1,3.9-0.8,8,0.5,11.9c1.9,5.3,3.5,10.1,2.9,15.5
			c-0.1,1.8-0.1,3.7,0,5.5c0,2.1,1.3,4,3.3,4.7c4,1.8,8,3.8,11.8,5.9c0.9,0.6,1.7,0.8,2.5,0.8c0.9,0,1.8-0.4,2.7-1.3
			c0.4-0.4,0.9-0.8,1.3-1.2c0,0.8,0,1.6,0,2.5c-0.8,0.7-1.7,1.4-2.5,2.1c-1,0.7-1.7,1.8-2,2.9c0,0.1,0,0.1,0,0.2
			c-0.2,2.1-1.1,2.9-3.3,2.9c-0.1,0-0.6,0-0.6,0c-1.5,0-2.5,0.7-3.4,1.5c-1.9,0.3-3.8,0.7-5.7,1.3l-0.3-0.3
			c-0.2-0.2-0.4-0.3-0.7-0.3c-0.1,0-0.2,0-0.3,0c-0.4,0.1-0.8,0.3-1.2,0.4c-0.6,0.2-1.2,0.5-1.8,0.6c-0.5,0.1-1,0.3-1.5,0.4
			c-0.8,0.3-1.7,0.5-2.5,0.5c-0.3,0-0.5,0-0.7-0.1c-5.1-1.5-10.2-1.7-15-1.7c-1.6-0.1-3.2-0.4-4.8-0.8c-0.5-0.1-1-0.2-1.5-0.4
			c-1-0.3-2-0.6-3-0.6c-0.2,0-0.4,0-0.6,0c-0.6,0.1-1.1,0.1-1.7,0.1c-4.3,0-7.8-2.3-11.4-4.7l-0.8-0.5c-1.1-0.8-2.2-1.6-3.4-2.3
			h-0.1c-2.9-1.3-3.8-4-4.5-6.9c-0.5-1.7-0.8-3.4-1-5.1c-0.2-3.8-2.6-4.6-4.5-4.6c-0.3,0-0.5,0-0.8,0c-0.3,0-0.6,0-0.9,0
			c-2.5,0-4.7-1-7.4-3.3c-1.3-1.2-2.9-2-4.4-2.8c-0.7-0.4-1.4-0.7-2-1.1c-0.2-0.1-0.3-0.1-0.5-0.1c-0.1,0-0.2,0-0.3,0
			c-0.3,0.1-0.5,0.3-0.6,0.5c-0.5,0.9-0.8,1.7-1.2,2.5c-0.6,1.5-1.2,2.8-2.1,3.4c-1.2,0.7-2.8,0.8-4.6,1c-0.9,0.1-1.8,0.1-2.7,0.3
			c-0.4,0-0.8,0.4-0.8,0.9c-0.3,3.3-2.9,5.1-5.8,6.5c-2.4,1.2-4.4,3.1-5.6,5.5c-0.9,1.5-2.2,2.7-3.8,3.4c-2.9,1-5.9,1.7-8.9,1.9
			c-2.6,0-4.9,1.6-5.9,4c-0.7,1.9-2.5,3.1-4.5,3.1c-0.3,0-0.6,0-0.9-0.1c-0.6-0.1-1.1-0.1-1.6-0.1c-4.8,0-7.1,3.4-8.4,6
			c-1.7,3.2-4.3,5.9-8.3,8.3c-2.2,1.4-4.4,2.8-6.6,4.2c-0.9,0.6-1.9,1.2-2.8,1.8c-0.4,0.3-0.5,0.8-0.3,1.3c0.3,0.7,0.7,1.3,1,1.9
			c0.1,0.2,0.2,0.4,0.3,0.6c-0.9,0.1-1.7,0.2-2.5,0.3c-1.1-1.4-2.8-1.9-5-2.1c-0.4-0.1-0.9-0.1-1.3-0.1c-3,0-5.7,1.3-7.6,3.5
			c-1.9,2-3.5,2.9-5.3,2.9c-1.4,0-3.1-0.6-5.3-2c-1.4-0.8-2.9-1.2-4.5-1.2h-0.2c-1.6,0.1-3.2,0.5-4.7,1.2c-1,0.4-1.8,0.6-2.6,0.6
			c-1.4,0-2.7-0.6-4.1-1.8c-1.1-1.1-2.4-1.9-3.8-2.3h-0.1c-3-0.5-5.2-2.2-7.2-5.3c-0.2-0.3-0.4-0.5-0.7-0.5c-0.1,0-0.1,0-0.2,0
			c-0.2,0-0.4,0-0.6,0.2l-5.4,4.6c-1-0.5-1.9-1-2.8-1.6c-2.5-2.2-5.6-3.3-9.5-3.3c-1.7,0-3.5,0.2-4.9,0.4c-1.6,0.2-3.2,0.3-4.8,0.3
			c-3.9,0-7.7-0.7-11.3-1.9c-1-0.4-1.8-0.5-2.5-0.5c-1.5,0-2.7,0.6-3.9,1.9c-1.3,1.6-2.8,3.1-4.3,4.4c-2.3,1.7-4.7,3.3-7.1,4.9
			c-1.8,1.2-3.7,2.5-5.6,3.8c-1.4,1.1-2.8,2.3-4.1,3.6c-0.3,0.3-0.4,0.7-0.2,1.1c0.3,0.9,0.8,1.9,1.3,2.8c0.5,0.8,0.7,1.4,0.6,1.9
			c-0.1,0.5-0.7,1-1.6,1.5c-1.8,1-3.5,2.2-5.1,3.5c-1.2,1-2.2,2.1-3.2,3.2c-4.3,4.8-3.8,10.5-2.6,15.8c0.6,3.4,2.8,6.4,5.9,8
			c0.6,0.4,1.2,0.8,1.9,1.2c0.9,0.5,1.8,1.1,2.8,1.6c4,2,7.3,5.1,9.5,9c1.6,2.7,3.6,5.8,5.6,8.9c1.7,2.6,2.3,4.7,0.2,7.5
			c-2.5,3.5-2.1,6.5,1.4,9.7c1.5,1.3,3.2,2.4,4.9,3.4c0.9,0.6,1.5,1.5,1.5,2.4c0,0.5-0.2,1.2-0.9,1.7c-0.5,0.3-1,0.7-1.5,1.1
			c-2.5,2-4.8,3.8-8,3.9c-2.2,0.1-4.4,0.5-6.6,1.2c-1.4,0.6-2.6,1.2-3.8,2c-0.3,0.2-0.5,0.5-0.5,0.9c0,0.3,0.2,0.6,0.5,0.8l0.5,0.3
			c2.1,1.1,2.9,1.5,3.9,1.5c0.7,0,1.3-0.3,2.1-0.7c1.5-0.7,3-1.6,4.4-2.5c0.5-0.3,0.9-0.4,1.2-0.4c0.3,0,0.7,0,1,0.6
			c1.6,2.7,4.1,4.3,6.5,5.8l0.9,0.6c4.8,3.1,9.5,4.6,14.2,4.6c3.4,0,6.7-0.8,9.9-2.4c3.4-1.6,7.3-2.5,11.1-2.5c0.4,0,0.9,0,1.4,0
			c1.3,0.1,2.6,0.1,4.1,0.1c1.6,0,3.3-0.1,5-0.1c0.1,0,0.2,0,0.3,0c2.5,0,4.9,1.4,6.2,3.7c0.9,1.5,1.9,2.8,3,4.1
			c0.4,0.4,0.7,0.9,1.1,1.3c1.5,1.8,2.9,3.5,3.3,5.8v0.1c0.6,1.7,1.7,3.3,3.1,4.4c5.1,4.6,9.1,7.9,13,10.9c3.2,2.6,5.2,4.9,5.4,8.6
			c0,1.3,0.3,2.6,0.6,3.9c0.3,1.2,0.5,2.3,0.6,3.5c0.2,2.3,1.1,4.4,2.6,6.2c0.2,0.3,0.5,0.4,0.8,0.4c4,0,4.8-0.1,6.4-2.4
			c0.6,0.4,1.2,0.8,1.8,1.2c-1,2.7-1.6,5.6-1.1,8.9c0.5,3.1-0.7,5.6-4,8c-1.6,1.4-3.2,2.9-4.6,4.5c-0.7,0.7-1.5,1.5-2.2,2.2
			c-1.6,1.5-3.2,3.1-4.8,4.8c-2.6,2.7-4.9,5.1-7.1,7.7c-0.8,1-1.1,2.2-1,3.5v0.1c0.5,2.6,1.2,5.3,2,7.8c0.4,1.1,0.8,2.1,1.2,3.2
			c0.6,1.6,1.1,3.1,1.5,4.7c1.9,8.2,4.6,16.6,12.1,22.4c0.3,0.2,0.5,0.5,0.8,0.8c0.3,0.4,0.6,0.7,1,1c2.7,2.2,4,4.2,2.1,7.5
			c-0.3,0.4-0.2,1,0.3,1.3c1.6,1,2.5,1.6,3.5,2.2l0.5,0.3c2.5,1.4,4,2.3,4,4.9c0,1.2,1.5,2.7,2.7,3c4.2,0.8,6.7,3.8,9.1,7
			c1.3,1.5,2.7,2.7,4.3,3.7c2.8,2,4.4,5.2,4.3,8.6c0,1.7,0.3,3.5,0.7,5.2c0.2,0.8,0.4,1.7,0.5,2.6c0.5,3.2,2.5,4.9,6.2,5.2
			c0.6,0.1,1.3,0.1,2.1,0.1c0.5,0,1.1,0,1.7,0c0.6,0,1.1,0,1.7,0c0.8,0,1.4,0.1,2,0.1c0.5,0.1,0.9,0.1,1.4,0.1
			c3.8,0,7.4-1.1,10.1-3.5c1.7-1,3.6-1.6,5.6-1.7c5.7-0.5,13.1-1.7,19.5-6.7c1-0.8,2.1-1.5,3.2-2.2c0.7-0.5,1.4-0.9,2.1-1.4
			c2-1.4,4.2-3.2,4.4-6.7c0.1-2.6,1.6-4.7,4.5-6.2c0.8-0.5,1.7-1,2.6-1.4c1.6-0.8,3.3-1.7,4.9-2.7c4.9-3,10.4-5.9,17.4-6.1
			c4.8-0.1,9.1-2.6,11.6-6.6c2.6-4.1,6.9-6.5,11.7-6.5c0.3,0,0.5,0,0.8,0c0.1,0,0.1,0,0.1,0c0.4,0,0.8-0.3,0.9-0.7
			c0.3-0.8,0.7-1.7,1-2.6c0.7-1.7,1.4-3.5,1.9-5.3c2-7.2,3.3-15.5-3.2-22.5c-2.7-2.9-3.3-6.2-3.4-10.3c0-2.1,0.4-3.2,1.6-3.9
			c4.3-2.6,6.1-6.5,5.4-12c0-0.5,0-1.2,0-1.8c0.1-0.7,0.1-1.5,0-2.2c-0.3-3.1,0.5-6,2.9-9.7c0.7-1.1,1.9-2.1,2.6-2.2
			c3.9-0.4,7-2.3,10-4.2l0.8-0.5c0.5-0.4,1.1-0.6,1.7-0.6c0.5,0,0.9,0.1,1.4,0.4c1.6,0.8,3.3,1.2,5.1,1.2c3.5-0.1,6.6-2,8.1-5.1
			c1.8-3.4,1-6.8-2-9.2c-0.4-0.4-0.7-0.8-1-1.2c2.8-1.9,3.8-2.2,5.7-2.2c0.4,0,0.9,0,1.4,0h0.3c1.9,0,3.8-0.1,5.6-0.4
			c1-0.1,2-0.3,2.9-0.4c1-0.2,2-0.3,3-0.4c0.3,0,0.7,0,1,0s0.6,0,0.9,0c0.3,0,0.7,0,1,0c0.6,0,1.4,0,2.2-0.2
			c2.1-0.5,4.2-0.9,6.3-1.2c5.5-0.9,11.3-1.8,16.3-5.4c0.6-0.3,1.4-0.5,2.2-0.7c0.3-0.1,0.6-0.1,0.9-0.2l3.2,2.1
			c0.1,0.1,0.3,0.2,0.5,0.2c0.1,0,0.3-0.1,0.5-0.2c0.7-0.4,1.4-0.9,2.1-1.3c1.5-0.9,2.9-1.8,4.3-2.8c1.8-1.2,3.5-2.6,5.1-4.2
			c1.8-1.9,3.6-4,5.2-6.1c1.1-1.5,2.2-3.1,3-4.8c0.8-1.9,2.3-3.5,4.1-4.5c2.1-1,4.2-2.3,6.2-3.5c0.9-0.5,1.7-1,2.6-1.5
			c0.3-0.1,0.4-0.3,0.5-0.6c0.1-0.3,0-0.5-0.1-0.7c0.7-0.6,1.4-1.2,2.1-1.7c0.2-0.2,0.4-0.3,0.6-0.5c0.2,0.2,0.4,0.4,0.7,0.6
			c0.2,0.1,0.5,0.2,0.7,0.2c0.3,0,0.5-0.1-0.1-0.3c1.9-1.9,3.8-3.9,5.5-6c4.5-6.1,10.3-9.2,17.4-9.2c0.4,0,0.7,0,1,0
			c4.3,0.2,8.7,0.8,12.9,1.4c2.2,0.3,4.4,0.6,6.7,0.9c0.5,0.1,0.9,0.1,1.4,0.2c1.2,0.1,2.4,0.3,3.6,0.3c0.8,0,1.5,0,2.2-0.2
			c2.5-0.6,4.9-1.6,7.5-2.7c1.1-0.5,2.2-0.9,3.4-1.4c0.3-0.1,0.6-0.5,0.6-0.9c0-0.5,0-1,0-1.6c0-1.4,0-3,0.1-4.6
			c0.1-1.1,0.3-2.7,1-3.5c3.9-4.3,5.1-9.8,3.6-16.9c-0.6-2.9-0.1-5.1,1.5-6.9c1.3-1.5,2.5-3,3.6-4.5c2.6-3.4,5-6.6,8.7-8.6
			c0.6-0.3,0.8-0.8,1-1.3c0-0.2,0.1-0.3,0.2-0.5c0.1-0.2,0.2-0.4,0.1-0.7c1.4-0.6,2.7-1.4,4-2.2c0.9,0.3,1.8,0.5,2.7,0.5
			c0.3,0,0.5,0,1,0.3c0.7-0.1,1.4-0.2,2.1-0.5c1.8-0.7,3.7-1.1,5.6-1.1c1.3,0,2.7,0.2,4,0.6c2.2,0.6,4.4,0.9,6.5,0.9
			c4.9,0,9.1-1.6,13-4.8c1.4-1.2,3-2.2,4.5-3.2c1.4-0.9,2.8-1.8,4.1-2.8c1.5-1.2,2.7-2.7,3.5-4.5c1.1-2.4,1.9-4.8,2.8-7.2
			c0.3-0.9,0.6-1.9,1-2.8c0.1-0.3,0.1-0.6-0.1-0.9c-1-1.5-2-2.9-3-4.3c-1.7-2.4-3.4-4.8-5.1-7.2c-0.8-1.1-1.5-2.1-2.2-3.2
			c-0.8-1.3-1.7-2.6-2.6-3.9c-0.6-0.8-0.7-1.8-0.2-2.7c1.4-3.1,2.6-6.3,3.6-9.5c1-4,3.6-6.6,8.4-8.7c0.5-0.3,1.1-0.4,1.7-0.4
			c0.3,0,0.6,0,0.9,0.1c1.7,0.5,3.6,0.7,5.8,0.7c1.6,0,3.2-0.1,4.8-0.2c1.1-0.1,2.3-0.2,3.5-0.2c0.3,0,0.6-0.2,0.8-0.4
			c3.1-4,3.4-8.5,3.7-12.8c0.1-1.2,0.2-2.3,0.3-3.4c0.3-3.9,1.8-7.6,4.3-10.7c1-1.2,2.1-2.4,3.2-3.6c2-2.2,4-4.4,5.5-6.9
			c0.4-0.7,0.8-1.5,1.3-2.2c2.3-3.8,4.7-7.6,4.8-12.5c0.1-1.9,0.8-3.2,4.1-3.4c1.6-0.1,3.2-0.1,4.9-0.2l1.6-0.1c0.5,0,1-0.4,1-0.9
			l0.1-0.7c0.1-1.2,0.2-2.2,0.3-3.1c0.1-0.8,0.2-1.5,0.2-2.3c0.1-1.8,0.3-3.4,0.7-4.9c0.3-1.1,0.6-2.2,1-3.2c1.2-3.5,2.4-7.1,2-11
			c0-1.2,0.1-2.4,0.5-3.7c1-4.7,0.8-5.3-3.5-7.7c-3.1-1.8-4.4-4-4.1-7.2c0.2-1.4,0.1-2.9,0.1-4.3c0-1.2-0.1-2.5,0-3.7
			c0.2-3.9-1.5-5.8-4.5-7.5c-4.2-2.5-8.1-5.8-7.7-12.1c0.2-3-0.6-6-1.3-8.9c-0.3-0.9-0.5-1.7-0.7-2.5c-0.1-2.2-0.4-4.4-0.9-6.5
			c0.7-0.5,1.3-1,1.8-1.7c0.8-0.9,2.5-1.3,4.2-1.7c0.5-0.1,1.1-0.3,1.6-0.4c2.5-0.7,5.1-1.3,7.6-1.9c1.1-0.3,2.2-0.5,3.3-0.8
			c0.5-0.1,0.8-0.5,0.8-0.9c0.1-0.6,0.2-1.3,0.2-1.9c0.1-1.3,0.2-2.5,0.4-3.7c0.2-1,0.4-2.1,0.6-3.1c0.6-2.7,1.2-5.5,0.6-8.5
			c-0.1-0.8,0-1.4,0.4-1.9c0.5-0.7,1.4-1.2,2.5-1.3c0.8-0.1,1.6-0.1,2.4-0.1c0.8,0,1.7,0,2.6-0.1c4.1-0.4,7-2.3,8.5-5.8
			c0.1-0.4,0.1-0.8-0.2-1.1c-1.1-1.2-2.2-1.8-3.5-1.8c-1.2,0-2.3,0.6-3.2,1.1c-4.5,2.7-9.2,4.9-14.1,6.7c-2.3,0.7-4.8,1.1-7.6,1.1
			c-2.3,0-4.6-0.3-6.6-0.5c-3.8-0.6-7.7-1.4-11.4-2.6c-0.9-0.3-1.9-0.4-2.9-0.4c-1.8,0-3.4,0.4-5.2,0.8l-1,0.2
			c-0.3,0.1-0.7,0.1-1.1,0.1c-1.3,0-2.8-0.5-4.4-0.9c-1.1-0.3-2.1-0.6-3.2-0.8c-0.2,0-0.3,0-0.5,0c-0.1,0-0.3,0-0.4,0
			c-0.1,0-0.1,0-0.2,0c-2.2-0.5-4.5-0.6-6.7-0.7c-3.4-0.1-6.6-0.3-9.6-1.7c-1-0.5-2-0.7-3-0.7c-1.9,0-3.7,0.8-5,2.2
			c-1.3,1.2-2.7,2.3-4.2,3.3c-1.3,1-2.5,1.5-3.6,1.5c-1.1,0-2.2-0.5-3.3-1.4l-0.2-0.1c-2.9-2.4-4.7-4.1-3.8-7.4
			c0.4-1.4,0.8-2.9,1.2-4.6c0.2-0.7,0.4-1.5,0.6-2.3c0.1-0.4-0.1-0.9-0.4-1.1C538.7,180.7,538.5,180.6,538.3,180.6L538.3,180.6z"/>
	</g>
	<g>
		<path class="st2" d="M148.4,285.3c-2.5,0-5.2-0.2-7.7-0.4l-0.2,0c-1.1-0.1-2.3-0.2-3.3-0.3l-0.1,0h-0.1c-0.1,0-0.2,0-0.3,0
			c-0.2,0-0.4-0.1-0.7-0.1h-0.4c-2.4,0.1-4.7,0.3-6.8,0.5c-1,0.1-2,0.2-2.9,0.2h-0.1l-1.2-1.4c-1.5-1.6-2.7-3-3.9-4.4l-0.1-0.1
			l-0.1-0.1c-0.4-0.3-0.7-0.7-0.9-1.2l0-0.1c-0.7-3.3-2.3-6.4-4.9-9.6l-0.1-0.2l-0.2-0.1c-0.7-0.5-1-0.8-1.1-1.1l-0.3-0.4l0-0.1
			c-0.3-0.4-1-1.2-1.3-1.7l0.1,0c0.1,0,0.3,0.1,1.1,0.7l0.3,0.2l0.3,0.1c0.6,0.1,1.3,0.1,1.9,0.1c1.1,0,2.3-0.2,3.7-0.6l0.1,0
			c2.7-1,4.5-2.8,5.1-5c0.6-2.1,0.1-4.5-1.5-6.8c-0.3-0.5-0.7-0.9-1.2-1.4c-0.1-0.1-0.1-0.1-0.2-0.2c0,0-0.1-0.1-0.1-0.1
			c0.7-1.1,1.5-1.6,2.6-1.6l1.6,0.1l0.2-1.3c0.1-0.8,0.3-1.6,0.5-2.4c0.3-1.5,0.6-3,0.7-4.4c0.1-2,0.3-4,0.6-6.1
			c0.2-1.8,0.4-3.6,0.5-5.5c0.3-5.2-1.4-10.5-5.1-15.7c-1.5-2.1-1.4-3.7-1.3-6l0-0.5c0.2-4.2,1.9-6.4,6-7.4c1.5-0.4,2.8-1.3,3.8-2.7
			l0.1-0.1l0-0.1c1.2-2.3,3.3-2.8,5.3-3l0.1,0c0.3,0,0.5-0.1,0.7-0.1c0.3,0,0.6-0.1,1-0.1c1.8-0.2,3.6-0.4,5.4-0.4
			c0.7,0,1.6,0.1,2.6,0.2c1.5,0.2,3,1.3,4.5,2.4l1.2,0.9c1.3,0.9,2.7,2.1,4.2,3.5c2.5,2.1,5.4,4.4,9.3,4.4h0.2
			c0.2,0,0.5,0.1,0.8,0.2c0.3,0.1,0.6,0.3,1.1,0.3c5.1,1.1,7.7,4.1,8.6,9.7c0.3,1.9-0.2,3.1-1,4.8l-0.9,2c-1.8,3.9-3,7-4,9.8
			c-1.3,4-0.3,7.8,2.8,11l4.3,4.3l0,0c2.2,1.9,3.6,4.7,3.8,7.6l-1.1,0.6c-3.7,2.1-7.5,4.3-11.3,5.4c-0.6,0.2-1.2,0.3-1.8,0.4
			c-1,0.2-2.1,0.2-3.1,0.3c-0.5,0-1.1,0.1-1.6,0.1l-0.9,0.1l-0.4,0.8c-0.3,0.8-1.1,1.5-2.4,2.3l-0.1,0.1c-4.9,3.1-5.2,3.9-3.4,9.8
			c0.6,2.1,1,5-0.5,7.1c-1.2,1.6-3.4,2.5-6.3,2.5H148.4z M110.5,263.5c-0.3-0.1-0.7-0.4-1.1-0.6c-1.4-1.1-2.8-2-4.3-2.7l-0.1,0
			l-0.1,0c-1.1-0.4-2.2-0.7-3.4-1c0.8-0.4,1.6-0.5,2.4-0.5C106.6,258.6,109,260.4,110.5,263.5z"/>
		<path class="st1" d="M143.9,195.9c0.7,0,1.4,0.1,2.4,0.2c1.2,0.2,2.5,1.1,3.8,2.1l1.2,0.9c1.2,0.9,2.6,2,4,3.4l0,0l0,0
			c1.9,1.7,5.4,4.7,10.3,4.7l0.2,0c0,0,0.1,0,0.2,0.1c0.3,0.1,0.8,0.4,1.5,0.5c4.4,1,6.6,3.5,7.4,8.5c0.2,1.5-0.1,2.4-0.9,3.9l0,0
			l0,0l-0.9,2c-1.8,4-3,7.1-4,10c-1.5,4.5-0.4,8.8,3.2,12.5l0,0l0,0l4.2,4.2l0.1,0.1l0.1,0.1c1.7,1.4,2.8,3.5,3.1,5.7l-0.3,0.2
			c-3.6,2.1-7.4,4.2-11,5.3c-0.5,0.1-1,0.3-1.6,0.4c-1,0.1-2,0.2-3,0.3c-0.5,0-1.1,0.1-1.6,0.1l-1.8,0.1l-0.7,1.7
			c-0.1,0.3-0.5,0.8-1.8,1.6l-0.1,0.1c-5.4,3.5-6,5-4,11.5c0.5,1.7,0.9,4.2-0.2,5.8c-1.2,1.5-3.4,1.9-5.1,1.9l-0.1,0
			c-2.5,0-5-0.2-7.6-0.4c-1.2-0.1-2.4-0.2-3.5-0.3l-0.1,0h-0.1c-0.1,0-0.1,0-0.1,0c-0.2,0-0.5-0.1-0.9-0.1h-0.4h-0.1l-0.1,0
			c-2.3,0.1-4.7,0.3-6.8,0.5c-0.8,0.1-1.6,0.1-2.3,0.2c-0.3-0.3-0.5-0.6-0.8-0.8c-1.5-1.6-2.7-2.9-3.9-4.3l-0.2-0.2l-0.2-0.2
			c-0.2-0.1-0.3-0.3-0.4-0.5c-0.8-3.5-2.5-6.8-5.2-10.1l0,0c1.1,0,2.3-0.2,3.6-0.6l0.1,0l0.1,0c3.2-1.1,5.3-3.3,6.1-6
			c0.7-2.5,0.1-5.4-1.7-8.1l0-0.1l0-0.1c-0.2-0.2-0.4-0.5-0.6-0.8c0.2-0.1,0.4-0.1,0.5-0.1l0,0l0.2,0l2.7,0.2l0.4-2.7
			c0.1-0.8,0.3-1.5,0.5-2.4c0.3-1.5,0.7-3.1,0.7-4.6c0.1-1.9,0.3-3.9,0.6-6c0.2-1.8,0.4-3.7,0.6-5.6c0.3-5.5-1.5-11.1-5.4-16.6
			c-1.2-1.6-1.1-2.9-1-5.1l0-0.1v-0.1v-0.3c0.2-3.6,1.4-5.2,4.8-6.1c1.8-0.5,3.5-1.6,4.6-3.3l0.1-0.1l0.1-0.2c0.8-1.4,1.9-2,4.1-2.2
			l0.1,0l0.1,0c0.2,0,0.4-0.1,0.6-0.1c0.3,0,0.6-0.1,1-0.1C140.6,196.1,142.2,195.9,143.9,195.9 M143.9,192.9
			c-1.9,0-3.8,0.2-5.6,0.4c-0.6,0.1-1.1,0.1-1.7,0.2c-2.2,0.2-4.9,0.8-6.5,3.8c-0.7,1-1.7,1.8-2.9,2.1c-4.7,1.2-6.9,3.9-7.1,8.9v0.4
			c-0.1,2.4-0.2,4.5,1.6,7c3.4,4.8,5.1,9.7,4.8,14.7c-0.2,3.9-1,7.8-1.1,11.6c-0.1,2-0.8,4.3-1.2,6.6c-0.1,0-0.2,0-0.3,0
			c-1.7,0-3.1,0.9-4.1,2.7c-0.2,0.3-0.2,0.8,0.1,1.1c0.2,0.2,0.4,0.5,0.6,0.7c0.4,0.4,0.7,0.8,1,1.2c1.3,1.9,1.8,3.9,1.3,5.6
			c-0.5,1.8-2,3.2-4.2,4c-1.1,0.3-2.2,0.5-3.3,0.5c-0.6,0-1.1,0-1.6-0.1c-0.7-0.5-1.2-0.8-1.6-0.9c-1.7-3.9-4.7-6.3-8.1-6.3
			c-1.5,0-3,0.5-4.4,1.4c-0.3,0.2-0.5,0.6-0.4,1c0.1,0.4,0.4,0.7,0.8,0.8c1.5,0.3,3,0.8,4.5,1.3c1.4,0.7,2.8,1.6,4.1,2.6
			c0.5,0.3,1,0.6,1.5,0.8c0.2,0.6,0.8,1.4,1.7,2.5l0.2,0.3c0.3,0.5,0.8,1,1.5,1.5c2.4,3,3.9,5.9,4.6,9v0.1c0.3,0.8,0.8,1.5,1.4,2
			c1.6,1.9,3.3,3.7,5.4,6c0.1,0.2,0.4,0.3,0.7,0.3c0.1,0,0.4,0,0.4,0c2.8-0.2,6.3-0.5,9.7-0.7c0.2,0,0.3,0,0.4,0
			c0.3,0,0.6,0.1,1,0.1c1.1,0.1,2.3,0.2,3.5,0.3c2.6,0.2,5.2,0.4,7.8,0.4v0h0.1c3.4,0,6-1.1,7.5-3.1c1.5-2.1,1.7-5,0.7-8.4
			c-1.6-5.4-1.5-5.4,2.9-8.2c1.5-1,2.5-1.9,3-3c1.6-0.1,3.2-0.1,4.9-0.4c0.7-0.1,1.3-0.2,2-0.4c4.5-1.3,8.9-4,13-6.3
			c0,0,0.1-0.1,0.1-0.1c0.3-0.2,0.5-0.5,0.5-0.9c-0.1-3.5-1.7-6.8-4.3-9c-1.2-1.2-2.5-2.5-4.2-4.2c-2.8-2.9-3.6-6.1-2.5-9.5
			c1.1-3.3,2.5-6.6,3.9-9.7l0.9-2c0.8-1.7,1.5-3.3,1.1-5.7c-1-6.3-4.2-9.8-9.9-11c-0.2,0-0.4-0.1-0.6-0.2c-0.4-0.2-0.9-0.4-1.5-0.4
			h-0.2c-3.4,0-6-2-8.3-4c-1.3-1.2-2.8-2.5-4.3-3.6c-0.4-0.3-0.8-0.6-1.2-0.9c-1.6-1.2-3.3-2.4-5.2-2.7
			C145.9,193,144.9,192.9,143.9,192.9L143.9,192.9z"/>
	</g>
</g>
<g>
	<g>
		<path class="st3" d="M48,407.3c-2.7,0-5-2-6.8-6l1.3-1.9c0.3-0.4,0.6-0.9,1-1.3c0.8-1.1,1.6-2.2,2.4-3.2c2-2.5,3.8-5.3,3.3-8.9
			c-0.2-0.9-0.2-1.9,0-2.8c1.6-6.3,1.1-11.3-1.7-16.1c-0.7-1.2-0.6-2.6,0.1-3.9c0.9-1.6,2.7-2.6,4.6-2.7c3.1-0.1,6.3-0.1,9.7-0.1
			c4.7,0,9.5,0,15.2,0.2c1.8,0,3.5,0.7,5.1,2.3l0.3,0.3l0.5,0.1c0.4,0.1,0.8,0.1,1.2,0.2c0.6,0.1,1.3,0.1,1.9,0.1c0.3,0,0.7,0,1,0
			l1.4-0.1l0-1c0.5-0.3,0.9-0.6,1.4-0.9c0.5-0.4,1.1-0.7,1.6-1.1l1.5-1c1.9-1.3,3.7-2.5,5.6-3.6c2.7-1.6,4.7-4,5.9-7.1
			c1.6-4.5,4.8-7.5,9.8-9.2c1.4-0.5,2.5-1,3.7-1.7c2.6-1.8,3.7-3.9,3.5-6.7c-0.1-0.8-0.1-1.5-0.1-2.3c0-2.6,0-5.5-3.1-7.2
			c0,0,0.1-0.1,0.1-0.1c0.4-0.3,0.8-0.5,1.2-0.8c1.8-1,3.2-2,4.6-3c0.2-0.1,0.7-0.5,1.2-1c0.9-0.8,1.5-1.3,2.2-1.3
			c0.3,0,0.5,0,0.8,0.2l2.5,1.1l0.3-1.9c0.1-0.6,0.2-1.2,0.3-1.8c0.1-0.6,0.2-1.3,0.3-1.9l0.2-0.9l-0.7-0.6
			c-0.7-0.6-1.1-1.3-1.2-2.3l0-0.1l0-0.1c-0.3-1-1-2-2.4-3.1c-0.8-0.7-1.8-1.4-2.7-2l-0.7-0.5c-0.8-0.5-1.5-1.1-2.2-1.6
			c-4.2-3.6-5.1-7.9-2.7-13c0,0,0,0,0.1,0.1c0.1,0.1,0.1,0.2,0.2,0.2l0,0.1l0.1,0.1c0.4,0.4,0.7,1,1,1.6c0.7,1.4,2.1,2.2,3.6,2.2
			c0.3,0,0.5,0,0.8-0.1c2.7-0.2,5.5-0.3,8.4-0.3c3.7,0,7.6,0.2,12.9,0.7c0.6,0.1,1.3,0.1,1.8,0.1c4.6,0,8.6-1.8,11.1-5
			c1.6-2,5.1-7.3,1.6-13c-0.1-0.1-0.2-0.3-0.3-0.4c-0.1-0.2-0.1-0.5-0.2-0.9c0-0.3,0-0.6,0-0.8l9.3-4.1c0.6-0.3,1.3-0.5,1.9-0.8
			c1.3-0.6,2.6-1.1,3.8-1.7c4.4-2,9.1-4.3,15.2-7.4l0.1,0l1.2-0.6l-0.4-1.3c-0.3-0.8-0.5-1.7-0.7-2.6l-0.4-1.6l-1.5,0.5
			c-0.2,0.1-0.4,0.1-0.4,0.1c-0.8,0-1.1-0.7-1.2-1c-1.2-4-4-6.4-6.9-9c-0.3-0.3-0.6-0.5-0.9-0.8c-0.3-0.2-0.5-0.5-0.7-0.7
			c-2.7-2.5-3.3-5.1-2.1-8.4l0-0.1c0.1-0.3,0.2-0.6,0.3-0.9c0.1-0.4,0.3-0.7,0.4-1.1c1-3,2-5.6,4.1-7.6c5.8,3.2,12.1,3.7,18,3.7
			c3.8,0,3.8,0,6.3,3.3l-0.8,1.2l0.8,0.9c0.5,0.6,0.8,1.3,1.1,2.2l1.1,2.8l1.6-1.5c0.3-0.3,0.6-0.6,1-0.9c5.4,4.1,9,8.3,8.7,15.3
			c-0.2,3.7,0.1,7.5,0.4,11.2l0.1,1.6l0.3,4.6c0.2,2.8-0.6,5.5-2.2,7.5l-0.1,0.1c-2.4,3.5-5.4,7-8.8,10.5c-1.2,1.3-2.8,2.1-4.6,2.1
			h-0.4l-0.4,0.2h-1.3l0.1,1.7c0.4,3.6,0.6,7.6,0.6,12.3c0,2.6-0.1,4.8-0.2,6.8l0,0.3c0,0,0.2,0.7,0.2,0.8v0.1l0,0.2
			c0.1,0.2,0.1,0.5,0.1,0.7v0.1l0,0.1c0.3,2.8,0.1,4.5-0.7,5.4c-0.3,0.3-0.5,0.5-0.9,0.6l-0.5,0.2l-0.3,0.5c-0.5,1-1,1.9-1.4,2.9
			l-0.8,2h7.4c2.7,2.3,4.1,3.5,6.7,3.5c1.3,0,2.7-0.3,5.1-0.7l1.1-0.2l0.8,1.9l1.4-0.6c1-0.4,2-0.8,3.1-1.1l1.1-0.3l0-1.1
			c0-0.8,0.1-1.5,0.5-2.1l0.1-0.1c0.1-0.2,0.3-0.4,0.3-0.4l0.2-0.1l0.1-0.2c2.3-2.8,4.3-4.6,6.7-4.6c1.7,0,3.6,0.7,6.6,2.3
			c5.1,2.7,7.3,6.5,7.3,12.3c0,2.5-1.3,4.1-3.6,4.5l-1.5,0.2l0.7,3.8c0.1,0.6,0.2,1.2,0.1,1.7l-0.1,0.4v3.9l-0.6,0.1
			c-0.9,0.1-1.8,0.2-2.7,0.3c-3,0.4-4.9,1.7-5.8,4c-1,2.4-3,4.5-5.5,5.7l-0.2,0.1c-1.2,0.7-2.6,1.5-3,2.8c-1.7,3.9-5.2,4.8-8.8,5.2
			c-4.3,0.2-8.4,2.3-11,5.8c-0.5,0.7-1.2,1.2-2.2,1.8l-0.3,0.2l-0.2,0.3c-0.1,0.1-0.2,0.3-1,0.3c-1.2,0-1.7-0.9-1.9-1.7l-0.6-2.2
			l-1.8,1.3c-1.6,1.2-3.3,2.5-5,4L192,373l-0.1,0.4c-0.7,1.9-1.5,3.6-2.5,5.3c-2.6,4.3-6.3,6.9-10,9.4l-3,2.1
			c-3.1,2.4-6.6,3.6-10.3,3.6c-0.7,0-1.2,0-1.8-0.1l-0.1,0h-0.5c-1.9,0-3.6,0.8-4.8,2.2c-0.6,0.7-1.3,1.4-2.1,2.1
			c-0.4,0.4-0.8,0.8-1.2,1.2c-0.4,0.4-0.9,0.8-1.3,1.3h0c-0.5-0.2-0.8-0.5-1.1-0.7l-0.1-0.1l-0.1,0c-0.8-0.5-1.6-0.9-2.4-1.4
			c-1.8-1.3-3.7-2-5.8-2c-1.7,0-3.5,0.5-5.4,1.3c-1.1,0.5-1.7,0.7-2.1,0.7c-0.4,0-1-0.1-1.7-0.9c-1.5-1.6-3.6-2.6-6-2.9
			c-0.4-0.1-0.8-0.1-1.1-0.3l-0.1-0.1l-0.1,0c-1.3-0.5-2.2-1.5-2.7-2.8l-0.4-1l-1.1,0c-0.6,0-1.3,0.1-1.9,0.1l-0.7,0
			c-1.3,0.1-2.5,0.1-3.8,0.1l-0.9,0l-0.4,0.6c-0.4,0.6-0.9,1.2-1.3,1.8c0,0-0.1,0-0.1,0c-1.5-0.6-2.9-1.3-4.1-2.1l-0.4-0.2l-0.5-0.1
			c-4.2-0.1-8.7-0.4-13.1-1l-0.3,0l-0.3,0.1c-1,0.3-1.8,0.6-2.6,0.6c-1,0-1.9-0.3-2.7-0.8c-1-0.6-2.2-0.7-3.4-0.8
			c-0.2,0-0.6-0.1-0.9-0.1c-0.2,0-0.5,0-0.7-0.1c-0.7-0.1-1.3-0.3-2-0.4c-0.5-0.1-1-0.2-1.5-0.3c-0.4-0.1-0.7-0.1-1.1-0.2
			c-0.3-0.1-0.5-0.1-0.8-0.2l-0.1-0.6c0,0-1.4-0.3-1.7-0.4c-0.3-0.1-0.6-0.1-0.9-0.2c-0.6-0.1-1.1-0.3-1.6-0.5l-1.3-0.5l-0.6,1.3
			c0,0.1-0.1,0.2-0.1,0.3c-1.9,4.3-5.9,7.1-9.8,9.8l-0.1,0.1c-0.3,0.2-0.5,0.4-0.8,0.5c-0.4,0.3-0.9,0.6-1.3,0.9
			c-3.3,2.1-6,4.2-8.4,6.2l-0.1,0.1C51.9,406.3,49.9,407.3,48,407.3z"/>
		<g>
			<path class="st1" d="M182,224.6c5.8,2.9,11.9,3.3,17.7,3.3c1.3,0,2.6,0,3,0.2c0.3,0.2,0.9,0.8,1.5,1.6l-0.8,1.3l1.5,1.7
				c0.3,0.4,0.6,1,0.9,1.7l0.1,0.4l0.1,0.4l1.6,4.1l3.2-3c0,0,0,0,0,0c4.5,3.6,7.4,7.4,7.2,13.3c-0.2,3.9,0.1,7.7,0.4,11.4l0.1,1.5
				l0.1,2.3l0.2,2.3c0.2,2.4-0.5,4.7-1.9,6.4l-0.1,0.1l-0.1,0.1c-2.3,3.4-5.2,6.9-8.6,10.3l-0.1,0.1l-0.1,0.1
				c-0.8,0.9-2.1,1.5-3.4,1.5h-0.7l-0.4,0.2l-2.7,0l0.4,3.4c0.4,3.5,0.6,7.5,0.6,12.1c0,2.6-0.1,4.7-0.2,6.7l0,0.5l0.1,0.5l0.1,0.2
				c0,0,0,0.1,0,0.1l0,0.1l0.1,0.4c0,0.1,0,0.3,0,0.4v0.2l0,0.2c0.4,2.9,0,3.9-0.3,4.2l0,0l0,0c-0.1,0.1-0.1,0.1-0.3,0.2l-1.1,0.4
				l-0.5,1c-0.5,1-1,1.9-1.4,3l-1.6,4.1h4.4h4.6c2.6,2.2,4.3,3.5,7.2,3.5c1.4,0,3-0.3,5.3-0.7l0.9,2.2l2.8-1.2
				c0.9-0.4,1.9-0.7,2.9-1l2.2-0.6l0-2.3c0-0.4,0-0.9,0.2-1.3c0,0,0.1-0.1,0.1-0.1l0.2-0.1l0.3-0.3c2.4-2.9,4-4,5.6-4
				c1.4,0,3.1,0.6,5.9,2.1c4.6,2.4,6.5,5.7,6.5,11c0,2.3-1.2,2.8-2.4,3l-3,0.5l0.5,3l0.4,2.3c0,0.3,0.1,0.8,0.1,1l-0.2,0.5v0.6v2.3
				c-0.7,0.1-1.4,0.2-2,0.2c-4.4,0.5-6.2,3-7,4.9c-0.9,2.1-2.6,3.9-4.8,5l-0.1,0l-0.1,0l-0.1,0.1c-1.4,0.8-3,1.8-3.7,3.5
				c-1.3,3-3.8,3.8-7.4,4.2c-4.8,0.3-9.2,2.6-12.1,6.3c-0.4,0.5-1,1-1.8,1.5l-0.5,0.3l-0.1,0.2c0,0,0,0,0,0c-0.1,0-0.3,0-0.5-0.6
				l-1.2-4.3l-3.6,2.7c-1.6,1.2-3.4,2.6-5.1,4.1l-0.6,0.5l-0.3,0.7c-0.6,1.8-1.4,3.4-2.4,5c-2.4,4-6,6.5-9.5,8.9l-1.5,1.1l-1.5,1.1
				l-0.1,0l-0.1,0c-2.7,2.1-6,3.3-9.4,3.3c-0.6,0-1.1,0-1.6-0.1l-0.2,0H164h-0.4c-2.3,0-4.4,1-5.9,2.7c-0.7,0.7-1.3,1.4-2,2.1
				c-0.4,0.4-0.8,0.8-1.2,1.2c-0.2,0.2-0.3,0.3-0.4,0.4c0,0,0,0,0,0l-0.2-0.1l-0.2-0.1c-0.8-0.4-1.5-0.9-2.3-1.4
				c-2-1.5-4.2-2.2-6.7-2.2c-1.9,0-4,0.5-6.1,1.5l0,0l0,0c-1,0.5-1.3,0.5-1.4,0.5c-0.1,0-0.2,0-0.6-0.4l0,0l0,0
				c-1.7-1.8-4.1-3-6.8-3.3c-0.2,0-0.5-0.1-0.6-0.1l-0.1-0.1l-0.2-0.1c-0.9-0.4-1.5-1.1-1.9-2l-0.8-2l-2.2,0.1c-0.7,0-1.3,0.1-2,0.1
				l-0.6,0c-1.2,0.1-2.5,0.1-3.7,0.1l-0.2,0l-1.5,0l-0.9,1.2c-0.2,0.3-0.4,0.6-0.6,0.9c-1-0.5-2-1-2.8-1.5c0,0,0,0-0.1,0L111,389
				l-0.9,0c-4.2-0.1-8.6-0.4-13-1l-0.7-0.1l-0.6,0.2c-1,0.4-1.6,0.5-2.1,0.5c-0.7,0-1.3-0.2-1.9-0.5l-0.1,0l-0.1,0
				c-1.2-0.7-2.6-0.8-3.8-1c-0.4-0.1-0.7-0.1-1-0.1c-0.2,0-0.4,0-0.5-0.1l0,0l0,0c-0.6-0.1-1.2-0.2-1.9-0.4
				c-0.5-0.1-1.1-0.2-1.6-0.3l-0.1,0l-0.1,0c-0.3,0-0.5-0.1-0.8-0.1l-0.1-0.5L80,385c-0.3-0.1-0.5-0.1-0.8-0.2
				c-0.3-0.1-0.6-0.1-0.9-0.2c-0.6-0.1-1-0.3-1.5-0.4l-2.6-0.9l-1.1,2.5l0,0.1c-0.1,0.1-0.1,0.2-0.2,0.3c-1.7,4-5.4,6.5-9.3,9.1
				l-0.1,0.1l0,0l0,0c-0.2,0.2-0.5,0.3-0.7,0.5c-0.4,0.3-0.9,0.6-1.3,0.9c-3.3,2.2-6.1,4.2-8.5,6.2l-0.1,0.1l-0.1,0.1
				c-1.6,1.6-3.3,2.5-4.8,2.5c-1.9,0-3.6-1.4-5.1-4.3l0.1-0.1l0.7-1c0.3-0.5,0.7-0.9,1-1.4c0.8-1,1.5-2.1,2.3-3.1
				c2.2-2.8,4.2-5.9,3.6-10.1l0-0.1l0-0.1c-0.1-0.6-0.1-1.4,0-2.1c1.7-6.7,1.1-12-1.8-17.1c-0.4-0.7-0.4-1.6,0.1-2.4
				c0.6-1.1,2-1.9,3.3-2c3.1-0.1,6.3-0.1,9.7-0.1c4.6,0,9.4,0,15.2,0.2l0.1,0h0.1c1.4,0,2.7,0.6,4,1.9l0.7,0.7l1,0.1
				c0.4,0.1,0.8,0.1,1.2,0.2c0.7,0.1,1.4,0.1,2.1,0.1c0.4,0,0.7,0,1.1,0l2.8-0.2l0-1.6c0.2-0.2,0.5-0.3,0.7-0.5c0.5-0.4,1-0.7,1.6-1
				l0,0l0,0c0.5-0.3,1-0.6,1.4-1c1.9-1.3,3.7-2.5,5.5-3.5c3-1.7,5.2-4.5,6.5-7.9c1.5-4.1,4.3-6.7,8.8-8.3c1.5-0.5,2.8-1.1,4.1-1.9
				l0,0l0,0c3.1-2.1,4.4-4.7,4.1-8.1l0-0.1l0-0.1c-0.1-0.6-0.1-1.3-0.1-2c0-2.2,0-5-2-7.1c1.6-0.9,2.9-1.8,4.2-2.7
				c0.3-0.2,0.9-0.6,1.3-1.1c0.4-0.4,1-0.9,1.3-0.9c0,0,0.1,0,0.3,0.1l0.7,0.3l0,0l0,0l0.1,0l3.5,1.5l0.7-3.7
				c0.1-0.6,0.2-1.2,0.3-1.9c0.1-0.6,0.2-1.3,0.3-1.9l0.3-1.7l-1.3-1.1c-0.3-0.3-0.6-0.6-0.7-1.3l0-0.2l0-0.2
				c-0.3-1.3-1.2-2.5-2.9-3.9c-0.9-0.8-1.9-1.4-2.8-2.1c-0.2-0.2-0.5-0.3-0.7-0.5c-0.8-0.5-1.5-1-2-1.5l0,0l0,0
				c-2.8-2.4-3.9-5.2-3.2-8.4c1,1.4,2.7,2.3,4.5,2.3c0.3,0,0.7,0,1.1-0.1c2.6-0.2,5.4-0.3,8.1-0.3c3.6,0,7.5,0.2,12.7,0.7
				c0.7,0.1,1.5,0.1,2,0.1c5,0,9.5-2,12.2-5.5c3.8-4.7,4.5-10.1,1.7-14.6c-0.1-0.1-0.1-0.3-0.2-0.4c0,0,0,0,0,0l8.4-3.7
				c0.6-0.3,1.3-0.5,1.9-0.8c1.3-0.5,2.6-1.1,3.9-1.7c4.4-2,9.1-4.3,15.2-7.4c0,0,0.1,0,0.1-0.1l2.5-1.1l-0.9-2.6
				c-0.2-0.7-0.5-1.6-0.7-2.5l-0.7-3.1l-2.8,0.8c-1.4-4.3-4.4-7-7.3-9.6l0,0c-0.3-0.3-0.6-0.5-0.8-0.8c-0.2-0.2-0.5-0.4-0.7-0.7l0,0
				l0,0c-2.2-2.1-2.7-4-1.6-6.7l0-0.1l0-0.1c0.1-0.2,0.2-0.5,0.3-0.7c0.1-0.3,0.3-0.7,0.4-1.2C179.9,228.3,180.7,226.2,182,224.6
				 M181.6,221.1c-0.3,0-0.5,0.1-0.7,0.3c-2.6,2.4-3.7,5.5-4.7,8.5c-0.2,0.7-0.5,1.3-0.7,2c-1.5,3.9-0.7,7.1,2.4,10
				c0.5,0.5,1.1,1,1.6,1.5c2.8,2.5,5.4,4.8,6.5,8.4c0.4,1.3,1.4,2.1,2.6,2.1c0.3,0,0.6-0.1,0.9-0.1c0.2,1,0.5,1.9,0.8,2.8
				c0,0-0.1,0-0.1,0.1c-5,2.5-10.1,5-15.2,7.4c-1.9,0.9-3.8,1.7-5.7,2.5c-3.2,1.4-6.3,2.8-9.5,4.2c-0.3,0.1-0.5,0.4-0.6,0.7
				c-0.1,0.5-0.1,0.9-0.1,1.4v0.1c0.1,0.6,0.2,1.2,0.5,1.7c0.1,0,0.1,0.1,0.1,0.1c3,4.7,0.4,9.2-1.4,11.4c-2.2,2.8-5.8,4.4-9.9,4.4
				c-0.5,0-1.1,0-1.6-0.1c-4.4-0.4-8.8-0.7-13.1-0.7c-2.9,0-5.8,0.1-8.6,0.3h-0.1c-0.2,0.1-0.3,0.1-0.5,0.1c-0.9,0-1.8-0.5-2.2-1.3
				c-0.3-0.7-0.7-1.4-1.2-2c-0.2-0.3-0.5-0.6-0.7-1c-0.1-0.3-0.5-0.5-0.8-0.5c-0.1,0-0.1,0-0.1,0c-0.3,0-0.6,0.2-0.8,0.5
				c-3.2,6.2-2.3,11.5,2.6,15.7c0.9,0.8,2,1.5,3,2.2c0.9,0.6,1.8,1.2,2.6,1.9c1.5,1.2,1.8,1.9,1.9,2.3c0.2,1.5,0.9,2.5,1.7,3.2
				c-0.2,1.2-0.4,2.5-0.6,3.8c0,0-0.1,0-0.1,0l-0.7-0.3c-0.5-0.2-0.9-0.3-1.4-0.3c-1.4,0-2.4,0.9-3.3,1.7c-0.3,0.3-0.7,0.6-1,0.8
				c-1.4,1-2.8,1.9-4.5,2.9c-0.7,0.4-1.4,0.9-2.2,1.4c-0.4,0.2-0.5,0.5-0.5,0.9c0,0.3,0.3,0.7,0.6,0.8c3.1,1.3,3.1,3.5,3.1,6.3
				c0,0.8,0,1.6,0.1,2.4c0.2,2.2-0.6,3.8-2.8,5.3c-1.1,0.7-2.2,1.2-3.4,1.6c-5.4,1.9-8.9,5.2-10.7,10.1c-1,2.7-2.8,4.9-5.2,6.3
				c-2.4,1.4-4.7,3-7.1,4.6c-1.1,0.7-2.2,1.5-3.3,2.2c-0.2,0.1-0.4,0.3-0.4,0.6c-0.3,0-0.6,0-0.9,0c-0.6,0-1.1,0-1.7-0.1
				c-0.4,0-0.7-0.1-1.1-0.2c-1.8-1.8-3.9-2.7-6-2.7c-5.8-0.2-10.7-0.2-15.3-0.2c-3.5,0-6.7,0-9.8,0.1c-2.3,0.1-4.6,1.4-5.8,3.5
				c-1,1.8-1,3.8-0.1,5.4c2.6,4.5,3,9.1,1.5,15c-0.2,1.1-0.2,2.3,0,3.3c0.4,2.9-0.9,5.2-3,7.8c-1.2,1.5-2.3,3.1-3.4,4.6
				c-0.5,0.7-1,1.4-1.5,2.1c-0.2,0.3-0.2,0.7-0.1,1c2.6,5.9,5.9,7.1,8.3,7.1c2.3,0,4.7-1.2,6.9-3.4c2.6-2.2,5.4-4.2,8.3-6.1
				c0.6-0.5,1.3-0.9,2-1.4c4.1-2.8,8.4-5.7,10.5-10.5c0.1-0.1,0.1-0.2,0.2-0.3c0.6,0.2,1.2,0.4,1.7,0.5c0.6,0.1,1.1,0.2,1.7,0.4
				c0,0,0,0,0,0.1c0.1,0.3,0.4,0.6,0.8,0.7c0.7,0.1,1.5,0.3,2.2,0.4c1.1,0.2,2.3,0.5,3.5,0.7c0.5,0.1,1.1,0.1,1.7,0.2
				c1,0.1,2,0.2,2.7,0.6c1.1,0.7,2.3,1,3.5,1c1,0,1.9-0.2,3-0.6c4.4,0.5,8.8,0.8,13.2,1c0,0,0.1,0,0.1,0.1c1.4,0.9,3,1.7,4.5,2.3
				c0.1,0.1,0.3,0.1,0.4,0.1c0.3,0,0.6-0.2,1-0.2c0.5-0.8,1.1-1.5,1.6-2.2c1.3,0,2.7,0,4-0.1c0.9,0,1.7-0.1,2.6-0.1
				c0.6,1.6,1.8,2.9,3.5,3.7c0.5,0.3,1.1,0.4,1.7,0.5c1.9,0.2,3.7,1,5,2.4c0.8,0.9,1.7,1.4,2.8,1.4c0.9,0,1.9-0.4,2.7-0.8
				c1.7-0.8,3.3-1.2,4.8-1.2c1.8,0,3.4,0.5,5,1.7c0.8,0.5,1.6,1,2.5,1.5c0.4,0.3,0.9,0.6,1.5,0.9c0.1,0.1,0.3,0.1,0.5,0.1
				c0.1,0,0.3,0,0.4,0s0.1,0,0.1,0.1c0.7-0.6,1.3-1.2,1.9-1.8c1.2-1.2,2.3-2.2,3.4-3.4c0.9-1.1,2.2-1.7,3.6-1.7c0.1,0,0.3,0,0.4,0
				c0.7,0.1,1.3,0.1,2,0.1c4.1,0,8-1.4,11.2-3.9c1-0.7,2-1.4,3-2.1c3.8-2.6,7.7-5.3,10.4-9.8c1.1-1.7,2-3.6,2.7-5.5
				c1.5-1.4,3.2-2.6,4.9-3.9c0.5,1.7,1.7,2.9,3.4,2.9c0.9,0,1.7-0.2,2.2-0.9c1-0.6,1.9-1.3,2.6-2.2c2.4-3.1,6.1-5,10-5.2
				c3.8-0.4,8-1.4,10-6.1c0.3-0.9,1.8-1.7,2.5-2.1c2.8-1.4,5-3.7,6.2-6.5c0.7-1.8,2.2-2.8,4.6-3.1c0.8-0.1,1.7-0.2,2.6-0.3l1.1-0.1
				c0.5-0.1,0.9-0.5,0.9-1v-4.1c0,0,0,0,0,0c0.3-0.8,0.2-1.7,0-2.5c-0.1-0.8-0.3-1.5-0.4-2.3c3.1-0.5,4.9-2.7,4.9-5.9
				c0-6.3-2.5-10.6-8.1-13.6c-3.3-1.8-5.4-2.5-7.3-2.5c-3.1,0-5.4,2.1-7.9,5.1c-0.3,0.2-0.5,0.5-0.8,0.9c-0.5,0.9-0.7,1.9-0.7,3
				c-1.1,0.3-2.2,0.7-3.2,1.1c-0.1-0.3-0.2-0.6-0.4-0.9c-0.1-0.4-0.5-0.6-0.9-0.6c-0.1,0-0.1,0-0.2,0c-3.2,0.6-5,1-6.4,1
				c-2,0-3-0.8-5.9-3.3c-0.1-0.1-0.4-0.2-0.6-0.2h-5.4c0.3-0.9,0.8-1.8,1.3-2.7c0.6-0.2,1.1-0.5,1.5-1c1.2-1.3,1.5-3.4,1.1-6.6
				c0-0.3,0-0.7-0.1-1.1v-0.1c-0.1-0.2-0.1-0.5-0.2-0.7c0.2-2.3,0.2-4.6,0.2-6.9c0-4.1-0.1-8.3-0.6-12.5c0,0,0,0,0.1,0l0.4-0.2
				c2.2,0,4.3-0.9,5.7-2.5c3.3-3.3,6.4-6.9,9-10.7c1.9-2.4,2.7-5.5,2.5-8.5c-0.1-1.5-0.2-3.1-0.3-4.6c-0.3-4.1-0.7-8.4-0.5-12.6
				c0.3-8.2-4.4-12.9-9.6-16.8c-0.2-0.1-0.4-0.2-0.6-0.2c-0.2,0-0.4,0.1-0.6,0.2c-0.5,0.4-1,0.8-1.4,1.2c-0.1-0.2-0.2-0.5-0.3-0.7
				c-0.4-0.9-0.8-1.9-1.4-2.6l0.3-0.5c0.3-0.4,0.3-0.9,0-1.2l-0.1-0.1c-2.8-3.8-3.1-4.1-7.6-4.1c-6.8,0-12.4-0.7-17.6-3.7
				C182,221.1,181.8,221.1,181.6,221.1L181.6,221.1z"/>
		</g>
	</g>
	<g>
		<path class="st3" d="M370.7,299c-1.8,0-3.7-0.6-6.1-1.9c-3.1-1.8-6.5-3.8-10.9-6.7c-0.6-0.4-1.2-0.7-1.7-1.1
			c-0.5-0.3-1.1-0.7-1.6-1l-0.1-0.1c-0.9-0.7-1.9-1.4-2.8-2l-0.1-0.1l-0.1,0c-3.3-1.6-5.2-4.4-6.8-7.3c4.9-7.4,4.8-10.6-0.6-18.2
			c0.8-1.8,1.8-3.5,2.7-5.1c2.1-3.8,4.4-8.1,5.8-12.6c2-6.5,1.6-13.2-1.3-19.4c-1.3-2.6-3.9-4.6-6.4-6.5c-0.6-0.4-1.2-0.9-1.7-1.3
			l-0.3-0.2c-6.6-5.4-11.6-9.7-16.3-14.9c0.8-6.7,5.2-10.7,9.8-14c1.7-1.3,3.3-2.8,4.8-4.4c0.6-0.6,1.1-1.2,1.7-2
			c0.1-0.1,0.2-0.3,0.4-0.4c0.1-0.1,0.2-0.2,0.3-0.3l4.9,1.1l1.1,2.1c0.7,1.5,1.4,2.9,2.2,4.4c1.3,2.9,4,5.1,7.1,5.5
			c3.7,0.8,5.9,3.7,6.6,8.6c0.5,2.8,1.4,5.7,2.7,8.5c0.7,1.6,1.4,3.3,2.1,4.9c0.7,1.7,1.5,3.3,2.2,5c1,2.2,2,4.4,2.9,6.6
			c1.2,2.6,3,4.8,5.3,6.3l1,0.7c2.4,1.9,5,3.8,6.4,6.2c2.4,4.2,6.2,4.9,9.8,5.6l1.7,0.3h0.1c0.1,0,0.3,0,0.5,0
			c0.3,0,0.6,0.1,0.8,0.1c0.4,0,0.8,0,1.3-0.1c0.3,0.4,0.5,0.7,0.7,1c0.2,0.3,0.4,0.5,0.6,0.8c2.8,3.7,6.1,7.2,11.4,8
			c4.3,0.7,7.6,1.4,10.6,2.3c5.3,1.4,10.1,3.9,14,7.5c0,0,6.3,5.8,8.1,7.5l3.4,3.1c-0.1,0.1-0.2,0.2-0.4,0.3
			c-0.3,0.3-0.6,0.5-0.9,0.8l-2.3,2c-3.9,3.7-7.3,7.9-10.1,12.4c-1,1.6-2.2,3.2-3.5,3.2c-0.7,0-1.6-0.3-3.5-2.2
			c-1.4-1.5-2.9-3.3-4.5-5.5c-0.6-0.9-1.3-1.8-2-2.7l-0.4-0.5l-0.7-0.1c-1.2-0.1-2.3-0.1-3.5-0.1c-1.9,0-3.6,0.1-5.4,0.2l-0.3,0
			l-0.1,0c-1.9,0.3-3.8,1.3-5.4,2.8c-3.1,2.8-6.7,4.9-10.5,6c-2.4,0.8-4.7,1.7-6.7,2.6c-0.8,0.4-1.5,0.7-2.3,1
			c-0.6,0.2-1.2,0.5-1.8,0.7c-1.1,0.4-2.3,0.7-3.5,0.8c-0.2,0-0.4,0-0.6,0.1c-0.1,0-0.2,0-0.3,0h-1.4c-0.6,0-1.4,0-2,0.5
			C373.5,298.6,372.1,299,370.7,299z"/>
		<path class="st1" d="M340,181.1l3.4,0.7l0.7,1.5c0.7,1.5,1.4,2.9,2.2,4.4c1.5,3.3,4.6,5.8,8.2,6.3c1.2,0.2,4.6,1,5.5,7.4l0,0.1
			l0,0.1c0.5,2.9,1.5,5.9,2.8,8.8c0.7,1.7,1.4,3.3,2.1,4.9c0.7,1.6,1.4,3.3,2.1,4.9l0,0l0,0c1,2.1,2,4.3,2.9,6.5l0,0.1l0,0.1
			c1.3,2.8,3.2,5.1,5.7,6.8l0.7,0.5l0.3,0.2c2.3,1.8,4.7,3.6,6,5.7c2.8,4.8,7,5.6,10.8,6.3l0.7,0.1l0.8,0.2l0.3,0.1h0.3
			c0.1,0,0.2,0,0.3,0c0.3,0,0.6,0.1,1,0.1c0.2,0,0.3,0,0.5,0c0.1,0.1,0.2,0.2,0.3,0.4c0.2,0.3,0.4,0.5,0.5,0.7l0.1,0.1l0.1,0.1
			c3,3.9,6.5,7.6,12.3,8.5c4.2,0.7,7.5,1.4,10.5,2.2l0,0l0,0c5,1.3,9.6,3.8,13.3,7.1l2.7,2.5c1.8,1.6,3.6,3.3,5.4,5l2.2,2l-0.9,0.8
			l-1.4,1.3l0,0l0,0c-4,3.7-7.4,8-10.3,12.7c-1.5,2.3-2.1,2.5-2.3,2.5c-0.2,0-0.9-0.2-2.4-1.8c-1.4-1.5-2.8-3.2-4.3-5.3
			c-0.7-1-1.4-1.9-2.1-2.8l-0.8-1l-1.3-0.1c-1.2-0.1-2.4-0.1-3.7-0.1c-1.9,0-3.6,0.1-5.5,0.2l-0.3,0l-0.2,0l-0.2,0
			c-2.2,0.4-4.3,1.5-6.1,3.1c-2.9,2.6-6.4,4.6-9.9,5.6l0,0l0,0c-2.4,0.8-4.8,1.7-6.8,2.6l0,0l0,0c-0.7,0.3-1.4,0.6-2.2,0.9
			c-0.6,0.2-1.2,0.5-1.8,0.7c-0.9,0.4-2,0.6-3,0.7c-0.3,0-0.6,0-0.7,0.1c0,0-0.1,0-0.1,0h-0.7h-0.7c-0.7,0-1.9,0-2.9,0.8
			c-1,0.7-2.1,1-3.2,1c-1.5,0-3.3-0.6-5.3-1.7c-3.1-1.8-6.5-3.8-10.9-6.6l-0.1,0l-0.1,0c-0.5-0.3-1.1-0.7-1.6-1
			c-0.5-0.3-1-0.7-1.6-1l-0.1-0.1c-1-0.8-1.9-1.4-2.9-2l-0.2-0.1l-0.2-0.1c-2.5-1.2-4.2-3.2-5.7-5.9c4.6-7.2,4.5-11.1-0.6-18.4
			c0.7-1.4,1.5-2.8,2.3-4.3c2.1-3.9,4.5-8.2,5.9-12.8c2.1-6.9,1.7-14-1.4-20.5c-1.4-3-4.2-5-6.8-7l0,0l0,0c-0.5-0.4-1-0.8-1.6-1.2
			l-0.3-0.2c-6.3-5.2-11.2-9.3-15.6-14.2c1-5.8,4.9-9.3,9.1-12.3l0,0l0,0c1.7-1.3,3.4-2.8,4.9-4.6
			C338.9,182.6,339.4,181.9,340,181.1 M339.5,177.9c0,0-0.1,0-0.2,0c-0.3,0-0.6,0.1-0.8,0.3c-0.3,0.4-0.6,0.7-0.9,1.1
			c-0.5,0.7-1,1.3-1.6,1.9c-1.4,1.6-2.9,3-4.5,4.2c-4.3,3.1-9.5,7.5-10.4,15.2c-0.1,0.3,0,0.6,0.2,0.8c4.9,5.6,10.4,10.2,16.6,15.3
			c0.6,0.5,1.3,1.1,2,1.6c2.4,1.8,4.8,3.6,5.9,5.9c2.7,5.8,3.1,12.2,1.2,18.3c-1.3,4.2-3.4,8.1-5.7,12.3c-1,1.8-2,3.6-2.9,5.5
			c-0.1,0.3-0.1,0.7,0.1,1c5.3,7.4,5.3,9.8,0.5,17c-0.2,0.3-0.2,0.7,0,1c1.7,3.2,3.8,6.4,7.6,8.2c0.9,0.6,1.8,1.2,2.7,1.9
			c0,0.1,0.1,0.1,0.1,0.1c1.2,0.7,2.3,1.5,3.5,2.2c3.6,2.3,7.3,4.6,11,6.7c2.5,1.4,4.7,2.1,6.8,2.1c1.7,0,3.4-0.5,5-1.6
			c0.2-0.2,0.7-0.2,1.1-0.2c0.3,0,0.5,0,0.7,0s0.5,0,0.7,0c0.4,0,0.7-0.1,1-0.1c1.3-0.1,2.7-0.4,4-0.9c1.4-0.6,2.8-1.1,4.1-1.7
			c2.1-0.9,4.3-1.8,6.5-2.5c4.1-1.2,7.9-3.4,11.1-6.3c1.3-1.2,2.9-2.1,4.6-2.4c1.9-0.1,3.7-0.2,5.6-0.2c1.2,0,2.3,0,3.4,0.1
			c0.7,0.9,1.4,1.8,2,2.7c1.5,2.1,3,4,4.6,5.7c1.8,1.9,3.2,2.7,4.6,2.7c2.1,0,3.6-2,4.8-3.9c2.7-4.4,6-8.5,9.8-12.1
			c0.8-0.7,1.6-1.4,2.4-2.1c0.5-0.5,1.1-1,1.6-1.5c0.2-0.2,0.3-0.5,0.3-0.7s-0.1-0.5-0.3-0.7l-3.8-3.5c-2.8-2.6-5.4-5-8.1-7.5
			c-4.1-3.7-9.2-6.4-14.6-7.8c-3.6-1-7.2-1.7-10.8-2.3c-4.8-0.8-7.8-4-10.4-7.4c-0.4-0.6-0.9-1.2-1.5-2.1c-0.2-0.2-0.5-0.4-0.8-0.4
			h-0.1c-0.5,0.1-0.9,0.1-1.4,0.1c-0.4,0-0.9-0.1-1.3-0.1c-0.5-0.1-1-0.2-1.5-0.3c-3.6-0.7-6.7-1.3-8.8-4.9c-1.6-2.7-4.4-4.8-7-6.8
			l-0.8-0.6c-2.1-1.4-3.7-3.4-4.7-5.6c-0.9-2.2-1.9-4.4-2.9-6.6c-1.4-3.3-2.9-6.6-4.3-9.9c-1.2-2.6-2.1-5.3-2.6-8.1
			c-0.8-5.6-3.5-9-7.9-9.9c-2.6-0.4-4.9-2.2-6-4.7c-0.8-1.5-1.5-2.9-2.2-4.4c-0.4-0.8-0.8-1.6-1.2-2.4c-0.2-0.2-0.4-0.4-0.7-0.5
			L339.5,177.9L339.5,177.9z"/>
	</g>
	<g>
		<path class="st3" d="M116.3,259.6c-0.6,0-1.4-0.3-2.3-0.9c-0.8-0.5-1.6-1.3-2.3-2.3c-2.1-2.7-4.5-3.8-8.3-3.8h-1.2
			c-4.1,0.2-5.7,2.4-7.3,4.9l0,0.1l0,0.1c-0.3,0.6-0.5,1.2-0.7,1.9h-3.7c-5,0-10.1-0.8-16.7-2.5c-1.3-0.3-2.3-0.7-3.2-1.2
			c-3-1.9-4.6-3.5-4.2-6.6l0.3-2.9l0.3-3c0.4-3.2-0.3-4.5-3.1-6c-1.3-0.7-2.6-1.3-4-2c-1.3-0.7-2.7-1.3-4-2l-4.8-2.3
			c-4.6-2.2-9.4-4.6-14.1-6.8c-4.5-2.1-8.2-3-11.8-3c-1.1,0-2.2,0.1-3.3,0.3h-0.5c-1.6,0-3.1-0.5-4.3-1.4c-3-2.2-5.7-4.3-8-6.4
			c-1.6-1.5-3.1-3-4.7-4.6c-0.3-0.3-0.6-0.7-1-1c-0.2-0.2-0.4-0.5-0.7-0.7c0.3-0.3,0.5-0.5,0.8-0.8c0.4-0.4,0.8-0.8,1.2-1.2l0.9-0.8
			c1.5-1.5,3-2.8,4.6-4c1.1-0.8,2.6-1.3,4.3-1.4c1.2-0.1,2.4-0.1,4-0.1H26c7.9-0.2,15.8-0.5,24-0.8c0,0,0,0,0,0
			c1.5,0,2.9-0.4,4.1-1.1c4.1-2.3,8.6-3.8,13-5.2c1.9-0.6,3.8-1.2,5.8-1.9c2-0.8,3.9-1.8,6-2.9c0.8,0.8,1.5,1.6,2,2.4
			c1.3,2.1,2.8,4.5,4.1,7c1,1.7,2,3.4,3,5.1c1,1.7,2,3.4,3,5c0.6,0.9,1.3,1.8,2.1,2.6l0.5,0.6c0.7,0.7,1.4,1.5,1.9,2.2l1.8,2.4
			l0.6,0.8c1.8,2.4,3.6,4.8,4.9,7.4c1.4,2.9,2.3,7.1-1.1,10.4c-2,1.5-2.6,4.3-1.4,6.4c0.3,0.7,0.5,1.3,0.7,1.8
			c0.2,0.7,0.4,1.3,0.6,1.8c1.6,3.5,3.7,5.2,6.5,5.2c1.5,0,3-0.5,4.6-1.4c1.3-0.8,2.2-1.3,3.2-1.3c0.4,0,1.1,0.1,2,1
			c0,0.1,0.1,0.2,0.1,0.2c-0.1,0.1-0.1,0.2-0.2,0.3c0,0,0,0,0,0c-0.4,0.2-0.9,0.3-1.6,0.3l-0.1,0c-1.3,0.1-3,0.2-3.5,2.4
			c-0.4,2,0.7,2.9,1.9,3.8l0.1,0.1c0.4,0.3,0.8,0.7,1.3,1.2c0.8,1.1,1.8,2.2,2.8,3.3C117.9,259.2,117.1,259.6,116.3,259.6z"/>
		<path class="st1" d="M78.5,189.3c0.4,0.4,0.7,0.9,1,1.3c1.3,2.1,2.8,4.5,4.1,6.9l0,0.1l0,0.1c1,1.6,2,3.3,3,5c1,1.7,2,3.4,3,5
			c0.6,1.1,1.5,2,2.3,2.8c0.2,0.2,0.3,0.4,0.5,0.5l0.1,0.1l0.1,0.1c0.6,0.6,1.2,1.3,1.7,2l0.7,0.9l1.1,1.5l0.6,0.8
			c1.8,2.4,3.5,4.7,4.7,7.2c1.7,3.6,1.5,6.5-0.7,8.6c-2.5,2-3.3,5.5-1.7,8.2c0.2,0.6,0.5,1.1,0.6,1.6l0,0.1l0,0.1
			c0.2,0.6,0.4,1.3,0.7,1.9l0,0.1l0,0.1c2.2,5,5.5,6.1,7.8,6.1c1,0,2.1-0.2,3.2-0.6c0,0.1,0,0.1,0,0.2l0,0l0,0
			c-0.5,2.8,1.2,4.2,2.5,5.3l0.1,0.1l0.1,0.1c0.3,0.2,0.6,0.5,0.9,0.9c0.5,0.7,1.1,1.4,1.7,2.1c-0.1,0-0.2,0-0.2,0
			c-0.2,0-0.6-0.1-1.4-0.6c-0.7-0.5-1.4-1.2-2-2c-2.4-3-5.2-4.4-9.5-4.4h-1.2h-0.1l-0.1,0c-4.7,0.3-6.7,2.9-8.4,5.6l-0.1,0.1
			l-0.1,0.1c-0.2,0.3-0.3,0.7-0.4,1h-2.6c-4.9,0-9.9-0.7-16.4-2.4c-1.1-0.3-2-0.6-2.7-1c-2.7-1.7-3.8-2.8-3.5-5.2
			c0-0.5,0.1-1,0.1-1.4c0.1-0.5,0.1-1,0.2-1.5l0.1-1.5l0.1-1.5c0.4-3.9-0.5-5.8-3.9-7.5l0,0l0,0c-1.3-0.7-2.6-1.3-4-2
			c-1.3-0.6-2.6-1.3-4-2c-1.6-0.8-3.2-1.5-4.8-2.3c-4.6-2.2-9.4-4.6-14.1-6.8c-4.7-2.2-8.6-3.2-12.5-3.2c-1.2,0-2.3,0.1-3.5,0.3
			h-0.3c-1.2,0-2.4-0.4-3.5-1.1c-3-2.1-5.6-4.2-7.8-6.2c-1.6-1.5-3.1-3-4.6-4.5c-0.2-0.2-0.4-0.4-0.6-0.6c0.3-0.3,0.6-0.6,1-0.9
			l0.9-0.8c1.5-1.4,2.9-2.8,4.4-3.9c0.9-0.7,2.1-1,3.5-1.1l0,0l0,0c1.1-0.1,2.3-0.1,3.9-0.1H21h2.4H26h0l0,0
			c7.8-0.2,15.8-0.5,23.9-0.8c1.8,0,3.4-0.5,4.9-1.3c3.9-2.2,8.4-3.7,12.7-5c1.9-0.6,3.9-1.2,5.8-1.9l0.1,0l0.1,0
			C75.1,191,76.8,190.2,78.5,189.3 M78.9,185.8c-0.2,0-0.3,0-0.5,0.1c-2,1.1-4,2.1-6.1,3c-1.9,0.7-3.8,1.3-5.7,1.9
			c-4.4,1.4-9.1,2.9-13.3,5.3c-1,0.6-2.2,0.9-3.4,0.9c-7.9,0.3-16,0.6-23.9,0.8c-0.9,0-1.7,0-2.6,0c-0.8,0-1.6,0-2.4,0
			c-0.8,0-1.6,0-2.4,0c-1.6,0-2.9,0-4.1,0.1c-1.8,0.1-3.6,0.6-5.1,1.7c-2,1.5-3.7,3.2-5.6,5c-0.8,0.8-1.6,1.5-2.4,2.3
			c-0.2,0.2-0.3,0.4-0.3,0.7c0,0.2,0.1,0.5,0.3,0.7c0.7,0.7,1.3,1.4,2,2.1c1.5,1.5,3.1,3.1,4.7,4.6c2.5,2.3,5.3,4.5,8.1,6.5
			c1.5,1.1,3.3,1.7,5.2,1.7c0.2,0,0.3,0,0.5,0H22c1.1-0.2,2.1-0.3,3.2-0.3c3.4,0,6.9,0.9,11.2,2.9c6.4,3,12.7,6.1,18.9,9.1
			c2.6,1.3,5.3,2.6,7.9,3.9c2.3,1.2,2.6,1.9,2.3,4.5c-0.1,1-0.2,2-0.3,3c-0.1,1-0.2,1.9-0.3,2.9c-0.5,4.3,2.3,6.4,5,8.1
			c1.1,0.6,2.3,1,3.5,1.3c6.6,1.7,11.9,2.5,17.1,2.5c1.3,0,2.7,0,4.2,0c0.4,0,0.8-0.4,0.9-0.8c0.1-0.7,0.3-1.3,0.6-1.9
			c1.5-2.4,2.8-4,6-4.2c0.4,0,0.8,0,1.2,0c3.3,0,5.3,0.9,7.1,3.2c0.8,1,1.7,1.9,2.7,2.6c1.1,0.7,2.1,1.1,3.1,1.1
			c1.4,0,2.6-0.7,3.9-2c0.4-0.4,0.4-1,0-1.4c-1.1-1.2-2.2-2.4-3.1-3.6c-0.5-0.6-1-1.1-1.6-1.5c-1.1-0.9-1.6-1.3-1.4-2.4
			c0.2-1,0.7-1.1,2.1-1.2c0.8,0,1.6-0.1,2.4-0.5c0.2-0.2,0.4-0.3,0.5-0.5c0-0.1,0.1-0.2,0.2-0.3c0.3-0.3,0.4-0.7,0.2-1.1
			c-0.1-0.3-0.3-0.5-0.5-0.8l-0.1-0.1c-1-0.9-2-1.4-3.1-1.4c-1.4,0-2.6,0.7-3.9,1.5c-1.4,0.8-2.7,1.2-3.9,1.2
			c-2.1,0-3.8-1.4-5.1-4.3c-0.2-0.5-0.4-1.1-0.6-1.7c-0.2-0.7-0.5-1.4-0.8-2.1c-0.9-1.5-0.5-3.5,1-4.6c3.3-3.1,3.8-7.4,1.5-12.2
			c-1.5-3.1-3.6-5.8-5.6-8.5c-0.6-0.8-1.2-1.6-1.8-2.4c-0.6-0.8-1.3-1.6-2-2.3c-0.9-1-1.8-1.9-2.4-2.9c-2-3.3-4-6.7-6-10
			c-1.3-2.4-2.7-4.7-4.2-7.1c-0.7-1-1.5-1.9-2.4-2.8C79.4,185.9,79.2,185.8,78.9,185.8L78.9,185.8z"/>
	</g>
</g>
<g>
	<g>
		<path class="st0" d="M599.7,374.5c-2.4,0-4.8-0.9-7.2-2.7c1.7-2.8,2.7-5.9,2.8-9.1c0.1-1.4,0.4-2.9,0.8-4.3l0.3-1.1
			c0.5-2,1-4.1,1-6.3c0-1.2,1-2.5,1.9-3.8l0.1-0.1l0.4-0.4c1.4-1.8,2.8-3.5,4.2-5.2c0.6-0.7,1.2-1.4,1.8-2.1
			c4.7-5.4,7.3-12,9.9-18.3l0.3-0.8h5.7c1.7-0.1,3.4-0.4,4.5-1.6c1-1.2,1.1-2.8,1-4.2c-0.2-5.5,0.8-11,2.8-16.3
			c1-2.7,1.1-5.5,1.2-8.3c0-0.6,0.1-1.2,0.1-1.8c0-0.6,0-1.2,0.1-1.7l0-0.1c0-0.2,0-0.5-0.2-0.9c0-0.1,0-0.1,0-0.2l0,0
			c2.1-4.8-0.9-7.6-4.5-10c-2.4-1.6-2.8-3.5-2.7-5.9c0.1-1.4,0-2.9,0-4.3c0-0.7,0-1.4,0-2.1v-3.2c0-1.9-0.3-4-2.5-5.1v0l-0.9-0.4
			c-1-0.4-1.9-1.1-2.9-1.8l-0.1-0.1l-0.1,0c-2.9-1.5-6.2-3.9-5.7-9.3l0-0.1V243c0-1.6-0.3-3.1-0.9-4.9c-1.1-3.1-0.8-5.9-0.5-9.1
			l0-0.2c0-0.3,0.1-0.7,0.1-1c0-0.2,0-0.4,0.1-0.6l10.8-2.7c1-0.2,2-0.5,3-0.8l0.8-0.2c3.3-0.9,3.9-3.3,4.1-5.1
			c0.2-3.7,0.5-7.3,0.8-11c0-0.8,0.1-1.5,0.2-2.3c0.1-0.7,0.1-1.5,0.2-2.3l3.6-0.8c0.3,0.4,0.7,0.8,1,1.2c0.4,0.5,0.8,1,1.2,1.5
			c1.6,2,3.2,3.9,4.8,5.8c0.8,0.9,1.2,1.9,1.2,2.6c0,0.3-0.2,0.8-1.1,1.4c-4.1,2.8-5.6,6.8-7.2,11l-0.5,1.2c-0.4,1-0.8,2.1-1.2,3.1
			c-3.3,7.3,0,12.5,4.3,18.1c2.7,3.5,5.7,6.6,8.5,9.5c0.7,0.7,1.4,1.4,2.1,2.1c0.6,0.6,1.1,1.2,1.7,1.7l-0.3,0.2
			c-0.3,0.2-1.2,0.9-1.4,1.1c-0.5,0.4-1.2,1-1.6,2c-0.4,1.2-0.2,2.4,0.6,3.6c1.3,1.6,1.3,3.3,1.2,5.2l0,4.7c0,0.9,0,1.8,0,2.6
			c0,1.8,0,3.6,0,5.3c-0.1,3.3,1.1,6.6,3.4,9c2.3,2.3,4.5,4.3,6.7,6c0.3,0.3,0.7,0.6,1.1,0.7c0.4,0.2,0.7,0.4,0.9,0.7
			c4.4,5.3,10.5,6.7,16.4,7.7c1.1,0.2,2.1,0.3,3.2,0.3c2.7,0,5.3-0.8,7.7-2.2c0.5-0.3,1-0.7,1.5-1c0.2-0.1,0.4-0.3,0.6-0.4
			c0.9-0.7,1.9-1.4,2.9-1.9c1.4-0.9,2.9-1.3,4.3-1.3c1.6,0,3.1,0.5,4.4,1.6c1,0.8,2.1,1.4,3.1,2l0.5,0.3c0.9,0.6,1.8,1.1,2.6,1.8
			c1.1,1,2,2.1,2.7,3.3l0.1,0.1c0.4,0.5,0.7,1,1.1,1.5c0.5,0.6,1,1.3,1.6,2.1l1.4,1.9l1.2-0.9c0.2-0.2,0.5-0.4,0.7-0.6
			c0.2-0.2,0.3-0.3,0.5-0.4c0.4-0.3,0.8-0.7,1.2-1c0.4-0.4,0.9-0.7,1.3-1c0.4-0.3,0.9-0.5,1.4-0.5c0.5,0,1.1,0.2,1.5,0.6
			c3.1,2.4,3.9,5.1,2.7,8.6c-0.9,0.4-1.8,0.7-2.7,1l0,0c-2.4,0.2-4.6,1.7-5.9,3.8c-0.9,1.2-2.1,1.9-3.4,2.6c-0.6,0.3-1,0.6-1.6,0.9
			l-0.1,0l-0.1,0c-1.6,1.1-3.6,2.3-5.9,3.7l-0.2,0.1l-0.1,0.1c-0.2,0.1-0.3,0.2-0.5,0.4l0,0c-0.3,0.2-0.7,0.6-1,0.6l-0.1,0
			c-3.9,0.3-6.5,2.5-8.5,6.9c-0.5,0-0.9,0-1.4,0.1c-0.5,0-1,0-1.5,0H691l-0.1,0c-1,0.1-2.2,0.1-3.3,0.1c-1.7,0-2.8-0.1-4-0.4
			c-1.2-0.2-2.4-0.4-3.6-0.4c-2.6,0-5.1,0.5-7.5,1c-0.3,0-0.6,0.1-1,0.2c-0.3,0.1-0.5,0.1-0.8,0.2c-4.1,0.8-7.8,2.3-12,4.1
			c-0.4,0.1-0.8,0.3-1.2,0.5c-0.4,0.2-0.8,0.3-1.2,0.5c-4.5,2-9.3,3-14.4,3h-1.5c-0.2,0-0.4,0-0.7,0c-0.3,0-0.6-0.1-0.9-0.1
			c-5.4,0-10.2,1.9-15.2,5.8c-4.9,3.8-9.7,7.9-13.6,11.2l-2.6,2.2l0,0C605.1,373.3,602.5,374.5,599.7,374.5z"/>
		<path class="st1" d="M633.5,203.6c0.1,0.1,0.2,0.3,0.4,0.4c0.4,0.5,0.8,1,1.2,1.5c1.6,2,3.2,3.9,4.8,5.8c0.6,0.7,0.8,1.3,0.8,1.4
			c0,0.1-0.2,0.2-0.4,0.4c-4.5,3.1-6.1,7.5-7.8,11.7l-0.1,0.4c-0.1,0.3-0.2,0.6-0.3,0.9c-0.4,1-0.8,2-1.2,3
			c-3.6,8,0.1,13.9,4.4,19.6c2.7,3.6,5.8,6.7,8.7,9.6c0.7,0.7,1.4,1.4,2.1,2.1c0.2,0.2,0.4,0.4,0.5,0.6c-0.1,0.1-0.3,0.2-0.4,0.3
			c-2.6,2-3.1,5.1-1.3,7.7l0,0l0,0c0.8,1,0.9,2.2,0.8,4.2l0,0.1v0.1v0.6v4c0,0.9,0,1.8,0,2.7c0,1.7,0,3.6,0,5.2
			c-0.1,3.7,1.3,7.4,3.8,10.1l0,0l0,0c2.3,2.3,4.5,4.3,6.8,6.1c0.4,0.4,0.9,0.7,1.4,0.9c0.2,0.1,0.4,0.2,0.4,0.3l0,0l0,0
			c4.7,5.7,11.4,7.2,17.3,8.2c1.2,0.2,2.3,0.3,3.4,0.3c2.9,0,5.9-0.8,8.4-2.4c0.6-0.4,1.1-0.8,1.7-1.1c0.2-0.1,0.4-0.3,0.5-0.4
			c1-0.7,1.9-1.3,2.8-1.9c1.2-0.7,2.4-1.1,3.6-1.1c1.3,0,2.4,0.4,3.4,1.2l0,0l0,0c1,0.8,2.1,1.5,3.2,2.1l0.5,0.3
			c0.9,0.5,1.7,1.1,2.3,1.6c1,0.9,1.8,1.9,2.5,3l0.1,0.1l0.1,0.1c0.4,0.5,0.7,1,1.1,1.5c0.5,0.6,1,1.3,1.5,2.1l0.5,0.7l1.8,2.5
			l2.5-1.8c0.3-0.2,0.5-0.4,0.8-0.6c0.1-0.1,0.3-0.3,0.4-0.4l0,0l0,0c0.4-0.3,0.8-0.7,1.2-1c0.4-0.4,0.8-0.7,1.2-1l0,0l0.1,0
			c0.1-0.1,0.3-0.1,0.4-0.1c0.1,0,0.3,0.1,0.5,0.3l0.1,0l0.1,0c2.3,1.8,3,3.7,2.3,6.2c-0.6,0.2-1.2,0.4-1.8,0.6
			c-2.8,0.3-5.4,2-6.9,4.4c-0.7,0.9-1.8,1.5-2.8,2.1l-0.1,0l-0.1,0c-0.5,0.3-0.9,0.5-1.4,0.8l-0.2,0.1l-0.1,0.1
			c-1.6,1.1-3.5,2.2-5.8,3.7l-0.3,0.2l-0.1,0.1c-0.1,0.1-0.3,0.2-0.5,0.4c-0.1,0.1-0.3,0.2-0.4,0.3c-2.7,0.2-6.5,1.3-9.3,6.9
			c-0.2,0-0.3,0-0.5,0c-0.5,0-1,0-1.4,0H691l-0.1,0c-1,0.1-2.1,0.1-3.1,0.1c-1.6,0-2.6-0.1-3.6-0.3l-0.1,0l-0.1,0
			c-1.2-0.2-2.5-0.4-3.8-0.4c-2.7,0-5.3,0.5-7.8,1.1c-0.4,0.1-0.8,0.2-1.1,0.2c-0.2,0.1-0.5,0.1-0.7,0.2l0,0l0,0
			c-4.1,0.8-8,2.4-12.2,4.2c-0.4,0.2-0.8,0.3-1.3,0.5c-0.4,0.2-0.8,0.3-1.2,0.5l-0.1,0l-0.1,0c-4.2,1.9-8.8,2.8-13.7,2.8h-1.5
			c-0.1,0-0.3,0-0.5,0c-0.3,0-0.7-0.1-1.1-0.1c-5.7,0-10.9,2-16.2,6.1c-4.9,3.9-9.8,8-13.7,11.2c-0.9,0.7-1.7,1.5-2.5,2.1l-0.1,0.1
			l-0.1,0.1c-2.1,2-4.4,3.1-6.7,3.1c-1.7,0-3.4-0.6-5.2-1.6c1.4-2.7,2.2-5.6,2.3-8.5c0.1-1.3,0.4-2.6,0.7-4c0.1-0.3,0.1-0.5,0.2-0.8
			l0.1-0.3c0.5-2.1,1-4.3,1-6.6c0-0.7,1-2,1.7-2.9l0,0l0.4-0.5l0,0l0,0c1.4-1.8,2.8-3.5,4.2-5.1c0.6-0.7,1.2-1.4,1.8-2.1
			c4.8-5.6,7.6-12.4,10.1-18.5h0.5h2.1h2.1h0.1l0.1,0c1.9-0.1,4-0.5,5.4-2.1c1.4-1.6,1.5-3.6,1.4-5.3c-0.2-5.3,0.7-10.6,2.7-15.7
			c1.1-2.9,1.2-5.8,1.3-8.7c0.1-0.6,0.1-1.3,0.1-1.9c0-0.6,0-1.1,0.1-1.7l0-0.1v-0.1c0-0.2,0-0.6-0.1-1c2.4-6.3-2.9-9.8-5.2-11.3
			c-1.8-1.3-2.1-2.6-2.1-4.6c0.1-1.5,0-3,0-4.4c0-0.7,0-1.4,0-2.1v-3.2c0-1.9-0.3-4.4-2.5-6v-0.2l-1.8-0.8c-0.8-0.4-1.7-1-2.6-1.6
			l-0.2-0.1l-0.2-0.1c-3.8-1.9-5.2-4.3-4.9-7.8l0-0.1V243c0-1.7-0.3-3.4-1-5.3l0,0l0,0c-1-2.7-0.7-5.3-0.5-8.5l0-0.1
			c0-0.2,0.1-0.5,0.1-0.7l9.7-2.4c1.1-0.2,2.1-0.5,3.1-0.8l0.8-0.2l0.1,0l0.1,0c3.1-0.8,4.8-2.9,5.1-6.4l0-0.1l0-0.1
			c0.2-3.6,0.5-7.2,0.8-10.9l0,0l0,0c0-0.7,0.1-1.4,0.2-2.2c0-0.4,0.1-0.8,0.1-1.2L633.5,203.6 M634.3,200.4c0,0-0.1,0-0.2,0l-4.3,1
			c-0.5,0.1-0.8,0.5-0.8,0.9c-0.1,1.7-0.3,3.3-0.4,4.9c-0.3,3.6-0.6,7.3-0.8,11c-0.2,2.2-1,3.3-2.9,3.8l-0.9,0.2c-1,0.3-2,0.6-3,0.8
			l-11.1,2.8c-0.5,0.1-0.8,0.5-0.8,0.9c-0.1,0.6-0.1,1.3-0.2,2c-0.3,3.4-0.6,6.5,0.6,9.9c0.5,1.5,0.8,2.9,0.8,4.4
			c-0.6,6.3,3.4,9.2,6.5,10.8c1,0.7,2,1.4,3.1,1.9c0,0.1,0.1,0.1,0.1,0.1c1.8,0.6,2.4,1.7,2.4,4.1c0,1.1,0,2.1,0,3.2
			c0,2.1,0.1,4.2,0,6.3c-0.1,2.5,0.3,5.1,3.4,7.2c3.7,2.4,5.5,4.5,3.9,8.1c-0.3,0.5-0.1,1,0,1.4c0.1,0.1,0.1,0.3,0.1,0.3
			c-0.1,1.2-0.1,2.4-0.2,3.6c-0.1,2.8-0.2,5.4-1.1,7.8c-2.1,5.4-3.1,11.1-2.9,16.9c0.2,3.1-0.7,4-4,4.2c-0.7,0-1.4,0-2.1,0
			c-0.7,0-1.4,0-2.1,0s-1.3,0-1.9,0c-0.4,0-0.7,0.2-0.9,0.6l-0.4,1.1c-2.7,6.6-5.3,12.8-9.7,17.9c-1.9,2.3-4,4.7-6,7.3l-0.4,0.5
			c-1.1,1.5-2.3,3.1-2.3,4.8c0,2.1-0.5,4.1-1,6.2c-0.4,1.7-0.9,3.5-1,5.4c-0.1,3.1-1.1,6.1-2.8,8.7c-0.3,0.4-0.2,1,0.2,1.3
			c2.8,2.2,5.7,3.3,8.5,3.3c3,0,6-1.2,8.8-3.9c4.4-3.7,10.1-8.6,16.1-13.3c4.8-3.8,9.3-5.5,14.3-5.5c0.5,0,1.1,0.1,1.6,0.1
			s1,0,1.5,0c5.2,0,10.2-1,14.9-3.1c0.8-0.3,1.7-0.7,2.5-1c3.8-1.6,7.7-3.2,11.7-4c0.6-0.1,1.2-0.3,1.8-0.4c2.4-0.5,4.8-1,7.2-1
			c1.1,0,2.2,0.2,3.3,0.4c1.3,0.3,2.6,0.4,4.3,0.4c1.1,0,2.3,0,3.4-0.1c1,0,2.1-0.1,3.2-0.1c0.4,0,0.7-0.2,0.9-0.6
			c1.8-4.2,4-6,7.4-6.3c0.8,0,1.5-0.6,2-1c0.2-0.2,0.4-0.3,0.5-0.4c1.8-1.1,3.9-2.4,5.9-3.7c0.6-0.3,1.1-0.6,1.6-0.9
			c1.5-0.8,2.9-1.7,3.9-3.1c1-1.7,2.8-2.9,4.8-3.1h0.1c1.1-0.3,2.2-0.7,3.3-1.2c0.2-0.1,0.4-0.3,0.5-0.5c1.6-4.2,0.6-7.7-3-10.5
			c-0.7-0.6-1.6-1-2.5-1c-0.8,0-1.7,0.3-2.3,0.8c-0.8,0.6-1.6,1.3-2.5,2c-0.4,0.3-0.8,0.7-1.2,1l-0.5-0.7c-1-1.4-1.9-2.5-2.7-3.6
			c-0.8-1.3-1.8-2.5-3-3.6c-1-0.9-2.2-1.6-3.3-2.3c-1-0.6-2-1.2-2.9-1.9c-1.6-1.3-3.4-1.9-5.3-1.9c-1.7,0-3.4,0.5-5.1,1.5
			c-1,0.6-2,1.3-3,2c-0.7,0.5-1.3,1-2,1.4c-2.1,1.3-4.5,2-6.9,2c-1,0-1.9-0.1-2.9-0.3c-5.9-1-11.5-2.4-15.5-7.2
			c-0.4-0.5-0.9-0.8-1.4-1.1c-0.3-0.1-0.6-0.3-0.8-0.5c-2.3-1.8-4.5-3.8-6.6-5.9c-2-2.1-3.1-5-3-7.9c0.1-2.6,0-5.4,0-8
			c0-1.3,0-2.7,0-4v-0.6c0.1-2,0.1-4.2-1.5-6.2c-1.2-1.6-0.1-2.9,0.7-3.5c0.5-0.4,0.9-0.7,1.4-1.1l0.8-0.6c0.2-0.2,0.4-0.4,0.4-0.7
			s-0.1-0.6-0.3-0.8c-1.4-1.4-2.8-2.9-4.2-4.3c-3.1-3.1-5.9-6-8.4-9.3c-4.1-5.4-7-10.1-4.1-16.6c0.6-1.3,1.1-2.7,1.6-4
			c1.6-4.2,3-8.1,6.8-10.7c1-0.7,1.6-1.5,1.7-2.5c0.1-1.1-0.4-2.4-1.5-3.7c-1.6-1.9-3.2-3.8-4.8-5.8c-0.8-0.9-1.5-1.9-2.3-2.8
			C634.9,200.5,634.6,200.4,634.3,200.4L634.3,200.4z"/>
	</g>
	<g>
		<path class="st0" d="M108.4,242.3c-2.7-3-2.8-4.7-0.8-7.9c0.9-1.3,1.5-2.9,1.7-4.6c0.3-2.3,0.3-4.5,0-6.6
			c-0.2-1.4-0.8-2.8-1.6-4.2c-0.9-1.4-1.8-2.9-2.8-4.3c-0.5-0.7-0.9-1.4-1.4-2.1c-0.3-0.4-0.5-0.8-0.8-1.1c-0.2-0.4-0.5-0.7-0.7-1.1
			c-0.4-0.8-0.9-1.3-1.3-1.7c-5.9-5.4-9.6-12.1-13.1-18.6c-0.3-0.5-0.6-1-0.8-1.5c-0.3-0.5-0.6-1-0.9-1.6c-0.3-0.6-0.6-1.3-0.9-2.1
			l0-0.1l0-0.1c-0.1-0.3-0.3-0.6-0.4-1c0.4-0.2,0.8-0.4,1.3-0.7c0.5-0.3,1.1-0.6,1.6-0.9c1.3-0.7,2.6-1.4,3.8-2l0.1-0.1l0.1-0.1
			c0.2-0.1,0.5-0.3,0.8-0.3l0.1,0l0.1,0c0.3-0.1,0.7-0.2,1.2-0.5c1.3-0.7,2.8-1.2,4.2-1.8l0.5-0.2c3.1-1.4,6.3-2.8,9-4.8
			c0.2-0.2,0.5-0.4,0.8-0.6c0.4-0.3,0.9-0.7,1.3-0.9l0.1-0.1c6.8-4.9,13.8-9.9,15.9-19.1c0.1-0.3,0.2-0.6,0.3-0.9
			c0.7-1.5,2.2-2.5,3.9-2.5c0.2,0,0.4,0,0.7,0.1l1.8,0.3l0-1.8c-0.1-4.6,0.6-9.1,2.1-13.4l0.2-0.6l-0.3-0.5c-1-2.1-2.1-4.1-3.3-6
			c0-0.1,0-0.3,0-0.6v-0.3c3.7-0.2,6.4-2.1,8.2-5.8c0.9-1.9,1.9-3.7,2.9-5.4c0.4-0.8,0.8-1.6,1.2-2.4c0.3-0.6,0.6-1.1,0.9-1.7
			l0.4-0.6c0.5-0.8,0.7-1.6,0.7-2.5v-0.1l0-0.1c-0.6-3.5,1.7-5.4,4-7.4l0.2-0.2c0.5-0.4,1-0.8,1.3-1.1c2.6-2.1,5.1-4.4,7.3-6.7
			c1.7-1.9,3.4-4.3,3-7.5c-0.1-0.8,0.1-1.7,0.6-2.5c1.3-2.8,2.6-5.6,3.9-8.3l1.1-2.5l0.4-0.2l0.3-0.6l0-0.1c0.2-0.7,0.8-1.5,1.7-2
			l0.8-0.6l-0.2-0.8l0-0.2c0.1-0.4,0.2-0.9,0.3-1.3l0-0.1c0.1-0.5,0.2-1,0.3-1.5c0.2-0.8,0.3-1.5,0.6-2.3c0.6-2.4,1.3-3,3.1-3
			c0.5,0,0.9,0,1.4,0.1c2.3,0.2,4.6,0.4,6.6,0.6l1.9,0.1h0.7c3.1,0,5-1.4,6.4-4.4c1.8-4.2,3.7-8.3,5.6-12.4c0.6-1.2,1.2-2.5,1.7-3.7
			l0.8-1.6l0-0.1c0.7-1.9,2.3-3.6,4.3-4.6c1.8-0.7,3.6-1.6,5.6-2.7c1.4-0.7,3.3-1.7,5.1-2.4c1.3-0.5,2.3-0.8,3.2-0.8
			c1,0,1.8,0.3,2.7,1l0.9,0.6l0.9-0.6c0.9-0.6,1.9-1.2,2.8-1.8l1.4-0.8l-0.8-1.2l3-4.1c0.4-0.1,0.7-0.1,1.1-0.2
			c0.3-0.1,0.6-0.1,0.9-0.2l0.2,0c1.8-0.3,3.5-0.6,5.2-0.9c2.5-0.4,5-0.7,7.2-0.8c5.2-0.2,8.4-1.7,10.5-4.6c0.7-1.1,1.2-2.4,1.6-3.7
			l0.5-1.4c3.2,3.3,7,4.8,12.2,4.8c0.8,0,1.7,0,2.7-0.1c0.8-0.1,1.7-0.1,2.8-0.1h6c4.2,0,6.7-1.8,7.7-5.5c0.2-0.6,0.3-1.2,0.6-1.7
			c1.6-2.6,3-2.6,3.5-2.6c0.9,0,1.9,0.4,3.2,1.2c1.8,1.3,3.4,2.7,4.9,4.1c3.2,3.1,6.4,4.5,10,4.5h1.2c2.6,0,4.8,1.3,6.4,3.9
			c2.9,4.8,6.4,7.2,10.9,7.7c2.9,0.2,5.4,2,6.3,4.6l0,0.1l0,0.1c0.8,1.5,1.7,2.7,2.4,3.6l-0.6,0.8l1.1,1c0.9,0.8,1.6,1.6,2.2,2.4
			c1,1.4,1.9,2.9,2.6,4.6l0.2,0.5l0.5,0.3c6.7,3.7,9.3,9.3,7.7,17.1c-0.1,0.3-0.1,0.6-0.3,1c-3,5.8,0.3,9.6,4,13
			c4.4,4.1,8.9,6.1,14,6.3c-0.4,0.8-0.9,1.7-1.4,2.4l-0.6,1.1l0,0.3c-0.4,2.9-0.4,5.2,0,7.3l0.2,1l0.8,0.2c1.4,1.5,2.8,2.8,4.1,4.2
			c1.5,1.5,2.9,2.9,4.3,4.4c1.4,1.4,2.8,2.8,4.1,4.2c3.1,3.1,6,4.5,9.4,4.5c0.5,0,1,0,1.6-0.1c4.1-0.5,8.2-0.8,12.5-1.1
			c0.9,0,1.8-0.1,2.8-0.2c0.9-0.1,1.9-0.1,2.9-0.2l2.2,3c-1,0.7-2.1,1.4-3.2,1.8h-0.1l-0.2,0.1c-2.8,1-4.1,3.1-4.9,5
			c-1.6,3.7-1.3,9.1,2.7,11.6c3.1,2,6.2,3.7,9.5,5.4c0.9,0.5,1.9,1,2.8,1.5c1.5,0.8,3,1.6,4.5,2.5c-0.4,0.4-0.9,0.7-1.3,0.9
			c-3.6,1.9-7.3,4.1-9.8,7.9c-0.7,0.9-1.8,1.5-2.9,1.6c0,0,0,0,0,0c-3.2,0-5.6,1.4-7.7,4.4c-1.8,2.7-4.6,3.8-7.6,4.9l-0.2,0.1
			c-0.6,0.2-1.2,0.4-1.8,0.7c-2.3,0.9-4.9,1.2-7.4,1.6l-0.4,0.1c-0.3,0.1-0.9,0.2-1.4,0.2h-0.1l-0.1,0c-4.7,0.6-9.1,2.2-13.2,4.7
			c-3.3,2.3-7.2,3.5-11.2,3.5h-2.5c-3.1,0-6.5,0.5-8.8,4.3c-0.3,0.5-1.5,1-2.5,1c-0.3,0-0.3,0-0.3,0l-0.1,0l-0.3-0.1
			c-0.4-0.1-0.9-0.2-1.5-0.2c-3.2,0-5.2,2.3-7.1,4.5l0,0.1l-0.2,0.2l0,0c-1.1,1.3-2.5,2.5-3.8,3.6l-0.3,0.3l0,0.1
			c-0.1,0-0.3,0.1-0.6,0.1c-0.7,0-1.4-0.3-1.8-0.8l-0.1-0.1l-0.1-0.1c-3.5-3.5-6.7-6.7-9.9-9.8c-1.8-1.6-2.7-3.9-2.6-6.3
			c0.1-3.5,0.1-7.4,0-12c0-0.3,0-0.5,0-0.9l0.1-0.5l-0.3-0.5c-1.1-1.8-1.9-3.7-2.5-5.8l-0.3-1.2l-1.9,0.1l-0.1,0
			c-5.7-4.8-6.3-7-4.1-14.4c0.9-2.7,1.5-5.6,1.9-8.8c0.2-2.9-0.2-4.7-1.4-6c-1.5-1.7-4.1-1.9-5.9-1.9c-2.4,0.1-4.7,0.3-7,0.6
			c-0.7,0.1-1.3,0.2-1.9,0.2c-1.4,0-1.9-0.3-3.2-2.7c-1.3-2.3-2.6-4.8-3.9-7.1l-0.6-1c0-0.1,0.1-0.1,0.1-0.2l0.3-0.5l-0.2-0.6
			c-0.1-0.3-0.5-1.3-1.4-3.6l-0.5-1.3l-1.7,0.6l-0.1,0c-0.2,0.1-0.3,0.1-0.5,0.1l-0.4-0.1c-0.6-0.2-1.3-0.4-2.1-0.4
			c-2.9,0-4.5,2.3-5.5,4.1l-0.7,1.2c-0.8,1.6-1.7,3-2.6,4.2l-0.2,0.2l-0.1,0.1c-1.5,2.2-3,4.5-6,5.5l-0.1,0c-2.2,1-4,2.8-4.9,5.1
			c-1,2.5-2.7,3.8-5.1,5.4l-0.8,0.6c-7.4,4-7.7,4.2-11.3,10.7c-0.4,0.1-0.5,0.2-0.7,0.2l-0.1,0l-0.8,0l-0.5,0.6
			c-0.7,0.9-1.3,1.5-1.9,1.9c-0.3,0.2-0.6,0.3-0.9,0.4l-1.1,0.4l0,0.8l-0.3,0.1c-0.8,0.2-1.6,0.4-2.3,0.6c-2.6,0.6-4.7,1.2-6.5,2
			c-2.8,1.2-5.1,2.8-7.2,4.7c-4.2,3.9-7.8,8.6-10.5,14c-1.2,2.4-2.4,3.9-4.9,4.6c-2.7,0.8-4.7,2.6-6.2,5.9c-1.5,3.1-3.7,6-5.8,8.8
			l-0.4,0.5c-0.3,0.5-1.3,1.8-1.6,2.2c-4.1,5.6-4.4,6.1-5.5,11.8l-1.4-0.5l-0.5,1.5c-0.6,2-1.5,3.5-2.5,4.6c-0.5,0.5-1,0.8-1.3,0.8
			c0,0,0,0,0,0c-0.1,0-0.3,0-0.7-0.2l-2-1l-0.1,2.2l-0.2,0c-1.3-0.2-2.6-0.5-3.9-0.8c-0.2,0-0.4-0.1-0.5-0.2
			c-0.2-0.1-0.3-0.1-0.5-0.2c-0.1,0-0.1-0.1-0.2-0.1c-0.3-0.1-0.6-0.3-1.1-0.3h-0.2l-0.2,0c-0.2,0.1-0.5,0.1-0.8,0.1
			c-2.7,0-4.3-1.7-6.2-3.7l-0.2-0.2l-0.4-0.5c-2.5-2.9-5.9-5.4-9.6-7.2l-0.1,0c-1.1-0.4-2.3-0.6-3.6-0.6c-0.9,0-1.9,0.1-2.8,0.2
			c-0.4,0-0.8,0.1-1.3,0.1c-0.8,0.1-1.6,0.2-2.2,0.2h-0.1l-0.1,0c-2.3,0.2-4.4,0.7-6.5,1.4c-1.5,0.4-3.1,1.3-4.3,2.6l-0.1,0.1l0,0.1
			c-1.6,1.9-3.6,4-6.9,4.6c-1.7,0.2-3.4,1.3-4.4,2.7c-0.9,1.3-1.3,2.8-1,4.3l0,0.1c0.2,0.8,0.2,2-0.1,3.2l0,0.1
			c-1.4,3.5-0.7,6.8,2.2,10.9c2.5,3.6,3.6,7.8,3.1,11.9c-0.1,2.4-0.1,4.9,0,7.4l0,3.6l-2.1-0.5l-0.5-0.1c-1.3-0.4-2.6-0.7-3.8-0.7
			h-0.6l-0.1,0c-1.6,0.1-3,0.9-4.6,1.8c-0.2,0.1-0.6,0.3-0.9,0.5C108.5,242.2,108.4,242.2,108.4,242.3z"/>
		<path class="st1" d="M290.3,3.9c0.4,0,1.1,0.2,2.3,1c1.8,1.3,3.3,2.6,4.7,4l0,0l0,0c3.5,3.4,7,4.9,11,4.9h0.6h0.6
			c2.1,0,3.8,1,5.1,3.2c3.2,5.2,7.1,7.9,12.1,8.4l0.1,0l0.1,0c2.2,0.1,4.2,1.6,5,3.7l0.1,0.2l0.1,0.2c0.6,1.1,1.2,2,1.8,2.8l-0.8,1
			l2.1,1.9c0.8,0.7,1.5,1.4,2,2.2c1,1.2,1.8,2.6,2.4,4.3l0.4,1l0.9,0.5c6.2,3.4,8.4,8.3,7,15.4c-0.1,0.3-0.1,0.5-0.2,0.7
			c-3.7,7.2,1.6,12.1,4.4,14.7c4,3.7,8.1,5.8,12.6,6.5c-0.1,0.1-0.2,0.3-0.2,0.4l0,0.1l0,0.1c-0.1,0.2-0.2,0.3-0.2,0.5l-0.2,0.3
			l-0.3,0.5l-0.1,0.6c-0.4,3-0.4,5.5,0,7.7l0.3,2l1.4,0.3c1.3,1.4,2.6,2.6,3.8,3.9c1.4,1.4,2.9,2.9,4.2,4.3c1.4,1.4,2.8,2.9,4.2,4.3
			c3.4,3.4,6.7,5,10.4,5c0.5,0,1.1,0,1.9-0.1c4-0.5,8.1-0.8,12.3-1.1c0.9,0,1.9-0.1,2.9-0.2c0.7-0.1,1.3-0.1,2-0.1l0.8,1
			c-0.5,0.3-0.9,0.5-1.4,0.7h0l-0.5,0.2c-3.4,1.2-4.9,3.8-5.8,5.8c-1.9,4.3-1.4,10.5,3.2,13.5c3.1,2,6.3,3.7,9.6,5.5
			c0.9,0.5,1.8,1,2.8,1.5c0.8,0.4,1.5,0.8,2.3,1.2c-3.4,1.9-6.9,4.1-9.4,7.8c-0.4,0.5-1.1,0.9-1.7,1c-3.7,0-6.6,1.7-9,5.1
			c-1.5,2.3-4,3.2-6.8,4.3l-0.1,0c-0.6,0.2-1.3,0.4-2,0.8c-2.1,0.8-4.6,1.2-7,1.5l-0.4,0.1l-0.1,0l-0.1,0c-0.6,0.1-0.9,0.1-1,0.1
			h-0.2l-0.2,0c-4.9,0.7-9.5,2.3-13.8,4.9l-0.1,0l-0.1,0c-3,2.1-6.6,3.2-10.3,3.2h-0.8h-1.7c-2.1,0-7,0-10,4.9
			c-0.2,0.2-0.8,0.4-1.3,0.4c0,0,0,0,0,0l0,0l-0.2,0l-0.2,0c-0.5-0.1-1.1-0.2-1.8-0.2c-3.9,0-6.2,2.7-8.3,5l0,0l-0.1,0.1l-0.1,0.1
			l-0.1,0.1c-1.1,1.2-2.3,2.4-3.6,3.3l-0.2,0.1c-0.3,0-0.5-0.1-0.6-0.2l-0.1-0.1l-0.1-0.1c-3.5-3.5-6.7-6.7-9.9-9.8l0,0l0,0
			c-1.4-1.3-2.2-3.1-2.1-5.1c0.1-3.6,0.1-7.4,0-12.1l0,0l0,0c0-0.1,0-0.3,0-0.5l0.2-1.1l-0.6-0.9c-1-1.6-1.8-3.5-2.3-5.4l-0.6-2.3
			l-2.4,0.1l-0.1,0l-0.2,0c-4.8-4.1-5.1-5.8-3.1-12.4c0.9-2.8,1.5-5.7,2-9.1l0-0.1l0-0.1c0.2-2,0.2-4.9-1.8-7.1
			c-1.9-2.1-4.9-2.4-7-2.4h-0.1l-0.1,0c-2.3,0.1-4.7,0.3-7.1,0.6c-0.6,0.1-1.2,0.2-1.7,0.2c-0.7,0-0.8,0-1.9-1.9l0,0l0,0
			c-1.3-2.3-2.6-4.7-3.9-7l-0.2-0.4l0.3-0.6l-0.4-1.2c-0.1-0.2-0.3-0.8-1.4-3.6l-1-2.7l-2.7,0.9l-0.1,0l-0.2,0.1l-0.2,0.1l0,0
			c-0.7-0.2-1.5-0.4-2.4-0.4c-4.1,0-6.1,3.6-6.8,4.8l-0.7,1.2l0,0l0,0.1c-0.8,1.4-1.6,2.7-2.4,3.9l0,0l-0.2,0.2l-0.2,0.2
			c-1.4,2.1-2.7,4.1-5.2,4.9l-0.1,0l-0.1,0c-2.6,1.1-4.6,3.3-5.7,5.9c-0.8,2.1-2.3,3.2-4.6,4.7l-0.8,0.5c-7.4,3.9-8.1,4.5-11.5,10.7
			l-1.3,0l-0.9,1.3c-0.5,0.7-1,1.2-1.5,1.5c-0.2,0.1-0.4,0.2-0.6,0.3l-2.1,0.8l0,0.7c-0.5,0.1-0.9,0.2-1.3,0.3l0,0l0,0
			c-2.6,0.6-4.8,1.3-6.7,2.1c-2.9,1.3-5.4,2.9-7.5,4.9c-4.4,4.1-8,8.9-10.8,14.5c-1,2.1-1.9,3.3-4,3.9c-3.2,1-5.4,3-7.1,6.6
			c-1.5,3-3.6,5.8-5.6,8.6l-0.4,0.5l0,0.1l0,0.1c-0.3,0.4-1.1,1.5-1.5,2.1c-3.9,5.2-4.5,6.2-5.4,10.7l-1.2-0.4l-0.9,2.9
			c-0.6,1.8-1.3,3.1-2.2,4c-0.1,0.1-0.2,0.2-0.3,0.3l-4-1.9l-0.2,2.7c-0.8-0.2-1.6-0.3-2.3-0.5c-0.1,0-0.2-0.1-0.3-0.1
			c-0.2-0.1-0.3-0.1-0.5-0.2l-0.1,0c-0.3-0.2-0.9-0.4-1.7-0.4l-0.4,0l-0.4,0.1c-0.1,0-0.3,0-0.5,0c-1.9,0-3.1-1.2-5.1-3.2l-0.1-0.1
			l-0.4-0.5l0,0l0,0c-2.7-3.1-6.2-5.7-10.1-7.6l-0.1-0.1l-0.1,0c-1.2-0.5-2.6-0.7-4.2-0.7c-1,0-2,0.1-2.9,0.2
			c-0.4,0-0.8,0.1-1.2,0.1l-0.1,0l-0.1,0c-0.7,0.1-1.4,0.2-1.9,0.2h-0.1l-0.1,0c-2.4,0.2-4.6,0.7-6.7,1.4c-1.8,0.5-3.5,1.6-4.9,2.9
			l-0.1,0.1l-0.1,0.1c-1.4,1.8-3.2,3.5-6,4c-2.1,0.3-4.1,1.6-5.4,3.3c-1.2,1.6-1.6,3.5-1.3,5.5l0,0.1l0,0.1c0.2,0.6,0.1,1.5-0.1,2.5
			l0,0c-1.9,5.1,0.4,9.4,2.4,12.2c2.3,3.4,3.3,7.1,2.9,10.9l0,0.1l0,0.1c-0.1,2.4-0.1,4.8,0,7.4v1.8l-0.2,0l-0.5-0.1
			c-1.4-0.4-2.8-0.8-4.2-0.8h-0.5h-0.1l-0.1,0c-1.9,0.1-3.5,1-5.2,1.9l0,0c-1.5-2-1.3-3,0-5.1c1-1.5,1.7-3.3,2-5.2
			c0.3-2.4,0.3-4.8,0-7.1c-0.3-1.6-0.9-3.2-1.8-4.7c-0.9-1.4-1.9-2.9-2.8-4.3c-0.5-0.7-0.9-1.4-1.3-2.1l0-0.1l0-0.1
			c-0.2-0.3-0.5-0.7-0.7-1c-0.2-0.3-0.5-0.7-0.7-1c-0.5-0.9-1.1-1.5-1.5-1.9l0,0l0,0c-5.6-5.2-9.3-11.8-12.8-18.1l0,0l0,0
			c-0.3-0.5-0.5-0.9-0.8-1.4c-0.3-0.5-0.6-1-0.9-1.6c-0.3-0.5-0.5-1.1-0.7-1.8c0,0,0,0,0,0c0.5-0.3,1.1-0.6,1.6-0.9
			c1.3-0.7,2.6-1.4,3.7-2l0.2-0.1l0.2-0.2c0,0,0.1,0,0.2-0.1l0.2,0l0.2-0.1c0.4-0.1,0.9-0.3,1.4-0.6c1.3-0.6,2.6-1.2,4-1.7l0,0l0,0
			l0.5-0.2c3.2-1.4,6.5-2.8,9.3-4.9c0.3-0.2,0.5-0.4,0.8-0.6c0.4-0.3,0.8-0.6,1.2-0.9l0.1-0.1l0.1-0.1l0,0
			c6.6-4.8,14.2-10.2,16.4-19.9c0.1-0.2,0.1-0.5,0.2-0.6l0-0.1l0-0.1c0.4-0.9,1.4-1.5,2.5-1.5c0.1,0,0.2,0,0.4,0l3.5,0.6l0-3.6
			c-0.1-4.4,0.6-8.7,2-12.9l0.4-1.1l-0.5-1.1c-0.8-1.7-1.7-3.4-2.7-5.1c3.3-0.7,5.8-2.8,7.6-6.4l0,0l0,0c0.9-1.8,1.8-3.5,2.8-5.3
			l0,0l0,0c0.4-0.8,0.8-1.5,1.2-2.3c0.3-0.5,0.6-1.1,0.9-1.6l0.4-0.6c0.6-1,0.9-2.1,0.9-3.2v-0.2l0-0.2c-0.4-2.6,1-3.9,3.5-6
			l0.1-0.1c0.6-0.4,1-0.8,1.4-1.2c2.6-2.1,5.1-4.4,7.4-6.8l0,0l0,0c1.8-2,3.8-4.8,3.4-8.6c0-0.5,0.1-1.2,0.4-1.8l0-0.1l0-0.1
			c1.2-2.7,2.6-5.5,3.9-8.2l0,0l0,0l0.9-1.9l0.6-0.3l0.4-1.3c0,0,0-0.1,0-0.1c0.2-0.4,0.6-0.9,1.1-1.3l1.7-1.1l-0.3-1.5
			c0.1-0.3,0.1-0.7,0.2-1l0-0.1l0-0.1c0.1-0.5,0.2-1,0.3-1.5c0.2-0.8,0.3-1.5,0.5-2.1l0-0.1l0-0.1c0.5-1.9,0.7-1.9,1.6-1.9
			c0.4,0,0.8,0,1.1,0.1l0.1,0l0.1,0c2.3,0.2,4.5,0.4,6.5,0.6c0.6,0,1.2,0.1,1.8,0.1l0.1,0h0.1h0.6c3.7,0,6.2-1.7,7.7-5.3l0,0l0,0
			c1.7-4.1,3.7-8.3,5.5-12.3c0.6-1.2,1.1-2.5,1.7-3.7l0.8-1.6l0.1-0.1l0.1-0.1c0.6-1.6,1.9-2.9,3.5-3.7c1.8-0.8,3.7-1.7,5.7-2.8
			c1.4-0.7,3.2-1.7,5-2.3l0,0l0,0c1-0.4,1.9-0.7,2.5-0.7c0.7,0,1.2,0.2,1.8,0.7l1.7,1.3l1.8-1.2c0.9-0.6,1.8-1.2,2.7-1.7l2.8-1.6
			l-1.1-1.7l2-2.7c0.2,0,0.3-0.1,0.5-0.1c0.3-0.1,0.5-0.1,0.8-0.1l0,0l0,0c1.8-0.3,3.6-0.6,5.3-0.9c2.5-0.4,4.9-0.7,7-0.8
			c3.5-0.2,8.6-0.9,11.6-5.3l0,0l0,0c0.7-1,1.1-2.1,1.5-3.2c3.1,2.5,6.8,3.6,11.5,3.6c0.8,0,1.7,0,2.9-0.1c0.7-0.1,1.5-0.1,2.6-0.1
			h2.9h2.8h0.3c5,0,7.9-2.2,9.1-6.6c0.2-0.6,0.3-1,0.5-1.4C288.6,4.9,289.4,3.9,290.3,3.9 M290.3,0.9c-1.8,0-3.4,1.1-4.8,3.4
			c-0.4,0.7-0.6,1.4-0.8,2.1c-0.8,3.1-2.6,4.4-6.2,4.4h-0.3c-0.9,0-1.9,0-2.8,0c-1,0-1.9,0-2.9,0c-1.1,0-2,0-2.9,0.1
			c-1,0.1-1.8,0.1-2.6,0.1c-5,0-8.4-1.4-11.3-4.5c-0.2-0.3-0.5-0.4-0.8-0.4c-0.3,0-0.7,0.1-0.8,0.1c-0.3,0.1-0.5,0.3-0.6,0.6
			c-0.2,0.6-0.4,1.2-0.6,1.8c-0.4,1.2-0.8,2.4-1.4,3.3c-1.8,2.6-4.7,3.8-9.3,4c-2.4,0.1-5,0.4-7.4,0.8c-1.7,0.3-3.5,0.6-5.3,0.9
			c-0.7,0.1-1.4,0.3-2.2,0.4c-0.2,0.1-0.4,0.2-0.6,0.4l-3.3,4.5c-0.2,0.4-0.2,0.8,0,1.2l0.1,0.1c-1,0.6-2,1.2-2.9,1.8
			c-1.1-0.8-2.3-1.3-3.6-1.3c-1.1,0-2.3,0.3-3.7,0.9c-1.8,0.7-3.6,1.6-5.3,2.5c-1.8,1-3.6,1.9-5.5,2.7c-2.3,1.1-4.2,3-5.1,5.4
			l-0.8,1.6c-2.4,5.2-5,10.6-7.3,16.1c-1.1,2.5-2.5,3.5-5,3.5c-0.2,0-0.4,0-0.6,0c-2.5-0.2-5.4-0.4-8.3-0.7
			c-0.6-0.1-1.1-0.1-1.6-0.1c-2.8,0-3.8,1.5-4.5,4.1c-0.4,1.3-0.6,2.6-0.9,3.8c-0.2,0.6-0.3,1.2-0.4,1.7c0,0.1,0,0.3,0,0.4
			c-1,0.7-1.9,1.7-2.3,2.9c0,0,0,0,0,0.1c-0.3,0.1-0.5,0.3-0.6,0.6l-1.2,2.6c-1.4,2.9-2.7,5.6-3.9,8.3c-0.5,1-0.8,2.2-0.7,3.4
			c0.3,2.4-0.8,4.3-2.6,6.3c-2.2,2.3-4.6,4.5-7.2,6.6c-0.4,0.4-0.9,0.8-1.3,1.1c-2.5,2.1-5.4,4.4-4.7,8.9c0,0.6-0.2,1.2-0.5,1.7
			c-0.1,0-0.1,0.1-0.1,0.1c-0.8,1.5-1.6,3.1-2.4,4.6c-1,1.8-2,3.6-2.9,5.5c-1.7,3.4-4,5-7.4,5c-0.6,0-1,0.5-1,1c0,0.3,0,0.6,0,0.8
			c0,0.5,0,0.9,0.2,1.3c1.2,1.9,2.3,3.9,3.2,6c-1.5,4.6-2.2,9.3-2.1,13.9c-0.3,0-0.6-0.1-0.9-0.1c-2.2,0-4.3,1.3-5.2,3.3
			c-0.2,0.4-0.3,0.8-0.4,1.2c-2,8.6-8.8,13.5-15.3,18.2c-0.8,0.5-1.5,1.1-2.2,1.6c-2.7,2-6,3.4-9.2,4.8c-1.5,0.6-3,1.2-4.4,1.9
			c-0.3,0.2-0.6,0.3-0.9,0.4c-0.5,0.1-1,0.3-1.4,0.6c-1.2,0.6-2.5,1.3-3.8,2c-1.1,0.6-2.1,1.1-3.2,1.7c-0.5,0.3-0.7,0.8-0.5,1.3
			c0.2,0.6,0.4,1.1,0.6,1.5c0.3,0.8,0.6,1.6,1,2.3c0.6,1,1.1,2,1.7,3c3.7,6.7,7.5,13.5,13.4,18.9c0.4,0.4,0.8,0.8,1.1,1.4
			c0.5,0.7,1,1.5,1.5,2.2c1.3,2,2.8,4.2,4.1,6.3c0.7,1.1,1.2,2.3,1.4,3.6c0.3,2,0.3,4.1,0,6.2c-0.2,1.4-0.7,2.8-1.5,4
			c-2.4,3.8-2.1,6.2,1.2,9.9c0.2,0.2,0.4,0.3,0.7,0.3c0,0,0.1,0,0.1,0c0,0,0.1,0,0,0.2c0.6-0.3,1.3-0.7,1.9-1c1.4-0.8,2.7-1.5,4-1.6
			c0.2,0,0.3,0,0.5,0c1.2,0,2.5,0.4,4,0.8c0.9,0.2,1.8,0.4,2.7,0.6c0.1,0,0.1,0,0.2,0c0.2,0,0.4-0.1,0.6-0.2
			c0.3-0.2,0.4-0.5,0.4-0.8c0-1.5,0-2.9,0-4.3c-0.1-2.5-0.1-4.9,0-7.2c0.5-4.6-0.8-9.1-3.4-12.9c-2.6-3.7-3.2-6.6-1.9-9.7v-0.1
			c0.3-1.3,0.4-2.7,0.1-3.9c-0.5-3.1,2.2-5,4.2-5.3c3.8-0.7,6.1-3,7.8-5.1c1-1,2.3-1.8,3.7-2.2c2-0.7,4-1.1,6.1-1.3
			c0.7,0,1.5-0.1,2.3-0.2c1.3-0.1,2.6-0.3,3.9-0.3c1.3,0,2.3,0.2,3.1,0.5c3.4,1.6,6.6,3.9,9.1,6.8l0.5,0.6c2,2.1,4,4.3,7.4,4.3
			c0.4,0,0.8,0,1.2-0.1c0.2,0,0.5,0.2,0.8,0.3c0.3,0.1,0.7,0.3,1.1,0.4c1.6,0.4,3.2,0.7,4.7,1c0.1,0,0.1,0,0.2,0
			c0.2,0,0.4-0.1,0.6-0.2c0.2-0.2,0.4-0.4,0.4-0.7c0-0.2,0-0.4,0.1-0.5c0.4,0.2,0.9,0.3,1.3,0.3c0,0,0.1,0,0.1,0
			c0.9,0,1.7-0.6,2.3-1.2c1.4-1.4,2.3-3.2,2.9-5.2c0.2,0.1,0.4,0.1,0.6,0.2c0.1,0,0.2,0,0.3,0c0.1,0,0.2,0,0.2,0c0,0,0.1,0,0.1,0.1
			c0.3-0.2,0.4-0.4,0.5-0.7c1.2-6.3,1.2-6.3,5.4-12c0,0,1.2-1.6,1.6-2.2c2.2-3,4.6-6.2,6.3-9.6c1.4-2.9,3-4.4,5.3-5.1
			c3.3-1,4.7-3.2,5.8-5.4c2.6-5.1,6-9.7,10.2-13.6c2-1.9,4.2-3.3,6.7-4.4c1.9-0.8,4-1.4,6.2-1.9c1-0.2,2-0.5,3.1-0.8
			c0.3-0.1,0.6-0.3,0.7-0.7c0-0.1,0-0.2,0-0.4c0.4-0.1,0.8-0.3,1.1-0.5c1-0.6,1.7-1.4,2.4-2.3c0,0,0.1,0,0.1,0
			c0.4,0,0.8-0.1,1.3-0.3c0.2-0.1,0.5-0.3,0.6-0.5c3.5-6.4,3.5-6.4,10.8-10.3c0.3-0.2,0.6-0.4,0.9-0.6c2.4-1.6,4.5-3.1,5.7-6.1
			c0.8-2,2.3-3.5,4.1-4.3c3.4-1.2,5.1-3.7,6.7-6.1l0.2-0.2c1-1.4,1.9-2.9,2.7-4.4l0.7-1.2c1.3-2.3,2.6-3.3,4.2-3.3
			c0.6,0,1.2,0.2,1.9,0.4c0.2,0.1,0.3,0.1,0.5,0.1c0.4,0,0.8-0.1,1.2-0.3c0.1,0,0.2-0.1,0.2-0.1c0.7,1.7,1.2,3.2,1.3,3.5
			c-0.1,0.1-0.1,0.2-0.2,0.4c-0.2,0.3-0.1,0.6,0,0.9l0.7,1.3c1.3,2.4,2.6,4.8,3.9,7.1c1.3,2.4,2.2,3.5,4.5,3.5
			c0.7,0,1.4-0.1,2.1-0.2c2.3-0.3,4.6-0.5,6.8-0.6c2.3,0,3.9,0.4,4.8,1.4c0.9,1,1.2,2.5,1,4.8c-0.4,2.9-1,5.8-1.9,8.6
			c-2.4,8.1-1.6,10.9,4.8,16.2c0.1,0.1,0.4,0.2,0.6,0.2c0,0,0.2,0,0.5-0.1c0.1,0,0.3,0,0.4,0c0.6,2.2,1.5,4.3,2.6,6.2
			c-0.1,0.4-0.1,0.7-0.1,1.1c0.1,4.6,0.1,8.4,0,11.9c-0.1,2.8,1,5.5,3.1,7.4c3.2,3.1,6.5,6.4,9.9,9.8c0.7,0.9,1.8,1.4,3,1.4
			c0.9,0,1.7-0.2,1.9-0.7c1.5-1.1,2.9-2.4,4.1-3.8l0.2-0.2c1.9-2.2,3.5-4.1,6.1-4.1c0.5,0,0.9,0.1,1.4,0.2c0.3,0.1,0.5,0.1,0.8,0.1
			c1.3,0,3.1-0.6,3.8-1.7c1.9-3.2,4.7-3.6,7.5-3.6c0.6,0,1.1,0,1.7,0c0.3,0,0.5,0,0.8,0c4.3,0,8.5-1.3,12-3.7
			c3.9-2.4,8.1-3.9,12.6-4.5c0.5,0,1.1-0.1,1.6-0.2c2.7-0.4,5.6-0.8,8.2-1.8c0.5-0.3,1.1-0.5,1.7-0.7c3.1-1.2,6.3-2.4,8.4-5.5
			c1.8-2.6,3.7-3.8,6.6-3.8c1.5-0.1,3-0.9,4-2.2c2.3-3.5,5.7-5.5,9.3-7.4c0.8-0.4,1.5-1,2.1-1.6c0.2-0.3,0.3-0.6,0.3-0.9
			s-0.2-0.5-0.5-0.7c-1.7-1-3.4-1.9-5.1-2.8c-4.2-2.3-8.3-4.4-12.2-6.9c-3.2-2.1-3.5-6.6-2.1-9.8c0.9-2.1,2-3.5,4-4.2h0.1
			c1.5-0.6,2.9-1.4,4.2-2.4c0.2-0.2,0.4-0.4,0.4-0.7c0-0.3,0-0.6-0.2-0.8l-2.6-3.5c-0.2-0.3-0.5-0.4-0.8-0.4h-0.1
			c-2,0.1-4,0.3-5.9,0.4c-4.4,0.3-8.5,0.6-12.6,1.1c-0.5,0.1-0.9,0.1-1.4,0.1c-3,0-5.5-1.3-8.3-4.1c-2.8-2.8-5.5-5.7-8.4-8.6
			c-1.4-1.4-2.8-2.8-4.2-4.3c-0.1-0.1-0.3-0.2-0.5-0.3c-0.4-2.2-0.3-4.6,0-6.8c0.1-0.3,0.3-0.5,0.4-0.8c0.6-1,1.2-2.1,1.8-3.2
			c0.2-0.3,0.2-0.7,0-1c-0.2-0.3-0.5-0.5-0.9-0.5c-5.1,0-9.4-1.8-13.8-5.9c-4.1-3.8-6.1-6.8-3.7-11.3c0.2-0.5,0.3-0.9,0.4-1.3
			c1.7-8.5-1.1-14.7-8.5-18.7c-0.7-1.7-1.6-3.4-2.8-4.9c-0.7-0.9-1.5-1.8-2.4-2.6c0.3-0.3,0.3-0.9,0-1.2c-0.9-1.1-1.8-2.4-2.5-3.7
			c-1.2-3.2-4.2-5.4-7.6-5.6c-4-0.4-7.1-2.6-9.8-7c-1.9-3-4.5-4.6-7.7-4.6c-0.2,0-0.4,0-0.6,0c-0.2,0-0.4,0-0.6,0
			c-3.1,0-5.9-1.2-8.9-4.1c-1.6-1.6-3.3-3-5.1-4.3C292.8,1.4,291.5,0.9,290.3,0.9L290.3,0.9z"/>
	</g>
</g>
<g>
	<path class="st1" d="M327.9,429.3v19.2h-3.3v-1.9h-18.3v-17.2h3.2v13.9h5.8v-19.5h3.3v19.5h5.9v-14.1H327.9z"/>
	<path class="st1" d="M356,427.8c0,0,0,1.1,0,1.4c-0.3,11.9-0.6,16.1-1.7,17.5c-0.7,1-1.5,1.3-2.6,1.5c-1,0.1-2.6,0.1-4.2,0.1
		c-0.1-0.9-0.5-2.2-1-3.1c1.7,0.2,3.3,0.2,4,0.2c0.5,0,0.8-0.1,1.2-0.5c0.8-0.9,1.1-4.8,1.4-14.2h-5.7c-0.7,1.6-1.5,3.1-2.3,4.2
		c-0.4-0.4-1.3-1-2-1.5v12.4h-7.1v1.9h-2.9V428h3c0.3-1.3,0.7-3,0.8-4.3l3.5,0.5c-0.5,1.3-0.9,2.7-1.4,3.8h4.1v4.3
		c1.5-2.2,2.8-5.5,3.6-8.6l3,0.7c-0.3,1.1-0.6,2.3-1,3.4H356z M340,430.7h-4.2v4.3h4.2V430.7z M340,443v-5.2h-4.2v5.2H340z
		 M348.8,441.6c-0.7-1.6-2.4-4.2-3.7-6.1l2.5-1.4c1.3,1.8,3.1,4.4,3.9,5.9L348.8,441.6z"/>
	<path class="st1" d="M367.8,440.7c-0.5-0.7-1.2-1.7-1.9-2.6v10.4h-3.1v-9.8c-1,0.9-2,1.7-3,2.3c-0.2-0.9-0.8-2.6-1.2-3.2
		c2.7-1.5,5.2-4.1,6.8-6.9h-6.1v-2.8h4.7c-0.5-1-1.3-2.3-2.2-3.3l2.5-1.3c0.9,1,1.9,2.4,2.4,3.4l-2.1,1.2h2.5l0.5-0.1l1.7,1.2
		c-0.7,1.9-1.8,3.9-3.1,5.6c1.1,1,3,2.8,3.5,3.3L367.8,440.7z M383.7,444.6v3.1h-15.4v-3.1h6.4v-9.9h-5.2v-3.1h5.2v-7.8h3.3v7.8h5
		v3.1h-5v9.9H383.7z"/>
	<path class="st1" d="M405.3,444.7c1.7,0,3.8-0.1,4.9-0.3c0.1,0.8,0.3,2.2,0.5,3c-1,0.3-3.4,0.3-5.5,0.3h-10.5
		c-4.7,0-6.9-1.4-6.9-6.3v-13.8h-1.1v-2.8h22.6v2.8h-18.4v14.1c0,2.3,0.8,3.2,3.5,3.2H405.3z M392.1,436.1h7.3v7.2h-7.3V436.1z
		 M394.7,441.2h2.1v-2.9h-2.1V441.2z M405.3,435h-10.5v-6.3h10.5V435z M402.1,430.7h-4.4v2.2h4.4V430.7z M408.1,443.3h-7.5v-7.2h7.5
		V443.3z M405.4,438.3h-2.2v2.9h2.2V438.3z"/>
</g>
<g>
	<path class="st1" d="M215.9,68.8c-0.9-0.9-2.8-2.1-4.3-2.9l1.7-2.2c1.5,0.7,3.5,1.8,4.4,2.7L215.9,68.8z M212.3,78.4
		c1.1-2,2.6-5.4,3.7-8.5l2.4,1.8c-1,2.8-2.2,5.9-3.4,8.5L212.3,78.4z M217.7,61.3c-1-0.9-3-2.2-4.6-3l1.8-2.1
		c1.5,0.7,3.6,1.9,4.7,2.7L217.7,61.3z M234.4,71.1c-0.1,1.1-0.2,2-0.2,2.8h1.6v2.7h-2c-0.2,1.3-0.5,2-0.8,2.5
		c-0.6,0.8-1.3,1.1-2.2,1.2c-0.8,0.1-2.1,0.1-3.3,0.1c-0.1-0.7-0.4-1.9-0.8-2.6c1.2,0.1,2.2,0.1,2.7,0.1c0.5,0,0.7-0.1,1-0.4
		c0.1-0.2,0.2-0.4,0.3-0.8h-11c0.3-1.5,0.6-3.5,0.9-5.5h-2.4v-2.9h2.7c0.2-1.4,0.3-2.9,0.5-4.2c-0.3,0.5-0.7,0.9-1,1.4
		c-0.6-0.5-2-1.3-2.7-1.7c1.8-1.9,3.4-4.9,4.3-7.9l3.1,0.8c-0.2,0.6-0.5,1.3-0.7,1.9h11.3v2.8h-12.6c-0.3,0.6-0.6,1.2-1,1.8h12.6
		c0,0,0,0.9,0,1.3c-0.1,1.4-0.1,2.7-0.2,3.9h1.9v2.9H234.4z M223.6,71.1c-0.1,1-0.3,1.9-0.4,2.8h4c-0.6-0.7-1.5-1.5-2.3-2.2l1-0.6
		H223.6z M224.3,65.7c-0.1,0.9-0.2,1.7-0.3,2.5h3.6c-0.5-0.6-1.3-1.4-1.9-1.9l0.9-0.6H224.3z M231.2,73.9c0.1-0.8,0.2-1.7,0.3-2.8
		h-4.3c0.9,0.7,1.8,1.6,2.4,2.2l-0.9,0.6H231.2z M227.8,65.7c0.7,0.7,1.6,1.4,2,2l-0.7,0.5h2.6c0-0.8,0.1-1.6,0.1-2.5H227.8z"/>
	<path class="st1" d="M262.8,59.8c0,0,0,1.1,0,1.4c-0.3,11.9-0.6,16.1-1.7,17.5c-0.7,1-1.5,1.3-2.6,1.5c-1,0.1-2.6,0.1-4.2,0.1
		c-0.1-0.9-0.5-2.2-1-3.1c1.7,0.2,3.3,0.2,4,0.2c0.5,0,0.8-0.1,1.2-0.5c0.8-0.9,1.1-4.8,1.4-14.2h-5.7c-0.7,1.6-1.5,3.1-2.3,4.2
		c-0.4-0.4-1.3-1-2-1.5v12.4h-7.1v1.9h-2.9V60h3c0.3-1.3,0.7-3,0.8-4.3l3.5,0.5c-0.5,1.3-0.9,2.7-1.4,3.8h4.1v4.3
		c1.5-2.2,2.8-5.5,3.6-8.6l3,0.7c-0.3,1.1-0.6,2.3-1,3.4H262.8z M246.9,62.8h-4.2v4.3h4.2V62.8z M246.9,75.1v-5.2h-4.2v5.2H246.9z
		 M255.7,73.6c-0.7-1.6-2.4-4.2-3.7-6.1l2.5-1.4c1.3,1.8,3.1,4.4,3.9,5.9L255.7,73.6z"/>
	<path class="st1" d="M274.7,72.8c-0.5-0.7-1.2-1.7-1.9-2.6v10.4h-3.1v-9.8c-1,0.9-2,1.7-3,2.3c-0.2-0.9-0.8-2.6-1.2-3.2
		c2.7-1.5,5.2-4.1,6.8-6.9h-6.1v-2.8h4.7c-0.5-1-1.3-2.3-2.2-3.3l2.5-1.3c0.9,1,1.9,2.4,2.4,3.4l-2.1,1.2h2.5l0.5-0.1l1.7,1.2
		c-0.7,1.9-1.8,3.9-3.1,5.6c1.1,1,3,2.8,3.5,3.3L274.7,72.8z M290.6,76.6v3.1h-15.4v-3.1h6.4v-9.9h-5.2v-3.1h5.2v-7.8h3.3v7.8h5v3.1
		h-5v9.9H290.6z"/>
	<path class="st1" d="M312.2,76.7c1.7,0,3.8-0.1,4.9-0.3c0.1,0.8,0.3,2.2,0.5,3c-1,0.3-3.4,0.3-5.5,0.3h-10.5
		c-4.7,0-6.9-1.4-6.9-6.3V59.5h-1.1v-2.8h22.6v2.8h-18.4v14.1c0,2.3,0.8,3.2,3.5,3.2H312.2z M299,68.2h7.3v7.2H299V68.2z
		 M301.5,73.2h2.1v-2.9h-2.1V73.2z M312.2,67h-10.5v-6.3h10.5V67z M309,62.8h-4.4v2.2h4.4V62.8z M315,75.4h-7.5v-7.2h7.5V75.4z
		 M312.3,70.3h-2.2v2.9h2.2V70.3z"/>
</g>
<g>
	<path class="st1" d="M162.5,322.1c-0.9,3.5-2,6.6-3.6,9.1c0.4,1.8,0.9,2.8,1.4,2.8c0.4,0,0.6-1.2,0.7-4c0.6,0.7,1.5,1.4,2.2,1.7
		c-0.4,4.1-1.2,5.2-3.3,5.2c-1.3,0-2.3-1.1-3.1-3c-1.1,1.3-2.3,2.4-3.7,3.3c-0.4-0.5-1.5-1.7-2.2-2.1c2-1.2,3.6-2.7,5-4.5
		c-0.7-3.2-1.1-7.4-1.3-11.7h-5.2v2.9h4.7c0,0,0,0.7,0,1.1c-0.1,5.9-0.2,8.3-0.7,9c-0.4,0.6-0.8,0.8-1.5,0.9
		c-0.5,0.1-1.4,0.1-2.3,0.1c-0.1-0.8-0.3-1.8-0.7-2.5c-0.4,2.6-1.3,5.1-3,6.9c-0.4-0.5-1.6-1.5-2.3-1.9c1.1-1.2,1.8-2.7,2.1-4.2
		c-2.3,1-4.8,2-6.9,2.8l-1-3.2c0.8-0.2,1.7-0.5,2.8-0.9v-8.4h-2.3v-2.9h2.3v-6h2.9v6h2.1v2.9h-2.1v7.3l2-0.7l0.4,1.9
		c0.4-1.8,0.4-3.7,0.4-5.3V316h8c0-1.3-0.1-2.5-0.1-3.7h3c0,1.3,0,2.5,0,3.7h2.1c-0.5-0.8-1.3-1.8-2-2.5l2.2-1.3
		c1,0.9,2.1,2.2,2.6,3.1l-1.1,0.7h1.5v2.9h-5.1c0.1,2.8,0.3,5.4,0.6,7.7c0.7-1.5,1.2-3.2,1.6-5.1L162.5,322.1z M149.4,324.3v0.5
		c0,1.6-0.1,3.6-0.4,5.5c0.7,0.1,1.2,0.1,1.5,0.1c0.3,0,0.5-0.1,0.7-0.3c0.2-0.4,0.3-1.8,0.4-5.7H149.4z"/>
	<path class="st1" d="M189.3,316.4c0,0,0,1.1,0,1.4c-0.3,11.9-0.6,16.1-1.7,17.5c-0.7,1-1.5,1.3-2.6,1.5c-1,0.1-2.6,0.1-4.2,0.1
		c-0.1-0.9-0.5-2.2-1-3.1c1.7,0.2,3.3,0.2,4,0.2c0.5,0,0.8-0.1,1.2-0.5c0.8-0.9,1.1-4.8,1.4-14.2h-5.7c-0.7,1.6-1.5,3.1-2.3,4.2
		c-0.4-0.4-1.3-1-2-1.5v12.4h-7.1v1.9h-2.9v-19.8h3c0.3-1.3,0.7-3,0.8-4.3l3.5,0.5c-0.5,1.3-0.9,2.7-1.4,3.8h4.1v4.3
		c1.5-2.2,2.8-5.5,3.6-8.6l3,0.7c-0.3,1.1-0.6,2.3-1,3.4H189.3z M173.4,319.4h-4.2v4.3h4.2V319.4z M173.4,331.7v-5.2h-4.2v5.2H173.4
		z M182.2,330.2c-0.7-1.6-2.4-4.2-3.7-6.1l2.5-1.4c1.3,1.8,3.1,4.4,3.9,5.9L182.2,330.2z"/>
	<path class="st1" d="M146.9,359.3c-0.5-0.7-1.2-1.7-1.9-2.6v10.4h-3.1v-9.8c-1,0.9-2,1.7-3,2.3c-0.2-0.9-0.8-2.6-1.2-3.2
		c2.7-1.5,5.2-4.1,6.8-6.9h-6.1v-2.8h4.7c-0.5-1-1.3-2.3-2.2-3.3l2.5-1.3c0.9,1,1.9,2.4,2.4,3.4l-2.1,1.2h2.5l0.5-0.1l1.7,1.2
		c-0.7,1.9-1.8,3.9-3.1,5.6c1.1,1,3,2.8,3.5,3.3L146.9,359.3z M162.8,363.2v3.1h-15.4v-3.1h6.4v-9.9h-5.2v-3.1h5.2v-7.8h3.3v7.8h5
		v3.1h-5v9.9H162.8z"/>
	<path class="st1" d="M184.4,363.3c1.7,0,3.8-0.1,4.9-0.3c0.1,0.8,0.3,2.2,0.5,3c-1,0.3-3.4,0.3-5.5,0.3h-10.5
		c-4.7,0-6.9-1.4-6.9-6.3V346h-1.1v-2.8h22.6v2.8H170v14.1c0,2.3,0.8,3.2,3.5,3.2H184.4z M171.2,354.7h7.3v7.2h-7.3V354.7z
		 M173.7,359.8h2.1v-2.9h-2.1V359.8z M184.3,353.6h-10.5v-6.3h10.5V353.6z M181.2,349.3h-4.4v2.2h4.4V349.3z M187.2,361.9h-7.5v-7.2
		h7.5V361.9z M184.4,356.9h-2.2v2.9h2.2V356.9z"/>
</g>
</svg>
