<svg width="77" height="270" fill="none" xmlns="http://www.w3.org/2000/svg">
  <g clip-path="url(#a)">
    <path d="M14.7 120.6a.7.7 0 0 1-.7-.5v-.3l1.2-14H13a.8.8 0 0 1-.6-.3.7.7 0 0 1-.2-.5l.7-7.5v-.3l4.5-8.7h-3a.7.7 0 0 1-.5-.2.8.8 0 0 1-.2-.6l.9-10.3a.7.7 0 0 1 .7-.7h7.9l2.1-3.6a.8.8 0 0 1 .7-.3.8.8 0 0 1 .7.5l.3.6.7.3h14a.7.7 0 0 1 .6.5.8.8 0 0 1 0 .7l-.8 1.3h20.2a.8.8 0 0 1 .7.9l-.9 10.3a.8.8 0 0 1-.7.6H41c.6.6 1.4.9 2.1 1h11.1a.7.7 0 0 1 .8.7l-.3 3.1h4.9a.7.7 0 0 1 .6.3.8.8 0 0 1 .2.6l-1 10.3a.7.7 0 0 1-.7.7h-5l-.3 3H59a.7.7 0 0 1 .5.2.7.7 0 0 1 .2.6l-.9 10.3a.8.8 0 0 1-.7.7H31.3a.7.7 0 0 1-.6-.3.7.7 0 0 1-.2-.5l.3-3.7a7.7 7.7 0 0 1-7.4 5h-8.7Zm16.9-20.4c.2 0 .4 0 .5.2a.8.8 0 0 1 .2.6l-.6 7.3.4-.1h5.6l.3-3h-4.8a.7.7 0 0 1-.6-.3.7.7 0 0 1-.2-.5l.9-10.3a.8.8 0 0 1 .8-.7h5l.4-4.7v-.1h-3.8L30 100.2h1.6Z" fill="#3E3A39"/>
    <path d="M26 73.5c0 .4.2.7.6 1 .2.2.6.4 1 .4l1.1.2h13l-1.5 2.4h21.5l-.9 10.3H35.2L28.8 101h2.8l-1 12.3a6.9 6.9 0 0 1-7 6.6h-8.9L16 105h-3l.7-7.5 5-9.8h-4.2l.9-10.3h8.2l2.4-4Zm14.2 15.3a3.9 3.9 0 0 0 3 1.4h11l-.3 4h5.7l-.9 10.2H53l-.4 4.6H59l-1 10.3H31.4l.9-10.3h6.3l.4-4.6h-5.7l.9-10.3h5.7l.4-5.3ZM26 72a1.5 1.5 0 0 0-1.2.8l-2 3.2h-7.4a1.5 1.5 0 0 0-1.5 1.4L13 87.7a1.5 1.5 0 0 0 1.5 1.6h1.7L12.3 97l-.2.5-.6 7.5a1.5 1.5 0 0 0 1.5 1.6h1.3l-1.1 13.2a1.5 1.5 0 0 0 .4 1.2 1.5 1.5 0 0 0 1 .5h8.8a8.4 8.4 0 0 0 6.4-2.7v.4a1.5 1.5 0 0 0 1.4 1.7h26.9a1.5 1.5 0 0 0 1.4-1.4l1-10.2v-.2a1.5 1.5 0 0 0-1.5-1.5h-4.8l.2-1.6h4.3a1.5 1.5 0 0 0 1.5-1.3l.9-10.3a1.5 1.5 0 0 0-1.5-1.7h-4l.1-2.2v-.2c0-.3 0-.6-.3-.9h5.4a1.5 1.5 0 0 0 1.5-1.4l.9-10.2v-.2a1.5 1.5 0 0 0-1.5-1.5H42.8l.1-.1a1.5 1.5 0 0 0-1.2-2.3h-13l-.9-.1a1 1 0 0 1-.3-.2l-.1-.2a1.5 1.5 0 0 0-1.3-1H26Zm10.2 17.3h2.5l-.3 3.3h-3.8l1.6-3.3Zm-5 10.1 1.1-2.2-.2 2.3h-.9Zm1.4 8 .1-1.6.5.1h4l-.1 1.5h-4.5Z" fill="#fff"/>
    <path d="M34.3 169.5a5.6 5.6 0 0 1-4-1.7c-.6-.5-1-1.1-1.2-1.8-.2-.7-.3-1.5-.2-2.2l1.5-17.3-.4.1h-.2l-.5-.1a.8.8 0 0 1-.3-.7l.3-2.7h-.8l-1.2 14c.4.3.8.7 1 1.2.3.6.4 1.3.4 2l-.6 7a.8.8 0 0 1-.8.7H12.5a.8.8 0 0 1-.5-.3.7.7 0 0 1-.2-.5l.9-10.3a.8.8 0 0 1 .7-.7h1l1.1-13.2h-.8a.7.7 0 0 1-.5-.2.8.8 0 0 1-.2-.6l.9-10.3a.7.7 0 0 1 .7-.7h1l.7-8.5a.8.8 0 0 1 .6-.7h.2a.7.7 0 0 1 .6.4c.3.5.7 1 1.2 1.3.5.3 1 .4 1.5.4h8a.7.7 0 0 1 .7.5v.4l-.5 6.2h.8a.8.8 0 0 1 .7.5v.4l-.1 2.2.5-.2.8-8.6a.8.8 0 0 1 .5-.7h.2a.8.8 0 0 1 .7.4c.1.3.4.5.7.7l1.2.3h9.1l.3-3.2a.7.7 0 0 1 .7-.7.7.7 0 0 1 .8.5c0 .4.4.8.7 1 .4.2.8.4 1.3.4h4.8a.7.7 0 0 1 .7.5v.3l-.3 4 3.3-.8 1.5-.2 1 .1c.8.2 1.4.5 2 1 .5.5.9 1 1.1 1.7.3.7.4 1.4.3 2.2l-2 21.7c0 .8-.3 1.6-.7 2.3a.8.8 0 0 1 .5.8l-1 11.1a.8.8 0 0 1-.7.7H34.3Zm22.6-10.2c.6 0 1.3-.3 1.8-.8a5 5 0 0 1-2.3.8h.5Zm-7.3 0a.7.7 0 0 1-.6-.8c-.6.4-1.4.7-2.2.8h2.8Zm-7.1 0-.2-.1h.2Zm8.5-3.1a5 5 0 0 1-1 1.5c.3-.1.6-.3.7-.5l.3-1Z" fill="#3E3A39"/>
    <path d="M18 122.8c.4.6.9 1.2 1.5 1.5a3 3 0 0 0 1.9.6h8l-.6 7.1h1.6l-1 10.3H28l-1.4 15.1c.5.3.9.7 1.1 1.2.3.5.4 1 .3 1.7l-.6 7H12.5l1-10.4H15l1.3-14.6h-1.6l.9-10.3h1.6l.8-9.2Zm27.7.2c.2.6.6 1.1 1.1 1.4.5.3 1 .5 1.7.5h4.7l-.4 5 4.4-1a6 6 0 0 1 1.3-.2l.9.1c.6.2 1.1.4 1.6.8.4.4.8.9 1 1.4l.2 1.8-2 21.8c0 1-.5 2-1.4 2.8-.8.7-1.9 1.2-3 1.1h-6a2.2 2.2 0 0 0 1.5-1 4 4 0 0 0 .6-1.7l1.3-15.6-1.3.3-1.2 14a4.4 4.4 0 0 1-4.4 4h-3.7l1.4-16.1-1 .2-1.5 17.3h15.4a3 3 0 0 0 1.8-.6c.6-.4 1-1 1.3-1.7l-1 11.1H34.3a4.8 4.8 0 0 1-3.5-1.4l-1-1.5c-.2-.7-.2-1.3-.2-2l1.6-18.3-1.4.3 1-10.7 1.4-.3.8-9.3c.2.5.6.8 1 1 .5.3 1 .4 1.6.4h8.7l-.4 5.2 1-.3.8-8.8ZM18 121.3h-.3a1.5 1.5 0 0 0-1.2 1.3l-.7 7.9h-.3a1.5 1.5 0 0 0-1.4 1.3l-1 10.3a1.5 1.5 0 0 0 .4 1.2 1.5 1.5 0 0 0 1.1.5l-1 11.6h-.2a1.5 1.5 0 0 0-1.5 1.4l-1 10.3a1.5 1.5 0 0 0 1.6 1.6h14.8a1.5 1.5 0 0 0 1.5-1.4v-.2c.2.4.5.9.9 1.2a6 6 0 0 0 4.5 2h24.7a1.5 1.5 0 0 0 1.5-1.4l1-11v-.3c0-.3 0-.6-.3-.9.3-.6.5-1.3.6-2l1.9-21.7c0-.8 0-1.7-.3-2.4a4 4 0 0 0-1.4-2 5 5 0 0 0-3.4-1.3c-.6 0-1.2 0-1.7.2l-2.4.6.3-3a1.5 1.5 0 0 0-1.5-1.6h-4.8l-.9-.3a1 1 0 0 1-.4-.6 1.5 1.5 0 0 0-1.4-1h-.2a1.5 1.5 0 0 0-1.3 1.4l-.3 2.5h-8.4c-.3 0-.6 0-.8-.2l-.5-.4a1.5 1.5 0 0 0-1.3-.8h-.3a1.5 1.5 0 0 0-1.2 1.4l-.4 5.2c-.2-.1-.5-.2-.7-.1l.5-5.4a1.5 1.5 0 0 0-1.5-1.7h-8a2 2 0 0 1-1-.4 2 2 0 0 1-1-1 1.5 1.5 0 0 0-1.4-.8Zm10 35.5 1-9.7c.1.2.3.2.6.3l-1 10-.5-.6Z" fill="#fff"/>
    <path d="M23 219a.8.8 0 0 1-.5-1.1c0-.2.2-.3.4-.3.4 0 .6-.3.9-.5.2-.3.3-.6.3-1v-.2h-2.3c-.3.8-.8 1.5-1.5 2-.7.7-1.7 1-2.8 1h-5a.8.8 0 0 1-.5-.2.8.8 0 0 1-.2-.5l2-22.8-.2-.2a.8.8 0 0 1-.2-.6l.7-8.3a.7.7 0 0 1 .7-.7h.2l1.2-14a.7.7 0 0 1 .6-.6h.2a.8.8 0 0 1 .6.4l1 .8c.5.2 1 .4 1.6.4h16.6a.8.8 0 0 1 .7.8l-1 12.3h.1l1-12a.7.7 0 0 1 .5-.7h.3a.8.8 0 0 1 .5.3 2.4 2.4 0 0 0 2 .7h1.9l.2-2.4a.7.7 0 0 1 .6-.7h.1a.7.7 0 0 1 .7.5l.7.1h4.8l.3.1a.7.7 0 0 1 .7-.6.8.8 0 0 1 .8.4l.6.2h4.8c.2 0 .4 0 .6.2a.8.8 0 0 1 .2.6l-.2 1.6h4.4c.2 0 .4.1.5.3a.8.8 0 0 1 .2.5l-1 12.4a4.7 4.7 0 0 1-1.7 3.1 5 5 0 0 1-.9.7h1.4a.7.7 0 0 1 .6.2.8.8 0 0 1 .2.6l-.5 6.1a.7.7 0 0 1-.5.7v.4l-.5 6.9c0 1-.5 2-1.2 2.7l-1.3.7.4.3a2.7 2.7 0 0 1 .7 2.2v.1a2.8 2.8 0 0 1 1 2.4l-.3 3.6a.7.7 0 0 1-.7.7H34.4a.7.7 0 0 1-.6-.3.7.7 0 0 1-.1-.5v-1.6a5 5 0 0 1-1 1.5c-.8.8-2 1.3-3 1.3H23Zm11.5-7.6h.9l.2-1.7a.7.7 0 0 1-.6-.3.7.7 0 0 1-.2-.6l1-10.3-.1-.1-1.2 13Zm12.5 0 .1-1.7h-1c.5.4.8 1 .8 1.6h.1Zm3-12.7v.3l.5-.3h-.6Zm-23.5-3.3v.2l-.2 1.4a5.1 5.1 0 0 1 1.5-1.5h-1.3Zm8.6-.6a.7.7 0 0 1 .6.2l.2-1.5-.6.7-.7.6h.5Zm-9.4 0h.3v-.8h-2l-.1.7h2Z" fill="#3E3A39"/>
    <path d="M51 171.8a.8.8 0 0 0 .6.5h5.6l-.2 2.5h5l-1 12.4c-.2 1-.6 2-1.4 2.6a4 4 0 0 1-2.8 1.1h-20l1.5-17a3.2 3.2 0 0 0 2.4 1h2.6l.3-3a.8.8 0 0 0 .6.4l.7.1H50l-.3 2.5h1.1l.3-3v-.1Zm6.6 7.9h-1.1l-.1 1.6h1l.2-1.6Zm-7.3 0h-1l-.2 1.6h1l.2-1.6Zm-7.3 0h-1l-.2 1.6h1l.2-1.6Zm14.2 4.7H56l-.2 1.7H57l.2-1.7Zm-7.3 0h-1l-.2 1.7h1l.2-1.7Zm-7.2 0h-1.1l-.2 1.7h1.1l.2-1.7ZM17 171.8c.3.5.7.9 1.2 1.1.6.3 1.3.5 2 .5h16.5l-1.1 13h.8L36 191a4.2 4.2 0 0 1-2.4 3.4c-.4.2-.9.3-1.4.3h-5.5l.2-1.5h-3.7l-.2 1.5h-8.9l.7-8.3h.9l1.3-14.6Zm5.9 9.3h5.5l-.5 5.3h.9l.5-6.1H23l-.1.8Zm1 4.2h-1.3l-.1 1.1h1.3v-1.1Zm36.8 6.5-.5 6.1h-24l.6-6h23.9Zm-46 3.1c.1.4.7.6 1.6.6h9.4l-.5 6.6h-2.8l-.1 1.3H26l.4-4.1a4.2 4.2 0 0 1 2.3-3.5l1.4-.3h5l-1.7 19A4.1 4.1 0 0 1 31 218c-.4.2-1 .3-1.4.3h-6.5c.4-.1.9-.4 1.2-.8.3-.3.5-.8.6-1.3v-1h-3.7a5 5 0 0 1-1.3 2.2 4 4 0 0 1-2.3.8h-5l2-23.3Zm10.9 13.7h-3.7l-.2 1.3h3.8v-1.3Zm11-10.3a2.6 2.6 0 0 0 2 .7h10.7l-.4 4.2h-3.2v1.4h3.6l.2-3.3c0-.7.4-1.3.9-1.7.5-.4 1-.6 1.7-.6h7.7l-.6 6.8c0 .9-.4 1.7-1 2.2-.7.6-1.6 1-2.4.8H35.6l.9-10.5Zm19 11.2a2.2 2.2 0 0 1 1.7.7 2 2 0 0 1 .5 1.6v.5l.8.8c.2.4.2.8.2 1.2l-.3 3.5h-24l.4-5.8h1.3l.2-2.5H44a2.2 2.2 0 0 1 2 1.4c.1.3.2.6.1.9v.2h1.6l.2-2.5h7.7-.1ZM17 170.2h-.3a1.5 1.5 0 0 0-1.2 1.4L14.4 185a1.5 1.5 0 0 0-1 1.3l-.8 8.2a1.5 1.5 0 0 0 .4 1.2L11 218a1.5 1.5 0 0 0 1.5 1.6h5c1.2 0 2.4-.4 3.3-1.3a6 6 0 0 0 1.4-1.8h.8l-.3.1a1.5 1.5 0 0 0 .3 3h6.6a5 5 0 0 0 3.3-1.3 1.5 1.5 0 0 0 1.4 1h24A1.5 1.5 0 0 0 60 218l.3-3.6c0-.7 0-1.4-.4-2l-.6-.8c0-.7-.2-1.4-.6-2l.5-.4a5 5 0 0 0 1.5-3.2l.6-6.8a1.6 1.6 0 0 0 0-.3c.2-.2.3-.5.4-.9l.5-6a1.5 1.5 0 0 0-1-1.6c.8-.9 1.3-2 1.4-3l1-12.3v-.3a1.5 1.5 0 0 0-1.5-1.5h-3.5v-.9a1.5 1.5 0 0 0-1.4-1.5h-5a1.5 1.5 0 0 0-1.2-.6h-.2a1.5 1.5 0 0 0-1 .6h-5a1.5 1.5 0 0 0-1.1-.6h-.3a1.5 1.5 0 0 0-1.2 1.3l-.2 1.7h-1a1.7 1.7 0 0 1-1.4-.5 1.5 1.5 0 0 0-1.1-.5l-.5.1a1.5 1.5 0 0 0-1.2-.6H20.1c-.4 0-.8 0-1.2-.3-.2 0-.5-.2-.6-.5a1.5 1.5 0 0 0-1.3-.8Z" fill="#fff"/>
    <path d="M24 268.1h-5.1a1 1 0 0 1-1-.7 1 1 0 0 1 .4-1 2.9 2.9 0 0 0 1.3-2.6l.6-6.4.2-2.6h-6a1 1 0 0 1-.7-.3 1 1 0 0 1-.3-.7l2.1-24 .6-6.1v-.2l.1-1.6a1 1 0 0 1 .8-.9h.2a1 1 0 0 1 .8.5c.2.4.6.6 1 .8.4.2 1 .3 1.5.3h14a1 1 0 0 1 .7.3 1 1 0 0 1 .2.8v.2L35 228v1.3a52 52 0 0 1-.6 4.2l-.3 4.4c0 .2-.1.4-.3.5l.2.6-.4 4.4-.3.6.1.5v2L32 262.3c0 .8-.2 1.7-.4 2.5a4.5 4.5 0 0 1-4 3.3H24Z" fill="#3E3A39"/>
    <path d="M17.2 221.8h.1c.4.6.8 1 1.3 1.2a4 4 0 0 0 1.9.4h14.1v.2l-.4 4.4v1.4l-.4 3v.1H31l-.1.8h2.6a.2.2 0 0 1 0 .2l-.3 4.4v.1h-2.9v.8H33a.2.2 0 0 1 0 .2l-.3 4.4a.2.2 0 0 1-.2.2h-2.6v.8h2.5a.2.2 0 0 1 .1.2v1.8a2226.2 2226.2 0 0 1-1.8 18.2 3.8 3.8 0 0 1-3.3 2.7H19a.2.2 0 0 1-.2 0v-.2a3.6 3.6 0 0 0 1.7-3.2 1244.8 1244.8 0 0 1 .8-9.8h-7v-.2l1.5-17.7.2-2 .4-4.4.4-4.2.2-1.8v-.1l.1-1.7v-.1h.2v-.1Zm8 10.8-.5.2v.5h.5v-.7Zm-.4 5.5h-.6v.7h.5v-.7Zm-.5 5.5h-.6v.8h.5l.1-.8Zm-7.1-23.3h-.4a1.7 1.7 0 0 0-1.3 1.5l-.2 1.5v.3l-.1 1.8v.2a564.8 564.8 0 0 1-.8 8.5l-.2 2-1.5 17.6a1.7 1.7 0 0 0 1.7 1.9h5.2l-.2 1.4-.5 6.8a2.2 2.2 0 0 1-1 2 1.7 1.7 0 0 0 1 3.1h8.6a5.3 5.3 0 0 0 4.7-4c.3-.8.4-1.6.5-2.5l1.4-15.9v-2.3l.1-.6.4-4.4v-.6l.2-.5.4-4.4v-.5l.1-.6.4-3.1v-1.3a1104.8 1104.8 0 0 0 .4-5.2l-.4-.6a1.7 1.7 0 0 0-1.2-.5h-14c-.5 0-.9-.1-1.2-.3a.7.7 0 0 1-.6-.4 1.7 1.7 0 0 0-1.5-1v.1Z" fill="#fff"/>
    <path d="M43.8 249a194 194 0 0 1-10.7-.5 1 1 0 0 1-.3-.5c-.2-1-.1-2 0-3l.2-1.3.2-2.8.1-1.3a1 1 0 0 1 1-1H61a1 1 0 0 1 1 1l-.1 3-.2 1.2-.2 2.7-.1 1.2a1 1 0 0 1-.8.9c-1.2.3-10.6.3-16.8.3Z" fill="#3E3A39"/>
    <path d="m60.9 239.4.2.2-.1 2.9-.2 1.3-.2 2.7-.1 1.2a.2.2 0 0 1-.2.2 268.7 268.7 0 0 1-26.8 0l.1-2.8.2-1.3c0-1 0-1.9.2-2.8l.1-1.4v-.1H61Zm0-1.5H34.3a1.7 1.7 0 0 0-1.7 1.6l-.1 1.3-.2 2.9-.2 1.2c-.2 1-.2 2.1 0 3.2a1.7 1.7 0 0 0 1.5 1.4c1.3.1 5 .2 10.2.2.1 0 15.2 0 16.8-.3a1.7 1.7 0 0 0 1.4-1.6l.1-1.1.2-2.8.2-1.3c.1-1 .2-2.1 0-3.2a1.7 1.7 0 0 0-1.6-1.5Z" fill="#fff"/>
    <path d="M40 239.8h-5.5a1 1 0 0 1-.7-.4 1 1 0 0 1-.2-.8l2-5.8 1-2.5 2.2-5.6 1-2.6a1 1 0 0 1 .6-.5h.2c.3 0 .5 0 .7.2a4.5 4.5 0 0 0 3.3 1h8.7a1 1 0 0 1 .7.4 1 1 0 0 1 .1 1l-1.3 3.4-3.4 8.2a6.7 6.7 0 0 1-6 4H40Z" fill="#3E3A39"/>
    <path d="M40.7 222.2h.1a5.2 5.2 0 0 0 3.9 1.2h8.7v.1a.2.2 0 0 1 0 .2l-1.3 3.6-3.3 8a6 6 0 0 1-5.4 3.6l-3.5.1h-5.6a.2.2 0 0 1 0-.3c.6-2 1.4-3.8 2-5.6l1-2.6 2.2-5.5 1-2.6a.2.2 0 0 1 .1-.1l.1-.1Zm0-1.4h-.4a1.7 1.7 0 0 0-1.3 1l-1 2.6a270.8 270.8 0 0 0-5.2 14.7c0 .3.1.5.3.7a1.7 1.7 0 0 0 1.4.7h8.9a7.4 7.4 0 0 0 6.7-4.6l3.3-8.1 1.4-3.6a1.7 1.7 0 0 0-1.6-2.3h-8.6a3.7 3.7 0 0 1-2.8-.8c-.3-.3-.7-.4-1.2-.4Z" fill="#fff"/>
    <path d="M53.3 239.8c-2.4 0-4.6 0-6-.2a1 1 0 0 1-.8-.7 1 1 0 0 1 .4-1 5 5 0 0 0 2-2.8l3.5-8.8.7-1.7.3-.6.2-.4a1 1 0 0 1 .7-.6h.1a1 1 0 0 1 .8.3c3.7 4.3 6.1 9.5 6.8 15.2a1 1 0 0 1-.7 1c-2.7.2-5.3.3-8 .3Z" fill="#3E3A39"/>
    <path d="m54.5 223.7.1.1a26.9 26.9 0 0 1 6.7 14.9H61a68 68 0 0 1-7.8.4c-2.4 0-4.5 0-6-.2h-.1v-.2a.2.2 0 0 1 0-.2c1.2-.7 2-1.8 2.4-3.2l3.6-9 .5-1.5.3-.5.2-.4.1-.1h.2Zm-.1-1.4h-.2a1.7 1.7 0 0 0-1.3.9l-.2.4a8 8 0 0 0-.4.7l-.4 1.5-3.6 9a4 4 0 0 1-1.7 2.5 1.7 1.7 0 0 0 .7 3.2 97.4 97.4 0 0 0 14.2-.2 1.7 1.7 0 0 0 1.4-1.9 28.4 28.4 0 0 0-7.6-16h-.7l-.2-.2Z" fill="#fff"/>
    <path d="M54.3 258.7H51a1 1 0 0 1-.7-.3 1 1 0 0 1-.2-.7l.8-9.1a1 1 0 0 1 .6-.8l.3-.1a1 1 0 0 1 .7.3 2.4 2.4 0 0 0 1.8.5H60c.2 0 .5.1.7.3a1 1 0 0 1 .2.8v1.5l-.5 3.6a4.8 4.8 0 0 1-3.7 3.8c-.8.2-1.7.3-2.5.2Z" fill="#3E3A39"/>
    <path d="M52 248.4a3.1 3.1 0 0 0 2.4.8h5.8a.2.2 0 0 1 0 .2v1.6l-.5 3.5a4 4 0 0 1-3.1 3.2l-2.4.3H51l-.1-.3.8-9v-.2h.2v-.1Zm-.1-1.4h-.6a1.7 1.7 0 0 0-1.1 1.5l-.8 9.1a1.7 1.7 0 0 0 .4 1.3 1.7 1.7 0 0 0 1.3.6h3.1c1 0 1.9-.1 2.8-.3a5.6 5.6 0 0 0 4.2-4.4c.2-1.2.4-2.4.4-3.7l.1-1.6a1.7 1.7 0 0 0-1.7-1.8h-5.6c-.8 0-1 0-1.4-.3-.3-.3-.7-.5-1.1-.5Z" fill="#fff"/>
    <path d="M45.4 258.7H42a1 1 0 0 1-.7-.3 1 1 0 0 1-.2-.8l.7-8.7a1 1 0 0 1 1-.8h.2l1 .1 2 .2h5c.3 0 .5.1.7.3.2.2.3.4.3.7v.9c0 1.5-.2 3-.6 4.5a5.1 5.1 0 0 1-4.5 3.8h-1.5Z" fill="#3E3A39"/>
    <path d="m42.8 248.8 1 .1 2.1.2H51v1.2a20 20 0 0 1-.5 4.2 4.4 4.4 0 0 1-3.9 3.4H42l-.2-.1v-.2l.7-8.7.1-.1h.2Zm0-1.5a1.7 1.7 0 0 0-1.7 1.6l-.8 8.7a1.7 1.7 0 0 0 1.7 1.8h4.8a5.9 5.9 0 0 0 5.1-4.4c.4-1.5.6-3 .6-4.6v-1a1.7 1.7 0 0 0-1.7-1.7H46l-2-.2-1-.2h-.1Z" fill="#fff"/>
    <path d="M13.6 264.5a1 1 0 0 1-.7-.3 1 1 0 0 1-.3-.7l.8-9a1 1 0 0 1 1-1h2.1l1.4.2a4.3 4.3 0 0 1 3.6 4.4v1.1l-.4 4.4a1 1 0 0 1-1 .9h-6.5Z" fill="#3E3A39"/>
    <path d="M16.5 254.3h1.3a3.6 3.6 0 0 1 3 3.8v1.3c-.2.9-.2 1.9-.3 2.9l-.1 1.2v.1h-.2l-2.7.1h-3.8a.2.2 0 0 1-.2 0v-.2l.7-9a.2.2 0 0 1 .2-.2h2.1Zm0-1.5h-2a1.7 1.7 0 0 0-1.7 1.6l-.8 9a1.7 1.7 0 0 0 .4 1.3 1.7 1.7 0 0 0 1.3.6h3.8l2.8-.1a1.7 1.7 0 0 0 1.6-1.6v-1.2l.3-3v-.1l.1-1.2a5 5 0 0 0-4.3-5.2l-1.5-.1Z" fill="#fff"/>
    <path d="M35 268.5h-3.2a1 1 0 0 1-.8-.4 1 1 0 0 1-.1-.8c.3-1.3.8-2.4 1.2-3.5v-.1l.6-1.5 1.3-3.4v-.1h-1.3a1 1 0 0 1-.7-.3 1 1 0 0 1-.3-.8l.8-8.9a1 1 0 0 1 .5-.8h.9c.8.5 1.7.6 2.6.6h5.1c.3 0 .6.1.7.3a1 1 0 0 1 .3.7l-.1 1.6-.4 3.7c-.2 1-.7 2-1.4 2.6h2.5a1 1 0 0 1 .7.4 1 1 0 0 1 .1.9l-.8 2.2-2 5a4.4 4.4 0 0 1-4 2.6H35Z" fill="#3E3A39"/>
    <path d="M33.5 248.5h.2c.9.5 2 .7 3 .7h5.2a.2.2 0 0 1 0 .2l-.2 1.7c0 1.2-.1 2.3-.3 3.5a4 4 0 0 1-3.6 3.3h-1.3l1.4.2h5.3a.2.2 0 0 1 .1 0 .2.2 0 0 1 0 .3l-.8 2.1a181 181 0 0 1-2 5 3.7 3.7 0 0 1-3.3 2.2h-5.5a.2.2 0 0 1-.1 0v-.2c.3-1.2.8-2.4 1.2-3.5l.6-1.5 1.3-3.4.5-1.1h-2.4a.2.2 0 0 1-.2-.1v-.2l.8-9h.1v-.2Zm0-1.4a1.7 1.7 0 0 0-1.6 1.6l-.8 9a1.7 1.7 0 0 0 1.7 1.8h.2l-1 2.5-.6 1.5c-.5 1.2-1 2.3-1.3 3.6a1.7 1.7 0 0 0 .9 2l.7.2h5.5A5.2 5.2 0 0 0 42 266l2-5 .8-2.1a1.7 1.7 0 0 0-1.5-2.4h-1c.3-.5.6-1.1.6-1.7l.4-3.7.1-1.6a1.7 1.7 0 0 0-1.7-1.9h-5.1c-.7 0-1.5 0-2.2-.4-.2-.2-.5-.2-.8-.2Z" fill="#fff"/>
    <path d="M40.4 268.4h-.9a1 1 0 0 1-.4-1.8c.6-.3 1-.8 1-1.5l2.3-5.4.3-1 .2-.4.1-.3a1 1 0 0 1 .8-.5h.1a1 1 0 0 1 .7.3 20.3 20.3 0 0 1 2 3.2c.1.1 0 .3 0 .4-.4 1.4-1 2.7-1.5 3.9l-.1.3-.5 1.2-.5 1a1 1 0 0 1-.8.6h-2.8Z" fill="#3E3A39"/>
    <path d="M43.9 258.3a.2.2 0 0 1 .2 0 19.9 19.9 0 0 1 1.8 2.9 47 47 0 0 1-1.5 3.8l-.1.4a16 16 0 0 1-1.2 2.2h-3.5a.2.2 0 0 1-.2-.1.2.2 0 0 1 0-.3c.8-.4 1.3-1 1.5-1.9L43 260l.4-1 .2-.3.1-.3h.2Zm0-1.6h-.3a1.7 1.7 0 0 0-1.3 1v.2c-.2.1-.2.3-.3.5l-.4 1-2.1 5.4c-.3.8-.5 1-.8 1.2a1.7 1.7 0 0 0-.8 1.8 1.7 1.7 0 0 0 1.5 1.4h3.7a1.7 1.7 0 0 0 1.5-1l.5-1 .5-1.2.2-.4a46 46 0 0 0 1.5-4.7c0-.2 0-.5-.2-.7-.6-1-1.2-2-2-2.9a1.7 1.7 0 0 0-1.3-.6Z" fill="#fff"/>
    <path d="M47.4 268.4h-3.2a1 1 0 0 1-.7-.3 1 1 0 0 1-.2-.9c.3-1.2.8-2.3 1.2-3.5l.6-1.5 1.2-3.4.7-1.6a1 1 0 0 1 .7-.6h.2a1 1 0 0 1 .6.3 2.1 2.1 0 0 0 1.7.4h5a1 1 0 0 1 .8.4 1 1 0 0 1 0 1l-.8 2.1a52 52 0 0 1-2 5 4.3 4.3 0 0 1-3.8 2.6h-2Z" fill="#3E3A39"/>
    <path d="M47.9 257.3h.1a2.8 2.8 0 0 0 2.2.7h5.1a.2.2 0 0 1 0 .3 191.2 191.2 0 0 0-2.8 7 3.6 3.6 0 0 1-3.2 2.3H44a.2.2 0 0 1 0-.3l1.3-3.4.5-1.6 1.3-3.4.6-1.5a.2.2 0 0 1 .1-.2Zm0-1.6h-.4a1.7 1.7 0 0 0-1.3 1l-.5 1.7c-.5 1.2-1 2.3-1.3 3.4l-.6 1.5a37.5 37.5 0 0 0-1.3 4.4 1.7 1.7 0 0 0 1.7 1.4h5.2a5 5 0 0 0 4.6-3.2l2-5 .8-2.1a1.7 1.7 0 0 0-1.6-2.4h-5c-.6 0-.9 0-1-.2a1.7 1.7 0 0 0-1.4-.4Z" fill="#fff"/>
    <path d="M55.2 268.4h-3.7a1 1 0 0 1-.8-.8 1 1 0 0 1 .4-1c.6-.4 1-1 1.1-1.5l2.2-5.5.3-1 .2-.4.2-.2a1 1 0 0 1 .7-.5h.1a1 1 0 0 1 .7.3 17 17 0 0 1 4.3 9.4 1 1 0 0 1-.7 1 45 45 0 0 1-5 .3Z" fill="#3E3A39"/>
    <path d="M56 258.2a16.4 16.4 0 0 1 4.1 9.2l-.1.1a40 40 0 0 1-4.8.2l-3.6-.1h-.1v-.2a.2.2 0 0 1 0-.2 3 3 0 0 0 1.4-1.9l2.2-5.4.3-1 .2-.3.1-.3a.2.2 0 0 1 .2-.1Zm-.1-1.5h-.2a1.7 1.7 0 0 0-1.3 1l-.2.2-.2.5-.4.9-2.1 5.4c-.3.8-.5 1-.8 1.2a1.7 1.7 0 0 0-.2 2.8c.2.2.6.4 1 .4a61.2 61.2 0 0 0 8.8-.2 1.7 1.7 0 0 0 1.3-1.8c-.4-3.7-2-7-4.4-9.8a1.7 1.7 0 0 0-1.3-.6Z" fill="#fff"/>
  </g>
  <g clip-path="url(#b)">
    <path d="M40.1 61.1C20.3 61.1 4.2 49 4.2 34c0-15 16.1-27.1 36-27.1C59.8 6.9 76 19 76 33.9c0 15-16 27.2-35.9 27.2Z" fill="#fff"/>
    <path d="M40.1 7.6c19.4 0 35.2 11.8 35.2 26.4 0 14.6-15.7 26.4-35.2 26.4C20.7 60.4 5 48.6 5 34 5 19.4 20.7 7.6 40 7.6Zm0-1.5C20 6.1 3.5 18.6 3.5 34c0 15.4 16.4 27.9 36.6 27.9 20.3 0 36.7-12.5 36.7-28C76.8 18.7 60.3 6.2 40 6.2Z" fill="#3E3A39"/>
    <path d="M13.3 45S7.1 53.1.7 54.5c0 0 13.3 2.1 19.2-2.6" fill="#fff"/>
    <path d="M13.3 45S7.1 53.1.7 54.5c0 0 13.3 2.1 19.2-2.6" stroke="#3E3A39" stroke-width="1.5" stroke-linecap="round" stroke-linejoin="round"/>
    <path d="M27 14.1c1.8 0 3.4-1.8 3.4-4.1s-1.6-4.2-3.5-4.2-3.4 1.9-3.4 4.2c0 2.3 1.5 4.1 3.4 4.1ZM49.2 13c1.9 0 3.4-2 3.4-4.2 0-2.3-1.5-4.2-3.4-4.2-2 0-3.5 1.9-3.5 4.2 0 2.3 1.6 4.1 3.5 4.1Z" fill="#fff"/>
    <path d="M30 1.2a10 10 0 1 0 0 20 10 10 0 0 0 0-20Zm-3 13c-2 0-3.5-2-3.5-4.2 0-2.3 1.5-4.2 3.4-4.2 2 0 3.5 1.9 3.5 4.2 0 2.3-1.6 4.1-3.5 4.1ZM52.3 0a10 10 0 1 0 0 20 10 10 0 0 0 0-20Zm-3.1 13c-2 0-3.5-2-3.5-4.2 0-2.3 1.6-4.2 3.5-4.2s3.4 1.9 3.4 4.2c0 2.3-1.5 4.1-3.4 4.1ZM19.1 41.3a5 5 0 0 1-3.9-1.7 7 7 0 0 1-1.5-4.6c0-1.7.4-3.3 1.5-4.6a5.5 5.5 0 0 1 7.8 0 7 7 0 0 1 1.5 4.6c.1 1.7-.4 3.3-1.5 4.6a5 5 0 0 1-3.9 1.7Zm0-2.1a2.5 2.5 0 0 0 2.1-1.1c.6-1 1-2 .9-3.1 0-1-.3-2.1-.8-3a2.7 2.7 0 0 0-4.3 0c-.6.9-.9 2-.8 3 0 1 .2 2.1.8 3a2.4 2.4 0 0 0 2.1 1.2Zm9.2 1.8a1 1 0 0 1-1.2-1.1v-6h-.3c-.6 0-1-.4-1-1a.8.8 0 0 1 1-1h.3v-.6c0-.8.2-1.7.8-2.3a3.2 3.2 0 0 1 2.5-1h1.1a.7.7 0 0 1 .5.4v.7a.9.9 0 0 1-1.2.8h-.1a1 1 0 0 0-.9.3 2 2 0 0 0-.3 1v.7h3.3v-.7c0-1 .2-1.8.7-2.4a3 3 0 0 1 2.5-1h1c.5.2.7.6.5 1a.9.9 0 0 1-1.1.8c-.8 0-1.1.5-1.1 1.5v.7h.7a1 1 0 1 1 0 2h-.8v6a1.2 1.2 0 0 1-2.3 0v-6h-3.3v6a1 1 0 0 1-1.3 1.3Zm12.4.3c-1.5 0-2.2-1-2.2-2.8v-9.3a1.2 1.2 0 1 1 2.4 0v9.4c0 .5.1.7.5.7l.2.2.1.3v.9c0 .3-.2.5-.4.6h-.6Zm4.1-10.9c-.3 0-.7 0-1-.3a1.3 1.3 0 0 1 0-2 1.6 1.6 0 0 1 2 0 1.3 1.3 0 0 1 0 2c-.2.2-.6.4-1 .3Zm0 10.7a1 1 0 0 1-1.2-1.2V33a1.2 1.2 0 1 1 2.4 0v7a1 1 0 0 1-1.2 1.2Zm5-.1a1 1 0 0 1-1.2-1.1v-7c0-.7.3-1 1-1a1 1 0 0 1 1 .9v.3a4.3 4.3 0 0 1 3-1.5c2 0 2.9 1.3 2.9 3.7v4.5a1.2 1.2 0 1 1-2.4 0v-4.2c0-.5 0-1-.3-1.5a1.1 1.1 0 0 0-1-.4c-.4 0-.7.1-1 .3l-1 .7v5.1a1 1 0 0 1-1 1.3Zm13.2.3a4.3 4.3 0 0 1-4.2-2.9c-.2-.6-.3-1.2-.3-1.9a5 5 0 0 1 1.3-3.5 4 4 0 0 1 3-1.3 3.5 3.5 0 0 1 2.9 1.2c.7 1 1 2 1 3.2v.6c0 .2-.1.3-.2.3l-.4.2h-5.2c0 .6.4 1.2.9 1.7.5.4 1 .6 1.7.5.4 0 .8 0 1.3-.2a.8.8 0 0 1 1.2.4.7.7 0 0 1-.3 1 5 5 0 0 1-2.7.7Zm-2.2-5.7h3.7c0-.6 0-1-.4-1.5a1.6 1.6 0 0 0-1.3-.6c-.5 0-1 .2-1.3.5-.4.5-.6 1-.7 1.6Z" fill="#3E3A39"/>
  </g>
</svg>