<svg width="77" height="270" fill="none" xmlns="http://www.w3.org/2000/svg">
  <g clip-path="url(#a)">
    <path d="M13 169.1a.8.8 0 0 1-.8-.5v-.3L13 158a.7.7 0 0 1 .7-.7H26l3.1-35a.7.7 0 0 1 .6-.6h.2a.7.7 0 0 1 .6.4c.3.5.7 1 1.2 1.3.4.3 1 .4 1.5.4h13.3a.7.7 0 0 1 .5.3.7.7 0 0 1 .2.6l-.8 8.7h13.9c.2 0 .4 0 .5.2a.8.8 0 0 1 .2.6l-1 10.2a.7.7 0 0 1-.7.7h-14l-1 12.3h15a.8.8 0 0 1 .7.8l-1 10.3a.7.7 0 0 1-.7.6H13Z" fill="#3E3A39"/>
    <path d="M29.7 122.4a4 4 0 0 0 1.4 1.5c.6.4 1.2.6 2 .6h13.2l-.8 9.6H60l-.9 10.3H44.6L43.4 158h15.8l-1 10.3H13l1-10.3h12.7l3.2-35.7Zm0-1.5h-.3a1.5 1.5 0 0 0-1.2 1.3l-3 34.4H13.8a1.5 1.5 0 0 0-1.5 1.3l-.9 10.3a1.5 1.5 0 0 0 .9 1.5l.6.2h45.4a1.5 1.5 0 0 0 1.5-1.4l.8-10.2v-.2a1.5 1.5 0 0 0-1.5-1.5H45l1-10.8h13.2a1.5 1.5 0 0 0 1.5-1.3l.9-10.2v-.3a1.5 1.5 0 0 0-1.5-1.4h-13l.7-7.9v-.2a1.5 1.5 0 0 0-1.5-1.5H33a2 2 0 0 1-1-.3c-.4-.2-.7-.6-1-1a1.5 1.5 0 0 0-1.3-.8Z" fill="#fff"/>
    <path d="M22.3 219a.7.7 0 0 1-.2-1.4c.3 0 .6-.3.8-.5.3-.3.4-.6.4-1v-.2H21c-.3.8-.8 1.5-1.4 2a4 4 0 0 1-2.8 1.1h-5a.7.7 0 0 1-.7-.5v-.3l2-22.8-.2-.2a.7.7 0 0 1-.2-.6l.7-8.3a.7.7 0 0 1 .7-.6h.2l1.2-14a.8.8 0 0 1 .6-.7h.2a.7.7 0 0 1 .6.4c.2.4.6.6 1 .8.5.3 1 .4 1.6.4H36a.8.8 0 0 1 .6.2l.2.6-1.1 12.3h.2l1-12a.8.8 0 0 1 .5-.6h.2a.7.7 0 0 1 .6.3 2.5 2.5 0 0 0 1.9.7h2l.1-2.3a.7.7 0 0 1 .7-.7.7.7 0 0 1 .8.5H49l.4.2a.7.7 0 0 1 .7-.7.7.7 0 0 1 .8.5h5.4a.7.7 0 0 1 .6.3.7.7 0 0 1 .2.6l-.2 1.7h4.4a.7.7 0 0 1 .7.5v.3l-1 12.3a4.7 4.7 0 0 1-2.7 3.8h1.5a.8.8 0 0 1 .5.2.7.7 0 0 1 .2.6L60 198a.7.7 0 0 1-.5.7l.1.4-.6 6.9c0 1-.5 2-1.2 2.7l-1.2.7.3.3a2.8 2.8 0 0 1 .8 2.2c.2.3.5.6.6 1 .3.4.4 1 .3 1.5l-.3 3.6a.8.8 0 0 1-.7.7H33.5l-.6-.3a.8.8 0 0 1-.1-.6v-1.5a4.9 4.9 0 0 1-2.4 2.4c-.5.2-1.1.4-1.7.4h-6.4Zm11.4-7.6h.9l.2-1.7a.7.7 0 0 1-.6-.3.7.7 0 0 1-.2-.6l1-10.3h-.1l-1.2 13Zm12.5 0 .1-1.7h-1c.5.4.7 1 .8 1.6Zm3-12.7v.3l.4-.3h-.5Zm-23.6-3.3v1.6a4.8 4.8 0 0 1 1.3-1.5h-1.3Zm8.7-.6a.8.8 0 0 1 .6.2v.1l.1-1.6a4.6 4.6 0 0 1-1.3 1.3h.6Zm-9.4 0h.3v-.8H23v.7h1.9Z" fill="#3E3A39"/>
    <path d="M50.2 171.8a.8.8 0 0 0 .5.5l.8.1h4.8l-.2 2.5h5.2l-1 12.3a4 4 0 0 1-1.5 2.7 4 4 0 0 1-2.8 1H36l1.5-17a3.2 3.2 0 0 0 2.5 1h2.6l.3-3a.8.8 0 0 0 .5.4l.8.1H49l-.2 2.5H50l.3-3Zm6.6 8h-1l-.2 1.5h1l.2-1.6Zm-7.3 0h-1l-.2 1.5h1l.2-1.6Zm-7.3 0h-1l-.2 1.5h1.1l.1-1.6Zm14.2 4.6h-1l-.2 1.7h1l.2-1.7Zm-7.3 0h-1l-.2 1.7h1l.2-1.7Zm-7.3 0h-1l-.2 1.7h1l.2-1.7Zm-25.7-12.6c.3.5.8 1 1.3 1.2a4 4 0 0 0 1.9.4h16.6l-1.1 13.1h.8l-.4 4.5a4.1 4.1 0 0 1-2.4 3.5 3 3 0 0 1-1.3.3h-5.6l.2-1.5h-3.7l-.2 1.5h-8.9l.8-8.3h.8l1.3-14.7Zm6 9.4h5.5l-.5 5.3h.9l.5-6.2h-6.3v.9Zm1 4.1h-1.3l-.1 1.2h1.2l.1-1.2h.1ZM60 192l-.6 6h-24l.5-6h24Zm-46.1 3c.2.5.8.7 1.7.7H25l-.5 6.5h-2.8l-.1 1.3h3.7l.4-4.1a4.2 4.2 0 0 1 2.4-3.5l1.3-.2h5l-1.7 19c0 1-.5 2-1.2 2.6a3.6 3.6 0 0 1-2.6 1.1h-6.5c.5 0 .9-.3 1.2-.7.4-.4.6-.9.6-1.4v-1h-3.7c-.2.9-.7 1.6-1.3 2.2-.7.6-1.5.9-2.3.9h-5l2-23.4Zm11 13.7h-3.7l-.1 1.3h3.7l.1-1.3Zm11-10.2a2.6 2.6 0 0 0 2 .6h10.7l-.3 4.2H45v1.4h3.6l.2-3.3a2.4 2.4 0 0 1 .9-1.6c.5-.5 1-.7 1.7-.7H59l-.6 6.9c0 .8-.4 1.6-1 2.2a3 3 0 0 1-2.4.8H34.7l1-10.5Zm19 11.1a2.2 2.2 0 0 1 2 1.5c.2.2.2.6.1.8v.5a2 2 0 0 1 1 2l-.3 3.6h-24l.4-5.9h1.3l.2-2.5h7.7a2.2 2.2 0 0 1 2 1.5c.1.2.2.6.1.8v.2h1.5l.3-2.5h7.6ZM16 170.3h-.3a1.5 1.5 0 0 0-1.2 1.3l-1 13.4a1.5 1.5 0 0 0-1 1.3l-.7 8.3a1.5 1.5 0 0 0 .4 1.1l-2 22.4a1.5 1.5 0 0 0 .9 1.5l.6.2h5c1.2 0 2.4-.5 3.2-1.3a6 6 0 0 0 1.5-1.8h.8-.3a1.5 1.5 0 0 0-1.2 1.7 1.5 1.5 0 0 0 1.5 1.3h6.5c1.3 0 2.5-.4 3.4-1.3 0 .2.2.3.3.5a1.5 1.5 0 0 0 1 .5h24.1A1.5 1.5 0 0 0 59 218l.3-3.6a3.6 3.6 0 0 0-.9-2.7c0-.8-.2-1.5-.6-2.1l.5-.4c.9-.9 1.4-2 1.4-3.2l.6-6.8v-.2c.3-.3.4-.6.4-1l.6-6a1.5 1.5 0 0 0-1-1.6c.7-.8 1.2-2 1.3-3l1-12.3v-.3a1.5 1.5 0 0 0-1.4-1.5h-3.6l.1-.7v-.2a1.5 1.5 0 0 0-1.5-1.5h-5a1.5 1.5 0 0 0-1.2-.6h-.2a1.5 1.5 0 0 0-1 .6h-5a1.5 1.5 0 0 0-1.1-.6h-.2a1.5 1.5 0 0 0-1.3 1.3l-.2 1.7h-1.2a1.7 1.7 0 0 1-1.3-.5 1.5 1.5 0 0 0-1.6-.4 1.5 1.5 0 0 0-1.2-.6H19c-.4 0-.8 0-1.2-.3-.3 0-.5-.2-.6-.5a1.5 1.5 0 0 0-1.4-.8h.2Z" fill="#fff"/>
    <path d="M23.2 268.1H18a1 1 0 0 1-.9-.7 1 1 0 0 1 .4-1 2.9 2.9 0 0 0 1.3-2.6l.6-6.7.2-2.3h-6a1 1 0 0 1-.7-.3 1 1 0 0 1-.3-.7l1.7-19.7.4-4.4.4-4 .2-2v-.2l.1-1.6a1 1 0 0 1 .8-.9h.2a1 1 0 0 1 .8.5c.2.4.5.6 1 .8.4.2.9.4 1.4.3h14c.3 0 .5.2.7.3a1 1 0 0 1 .3.8v.2l-.4 4.2-.1 1.3-.3 3.1-.3.6.1.5-.4 4.4c0 .2 0 .4-.2.5l.1.6-.4 4.4c0 .2 0 .5-.3.6l.2.5v1.9a2282.2 2282.2 0 0 1-1.9 18.3 4.5 4.5 0 0 1-4 3.3h-3.5Z" fill="#3E3A39"/>
    <path d="M16.4 221.7a.2.2 0 0 1 .2.2c.3.4.7.8 1.2 1 .6.3 1.2.5 1.9.5h14.1a.2.2 0 0 1 0 .2l-.3 4.4-.1 1.3-.3 3a.2.2 0 0 1-.2.2h-2.7v.8h2.6v.2l-.3 4.4a.2.2 0 0 1-.2.2h-2.6v.7h2.5a.2.2 0 0 1 .1 0v.2l-.3 4.4a.2.2 0 0 1-.2.2h-2.6v.8h1.7a2.4 2.4 0 0 1 .8 0l.1.1v1.9a2282.2 2282.2 0 0 1-1.8 18.2 3.8 3.8 0 0 1-3.3 2.8H18v-.1c-.1 0-.1-.1 0-.1v-.1a3.6 3.6 0 0 0 1.6-3.1l.6-6.9.3-3h-7a.2.2 0 0 1 0-.2l1.5-17.7.2-1.9.4-4.4.3-4.2.2-1.9.2-1.8a.2.2 0 0 1 .1-.2Zm8.2 11a5 5 0 0 0-.6.1v.6h.5v-.7Zm-.5 5.5h-.6v.7h.5v-.7Zm-.5 5.5H23v.8h.5l.1-.8h.1Zm-7.2-23.3H16a1.7 1.7 0 0 0-1.3 1.5l-.2 1.5v.3l-.1 1.8a331.2 331.2 0 0 0-.8 8.6l-.2 2-1.5 17.7a1.7 1.7 0 0 0 1.7 1.8h5.2l-.2 1.4a1340.8 1340.8 0 0 0-.8 8c-.2.3-.4.6-.8.8a1.7 1.7 0 0 0 0 2.8c.3.2.7.3 1 .3h8.7a5.3 5.3 0 0 0 4.7-3.8l.5-2.7 1.4-15.8v-2.3l.1-.7.4-4.4v-.5l.1-.6.4-4.4v-.4l.2-.6.3-3.2.1-1.3.4-4.4a1.7 1.7 0 0 0-1-1.7l-.7-.1h-14l-1.2-.3-.5-.5a1.7 1.7 0 0 0-1.5-.9Z" fill="#fff"/>
    <path d="M43 249a212.5 212.5 0 0 1-10.7-.5 1 1 0 0 1-.3-.5c-.2-1-.1-2 0-3l.2-1.3.2-2.8.1-1.3a1 1 0 0 1 1-1h26.6a1 1 0 0 1 1 1l-.1 3-.2 1.2-.2 2.8-.1 1.2a1 1 0 0 1-.8.8c-1.2.3-10.7.4-16.8.4Z" fill="#3E3A39"/>
    <path d="M60 239.4h.1l.1.2v2.9l-.2 1.3-.2 2.7-.1 1.2-.1.1h-.1c-1 .3-9.2.4-16.6.4l-10-.1a.2.2 0 0 1-.2-.2l.1-2.8.2-1.3c0-1 0-1.9.2-2.8l.1-1.4a.2.2 0 0 1 .2-.2h26.6-.1Zm0-1.5H33.6a1.7 1.7 0 0 0-1.7 1.6l-.1 1.3-.2 2.9-.2 1.2c-.2 1-.2 2.2 0 3.2a1.7 1.7 0 0 0 1.5 1.5l10.2.1c.1 0 15.2 0 16.8-.3a1.7 1.7 0 0 0 1.4-1.6l.1-1.1.2-2.8.2-1.3c.1-1 .2-2.1 0-3.2a1.7 1.7 0 0 0-1.6-1.5Z" fill="#fff"/>
    <path d="M39.1 239.7h-5.4a1 1 0 0 1-.8-.3 1 1 0 0 1-.1-.9 62 62 0 0 1 3-8.3l2.2-5.5 1-2.6a1 1 0 0 1 .7-.6h.2c.2 0 .5 0 .6.3a4.4 4.4 0 0 0 3.4 1h8.6a1 1 0 0 1 .8.4 1 1 0 0 1 0 .9l-1.3 3.4c-1 2.8-2.2 5.5-3.3 8.2a6.7 6.7 0 0 1-6 4H39Z" fill="#3E3A39"/>
    <path d="M39.9 222.2h.1a5.1 5.1 0 0 0 3.9 1.2h8.6l.2.1a.2.2 0 0 1 0 .2l-1.5 3.6c-1 2.8-2.1 5.4-3.3 8a6 6 0 0 1-5.3 3.6l-3.5.1h-5.5a.2.2 0 0 1 0-.2c.5-2 1.2-3.9 2-5.7a113 113 0 0 0 3-8 90.2 90.2 0 0 0 1.2-2.8Zm-.1-1.4h-.4a1.7 1.7 0 0 0-1.2 1l-1 2.6a345.7 345.7 0 0 0-3.1 8.1c-.8 1.9-1.5 3.8-2.1 5.8a1.7 1.7 0 0 0 .2 1.5 1.7 1.7 0 0 0 1.4.7h9a7.4 7.4 0 0 0 6.6-4.6c1.2-2.6 2.3-5.3 3.4-8.1a286.4 286.4 0 0 1 1.5-4.4 1 1 0 0 0-.3-.7 1.7 1.7 0 0 0-1.4-.8h-8.6a3.7 3.7 0 0 1-2.8-.8 2 2 0 0 0-1.2-.4Z" fill="#fff"/>
    <path d="M52.5 239.8a103.6 103.6 0 0 1-6.6-.4 1 1 0 0 1-.3-.5 1 1 0 0 1 .5-1c1-.6 1.7-1.6 2-2.8l3.6-9 .5-1.5.3-.6.3-.4a1 1 0 0 1 .7-.5h.1a1 1 0 0 1 .7.3c3.8 4.2 6.2 9.5 6.9 15.1a1 1 0 0 1-.8 1c-2.6.3-5.2.4-7.9.3Z" fill="#3E3A39"/>
    <path d="m53.6 223.7.2.1a27 27 0 0 1 6.6 14.9 66.1 66.1 0 0 1-14-.2c1.2-.7 2-1.8 2.4-3.2l3.5-9 .6-1.4.3-.6.2-.4a.2.2 0 0 1 .2-.1Zm0-1.4h-.2a1.7 1.7 0 0 0-1.4.9l-.1.4-.4.7-.6 1.5-3.5 9a4 4 0 0 1-1.7 2.4 1.7 1.7 0 0 0-.9 1.9 1.7 1.7 0 0 0 1.6 1.3 106 106 0 0 0 14.2-.2 1.7 1.7 0 0 0 1.3-1.9 28.4 28.4 0 0 0-7.5-16h-.8Z" fill="#fff"/>
    <path d="M53.5 258.7h-3.2a1 1 0 0 1-.7-.3 1 1 0 0 1-.3-.7l.9-9.1a1 1 0 0 1 .6-.8h.3c.2 0 .5 0 .7.2a2.4 2.4 0 0 0 1.8.5h5.7c.2 0 .4 0 .6.2a1 1 0 0 1 .3.8L60 251c0 1.2-.2 2.4-.4 3.6a4.8 4.8 0 0 1-3.7 3.8c-.8.2-1.7.3-2.5.2Z" fill="#3E3A39"/>
    <path d="M51.1 248.4h.1a3.2 3.2 0 0 0 2.4.8h5.7a.2.2 0 0 1 .1 0v1.8l-.4 3.5a4 4 0 0 1-3.2 3.2c-.8.2-1.5.3-2.4.3h-3.3a.2.2 0 0 1 0-.2l.8-9.2a.2.2 0 0 1 .2-.1v-.1Zm0-1.4h-.6a1.7 1.7 0 0 0-1 1.5l-.9 9.2a1.7 1.7 0 0 0 1 1.7l.7.1h3.2c1 0 1.8 0 2.7-.3a5.6 5.6 0 0 0 4.3-4.3c.2-1.3.4-2.5.4-3.8l.1-1.5a1.7 1.7 0 0 0-1.7-1.9h-5.7c-.7 0-1 0-1.3-.3-.3-.3-.7-.5-1.2-.5Z" fill="#fff"/>
    <path d="M44.6 258.7h-3.4a1 1 0 0 1-.7-.3 1 1 0 0 1-.2-.7l.7-8.7c0-.3.2-.5.4-.7l.6-.2h.1l1 .2 2 .2h5c.3 0 .5 0 .7.3a1 1 0 0 1 .2.7v1a21 21 0 0 1-.5 4.3 5.1 5.1 0 0 1-5.2 3.9h-.7Z" fill="#3E3A39"/>
    <path d="m42 248.8 1 .2 2 .2h5a.2.2 0 0 1 .2 0 .2.2 0 0 1 0 .2v1a20 20 0 0 1-.5 4.2 4.4 4.4 0 0 1-4.5 3.3h-4a.2.2 0 0 1-.2 0v-.2l.7-8.7a.2.2 0 0 1 .1-.2h.1Zm0-1.5c-.4 0-.8.2-1 .4a1.7 1.7 0 0 0-.7 1.2l-.7 8.7a1.8 1.8 0 0 0 .4 1.3 1.7 1.7 0 0 0 1.3.6H46a6 6 0 0 0 5.2-4.4c.4-1.6.6-3 .6-4.6v-1a1.7 1.7 0 0 0-1-1.6l-.7-.2h-4.9c-.6 0-1.3 0-2-.2l-1-.1-.3-.1Z" fill="#fff"/>
    <path d="M12.8 264.5a1 1 0 0 1-.7-.3 1 1 0 0 1-.3-.7l.8-9a1 1 0 0 1 1-1h2.2l1.4.2a4.3 4.3 0 0 1 3.6 4.5v1l-.5 4.4a1 1 0 0 1-.8.9h-6.7Z" fill="#3E3A39"/>
    <path d="M15.7 254.3H17a3.6 3.6 0 0 1 3 3.8v1.2l-.3 3-.1 1.1-.1.2h-.1l-2.7.1h-4a.2.2 0 0 1 0-.2l.8-9v-.1h2.2v-.1Zm0-1.5h-2a1.7 1.7 0 0 0-1.7 1.6l-.8 9a1.8 1.8 0 0 0 .5 1.3 1.7 1.7 0 0 0 1.2.5h6.6a1.7 1.7 0 0 0 1.6-1.6l.1-1.3.3-2.9v-1.3a5 5 0 0 0-4.2-5.3h-1.5Z" fill="#fff"/>
    <path d="M34.3 268.5h-3.4a1 1 0 0 1-.7-.4 1 1 0 0 1-.2-.8l1.3-3.5.6-1.6 1.3-3.3v-.2H32a1 1 0 0 1-.8-.6l-.1-.4.8-9a1 1 0 0 1 .5-.7l.4-.2c.2 0 .4 0 .5.2.8.4 1.7.6 2.6.5H41a1 1 0 0 1 .7.3 1 1 0 0 1 .3.7l-.1 1.6a55 55 0 0 1-.4 3.7c-.2 1-.7 2-1.4 2.6h2.4a1 1 0 0 1 .8.4 1 1 0 0 1 .1 1l-.8 2-2 5a4.4 4.4 0 0 1-4 2.7h-2.2Z" fill="#3E3A39"/>
    <path d="M32.7 248.6h.1c1 .4 2 .6 3 .6H41l.1.2-.1 1.7-.4 3.5a4 4 0 0 1-3.5 3.3h-1.3l1.4.2h5.3a.2.2 0 0 1 0 .3l-.8 2.1-2 5a3.7 3.7 0 0 1-3.3 2.2H31a.2.2 0 0 1-.2 0 .2.2 0 0 1 0-.2c.3-1.2.8-2.4 1.2-3.5l.6-1.5L34 259l.5-1.1H32l-.2-.1a.2.2 0 0 1 0-.1l.8-9a.2.2 0 0 1 .1-.2h.1Zm.1-1.5-.8.2a1.7 1.7 0 0 0-.9 1.4l-.8 9a1.7 1.7 0 0 0 .5 1.2 1.7 1.7 0 0 0 1.2.6h.2l-1 2.5-.5 1.5a37.6 37.6 0 0 0-1.4 4.4 1.7 1.7 0 0 0 1.7 1.4h5.5a5.2 5.2 0 0 0 4.6-3.1 52 52 0 0 0 2-5l.9-2.2a1.7 1.7 0 0 0-1.6-2.3h-1c.4-.6.6-1.2.7-1.8l.4-3.6.1-1.7a1.7 1.7 0 0 0-1.7-1.8h-5.1c-.8 0-1.5-.1-2.2-.5l-.9-.2h.1Z" fill="#fff"/>
    <path d="M39.6 268.4h-.9a1 1 0 0 1-.9-.7 1 1 0 0 1 .5-1c.5-.3 1-.9 1-1.5l2.2-5.3.4-1.2.2-.3.2-.3a1 1 0 0 1 .7-.6h.1a1 1 0 0 1 .7.4A20 20 0 0 1 46 261v.4l-1.5 4-.2.3-.5 1.1-.5 1a1 1 0 0 1-.8.6h-2.8Z" fill="#3E3A39"/>
    <path d="M43 258.3a.2.2 0 0 1 .2 0 20 20 0 0 1 1.9 2.9c-.4 1.3-1 2.6-1.5 3.8l-.1.4-.5 1.1-.5 1a.2.2 0 0 1-.2.1h-3.6l-.2-.1v-.2h.1c.7-.5 1.2-1.2 1.5-2l2.1-5.4.4-1s0-.2.2-.3v-.3a.2.2 0 0 1 .2 0Zm0-1.6h-.2a1.7 1.7 0 0 0-1.3 1l-.1.2-.2.5-.4 1-2.2 5.4c-.3.7-.4 1-.7 1.1a1.7 1.7 0 0 0-.8 1.9 1.7 1.7 0 0 0 1.5 1.3h3.7a1.7 1.7 0 0 0 1.5-1l.4-1 .6-1.3.1-.3c.6-1.3 1.1-2.6 1.5-4a1.7 1.7 0 0 0-.1-1.4l-2-2.9a1.7 1.7 0 0 0-1.3-.6v.1Z" fill="#fff"/>
    <path d="M46.6 268.4h-3.2a1 1 0 0 1-.8-.3 1 1 0 0 1-.1-.9c.3-1.2.8-2.4 1.2-3.5l.6-1.6 1.3-3.3.5-1.6a1 1 0 0 1 .7-.6h.2c.3 0 .5 0 .7.3a2.1 2.1 0 0 0 1.7.4h5a1 1 0 0 1 .8.4 1 1 0 0 1 0 1l-.8 2c-.6 1.8-1.3 3.4-2 5a4.3 4.3 0 0 1-3.8 2.8h-2Z" fill="#3E3A39"/>
    <path d="M47 257.3h.1a2.9 2.9 0 0 0 2.3.7h5l.1.1a.2.2 0 0 1 0 .2l-.8 2.2-2 5a3.6 3.6 0 0 1-3.2 2.1h-5.1a.2.2 0 0 1-.2 0v-.2c.3-1.2.8-2.3 1.2-3.4l.6-1.6 1.3-3.4a136.3 136.3 0 0 0 .7-1.7Zm0-1.5h-.4a1.7 1.7 0 0 0-1.2 1 53.7 53.7 0 0 0-1.9 5l-.5 1.6c-.5 1.1-1 2.3-1.3 3.6a1.7 1.7 0 0 0 1.7 2.2h5.3a5 5 0 0 0 4.5-3.2l2-5 .8-2.2a1.7 1.7 0 0 0-.8-2.1c-.2-.2-.5-.2-.8-.2h-5c-.7 0-1 0-1.1-.3a1.7 1.7 0 0 0-1.2-.5v.1Z" fill="#fff"/>
    <path d="m54.4 268.5-3.7-.1a1 1 0 0 1-.8-.8 1 1 0 0 1 .4-1c.6-.3 1-.9 1-1.5l2.2-5.5.4-.9.2-.4.1-.3a1 1 0 0 1 .8-.5h.1a1 1 0 0 1 .7.3c2.4 2.7 3.9 6 4.3 9.4a1 1 0 0 1-.8 1 39 39 0 0 1-4.9.3Z" fill="#3E3A39"/>
    <path d="M55.1 258.2a.2.2 0 0 1 .2 0 16.5 16.5 0 0 1 4 9.2l-.1.1a40 40 0 0 1-4.8.2h-3.6a.2.2 0 0 1-.2-.2.2.2 0 0 1 0-.3c.8-.4 1.3-1 1.5-1.9l2.2-5.4.3-1 .2-.3.1-.3h.2Zm0-1.5h-.2a1.7 1.7 0 0 0-1.4 1v.2l-.3.5-.4 1-2.1 5.4c-.3.7-.5 1-.8 1.1a1.7 1.7 0 0 0 .8 3.2l3.7.1c1.7 0 3.4 0 5-.2a1.7 1.7 0 0 0 1.4-1.9c-.4-3.6-2-7-4.4-9.8a1.7 1.7 0 0 0-1.3-.6Z" fill="#fff"/>
    <path d="M16.5 109.3a5.4 5.4 0 0 1-4.9-2.5 6 6 0 0 1-.6-5.5l2.5-7.5-.2-.3-.5-.6a6 6 0 0 1-.6-5.6l5.1-14a.8.8 0 0 1 .8-.5.7.7 0 0 1 .7.5 1.6 1.6 0 0 0 .8 1.2 4 4 0 0 0 1.8.5h9.1a.8.8 0 0 1 .6.3.8.8 0 0 1 .1.7l-4.5 11.6h2.7a.7.7 0 0 1 .6.3.7.7 0 0 1 .1.7l-3 9H29a.7.7 0 0 1 .5.2.7.7 0 0 1 .2.6l-.9 10.2a.7.7 0 0 1-.7.7H16.5Z" fill="#3E3A39"/>
    <path d="M18 73.5a2.4 2.4 0 0 0 1.2 1.6c.7.4 1.4.6 2.1.6h9.1l-4.8 12.7h3.8L26 98.3h2.7l-.9 10.3H16.5a4.7 4.7 0 0 1-4.3-2.2 5.2 5.2 0 0 1-.5-4.9l2.7-8-.5-.5-.5-.6c-.4-.7-.7-1.5-.9-2.3a5 5 0 0 1 .4-2.5L18 73.5Zm0-1.5a1.5 1.5 0 0 0-1.4 1l-5.1 14c-.4 1.1-.6 2.2-.4 3.3a6.9 6.9 0 0 0 1.5 3.6l-2.4 7.1a6.7 6.7 0 0 0 3.1 8.4c1 .5 2 .7 3.1.7H28a1.5 1.5 0 0 0 1.5-1.4l1-10.3a1.5 1.5 0 0 0-.5-1.1 1.5 1.5 0 0 0-1-.5h-.7l2.6-8a1.5 1.5 0 0 0-.7-1.8l-.7-.2h-1.6l4-10.6a1.5 1.5 0 0 0-.1-1.4 1.5 1.5 0 0 0-1.2-.6h-9.1a2.6 2.6 0 0 1-1.7-.7l-.2-.4a1.5 1.5 0 0 0-1.4-1.2Z" fill="#fff"/>
    <path d="M10.5 120.7a.7.7 0 0 1-.7-.5v-.3l.9-10.3a.8.8 0 0 1 .7-.6h11.8a5 5 0 0 1 5 5.4l-.5 5.7a.7.7 0 0 1-.8.6H10.5Z" fill="#3E3A39"/>
    <path d="M23.2 109.7c.6 0 1.2 0 1.8.3l1.4 1a4.4 4.4 0 0 1 1 3.3L27 120H10.5l.9-10.3h11.8Zm0-1.5H11.4a1.5 1.5 0 0 0-1.5 1.3L9 119.8a1.5 1.5 0 0 0 1 1.5l.5.2H27a1.5 1.5 0 0 0 1.5-1.4l.5-5.7a5.8 5.8 0 0 0-3.4-5.8c-.7-.3-1.5-.5-2.3-.4Z" fill="#fff"/>
    <path d="M35.2 120.5a.7.7 0 0 1-.6-1.2l.5-.3a2.5 2.5 0 0 0 1.7-1c.3-.4.4-.8.6-1.3a8.4 8.4 0 0 1-6.6 3h-3a.8.8 0 0 1-.5-.3.8.8 0 0 1-.1-.6l2.5-7.2h-1.3a.8.8 0 0 1-.5-.3.7.7 0 0 1-.2-.5l.8-9.1a.7.7 0 0 1 .6-.7v-.2l2-23.5a.8.8 0 0 1 .6-.7h.2a.8.8 0 0 1 .6.4 1.7 1.7 0 0 0 1.1.8l1.8.2h5.2l.4-4.5a.7.7 0 0 1 .6-.7h.1a.8.8 0 0 1 .7.4 1.5 1.5 0 0 0 1 .8 7 7 0 0 0 1.7.3h8.3a.8.8 0 0 1 .7.8l-.2 3h8.7a.8.8 0 0 1 .5.2.7.7 0 0 1 .2.6L62 94.4c0 1-.3 2-.8 2.8a8.3 8.3 0 0 1-4 3.8h3.2a.7.7 0 0 1 .7.3.8.8 0 0 1 0 .7l-3 7.6 1.7 9.7a.8.8 0 0 1-.2.6.7.7 0 0 1-.5.3h-4c-1.6.1-3.2-.4-4.5-1.4a6 6 0 0 1-1.7-2.7 10 10 0 0 1-4.5 3.7l-.6.3a4 4 0 0 1-1.8.4h-6.7Zm3.3-18.8.3.1v-.1h-.3Zm10.2-8.3v-.1H43h5.7Zm.6-7.1h-5.6 5.6Z" fill="#3E3A39"/>
    <path d="M41.7 73.5a2.2 2.2 0 0 0 1.5 1.2l1.8.3h8.4l-.4 3.8h9.5l-1.3 15.6c-.1.9-.4 1.7-.8 2.5a7.4 7.4 0 0 1-3.8 3.5c-.8.3-1.7.5-2.5.5h-3.7l-.4 4.5 1.6-3.7h8.7l-3 7.8 1.6 10H55a6 6 0 0 1-4-1.3c-1-.9-1.7-2.1-1.8-3.5l-.2-.8a8.8 8.8 0 0 1-5 5.2c-1 .4-1 .6-2.2.6h-6.6a3.2 3.2 0 0 0 2.2-1.4 6 6 0 0 0 1-2.8l.3-3.6-.8 2.2a6.7 6.7 0 0 1-2.7 3.6 7.6 7.6 0 0 1-4.4 1.3h-3l3-8.2h-2.3l.7-9h6.5c.8-.1 1.6 0 2.3.4.5.3 1 .7 1.4 1.2l.2-2.5h-9.8l2-23.6a2.4 2.4 0 0 0 1.6 1.2 8 8 0 0 0 2 .2h5.9l.4-5.2ZM42.8 87H50l.1-1.5H43V87Zm-.6 7h7.1l.2-1.5h-7.2l-.1 1.6Zm-.5-22h-.3a1.5 1.5 0 0 0-1.2 1.3l-.3 4h-4.5l-1.6-.3a1 1 0 0 1-.6-.5 1.5 1.5 0 0 0-1.3-.7h-.4a1.5 1.5 0 0 0-1.1 1.3l-2 23.4a1.5 1.5 0 0 0-.6 1l-.8 9.1a1.6 1.6 0 0 0 .4 1.2 1.5 1.5 0 0 0 1.1.4h.2l-2.2 6.2a1.5 1.5 0 0 0 .2 1.4 1.5 1.5 0 0 0 1.2.6h3c1 0 2-.1 3-.4a1.5 1.5 0 0 0 1.4 1.2h6.6c.7 0 1.4-.2 2-.5l.6-.2a10.4 10.4 0 0 0 4-3c.4.7.9 1.3 1.5 1.8a7.5 7.5 0 0 0 5 1.6h4a1.5 1.5 0 0 0 1-.5 1.5 1.5 0 0 0 .4-1.3l-1.6-9.5 3-7.4a1.5 1.5 0 0 0-.2-1.4 1.5 1.5 0 0 0-1.3-.6h-.6l.2-.2a8.5 8.5 0 0 0 2.8-5.6L64 79v-.2a1.5 1.5 0 0 0-1.5-1.5h-7.8l.2-2.1a1.5 1.5 0 0 0-1-1.6H45l-1.5-.3s-.2 0-.4-.4a1.5 1.5 0 0 0-1.4-.9Z" fill="#fff"/>
  </g>
  <g clip-path="url(#b)">
    <path d="M40.1 61.1C20.3 61.1 4.2 49 4.2 34c0-15 16.1-27.1 36-27.1C59.8 6.9 76 19 76 34c0 15-16 27.1-35.9 27.1Z" fill="#fff"/>
    <path d="M40.1 7.6c19.4 0 35.2 11.8 35.2 26.4 0 14.6-15.8 26.4-35.2 26.4-19.4 0-35-11.8-35-26.4C5 19.4 20.7 7.6 40 7.6Zm0-1.5C20 6.1 3.6 18.6 3.6 34c0 15.4 16.5 27.9 36.7 27.9 20.2 0 36.6-12.5 36.6-27.9 0-15.4-16.4-27.9-36.6-27.9Z" fill="#3E3A39"/>
    <path d="M13.3 45S7.1 53.1.7 54.5c0 0 13.3 2.1 19.2-2.6" fill="#fff"/>
    <path d="M13.3 45S7.1 53.1.7 54.5c0 0 13.3 2.1 19.2-2.6" stroke="#3E3A39" stroke-width="1.5" stroke-linecap="round" stroke-linejoin="round"/>
    <path d="M27 14.1c1.8 0 3.4-1.8 3.4-4.1s-1.6-4.2-3.5-4.2-3.4 1.9-3.4 4.2c0 2.3 1.5 4.1 3.4 4.1ZM49.2 13c1.9 0 3.4-2 3.4-4.2 0-2.3-1.5-4.2-3.4-4.2-2 0-3.5 1.9-3.5 4.2 0 2.3 1.6 4.1 3.5 4.1Z" fill="#fff"/>
    <path d="M30 1.3a10 10 0 1 0 0 20 10 10 0 0 0 0-20Zm-3 12.9c-2 0-3.5-1.9-3.5-4.2 0-2.3 1.5-4 3.4-4 2 0 3.5 1.8 3.5 4.1s-1.6 4.1-3.5 4.1ZM52.3 0a10 10 0 1 0 0 20 10 10 0 0 0 0-20Zm-3.1 13c-2 0-3.5-2-3.5-4.2 0-2.3 1.6-4.2 3.5-4.2s3.4 1.9 3.4 4.2c0 2.3-1.5 4.1-3.4 4.1ZM18.7 41.4a5.8 5.8 0 0 1-4.6-2 8 8 0 0 1-1.8-5.4c0-2 .6-4 1.8-5.4a6 6 0 0 1 4.6-2 6 6 0 0 1 4.6 2 8 8 0 0 1 1.8 5.4c0 2-.5 4-1.8 5.4a5.8 5.8 0 0 1-4.6 2Zm0-2.4a3 3 0 0 0 2.5-1.4c.7-1 1-2.3 1-3.6 0-1.3-.3-2.5-1-3.6a3 3 0 0 0-2.5-1.3 3 3 0 0 0-2.5 1.3 6 6 0 0 0-1 3.6c0 1.3.3 2.5 1 3.6a3 3 0 0 0 2.5 1.4Zm10 2.2a1.2 1.2 0 0 1-1.4-1.4v-8.3c0-.8.4-1.1 1.2-1.1a1.1 1.1 0 0 1 1.2 1v.4h.2a5 5 0 0 1 3.5-1.7c2.2 0 3.3 1.4 3.3 4.3v5.3a1.3 1.3 0 0 1-1.4 1.4 1.3 1.3 0 0 1-1.4-1.4v-5c0-.6-.1-1.2-.4-1.7a1.3 1.3 0 0 0-1.1-.5c-.5 0-.9 0-1.2.3-.4.2-.8.5-1.1.9v6a1.2 1.2 0 0 1-1.4 1.5Zm13.3.2c-1.9 0-2.8-1-2.8-3.3v-11a1.2 1.2 0 0 1 1.5-1.3 1.3 1.3 0 0 1 1.4 1.4v11c0 .6.2 1 .5 1h.3l.2.5v1c-.1.4-.3.6-.5.6l-.7.1Zm4.4-12.8c-.5 0-1-.1-1.3-.4a1.4 1.4 0 0 1-.4-1.1A1.4 1.4 0 0 1 45 26c.4-.3.8-.5 1.3-.5.4 0 .8.2 1.2.5a1.4 1.4 0 0 1 .4 1 1.5 1.5 0 0 1-.4 1.2 2 2 0 0 1-1.2.4Zm0 12.6a1.3 1.3 0 0 1-1.4-1.4v-8a1.2 1.2 0 0 1 1.4-1.5 1.3 1.3 0 0 1 1.4 1.5v8a1.2 1.2 0 0 1-1.4 1.4Zm5.4 0a1.2 1.2 0 0 1-1.4-1.4v-8.3c0-.8.4-1.1 1.2-1.1a1.1 1.1 0 0 1 1.3 1v.4h.1a5 5 0 0 1 3.5-1.7c2.2 0 3.4 1.4 3.4 4.3v5.3a1.3 1.3 0 0 1-1.5 1.4 1.2 1.2 0 0 1-1.4-1.3v-5c0-.6 0-1.3-.4-1.8a1.3 1.3 0 0 0-1.1-.5l-1.2.3-1 1v6a1.2 1.2 0 0 1-1.5 1.4Zm15.2.2a5.1 5.1 0 0 1-5-3.4c-.2-.7-.3-1.4-.3-2.2 0-1.5.5-3 1.6-4.2a4.7 4.7 0 0 1 3.5-1.5 4.2 4.2 0 0 1 3.3 1.5c.8 1 1.2 2.3 1.2 3.7v.8l-.3.3-.4.2h-6c0 .7.4 1.4 1 2 .5.4 1.2.7 2 .6.4 0 1 0 1.4-.2a1 1 0 0 1 1.5.4.9.9 0 0 1-.4 1.3c-.9.5-2 .7-3 .7Zm-2.6-6.7h4.4c0-.6-.1-1.3-.5-1.8a1.9 1.9 0 0 0-1.5-.6 2 2 0 0 0-1.5.6 3 3 0 0 0-.9 1.8Z" fill="#3E3A39"/>
  </g>
  <defs>
    <clipPath id="a">
      <path fill="#fff" transform="translate(9 72)" d="M0 0h55v197.2H0z"/>
    </clipPath>
    <clipPath id="b">
      <path fill="#fff" d="M0 0h76.8v61.9H0z"/>
    </clipPath>
  </defs>
</svg>