<svg width="77" height="368" fill="none" xmlns="http://www.w3.org/2000/svg">
  <g clip-path="url(#a)">
    <path d="M40.1 61.1C20.3 61.1 4.2 49 4.2 34c0-15 16.1-27.1 36-27.1C59.8 6.9 76 19 76 34c0 15-16 27.1-35.9 27.1Z" fill="#fff"/>
    <path d="M40.1 7.6c19.4 0 35.2 11.8 35.2 26.4 0 14.6-15.8 26.4-35.2 26.4C20.7 60.4 5 48.6 5 34 5 19.4 20.7 7.6 40 7.6Zm0-1.5C20 6.1 3.5 18.6 3.5 34c0 15.4 16.4 27.9 36.6 27.9 20.2 0 36.7-12.5 36.7-27.9C76.8 18.6 60.3 6.1 40 6.1Z" fill="#3E3A39"/>
    <path d="M13.3 45S7.1 53.1.8 54.5c0 0 13.2 2.1 19-2.6" fill="#fff"/>
    <path d="M13.3 45S7.1 53.1.8 54.5c0 0 13.2 2.1 19-2.6" stroke="#3E3A39" stroke-width="1.5" stroke-linecap="round" stroke-linejoin="round"/>
    <path d="M27 14.1c1.8 0 3.4-1.8 3.4-4.1s-1.6-4.2-3.5-4.2-3.4 1.9-3.4 4.2c0 2.3 1.5 4.1 3.4 4.1ZM49.2 13c1.9 0 3.4-2 3.4-4.2 0-2.3-1.5-4.2-3.4-4.2-2 0-3.5 1.9-3.5 4.2 0 2.3 1.6 4.1 3.5 4.1Z" fill="#fff"/>
    <path d="M30 1.2a10 10 0 1 0 0 20 10 10 0 0 0 0-20Zm-3 13c-2 0-3.5-2-3.5-4.2 0-2.3 1.5-4.2 3.4-4.2 2 0 3.5 1.9 3.5 4.2 0 2.3-1.6 4.1-3.5 4.1ZM52.3 0a10 10 0 1 0 0 20 10 10 0 0 0 0-20Zm-3.1 13c-2 0-3.5-2-3.5-4.2 0-2.3 1.6-4.2 3.5-4.2s3.4 1.9 3.4 4.2c0 2.3-1.5 4.1-3.4 4.1ZM22.6 41.9c-1.5 0-3-.5-4.2-1.3a1 1 0 0 1-.1-1.7 1.3 1.3 0 0 1 2-.2 5 5 0 0 0 2.4.7c.6 0 1.2 0 1.7-.4a1.4 1.4 0 0 0 .5-1.2 1.4 1.4 0 0 0-.5-1.1L23 36h-.2L21 35c-1.9-.8-2.8-2-2.8-3.8a3.7 3.7 0 0 1 1.4-2.9 5 5 0 0 1 3.5-1.1c1.2 0 2.5.3 3.6 1a1 1 0 0 1 0 1.6 1.1 1.1 0 0 1-1.6.3c-.6-.4-1.3-.5-2-.5-.6 0-1 0-1.5.4a1.3 1.3 0 0 0-.6 1 1.3 1.3 0 0 0 .6 1.1c.5.3 1 .6 1.5.7l.1.1 1.9.8c.8.3 1.4.8 2 1.4.5.7.8 1.5.8 2.4a3.8 3.8 0 0 1-1.4 3c-1 .9-2.4 1.3-3.8 1.3Zm10.7 0c-2.3 0-3.5-1.4-3.5-4V33h-.4a1 1 0 0 1-1-1 1 1 0 0 1 1-1.1h.6l.2-1.8a1.1 1.1 0 0 1 1.3-1.1c.8 0 1.2.4 1.2 1.1V31h1.5a1 1 0 0 1 1.1 1.1 1 1 0 0 1-1 1.1h-1.6V38c0 1.1.5 1.8 1.4 1.8a1 1 0 0 1 1.3.8c.1.6-.1 1-.6 1.2l-1.5.2Zm8.3 0a4.9 4.9 0 0 1-3.6-1.5 5.6 5.6 0 0 1-1.6-4.1A5.6 5.6 0 0 1 38 32a4.8 4.8 0 0 1 3.6-1.4A4.8 4.8 0 0 1 45 32a5.7 5.7 0 0 1 1.6 4.2 5.6 5.6 0 0 1-1.6 4.1 4.8 4.8 0 0 1-3.5 1.5Zm0-2.3a2 2 0 0 0 1.6-1c.4-.6.7-1.5.6-2.3 0-.9-.2-1.7-.6-2.4a2 2 0 0 0-1.6-1 1.9 1.9 0 0 0-1.7 1c-.5.7-.7 1.5-.6 2.4 0 .8.1 1.7.6 2.4a2 2 0 0 0 1.7.9Zm8.8 2a1.2 1.2 0 0 1-1.4-1.4V32c0-.7.4-1 1.2-1a1 1 0 0 1 1.2 1v.8h.2c.3-.7.8-1.2 1.3-1.6.5-.4 1-.6 1.7-.6h.2a1 1 0 0 1 .7.5c.1.3.2.6 0 1-.1.8-.5 1-1.2 1a2 2 0 0 0-1.3.4c-.6.4-1 1-1.2 1.6v5a1.2 1.2 0 0 1-1.4 1.5Zm8.1 4.3H58a.8.8 0 0 1-.6-.6v-.9l.3-.6a.6.6 0 0 1 .6-.1 2 2 0 0 0 2-1.7l.2-.6-3.5-8.8c-.5-1.1-.1-1.6 1-1.6a1.4 1.4 0 0 1 1.5 1l1.3 3.9.6 2 .3 1h.1a78.1 78.1 0 0 0 .8-3l1.1-4a1.3 1.3 0 0 1 1.4-1c1 0 1.4.6 1 1.6l-1.3 4-1.9 5.5c-.3 1-.9 2-1.6 2.9a4 4 0 0 1-2.8 1Z" fill="#3E3A39"/>
  </g>
  <g clip-path="url(#b)">
    <path d="M53.2 219a4.5 4.5 0 0 1-3.9-2l-.7-1-.7 1a5.1 5.1 0 0 1-4.3 2.1H37a.7.7 0 0 1-.5-.2.7.7 0 0 1-.2-.6l.3-4-.3.6a8 8 0 0 1-4 3.6c-.9.3-1.9.5-2.8.5H13.3a.7.7 0 0 1-.6-.3.8.8 0 0 1-.2-.5l2.3-26a.8.8 0 0 1 .7-.7.8.8 0 0 1 .8.6c0 .3 0 .5.3.7l.5.4.8.2h1.8l.4-4.5h-4.4a.7.7 0 0 1-.6-.2.7.7 0 0 1-.2-.6l.8-9a.8.8 0 0 1 .8-.7H21l.6-6.6a.8.8 0 0 1 .7-.7.8.8 0 0 1 .8.5c.1.5.5.8.9 1 .5.3 1.1.5 1.7.5h9.1a.8.8 0 0 1 .6.2.8.8 0 0 1 .2.6l-.4 4.5h4.5l.6-6.6a.8.8 0 0 1 .5-.7h.2a.8.8 0 0 1 .6.4c.4.5.9 1 1.4 1.2.6.2 1.3.4 2 .4h7a.8.8 0 0 1 .7.8l-.3 2.6h11a.8.8 0 0 1 .5.3.7.7 0 0 1 .2.5l-.7 8.4a.8.8 0 0 1-.8.7l-1 12-.3 1.3a4 4 0 0 1-.8 1.4l-4 5.1 4.4 6.1c.1.2.2.3.1.5l-.5 5.6a.8.8 0 0 1-.7.7h-6.6Zm-16-7 5-5.8-3.5-5.2-.4-.7-1 11.7Zm-10.7-2.8.5-6h-2.2l-.5 6h2.2Zm23.3-12 .2-.2.9-10.6H39.7h10.2c.2 0 .4 0 .6.2a.8.8 0 0 1 .1.6l-.8 9.8v.2ZM38 193.5h.4l.4-4.6h-4.5l-.4 4.5H38Z" fill="#3E3A39"/>
    <path d="M41 171.8c.4.7 1 1.2 1.8 1.5.7.3 1.4.5 2.2.5h7l-.4 3.4h11.8l-.8 8.4H62l-1.2 12.7-.2 1.2-.7 1-4.4 5.7 4.8 6.5-.5 5.6h-6.5a3.7 3.7 0 0 1-3.3-1.7l-1.3-1.9-1.3 1.8a4.4 4.4 0 0 1-3.7 1.8H37l.5-5.6 5.4-6.4-3.7-5.7c-.3-.3-.4-.7-.5-1.2v-1.3l1-11h10l-.8 10.2.8 1 .9-1 1-11.7H39.8l1.2-13.8Zm-18.6 0c.2.6.6 1.1 1.2 1.4.7.4 1.4.6 2.1.6h9.1l-.4 5.3h5.1l-.8 9h-5.1l-.5 6h5l-1.6 18a6 6 0 0 1-.7 2.5 7.2 7.2 0 0 1-3.7 3.2 7 7 0 0 1-2.5.4H13.3l2.3-26c0 .5.2.8.5 1.1.2.3.5.5.8.6.3.2.7.2 1 .3h2.6l.5-6h-5.3l.8-9h5.2l.6-7.3Zm5.4 30.8h-3.7l-.7 7.3h3.8l.6-7.3ZM41 170.4h-.4a1.5 1.5 0 0 0-1.1 1.3l-.5 6h-3l.3-3.7v-.2a1.5 1.5 0 0 0-1.5-1.5h-9.1c-.5 0-1-.1-1.4-.4-.3 0-.5-.3-.6-.5a1.5 1.5 0 0 0-1.4-1H22a1.5 1.5 0 0 0-1.3 1.3l-.5 6h-3.9A1.5 1.5 0 0 0 15 179l-.8 9a1.5 1.5 0 0 0 .4 1.2 1.5 1.5 0 0 0 1.1.5h3.6l-.3 3h-1l-.5-.2-.4-.2v-.3a1.5 1.5 0 0 0-1.5-1.3 1.5 1.5 0 0 0-1.5 1.4l-2.3 26a1.5 1.5 0 0 0 1 1.5l.5.1h16.3a8.6 8.6 0 0 0 6.2-2.6l-.1 1a1.5 1.5 0 0 0 .9 1.6l.6.1h6.4a6 6 0 0 0 5-2.5l.1.1a5.2 5.2 0 0 0 4.5 2.4h6.5a1.5 1.5 0 0 0 1.5-1.3l.5-5.7a2 2 0 0 0-.3-1l-4.1-5.6 3.7-4.7c.4-.5.7-1 .9-1.6l.3-1.5 1-11.4a1.5 1.5 0 0 0 .8-1.2l.8-8.3v-.2a1.5 1.5 0 0 0-1.5-1.5H53.2l.1-1.8v-.2a1.5 1.5 0 0 0-1.5-1.5h-7l-1.5-.3c-.5-.2-.9-.5-1.1-1a1.5 1.5 0 0 0-1.3-.7Zm-6 19.3h3l-.4 3h-3l.3-3Zm3.1 20 .7-7.1 2.3 3.6-3 3.5ZM25.4 204h.8l-.4 4.4H25l.4-4.4Z" fill="#fff"/>
    <path d="M25.3 268.5a.7.7 0 0 1-.1-1.5 1.8 1.8 0 0 0 1.2-.6l.4-.7H14.3a.7.7 0 0 1-.6-.3.7.7 0 0 1-.2-.5l.5-5.1v-.3h-.2a.7.7 0 0 1-.5-.2.7.7 0 0 1-.2-.6l.7-7.8a.7.7 0 0 1 .7-.7h.3v-.4l.4-5.4a.8.8 0 0 1 .6-.7l-.1-.4 1-11.6h-.8a.7.7 0 0 1-.5-.2.7.7 0 0 1-.2-.6l.5-6a.8.8 0 0 1 .8-.8h14.2l.2-2.7a.8.8 0 0 1 .7-.7.7.7 0 0 1 .8.5s.2.5 1 .7c.8.2 1.6.3 2.5.3h12.5a.7.7 0 0 1 .5.3.7.7 0 0 1 .2.5v1.1h13.7a.7.7 0 0 1 .5.3.7.7 0 0 1 .2.5l-.5 6.2a.7.7 0 0 1-.7.6h-.8v.4l-.5 6.5c-.1.8-.3 1.6-.8 2.3a6.2 6.2 0 0 1-3.5 2.8h3a.8.8 0 0 1 .6.3.8.8 0 0 1 .2.6l-.5 5.6h.8a.7.7 0 0 1 .5.2.7.7 0 0 1 .2.6l-.6 7.8a.8.8 0 0 1-.8.7h-1a6.4 6.4 0 0 1-2 4.4c-.7.5-1.4 1-2.2 1.3a7 7 0 0 1-2.5.5h-8a6.5 6.5 0 0 1-6 2.9H25.3ZM49 238v-.3h-1.3v.3H49Zm-19.6 0v-.3h-1.3v.3h1.3Z" fill="#3E3A39"/>
    <path d="M31.7 221.4a2 2 0 0 0 1.4 1.2c1 .3 1.8.4 2.7.3h12.6l-.2 2h14.6l-.6 6H47.7l-.1 1.2h13.2l-.6 6.4a4.9 4.9 0 0 1-2 3.6 6.3 6.3 0 0 1-4 1.3h-7.6v1h13l-.5 6.5h1.7l-.7 7.9h-1.7v.7a6.1 6.1 0 0 1-6 5.5h-8.5c-.5.8-1.3 1.5-2.1 2a7 7 0 0 1-3.5.8h-13a2.5 2.5 0 0 0 1.7-1c.4-.6.7-1.2.8-2H14.3l.4-5h13.6l.1-1H13.8l.7-8h14.6l.1-1H15.5l.4-5.4h13.8v-1H16.5l1.1-12.3c.5.4 1.1.6 1.8.7l2 .2h9.5v-1H16l.6-6.2h15l.2-3.4ZM50 236.8h-2.8l-.2 1.8h2.8l.2-1.8Zm-19.6 0h-2.9l-.1 1.8h2.8l.2-1.8Zm18 13H46v1h2.4v-1Zm-.7 9h-2.5v1h2.4l.1-1Zm-16-39h-.2a1.5 1.5 0 0 0-1.2 1.4l-.2 2.1H16.5a1.5 1.5 0 0 0-1.5 1.4l-.5 6.1a1.6 1.6 0 0 0 .4 1.1c.2.3.6.5 1 .5l-1 10.8v.1c-.3.3-.5.6-.5 1l-.5 5.2a1.5 1.5 0 0 0-1 1.3l-.6 7.8a1.5 1.5 0 0 0 .3 1.1l.5.4-.4 4.7a1.5 1.5 0 0 0 .4 1.1 1.5 1.5 0 0 0 1.1.5h10.5a1.5 1.5 0 0 0-.9 1.5 1.5 1.5 0 0 0 1.5 1.4h13c1.5 0 3-.4 4.3-1a8 8 0 0 0 2.1-2h7.7c1 0 2-.1 2.8-.5a7.8 7.8 0 0 0 4-3.6c.3-.6.5-1.3.6-2h.3a1.5 1.5 0 0 0 1.5-1.3l.7-7.8v-.2a1.5 1.5 0 0 0-1.5-1.5l.4-4.8v-.2a1.5 1.5 0 0 0-1.5-1.5h-.2a6.3 6.3 0 0 0 2.2-4.3l.6-6.2a1.5 1.5 0 0 0 1.5-1.3l.5-6v-.3a1.5 1.5 0 0 0-1.5-1.5h-13v-.4a1.5 1.5 0 0 0-1.5-1.5H35.8c-.8 0-1.5 0-2.3-.3l-.4-.2a1.5 1.5 0 0 0-1.4-1Z" fill="#fff"/>
    <path d="M37.2 317.8a.8.8 0 0 1-.6-1.2l.5-.3a4 4 0 0 0 1.7-.8 1.6 1.6 0 0 0 .7-1.1v-.8h-7.3l-1 1.3a8.2 8.2 0 0 1-6.3 3H12.4a.7.7 0 0 1-.7-.5.7.7 0 0 1 .1-.8l2.6-3h-.2a.7.7 0 0 1-.5-.3.7.7 0 0 1-.2-.5l.6-6.5H13a.7.7 0 0 1-.5-1.3l2-2h-1.2a.8.8 0 0 1-.8-.7l.6-6.4a.7.7 0 0 1 .7-.6h.4l1.3-14.8h-.3a.7.7 0 0 1-.5-.2.7.7 0 0 1-.2-.6l.5-6.3a.7.7 0 0 1 .8-.7h3.5l.1-1.9a.7.7 0 0 1 .6-.7h.2a.7.7 0 0 1 .6.4c.2.4.6.7 1 .9l1.7.2h13.3a.7.7 0 0 1 .5.3.7.7 0 0 1 .2.5v.3h3.2l.2-1.9a.8.8 0 0 1 .6-.6h.2a.8.8 0 0 1 .6.3c.2.4.6.7 1 .9.5.2 1.1.2 1.7.2h13.3a.7.7 0 0 1 .7.5v.6h3.3a.7.7 0 0 1 .7.5v.3l-.5 6.4a.8.8 0 0 1-.8.7h-4l-.6.5h3.4a.8.8 0 0 1 .5.3.7.7 0 0 1 .2.5l-.8 8.9a5.7 5.7 0 0 1-2.9 4.5h2.8a.8.8 0 0 1 .7.8l-.5 6.3a.7.7 0 0 1-.8.7h-1.2l1.5 2a.8.8 0 0 1 0 .8.8.8 0 0 1-.6.4h-1l-.4 4.8a7 7 0 0 1-.7 2.6 7.3 7.3 0 0 1-6.5 4l-13.7.1Zm9.4-12.3c-1-.5-1.9-1.2-2.6-2l-.4-.4H40a.8.8 0 0 1 .3.7l-.1.4-1.1 1.3h7.5Zm-2.5-23.8v.2l-.2 2.2a6.5 6.5 0 0 1 2.4-2.4h-2.2Zm-7.8-1.2-.6.6h4.4v-.6h-3.8Zm-18.9 0 .5.2.7.3v-.5h-1.2Z" fill="#3E3A39"/>
    <path d="M41.7 270.9c.3.5.8 1 1.4 1.2a6 6 0 0 0 1.9.3h13.3l-.1 1h4l-.5 6.4h-4.3l-1 .8a2 2 0 0 1-1.2.4H40.8l.1-1.2h-5c-.2.3-.6.6-1 .8-.3.3-.7.4-1.2.4H19.4l.1-1.2h-4.2l.6-6.4H20l.2-2.5c.3.5.8 1 1.4 1.2a6 6 0 0 0 1.9.3h13.3l-.1 1h4.7l.2-2.5Zm-25.3 9.7c.3.4.7.7 1.2.8.5.3 1 .4 1.7.4h24l-.4 4.3H32l-.1 1h11.8v-.6l.6-1.8 1.2-1.5c.4-.4 1-.7 1.5-1a4 4 0 0 1 1.9-.3h11.5l-.8 8.8A5 5 0 0 1 58 294c-1 .9-2.2 1.4-3.4 1.3H36.8l-.7.7h24.2l-.5 6.4H57l2.4 3.2h-8.8a8.3 8.3 0 0 1-6.2-2.6l-.6-.6H29.7l-.7.7c-.2 0-.3.2-.4.4l-.4.2h11.4l-2.1 2.5h20.2l-.4 4.9a6.4 6.4 0 0 1-2.1 4.2 6.5 6.5 0 0 1-4.4 1.8H37.2a5 5 0 0 0 2.1-1 2.4 2.4 0 0 0 1-1.7l.1-1.5H32l-1.3 1.5a7.4 7.4 0 0 1-5.7 2.7H12.5l3.6-4.3h-1.7l.6-6.6h6.8l.5-.6H13l3.4-3.3h-3.1l.5-6.3h9.3l.7-.7H15l1.3-14.7Zm27.2 9.4H31.8l-.1 1h11.8l.1-1Zm-2-20.6h-.2a1.5 1.5 0 0 0-1.2 1.3L40 272h-1.8a1.5 1.5 0 0 0-1.4-1H23.6l-1.5-.3a1 1 0 0 1-.6-.5 1.5 1.5 0 0 0-1.3-.7H20a1.5 1.5 0 0 0-1.1 1.3l-.2 1.2H16a1.5 1.5 0 0 0-1.5 1.4l-.6 6.3a1.5 1.5 0 0 0 .4 1.1l.6.4-1.1 13.4a1.5 1.5 0 0 0-1.2 1.4l-.6 6.3a1.6 1.6 0 0 0 .4 1.2l.6.4-.8.7a1.5 1.5 0 0 0 .2 2.3c.2.2.5.3.8.3h.3l-.5 5.6a1.5 1.5 0 0 0 .4 1.2l-1.9 2.2a1.5 1.5 0 0 0 .3 2.2l.8.3H25a9 9 0 0 0 3.8-.9 9.1 9.1 0 0 0 3-2.4l.9-1h6.2c0 .3-.2.5-.4.6-.4.4-.9.6-1.4.7a1.5 1.5 0 0 0-1.2 1.6 1.5 1.5 0 0 0 1.5 1.4h13.5a7.8 7.8 0 0 0 5.5-2.2c.7-.7 1.2-1.5 1.7-2.3.5-1 .7-2 .8-3l.4-4h.3a1.5 1.5 0 0 0 1.5-1.7c0-.2 0-.5-.3-.7l-.6-.9a1.5 1.5 0 0 0 1.2-1.4l.6-6.2v-.2a1.5 1.5 0 0 0-1.5-1.5h-.7c.9-1 1.4-2.4 1.6-3.7l.7-8.8v-.8a1.5 1.5 0 0 0 1.3-1.3l.5-6.3v-.2a1.5 1.5 0 0 0-1.5-1.5h-2.5a1.5 1.5 0 0 0-1.5-1H45c-.4 0-1-.1-1.4-.3a1 1 0 0 1-.6-.5 1.5 1.5 0 0 0-1.3-.7Zm-.5 34.5h2l.2.1v.1l.8.6h-3.4c.2-.2.3-.5.3-.8Z" fill="#fff"/>
    <path d="M43.4 367a.8.8 0 0 1-.8-.7 5.3 5.3 0 0 1-2.6.7H27.7a.8.8 0 0 1-.8-.8l.2-2.2c-.2.7-.6 1.3-1.2 1.8-.8.8-1.9 1.2-3 1.2h-9a.8.8 0 0 1-.8-.8l.6-6c0-.1 0-.3.2-.4l-.2-.2a.8.8 0 0 1-.1-.5l.6-7a.8.8 0 0 1 .7-.8h13.4v-.4H15.9a.5.5 0 0 1-.5-.3.8.8 0 0 1-.2-.6l1.3-14.7h-1.9a.8.8 0 0 1-.4-.6v-.4L19 320a.7.7 0 0 1 .7-.5.8.8 0 0 1 .7.4 1.9 1.9 0 0 0 2 1.1H33a.7.7 0 0 1 .7 1l-.4 1.2h4.8l.2-2.8a.8.8 0 0 1 .6-.7h.2a.8.8 0 0 1 .6.3c.3.4.6.7 1 .8.5.2 1 .3 1.6.3h11.2a.7.7 0 0 1 .5.3.8.8 0 0 1 .3.5l-.2 1.3h7a.7.7 0 0 1 .6.2.7.7 0 0 1 .2.6l-.5 5.8a.8.8 0 0 1-.8.7h-.3a.7.7 0 0 1 .2.6l-.5 5.3a.8.8 0 0 1-.5.6l.2.1a.8.8 0 0 1 .2.6l-.5 5.3a.7.7 0 0 1-.3.6h.2a.8.8 0 0 1 .8.8l-.5 5.9a.8.8 0 0 1-.8.7H46.3v.4h13.3a.7.7 0 0 1 .5.3.7.7 0 0 1 .2.5l-.6 7.1a.7.7 0 0 1-.8.7h-2.1c.5.2.9.6 1.3 1a3.8 3.8 0 0 1 1 3l-.3 2.4a.8.8 0 0 1-.7.7H43.4Zm1.7-3.7a5 5 0 0 1-1.3 2.1c.3 0 .6-.2.8-.4.3-.4.4-.8.5-1.2v-.5Z" fill="#3E3A39"/>
    <path d="M19.7 320.2a2.7 2.7 0 0 0 2.7 1.5H33l-.7 2.2h6.5l.3-3.5c.3.4.7.8 1.3 1a5 5 0 0 0 1.8.4h11.3l-.2 2H61l-.5 5.9h-7.8l-.1 1.3h7l-.4 5.3h-7.1l-.1 1.3h7l-.4 5.3h-7l-.1 1.4h7.8L59 350H16l1.4-15.5H15l4.8-14.4h-.1Zm18.6 9.5h-6.7l-.1 1.3h6.7l.1-1.3Zm-.6 6.6H31l-.1 1.3h6.7v-1.4Zm-.6 6.6h-6.7l-.1 1.4H37l.1-1.4Zm8.4 8v1.2h14l-.6 7h-14l-.3 3-.5 1.6c-.3.5-.6 1-1 1.3a4.6 4.6 0 0 1-3.1 1.2H27.7l.6-7h-14l.6-7h14l.1-1.3h16.6ZM27 359.7l-.3 3.2c0 .9-.5 1.7-1.2 2.4a4 4 0 0 1-2.5 1h-9l.5-6h8.7c1.3.1 2.6-.1 3.8-.6Zm28.3.7a3 3 0 0 1 2.3 1 3 3 0 0 1 .8 2.4l-.2 2.4H43.4c.6 0 1.3-.3 1.8-.7.4-.5.6-1 .6-1.6l.4-3.5h9Zm-35.5-41.7a1.5 1.5 0 0 0-1.3 1L13.6 334a1.5 1.5 0 0 0 .2 1.3 1.5 1.5 0 0 0 1.2.7h.7l-1.2 14v.6a1.5 1.5 0 0 0-1 1.4l-.7 7c0 .3 0 .6.2 1v.2l-.6 5.9a1.5 1.5 0 0 0 1.5 1.6h9c1.3 0 2.4-.4 3.4-1.2 0 .3.1.5.3.7a1.5 1.5 0 0 0 1.1.5h12.4c.7 0 1.5-.1 2.2-.4a1.5 1.5 0 0 0 1.2.4h14.7a1.5 1.5 0 0 0 1.5-1.3l.2-2.5c.1-1.1-.2-2.3-1-3.2h.1a1.5 1.5 0 0 0 1.5-1.4l.6-7a1.6 1.6 0 0 0-.3-1.2c-.2-.1-.3-.3-.5-.3l.1-.5.5-5.8v-.2a1.5 1.5 0 0 0-.6-1.3l.4-5.2v-.8l.1-.6.5-5.2v-.1a1.5 1.5 0 0 0 .9-1.3l.5-5.7v-.3a1.5 1.5 0 0 0-1.5-1.4H55v-.6a1.5 1.5 0 0 0-1.5-1.5H42.2L41 320c-.3 0-.5-.2-.7-.4a1.5 1.5 0 0 0-1.2-.7 2 2 0 0 0-.4 0 1.5 1.5 0 0 0-1.1 1.3l-.2 2.1h-3v-.7a1.5 1.5 0 0 0-1.4-1.5H22.4c-1 0-1.2-.3-1.3-.6a1.5 1.5 0 0 0-1.4-.9Z" fill="#fff"/>
    <path d="M51.4 120.3a.8.8 0 0 1-.6-.2.8.8 0 0 1-.2-.6l.4-4a7.4 7.4 0 0 1-7.1 4.8h-5a.8.8 0 0 1-.5-.2.8.8 0 0 1-.5.2h-7.1a.7.7 0 0 1-.7-1l-1.1.5c-.8.4-1.7.5-2.6.5h-9.3a.7.7 0 0 1-.6-.2 4 4 0 0 1-.8 0h-2.3a.7.7 0 0 1-.5-.2.7.7 0 0 1-.2-.6l.9-10.3a.7.7 0 0 1 .6-.6l-.2-.2a.8.8 0 0 1-.2-.6l.8-8.6a.7.7 0 0 1 .5-.7.7.7 0 0 1-.5-.3.7.7 0 0 1-.2-.5l.8-8.7a.7.7 0 0 1 .7-.7h2l.1-2V86h-1.6a.7.7 0 0 1-.6-.2.7.7 0 0 1-.2-.6l.8-8.6a.7.7 0 0 1 .7-.7h5l.3-2.3a.7.7 0 0 1 .6-.6h.1a.8.8 0 0 1 .7.3l.6.6 1 .2h11a.7.7 0 0 1 .5.2.7.7 0 0 1 .2.6v1h5a.8.8 0 0 1 .7-.7l20.4-.4a.8.8 0 0 1 .7.8l-.8 9.7a.7.7 0 0 1-.7.7l-8.6.4-.2 2h8.9a.7.7 0 0 1 .5.3.7.7 0 0 1 .2.6l-.8 9.7a.8.8 0 0 1-.8.7h-.4l-1.4 16.2a5 5 0 0 1-1.5 3.6c-1 .7-2.2 1-3.4 1h-3.5Zm-19.2-3.2a7 7 0 0 1-1.2 1.4l-.4.3c.5 0 .9-.2 1.1-.5.3-.4.4-.8.5-1.2Zm3.7-8.6a3.2 3.2 0 0 1 2.5 1l.6 1 .2-2.1h-5.4v.1h2.1ZM41 88l.2-2.1h-3.7l.7.5c.4.4.8 1 1 1.6H41Zm-12 0 .2-2h-3l.7.5c.5.4.8 1 1 1.6H29Z" fill="#3E3A39"/>
    <path d="M23.2 73.5c.2.4.6.7 1 .8l1.2.3h11l-.1 2H42l-.8 8.5h-25l.8-8.6h6l.3-3Zm40 1.9-.9 9.7-9.2.4-.3 3.5h9.7l-.9 9.8h-1L59 115.6a4.3 4.3 0 0 1-1.3 3.1c-.8.6-1.8 1-2.8.9h-3.6l1.8-20.8h-1.3l-1 14.2a7.2 7.2 0 0 1-2 4.7 6.6 6.6 0 0 1-4.9 1.8H39l3.8-43.9 20.4-.3ZM35.7 86.2a2.6 2.6 0 0 1 1.9.7c.5.5.8 1.2.8 1.9H41l-.7 8.7h-6.4V99h6l-.8 8.6h-6l-.6 6.4a6 6 0 0 1-.6 2.2 6 6 0 0 1-1.4 1.7c-.6.5-1.2.9-1.9 1.2-.7.3-1.4.4-2.2.4H17a4 4 0 0 0 1.8-1.3c.5-.6.7-1.3.8-2l.7-8.6h-5.8l.8-8.6H21l.1-1.5H15l.8-8.7h2.6l.2-2.6h5.8a2.7 2.7 0 0 1 1.9.7c.5.5.8 1.2.8 1.9h2.5l.2-2.6h5.8ZM19.5 108l-.7 8.5a3 3 0 0 1-1 2 3 3 0 0 1-2.1.7h-2.3l.9-10.3h3.6l1-.1a1 1 0 0 0 .6-.8Zm16.4 1.1a2.5 2.5 0 0 1 2 .9 2.5 2.5 0 0 1 .6 2l-.7 7.5h-7c.5 0 1.1-.4 1.5-.8.4-.5.6-1 .6-1.6l.7-8h2.3ZM23.1 72h-.3a1.5 1.5 0 0 0-1.2 1.3V75H17a1.5 1.5 0 0 0-1.5 1.3L15 85a1.5 1.5 0 0 0 .4 1 1.5 1.5 0 0 0 1 .6h.8v.6H16a1.5 1.5 0 0 0-1.5 1.4l-.8 8.7c0 .4 0 .7.3 1l-.1.5-.8 8.6v.7l-.2.8-1 10.2a1.5 1.5 0 0 0 1 1.5l.6.2h2.9l.7.2h9.4c1 0 2-.2 2.8-.6h.3a1.5 1.5 0 0 0 1.2.6h13a8 8 0 0 0 5.8-2.1l.3-.3v.8a1.5 1.5 0 0 0 .8 1.5l.6.1H55c1.4.1 2.8-.3 3.9-1.2a5.7 5.7 0 0 0 1.8-4l1.3-15.6a1.5 1.5 0 0 0 1.2-1.3L64 89a1.5 1.5 0 0 0-.4-1.1 1.5 1.5 0 0 0-1.1-.5h-8v-.6l8-.3a1.5 1.5 0 0 0 1.3-1.4l.9-9.6v-.2a1.5 1.5 0 0 0-1.5-1.5l-20.4.3a1.5 1.5 0 0 0-1.3.8h-3.7v-.4a1.5 1.5 0 0 0-1.5-1.5h-11l-.6-.1a.9.9 0 0 1-.3-.3A1.5 1.5 0 0 0 23 72Zm16.1 14.6h1v.7h-.7c0-.3-.2-.5-.3-.7Zm-11.2 0h.3v.5a3 3 0 0 0-.2-.5Z" fill="#fff"/>
    <path d="M51.4 169.5a.8.8 0 0 1-.6-.3.8.8 0 0 1-.2-.5l.4-4a7.2 7.2 0 0 1-7.2 4.8H39a.8.8 0 0 1-.6-.2.8.8 0 0 1-.5.2h-7.1a.7.7 0 0 1-.7-1 6.6 6.6 0 0 1-3.7 1h-9.3a.7.7 0 0 1-.6-.3 4 4 0 0 1-.8.1h-2.3a.7.7 0 0 1-.5-.2.7.7 0 0 1-.2-.6l.9-10.3a.8.8 0 0 1 .6-.7l-.2-.1a.8.8 0 0 1-.2-.6l.8-8.7a.7.7 0 0 1 .5-.6.8.8 0 0 1-.5-.3.7.7 0 0 1-.2-.5l.8-8.8a.7.7 0 0 1 .7-.6h2l.1-2v-.2h-1.6a.7.7 0 0 1-.6-.2.7.7 0 0 1-.2-.6l.8-8.6a.8.8 0 0 1 .7-.7h5l.3-2.3a.8.8 0 0 1 .6-.7h.1a.8.8 0 0 1 .7.4l.6.5c.3.2.6.3 1 .3h11a.7.7 0 0 1 .5.2.7.7 0 0 1 .2.6v1h5v-.1a.7.7 0 0 1 .7-.7l20.4-.4a.8.8 0 0 1 .7.5v.4l-.8 9.6a.7.7 0 0 1-.7.7l-8.6.4-.2 2h8.9a.7.7 0 0 1 .5.3.7.7 0 0 1 .2.6l-.8 9.7a.8.8 0 0 1-.8.7h-.4l-1.4 16.2a5 5 0 0 1-1.5 3.6c-1 .7-2.2 1-3.4 1h-3.5Zm-19.2-3.2c-.3.5-.7 1-1.2 1.3l-.4.3c.5 0 .9-.2 1.1-.5.3-.3.4-.7.5-1.1Zm3.7-8.7a3.2 3.2 0 0 1 2.5 1.1c.2.3.5.6.6 1l.2-2.2h-5.4v.1h2.1Zm5-20.4.2-2.2h-3.7l.7.5c.4.5.8 1 1 1.7h1.8Zm-12 0 .2-2v-.2h-3l.7.5c.5.5.8 1 1 1.7H29Z" fill="#3E3A39"/>
    <path d="M23.2 122.7c.2.3.6.6 1 .8l1.2.3h11l-.1 1.9H42l-.8 8.6h-25l.8-8.6h6l.3-3Zm40 1.8-.9 9.7-9.2.5-.3 3.5h9.7l-.9 9.7h-1L59 164.8a4.3 4.3 0 0 1-1.3 3c-.8.7-1.8 1-2.8 1h-3.6l1.8-20.9h-1.3l-1.2 14.3c0 1.8-.8 3.5-2 4.8a6.6 6.6 0 0 1-4.9 1.7H39l3.8-43.8 20.4-.4Zm-27.5 10.8a2.6 2.6 0 0 1 1.9.8c.5.4.8 1.1.8 1.8H41l-.7 8.7h-6.4v1.5h6l-.8 8.6h-6l-.6 6.4c0 .8-.3 1.5-.6 2.2-.4.6-.8 1.2-1.4 1.7a6 6 0 0 1-1.8 1.3c-.7.2-1.5.4-2.2.4H17c.7-.3 1.3-.7 1.8-1.3.4-.6.7-1.3.7-2.1l.8-8.5h-5.8l.7-8.7H21l.2-1.4H15l.8-8.8h2.6l.3-2.6h5.7a2.7 2.7 0 0 1 2 .8c.5.5.8 1.1.8 1.8h2.4l.2-2.6h5.8Zm-16.2 22-.7 8.5a3 3 0 0 1-1 2 3 3 0 0 1-2.1.7h-2.3l.9-10.3h3.6l1-.1a1 1 0 0 0 .6-.8Zm16.4 1.1a2.5 2.5 0 0 1 2 .9 2.5 2.5 0 0 1 .6 2l-.7 7.4h-7c.5 0 1.1-.3 1.5-.7.4-.5.6-1 .6-1.6l.7-8h2.3Zm-12.8-37.2h-.3a1.5 1.5 0 0 0-1.2 1.4v1.6H17a1.5 1.5 0 0 0-1.5 1.4l-.7 8.6a1.5 1.5 0 0 0 .4 1.1 1.5 1.5 0 0 0 1 .5h.8v.7h-1.2a1.5 1.5 0 0 0-1.5 1.3l-.8 8.7c0 .4 0 .8.3 1l-.1.5-.8 8.7v.6l-.2.8-1 10.3a1.5 1.5 0 0 0 .5 1.1 1.5 1.5 0 0 0 1 .5h3c.2.2.5.2.7.2h9.4c1 0 2-.2 2.8-.5l.3-.1a1.5 1.5 0 0 0 1.2.6h13.2c2.2.2 4.3-.6 5.8-2l.3-.4v.8a1.5 1.5 0 0 0 .8 1.6H55a6 6 0 0 0 3.9-1.1 5.7 5.7 0 0 0 1.8-4.1l1.3-15.6a1.5 1.5 0 0 0 1.2-1.3l.9-9.8a1.5 1.5 0 0 0-1-1.5h-8.5v-.6l8-.4a1.5 1.5 0 0 0 1.3-1.4l.9-9.6v-.2a1.5 1.5 0 0 0-1.5-1.5l-20.4.3a1.5 1.5 0 0 0-1.3.8h-3.7v-.4a1.5 1.5 0 0 0-1.5-1.5H24.7a.8.8 0 0 1-.3-.4 1.5 1.5 0 0 0-1.3-.7Zm16.1 14.6h1v.7h-.7c0-.3-.2-.5-.3-.7Zm-11.2 0h.3v.5a3 3 0 0 0-.2-.5Z" fill="#fff"/>
  </g>
</svg>