<svg xmlns="http://www.w3.org/2000/svg" viewBox="0 0 1290.93 1026.38"><defs><style>.cls-1{fill:#f2f2f2;}</style></defs><g id="圖層_2" data-name="圖層 2"><g id="圖層_1-2" data-name="圖層 1"><path class="cls-1" d="M242.34,487.15h0v-.07Z"/><path class="cls-1" d="M1287.56,312.05a2.76,2.76,0,0,0-3.63-.14c-1.33.94-2.57,2-4.53,3.51-1.59-2.12-2.74-3.69-3.93-5.23a18.42,18.42,0,0,0-2.81-3.37c-2-1.53-4.2-2.68-6.17-4.18-3.07-2.32-6.18-2.16-9.31-.36-1.72,1-3.26,2.29-4.94,3.38a13.61,13.61,0,0,1-10.45,1.81c-6.12-1.09-11.88-2.47-16-7.55-.51-.62-1.39-.92-2-1.47a85.75,85.75,0,0,1-6.65-6,11.58,11.58,0,0,1-3.28-8.62c.16-4,0-8,0-12,0-2.13.17-4.22-1.34-6.17-1.26-1.64-.79-3.48.9-4.84.73-.59,1.47-1.16,2.19-1.73-4.41-4.73-9-8.91-12.64-13.76-3.83-5.05-7.42-10.35-4.2-17.6,2.39-5.39,3.36-11.39,8.7-15.11,1.88-1.31,1.45-3,0-4.7-1.78-2-3.36-4.78-5.4-6.53-2.91-2.49-2.66-.63-5.89-1.19-3.41-.59-6-4.77-1.12-5.32,1.64-.18,3.33,0,5-.18,3.48-.34,6.16-1.87,7.66-5.23-1.83-2.13-3.55-1.66-5.47-.57a80.7,80.7,0,0,1-14.26,6.77c-5,1.68-9.8,1.27-14.66.7a81.45,81.45,0,0,1-11.55-2.66c-3-.83-5.71,0-8.66.66-2.79.59-6-1-9.08-1.53-.32-.06-.68,0-1,0-5.47-1.23-11.27,0-16.61-2.5-6.29-2.88-9.08,5.58-14.54,6.48-4.9.81-10.56-5.54-9.23-10.28.58-2,1.08-4.13,1.8-6.87a15,15,0,0,1-2.89,1.37,6.37,6.37,0,0,0-5,3.8h-4l-5.07,0c-8.89,0-8.88,0-9.08,8.55,0,.45-.38.88-1,2.24-2.09-8-5.69-15.13,3.76-22.09l-14.48-1.1c.24,2.56.39,4.19.53,5.81-3.61-2.91-7.26-5.78-10.84-8.75-6.57-5.45-6.52-5.44-13,.38-7.37,6.57-14.81,13.06-22.33,19.68-4.92-8.53-4.05-10.68,4.1-12.92,1.72-.48,3.82-1.85,4.41-3.34.4-1-1.35-3.11-2.5-4.4-.54-.61-1.93-.46-3.12-.7l4.26-6.3c-3.79-.69-6.52-1.26-9.26-1.68-8.9-1.35-17.85-2.46-26.69-4.11-1.79-.34-4.8-3.05-4.56-4,1.58-6.08-1.92-9.06-6.11-12l0,0a42.3,42.3,0,0,1,4.73-2.84,12.5,12.5,0,0,0,1.91-1.52c-6-3.3-11.83-6.24-17.37-9.7-3.54-2.21-4.25-7.13-2.52-11.06,1-2.22,2.18-4,4.62-4.79a24,24,0,0,0,4.06-2.35l-2.63-3.38c-6.57.52-12.52.79-18.42,1.52-4.49.56-7.67-1.34-10.57-4.33-5.41-5.6-13.64-11.09-13.78-19.59,0-1.35.1-2.82-.7-3.9a5.26,5.26,0,0,0-1.6-1.28c-3.44-2.08-7-3.65-10-6.38-.63-.57-1.24-1.15-1.81-1.75q-1.58-3.13-3.22-6.26a8.59,8.59,0,0,1,1.12-4.44,3.78,3.78,0,0,0,.31-1c1.39-7.2-1-14.45-8.06-17.63.09.72-.56,6.79-1,6.64-2.66-.9-3.77-3.38-5.22-5.56-.63-1.46-1.29-2.92-1.95-4.37s-.63-2.87.83-4c.75-.56,1.47-1.17,2.31-1.85a30,30,0,0,1-2.66-3.93,7.94,7.94,0,0,0-6.85-5C888.06,21,884.87,18,882.39,14c-1.69-2.74-4-4.32-7.4-4.14-4.12.22-7.33-1.69-10.23-4.41a40.74,40.74,0,0,0-4.94-4.16c-3.27-2.2-5.46-1.67-7.47,1.58a6.24,6.24,0,0,0-.72,1.84c-1,4-3.71,5.22-7.45,5.16-2.83,0-5.68-.18-8.5,0-5.5.39-10.62-.19-14.51-4.69-.06-.06-.3,0-.52.07-.7,1.74-1.12,3.72-2.19,5.24-2.4,3.4-6.08,4.31-10.07,4.47a73.43,73.43,0,0,0-7.37.8c-2,.28-5.71.25-7.43,1.32-1.33.83-2.23,3-3.37,4.14-3.51,3.63-6.68,1.64-10.79,3.43-3.66,1.6-7.13,3.61-10.79,5.19A9.07,9.07,0,0,0,764,34.84c-2.74,5.86-5.54,11.69-8,17.66a6,6,0,0,1-6.55,4.08c-2.79-.17-5.57-.37-8.35-.68-3.27-.37-4.26.17-5.08,3.25-1.81,6.78-6,13.69-9,20.25a5.42,5.42,0,0,0-.6,2.81c.45,3-1.13,5.24-2.84,7.18a72.66,72.66,0,0,1-7.3,6.71c-2.84,2.46-6.4,4.4-5.67,9.11a4.4,4.4,0,0,1-.71,2.35c-1.73,3.39-3.58,6.73-5.29,10.13-3.77,7.47-5.93,5.06-7.05,14.05-.7,5.63-1.23,10.9-3.52,16.19-3.91,9-11,15.78-19.09,21.1-17.12,11.25-37.63,15.88-55.39,25.94a8.67,8.67,0,0,1-3.8,1q-12,.52-23.9.82c-3.83.11-7.67-.11-11.49.1a8.4,8.4,0,0,0-4.5,1.49c-2.52,2-4.79,4.33-7.38,6.78q-8.6-.56-17.21-.95a14.17,14.17,0,0,0-7,1.52c-11.59,6.16-23,12.64-34.55,18.88-9.39,5.08-18.44,11.37-28.45,14.6-14.21,4.59-29.18,6.85-43.81,10.17a28.31,28.31,0,0,0-6.88,2.18c-19.09,10-38.19,20.09-57.11,30.44a30.33,30.33,0,0,0-9.25,7.87c-10.89,14.1-21.44,28.47-32.05,42.78-1.09,1.47-2.53,3.24-2.45,4.8.05,1.19,2.25,2.28,4.06,3.92-5.27-.19-4.78,3-4.09,5.84,1.3,5.37-.12,9.74-3.42,14.1-6.23,8.21-11.84,16.9-18.08,25.11-2.51,3.31-2.92,5.72.43,8.28-7.39-.62-10.91,3.6-14.15,9.81-11.88,22.75-24.43,45.16-36.45,67.84-1.2,2.26-.55,5.48-.78,8.25-.19,2.27-.42,4.54-.71,7.58L248.63,481l-1.47.35q2.33,7.86-4.77,5.79c-.09,2.86.66,6.13-.48,8.49-5.26,11-11,21.78-16.69,32.54-7.77,14.58-12.65,29.21-3.36,45.18,1,1.78.36,5.63-1,7.53-4.79,6.92-9.36,14.37-15.56,19.88-10.36,9.23-17,19.54-16.89,33.76,0,1.24-1.84,2.85-3.2,3.67l-.32.18a16.61,16.61,0,0,1-7.81-4.49l-7.62-1.39a3.34,3.34,0,0,0-1.54.06l-19.79,5.3a3.36,3.36,0,0,0-1.19.57l-16.25,12a5,5,0,0,0-.43.37L115.47,666a3.65,3.65,0,0,0-.55.74l-5,8.83c-.06.11-.11.23-.17.35l-3.65,8.63-5.64,6.24L77.44,697.6a3.52,3.52,0,0,0-2.09,1.67l-5.3,9.54a3.68,3.68,0,0,0-.34.85l-5.54,21.8L43.56,767.79a3.1,3.1,0,0,0-.21.45L35.58,788a3.31,3.31,0,0,0-.22.82l-3.1,22.77L26,824.79.89,853a3.54,3.54,0,0,0-.33,4.26l32.51,50.53a3.92,3.92,0,0,0,.39.5l16.86,17.91,22.49,19.62,53.35,39.22a3.11,3.11,0,0,0,.53.32l25.79,12.72a3.27,3.27,0,0,0,.93.3l22.72,4.13,40.45,23.37a3.49,3.49,0,0,0,1.76.47h.21l42.74-2.48a3.55,3.55,0,0,0,1.47-.41l18.38-9.9a3.52,3.52,0,0,0,1.83-2.68l3-24.43,17-10.19L336.23,979l19.94,8,17.11,19.16a3.44,3.44,0,0,0,1.35.94l19.08,7.42a3.53,3.53,0,0,0,2.93-.17l31.19-16.48,24-10.24a4.12,4.12,0,0,0,.81-.48l40.74-32.32L514,943.63a3.67,3.67,0,0,0,.76-.55l16.06-15.37,13.68-9.77,17.56.33a3.78,3.78,0,0,0,1.4-.26l17.32-7.07a3.51,3.51,0,0,0,2-2.19l6-18.65,12.1-8.51,0,0,0,0,2-1.53,35.8-3.37,9.25,2.64h0L657.9,882l-1.79,16.45a3.49,3.49,0,0,0,.2,1.6l4.94,13.42a3.55,3.55,0,0,0,2.61,2.25l16.73,3.41,14.86,8.77,13.07,8.83a3.46,3.46,0,0,0,2.5.57l14.13-2.12a3.34,3.34,0,0,0,1-.32l15.87-7.77h15.26l19.81,15.78L786,950.3a3.68,3.68,0,0,0,.75.48l23,11a4.54,4.54,0,0,0,.65.23l52.79,13.37,29.13,11.23a3.41,3.41,0,0,0,1.27.24h23a3.51,3.51,0,0,0,2.39-.93L936.18,970a3.6,3.6,0,0,0,.89-1.29l7.79-19.49,10.24-2.43,64.13,38.48a3.69,3.69,0,0,0,1.29.46l39.21,6a4.9,4.9,0,0,0,.54,0h3.89a3.54,3.54,0,0,0,2.91-5.53l-3.58-5.23,1-2.72,3.19-4.15a4.08,4.08,0,0,0,.51-.91l2.12-5.66a3.51,3.51,0,0,0,.21-1l1.75-22.32,2.64-10.56,4.48-8,4.25-9.19a3.67,3.67,0,0,0,.31-1.73l-1.75-24.44.93-9.88,23.6-27,21.4-12.43a3.65,3.65,0,0,0,.67-.5l8.83-8.48a3.51,3.51,0,0,0,1-3.29L1136.5,819a3.34,3.34,0,0,0-.46-1.14l-5.69-9-2.18-9.35,1-6.47,19.72-11.17a3.5,3.5,0,0,0,1.76-2.57l2.83-19.79a3.65,3.65,0,0,0,0-1.19l-4.59-23a3.4,3.4,0,0,0-.36-1l-8.08-15,3.43-2.52q-5.8-.81-11.62-1.81l-3.39-.6q-1.21-3.32-2.42-6.65c-3.5-9.69-8.21-19.15-10.18-29.14-2.46-12.45-2.44-25.37-3.91-38-1.12-9.66-2.11-19.44-4.56-28.8-3.13-11.95-7.91-23.46-11.46-35.32a40.67,40.67,0,0,1-1.53-13.76c.55-9.54,2.15-19,2.77-28.56,1.45-22.33,4.2-44.37,11.63-65.44a21.93,21.93,0,0,1,.18-6,92.51,92.51,0,0,1,12.2-33.34c2.54-2,5.45-3.49,8-5.47a11.47,11.47,0,0,0,3.27-4.14c1.18-2.6,2.13-5.31,3.09-7.95,2.3-2.32,4.61-4.63,6.79-7.08.29-.35.47-.56.53-.62.41-.57.82-1.13,1.21-1.71,1.11-1.67,2.13-3.39,3.1-5.14,1.83-3.28,3.45-6.68,5.17-10a56.53,56.53,0,0,1,11-14.4c3.47.73,6.86-.37,10.14-3.22,5.27-4.56,10.6-9.06,16.1-13.34,4.8-3.74,10-6.11,16.53-5.65a36.22,36.22,0,0,0,16-3c4.74-1.92,9.49-4.12,14.45-5.1,4.08-.8,8.24-2,12.74-1,3.42.81,7.18.16,10.71.16,1.69-4,4-6.6,8.22-6.91.71-.05,1.37-.85,2.06-1.28,2-1.22,3.93-2.4,5.86-3.66,1.78-1.17,4-2.07,5.12-3.72a7.49,7.49,0,0,1,5.59-3.55,15.45,15.45,0,0,0,3.1-1.14C1291.73,317.47,1290.74,314.49,1287.56,312.05Zm-194.32-120a10.69,10.69,0,0,1,2-4A28,28,0,0,1,1093.24,192.1Z"/><path class="cls-1" d="M241.22,485.91l-.06.06Z"/><path class="cls-1" d="M241.16,486l1.18,1.18,0-.06-1.17-1.18Z"/></g></g></svg>