<svg width="100" height="118" fill="none" xmlns="http://www.w3.org/2000/svg">
  <g clip-path="url(#a)">
    <path d="M84 69.7h-.2l-8 .7-7 .5a2 2 0 0 0-1.7 1.5l-.5 2-2.3 9.2-.4-1.3a2475.7 2475.7 0 0 0-2.5-9.1l-.1-.3a2 2 0 0 0-1.8-1.2h-.2l-6.9.5-6.3.5a2 2 0 0 0-1.8 1.5l-2.8 11-2.6-10.4a2 2 0 0 0-2-1.5h-.1l-3 .2-6.6.6H26c-.8 0-1.7 0-2.4-.4a2 2 0 0 0-2.8.3 2 2 0 0 0-.5 1.7v.3l.1 2 5.2 24.4.7 3.3 1.5 7 .6 3.1a2 2 0 0 0 2 1.6h.2l4-.3 8.6-.7a9.9 9.9 0 0 0 9.3-8.4l.1-.8.1-.5c.5 2.5 1 4.9 1.8 7.2a2 2 0 0 0 1.9 1.5h.1l1.6-.2 3.2-.2 7.4-.6c5.4-.5 8.5-3.3 9.7-8.8a3858.3 3858.3 0 0 1 7.6-34 2 2 0 0 0-2-1.9Z" fill="#3E3A39"/>
    <path d="M39.2 72a12 12 0 1 0 0-24 12 12 0 0 0 0 24Zm-3.1-15.2c.6 0 1.4.9 1.4 2.1 0 1.3-.8 2.2-1.4 2.2-.7 0-1.5-.9-1.5-2.2 0-1.2.8-2.1 1.5-2.1ZM52.5 59a12 12 0 1 0 24 0 12 12 0 0 0-24 0Zm8.8.9c-.7 0-1.5-1-1.5-2.2 0-1.2.8-2.1 1.5-2.1s1.4.9 1.4 2.1c0 1.3-.8 2.2-1.5 2.2Z" fill="#3E3A39"/>
    <path d="m21.8 73 .8-.2 5.3-2.5a2 2 0 0 0 1-2.6L13.7 31.4a2 2 0 0 0-2.7-1L3 34a2 2 0 0 0-.9 2.8l18 35a2 2 0 0 0 1.7 1.1Zm77.7-59a2 2 0 0 0-1.2-.9l-8.5-1.8a2 2 0 0 0-2 .8 2 2 0 0 0-.4.8l-9.6 51a2 2 0 0 0 1.5 2.4l5.7 1.2h.4a2 2 0 0 0 2-1.4l12.4-50.5a2 2 0 0 0-.3-1.6Zm-64.9-4h.6l.3 7.6a3.5 3.5 0 0 0 3.7 3.5h.2a3.5 3.5 0 0 0 3.6-3.8l-.4-7.7h.4c.7 0 1.3-.2 1.9-.6-.2 1-.2 2-.2 2.8 0 2.5 1 4.9 2.6 6.7a8 8 0 0 0 5.9 2.4h.4a8 8 0 0 0 6.1-3 10 10 0 0 0 2-6.8c0-2.5-1-4.9-2.6-6.7a8 8 0 0 0-5.8-2.2h-.5a8 8 0 0 0-6.5 3.4A3.1 3.1 0 0 0 43 2.8h-.3l-4 .2-4.2.2a3.2 3.2 0 0 0-3.3 3.5 3.2 3.2 0 0 0 3.4 3.2Zm17.6 1.5c0-.7 0-1.5.4-2.1A.6.6 0 0 1 53 9h.1a.6.6 0 0 1 .5.3c.4.6.6 1.3.6 2a4 4 0 0 1-.4 2.2c-.2.3-.3.4-.5.4s-.3 0-.5-.3c-.4-.7-.7-1.4-.7-2.1ZM31.5 33.6h.5l.3 7.7a3.5 3.5 0 0 0 3.7 3.5h.2a3.6 3.6 0 0 0 2.7-1.1 3.7 3.7 0 0 0 .9-2.8l-.4-7.6h.2v2.2c0 2.5.8 4.8 2.5 6.6a8 8 0 0 0 5.9 2.4h.4a8 8 0 0 0 6.1-3l.3-.3a3.4 3.4 0 0 0 3.5 2.6h.2a3.5 3.5 0 0 0 3.5-3.9v-1a8 8 0 0 0 4.7-1.8 6.4 6.4 0 0 0 2.2-5.3 6 6 0 0 0-2.7-5.2c-1.4-.8-3-1.2-4.6-1.1h-3.2l-1.2.1a3.2 3.2 0 0 0-2.3 1 3 3 0 0 0-.8 1.7l-.2-.2a8 8 0 0 0-5.8-2.3h-.5c-1.9 0-3.7.7-5.2 1.9a3.2 3.2 0 0 0-2.7-1.3h-.2l-4.1.2-4.1.2a3.2 3.2 0 0 0-3.3 3.5 3.2 3.2 0 0 0 3.4 3.3ZM47 35c-.1-.7 0-1.5.3-2.1a.6.6 0 0 1 .6-.3.6.6 0 0 1 .6.3c.4.6.6 1.3.5 2a4 4 0 0 1-.3 2.1c-.2.4-.4.4-.6.4-.2 0-.3 0-.5-.3A4 4 0 0 1 47 35Z" fill="#3E3A39"/>
    <path d="M28.5 114.4a1 1 0 0 1-1-.8l-.7-3.3-1.4-6.9-.7-3-5.2-24.6-.1-1.8v-.5a1 1 0 0 1 .2-.9 1 1 0 0 1 .8-.3h.4l.3.2c1 .4 2 .6 3 .6l1.4-.1 6.6-.6 3-.2a1 1 0 0 1 1 .8l3.5 14.3 3.8-15a1 1 0 0 1 1-.7l13.1-1h.1a1 1 0 0 1 1 .6l.1.4.6 1.4 1.8 7.4 1.3 5.2 3.8-15a1 1 0 0 1 .9-.8l15-1.2a1 1 0 0 1 1 .8v.4l-.6 2.7-1.2 5.6a5289.9 5289.9 0 0 0-5.7 25.2c-1.1 5.1-3.9 7.6-8.8 8l-7.4.6-4.8.4h-.1a1 1 0 0 1-1-.7c-.8-2.8-1.4-5.7-2-8.7l-.6-3-.6 2.6-.5 2.5-.2.8a9 9 0 0 1-8.4 7.6l-8.7.6-3.9.4Z" fill="#fff"/>
    <path d="M82 69.6 80.3 78l-5.7 25c-1 4.7-3.4 6.9-8 7.3l-10.7.8-1.5.1c-1.4-5-2.1-10.1-3.5-15.7l-1.7 6.7-.6 3.3a8 8 0 0 1-7.5 6.8c-4.1.2-8.3.6-12.6 1a4903.9 4903.9 0 0 1-8-37.8c-.1-.7-.2-1.5-.1-2.2a9 9 0 0 0 3.6.8l1.5-.1 9.5-.8 4.3 17.5h.4l4.6-18 13.2-1 .7 1.5 3.5 14.3.8 1.7L67 71l15-1.2v-.2Zm-61.6 3.8ZM82 67.8h-.2l-8 .6-7 .6a2 2 0 0 0-1.7 1.5L62.7 80l-.4 1.6-.4-1.3a1638.9 1638.9 0 0 0-2.4-9.1l-.2-.3a2 2 0 0 0-1.8-1.2h-.2l-6.2.5-7 .5a2 2 0 0 0-1.7 1.5l-2.9 11L37 73a2 2 0 0 0-2-1.5l-3 .2-6.6.6H24c-.8 0-1.6 0-2.4-.3a2 2 0 0 0-2-.3 2 2 0 0 0-1.2 2.2v2.3l5.2 24.4.7 3.2 1.5 7 .7 3.2a2 2 0 0 0 2 1.6h.1l4-.3 8.6-.7a9.9 9.9 0 0 0 9.3-8.4l.2-.8v-.5c.6 2.5 1 4.9 1.8 7.2a2 2 0 0 0 1.9 1.5h.1l1.6-.2 3.2-.2 7.4-.6c5.4-.5 8.5-3.3 9.8-8.8a4315.8 4315.8 0 0 1 7.5-34 2 2 0 0 0-2-2v.1Z" fill="#3E3A39"/>
    <path d="M37.3 69a11 11 0 1 1 0-22 11 11 0 0 1 0 22Zm-3.1-15.3c-1.4 0-2.5 1.4-2.5 3.1 0 1.8 1.1 3.2 2.5 3.2 1.3 0 2.4-1.4 2.4-3.2 0-1.7-1.1-3.1-2.4-3.1Z" fill="#fff"/>
    <path d="M37.3 48a10 10 0 0 1 7 17.1 10 10 0 1 1-7-17Zm-3.1 13c1.9 0 3.4-1.9 3.4-4.2 0-2.3-1.5-4.1-3.4-4.1-2 0-3.5 1.8-3.5 4.1s1.6 4.2 3.5 4.2Zm3.1-15a12 12 0 1 0 0 24 12 12 0 0 0 0-24Zm-3.1 13c-.7 0-1.5-.9-1.5-2.2 0-1.2.8-2.1 1.5-2.1.6 0 1.4.9 1.4 2.1 0 1.3-.8 2.2-1.4 2.2Z" fill="#3E3A39"/>
    <path d="M62.5 67.8a11 11 0 1 1 0-22 11 11 0 0 1 0 22Zm-3.1-15.3c-1.4 0-2.5 1.4-2.5 3.1 0 1.8 1.1 3.2 2.5 3.2 1.3 0 2.4-1.4 2.4-3.2 0-1.7-1.1-3.1-2.4-3.1Z" fill="#fff"/>
    <path d="M62.5 46.9a10 10 0 0 1 10 10 10 10 0 1 1-10-10Zm-3.1 12.9c1.9 0 3.4-1.9 3.4-4.2 0-2.3-1.6-4.1-3.4-4.1-2 0-3.5 1.8-3.5 4.1s1.6 4.2 3.5 4.2Zm3.1-15a12 12 0 1 0 0 24 12 12 0 0 0 0-24Zm-3.1 13c-.7 0-1.5-1-1.5-2.2 0-1.2.8-2.1 1.5-2.1.6 0 1.4.9 1.4 2.1 0 1.3-.8 2.2-1.4 2.2Z" fill="#3E3A39"/>
    <path d="M19.9 69.8a1 1 0 0 1-1-.5l-17.8-35a1 1 0 0 1 .5-1.4l7.9-3.7a1 1 0 0 1 1.3.5L26.1 66a1 1 0 0 1-.5 1.3l-5.3 2.4-.4.1Z" fill="#59D4EF"/>
    <path d="m9.9 30 15.2 36.4-5.2 2.4L2 33.8 9.9 30Zm0-2a2 2 0 0 0-.9.3l-7.8 3.6a2 2 0 0 0-1 2.8l17.9 35a2 2 0 0 0 2.6 1l5.3-2.5a2 2 0 0 0 1-2.6L11.7 29.3a2 2 0 0 0-1.8-1.2Z" fill="#3E3A39"/>
    <path d="M83.5 64.5h-.2l-5.7-1.3a1 1 0 0 1-.8-1.1L86.4 11a1 1 0 0 1 .5-.7l.5-.1h.2l8.5 1.8a1 1 0 0 1 .8 1.2L84.5 63.7a1 1 0 0 1-1 .8Z" fill="#59D4EF"/>
    <path d="M87.4 11.2 96 13 83.5 63.5l-5.7-1.3 9.6-51Zm0-2a2 2 0 0 0-2 1.6l-9.5 51a2 2 0 0 0 1.5 2.4l5.7 1.2h.4a2 2 0 0 0 2-1.5l12.4-50.4a2 2 0 0 0-1.5-2.5l-8.6-1.8a2 2 0 0 0-.4 0Z" fill="#3E3A39"/>
    <path d="M37.2 18a2.5 2.5 0 0 1-2.6-2.5l-.4-8.7h-1.6a2.2 2.2 0 0 1-2.3-2.2c0-.7.1-1.3.6-1.8a2.4 2.4 0 0 1 1.7-.7l8.3-.4h.1A2.2 2.2 0 0 1 43.4 4 2.2 2.2 0 0 1 41 6.5h-1.5l.4 8.7a2.5 2.5 0 0 1-2.5 2.8h-.3Z" fill="#59D4EF"/>
    <path d="M41 2.6A1.2 1.2 0 0 1 42.4 4 1.3 1.3 0 0 1 41 5.5h-2.4l.4 9.7a1.5 1.5 0 0 1-1.6 1.8h-.2a1.5 1.5 0 0 1-1.6-1.6L35 5.7l-2.4.1h-.1a1.2 1.2 0 0 1-1.3-1.3A1.2 1.2 0 0 1 32.6 3l4.1-.2 4.2-.2h.1Zm0-2h-.2l-4.2.2-4.1.2a3.2 3.2 0 0 0-3.2 3.6 3.2 3.2 0 0 0 3.3 3.2h.6l.4 7.7a3.5 3.5 0 0 0 3.6 3.5h.3a3.5 3.5 0 0 0 3.5-3.8l-.4-7.7h.5A3.2 3.2 0 0 0 44.3 4 3.2 3.2 0 0 0 41 .7Z" fill="#3E3A39"/>
    <path d="M51.2 17.7a6.9 6.9 0 0 1-5.1-2 8.9 8.9 0 0 1-2.3-6c-.2-2.3.4-4.5 1.7-6.2A7 7 0 0 1 51 1h.4a7 7 0 0 1 5.1 2 8.7 8.7 0 0 1 2.4 6 9 9 0 0 1-1.8 6.2 7 7 0 0 1-5.4 2.6h-.4Zm0-11.8a1.5 1.5 0 0 0-1.4.8c-.5.8-.6 1.8-.5 2.7 0 1 .2 1.9.7 2.7a1.5 1.5 0 0 0 1.3.7 1.6 1.6 0 0 0 1.5-.9 5 5 0 0 0 .5-2.7 4 4 0 0 0-.8-2.6 1.5 1.5 0 0 0-1.3-.7Z" fill="#59D4EF"/>
    <path d="M51.4 2a6 6 0 0 1 4.4 1.7c1.3 1.4 2 3.3 2 5.3.1 2-.4 3.9-1.6 5.5a6 6 0 0 1-4.6 2.2h-.4a6 6 0 0 1-4.4-1.8 7.8 7.8 0 0 1-2-5.4c-.2-2 .4-3.9 1.6-5.4A6.1 6.1 0 0 1 51 1.9h.4V2Zm0 11.7h.1a2.5 2.5 0 0 0 2.2-1.3c.5-1 .8-2.1.6-3.3 0-1.1-.3-2.2-1-3.2a2.5 2.5 0 0 0-2-1H51A2.5 2.5 0 0 0 48.9 6c-.5 1-.8 2.2-.6 3.3 0 1.1.3 2.3 1 3.2a2.5 2.5 0 0 0 2 1.1Zm0-13.7h-.5a8 8 0 0 0-6 2.8 9.7 9.7 0 0 0-2 6.8c0 2.5.9 4.9 2.5 6.7a7.9 7.9 0 0 0 5.9 2.4h.5a8 8 0 0 0 6-3c1.5-2 2.3-4.4 2-6.9 0-2.5-.9-4.8-2.6-6.6a8 8 0 0 0-5.8-2.3Zm0 11.7c-.2 0-.3 0-.5-.3a4 4 0 0 1-.6-2.1c0-.7 0-1.5.4-2.1a.6.6 0 0 1 .5-.3.6.6 0 0 1 .6.3c.4.6.6 1.3.6 2a4 4 0 0 1-.4 2.1c-.2.4-.3.4-.6.4Z" fill="#3E3A39"/>
    <path d="M34.2 41.7a2.5 2.5 0 0 1-2.7-2.6l-.4-8.7h-1.6a2.2 2.2 0 0 1-2.3-2.2 2.2 2.2 0 0 1 2.3-2.5l8.3-.4h.1a2.2 2.2 0 0 1 2.4 2.3 2.4 2.4 0 0 1-.6 1.8 2.4 2.4 0 0 1-1.7.7h-1.5l.4 8.7a2.7 2.7 0 0 1-.6 2 2.7 2.7 0 0 1-2 .8h-.1Z" fill="#59D4EF"/>
    <path d="M38 26.3a1.2 1.2 0 0 1 1.3 1.3 1.2 1.2 0 0 1-1.4 1.5l-2.4.1.4 9.7a1.5 1.5 0 0 1-1.6 1.8h-.1a1.5 1.5 0 0 1-1.7-1.7l-.4-9.6h-2.6a1.2 1.2 0 0 1-1.3-1.3 1.3 1.3 0 0 1 1.3-1.4l4.2-.2 4.1-.2h.1Zm0-2h-.3l-4.1.2-4.2.2a3.2 3.2 0 0 0-3.2 3.5 3.2 3.2 0 0 0 3.3 3.3h.7l.3 7.6a3.5 3.5 0 0 0 3.7 3.6h.2a3.5 3.5 0 0 0 3.5-3.9l-.3-7.6h.4a3.2 3.2 0 0 0 3.3-3.6 3.2 3.2 0 0 0-3.4-3.3Z" fill="#3E3A39"/>
    <path d="M46.2 41.4a6.9 6.9 0 0 1-5.2-2.1 8.9 8.9 0 0 1-2.3-6c-.2-2.2.4-4.4 1.8-6.2a7.1 7.1 0 0 1 5.3-2.4h.5a7 7 0 0 1 5 2 8.7 8.7 0 0 1 2.4 6c.2 2.2-.4 4.4-1.8 6.2a7 7 0 0 1-5.3 2.5h-.4ZM46 29.6a1.5 1.5 0 0 0-1.3.8c-.4.8-.6 1.7-.5 2.6 0 1 .2 2 .7 2.7a1.5 1.5 0 0 0 1.3.8 1.6 1.6 0 0 0 1.5-.9 5 5 0 0 0 .5-2.7c0-1-.2-1.9-.7-2.6a1.6 1.6 0 0 0-1.4-.7Z" fill="#59D4EF"/>
    <path d="M46.2 25.6a6 6 0 0 1 4.4 1.7c1.3 1.5 2 3.4 2 5.3.2 2-.3 4-1.5 5.6a6 6 0 0 1-4.6 2.2H46a6 6 0 0 1-4.4-1.8 8 8 0 0 1-2-5.4c-.2-2 .3-3.9 1.5-5.5a6.1 6.1 0 0 1 4.6-2h.4Zm0 11.8h.2a2.5 2.5 0 0 0 2.1-1.3c.6-1 .8-2.1.7-3.3 0-1.1-.3-2.2-1-3.2a2.6 2.6 0 0 0-2-1H46a2.5 2.5 0 0 0-2.2 1.2c-.5 1-.8 2.2-.7 3.3a6 6 0 0 0 1 3.2 2.5 2.5 0 0 0 2.1 1.2Zm0-13.7h-.5a8 8 0 0 0-6 2.8 9.7 9.7 0 0 0-2 6.8c0 2.5 1 5 2.6 6.7a7.9 7.9 0 0 0 5.8 2.4h.5a8 8 0 0 0 6.1-3 9.8 9.8 0 0 0 2-6.8c0-2.5-1-4.8-2.6-6.6a8 8 0 0 0-5.8-2.3Zm0 11.8c-.2 0-.3 0-.5-.3a4 4 0 0 1-.6-2.2c0-.7 0-1.4.4-2a.6.6 0 0 1 .5-.4h.1a.6.6 0 0 1 .5.3c.4.6.6 1.3.6 2s0 1.5-.4 2.1c-.2.4-.3.4-.5.4Z" fill="#3E3A39"/>
    <path d="M56.5 40.6a2.5 2.5 0 0 1-2.7-2.5l-.5-11.3a2.2 2.2 0 0 1 1.3-2.1l.8-.2 3.8-.2h.6a8 8 0 0 1 4 1 5 5 0 0 1 2.3 4.4 5.4 5.4 0 0 1-1.9 4.5 7.3 7.3 0 0 1-4.4 1.6H59l.1 2a2.5 2.5 0 0 1-2.6 2.8h-.1Zm2.4-9.5h.5c.4 0 .8 0 1.2-.3 0 0 .2-.3.2-1 0-.6-.2-.6-.3-.6l-1-.2H59v2.1Z" fill="#59D4EF"/>
    <path d="M59.8 25.3c1.2 0 2.4.2 3.5.8a4 4 0 0 1 1.8 3.6 4.4 4.4 0 0 1-1.5 3.7 6.2 6.2 0 0 1-3.9 1.4h-1.6l.1 3a1.5 1.5 0 0 1-1.6 1.8h-.2a1.5 1.5 0 0 1-1.6-1.6l-.5-11.2a1.2 1.2 0 0 1 .3-1 1.2 1.2 0 0 1 .9-.3h1.2l2.5-.1h.6v-.1Zm-1.8 7 1.4-.1c1.7-.1 2.5-.9 2.4-2.3a1.8 1.8 0 0 0-.7-1.5 3 3 0 0 0-1.6-.3h-1.7v2l.2 2v.1Zm1.8-9H59l-2.5.1h-1.2a3.2 3.2 0 0 0-2.3 1 3.2 3.2 0 0 0-.8 2.4l.5 11.3a3.5 3.5 0 0 0 3.6 3.5h.3a3.5 3.5 0 0 0 3.5-3.9v-1c1.7 0 3.4-.7 4.7-1.8a6.4 6.4 0 0 0 2.2-5.3 6 6 0 0 0-2.8-5.2 8 8 0 0 0-4.5-1.1Z" fill="#3E3A39"/>
  </g>
  <defs>
    <clipPath id="a">
      <path fill="#fff" d="M0 0h99.9v117.5H0z"/>
    </clipPath>
  </defs>
</svg>